<svg xmlns="http://www.w3.org/2000/svg" xmlns:xlink="http://www.w3.org/1999/xlink" width="190" height="196" viewBox="0 0 190 196">
  <defs>
    <clipPath id="clip-path">
      <rect id="Rectángulo_417103" data-name="Rectángulo 417103" width="190" height="196" transform="translate(600 253)" fill="#fff" stroke="#707070" stroke-width="1"/>
    </clipPath>
  </defs>
  <g id="Enmascarar_grupo_1098897" data-name="Enmascarar grupo 1098897" transform="translate(-600 -253)" clip-path="url(#clip-path)">
    <g id="Grupo_1205229" data-name="Grupo 1205229">
      <circle id="Elipse_12711" data-name="Elipse 12711" cx="76" cy="76" r="76" transform="translate(611 285)" fill="#fdfdff" opacity="0.62"/>
      <g id="eco_11191722" transform="translate(607.131 260.521)">
        <g id="Grupo_1205163" data-name="Grupo 1205163" transform="translate(2.935 1.72)">
          <circle id="Elipse_12708" data-name="Elipse 12708" cx="18.876" cy="18.876" r="18.876" fill="#fe515e"/>
        </g>
        <g id="Grupo_1205164" data-name="Grupo 1205164" transform="translate(10.074 8.859)">
          <circle id="Elipse_12709" data-name="Elipse 12709" cx="11.737" cy="11.737" r="11.737" fill="#fff"/>
        </g>
        <g id="Grupo_1205165" data-name="Grupo 1205165" transform="translate(2.25 2.016)">
          <path id="Trazado_1045099" data-name="Trazado 1045099" d="M21.782,39.964A19.558,19.558,0,0,1,4.791,10.751a19.885,19.885,0,0,1,5-5.8.709.709,0,0,1,.971.114.66.66,0,0,1-.114.971,17.891,17.891,0,0,0-4.626,5.4A18.184,18.184,0,1,0,30.805,4.583a20.008,20.008,0,0,0-3.084-1.4.669.669,0,0,1-.428-.885.669.669,0,0,1,.885-.428,20.241,20.241,0,0,1,3.313,1.485,19.583,19.583,0,0,1-9.709,36.609Z" transform="translate(-2.25 -1.824)"/>
        </g>
        <g id="Grupo_1205166" data-name="Grupo 1205166" transform="translate(9.627 8.15)">
          <path id="Trazado_1045100" data-name="Trazado 1045100" d="M17.017,28.839a12.246,12.246,0,0,1-6.111-1.628A13.077,13.077,0,0,1,8.335,25.3a.707.707,0,0,1,1-1,11.376,11.376,0,0,0,2.284,1.713,11.023,11.023,0,0,0,15.02-4.169,10.859,10.859,0,0,0,1.028-8.367,11.032,11.032,0,0,0-5.2-6.654A11.023,11.023,0,0,0,7.45,10.992a11.247,11.247,0,0,0-1.228,3.255.712.712,0,0,1-.828.514.661.661,0,0,1-.543-.828,12.047,12.047,0,0,1,1.371-3.655A12.443,12.443,0,1,1,20.358,28.411a13.576,13.576,0,0,1-3.341.428Z" transform="translate(-4.834 -3.972)"/>
        </g>
        <g id="Grupo_1205167" data-name="Grupo 1205167" transform="translate(57.02 77.593)">
          <path id="Trazado_1045101" data-name="Trazado 1045101" d="M124.06,79.605a51.326,51.326,0,0,1-94.635,27.5H29.4a50.948,50.948,0,0,1-7.939-25.5c-.029-.657-.029-1.314-.029-2a51.309,51.309,0,0,1,94.349-27.956,51.792,51.792,0,0,1,8.281,27.956Z" transform="translate(-21.43 -28.29)" fill="#509dff"/>
        </g>
        <g id="Grupo_1205168" data-name="Grupo 1205168" transform="translate(57.048 130.517)">
          <path id="Trazado_1045102" data-name="Trazado 1045102" d="M35.261,71a8.556,8.556,0,0,1-5.854,1.713h-.029a50.948,50.948,0,0,1-7.939-25.5,3.785,3.785,0,0,1,3.284-.029,4.882,4.882,0,0,1,2.17,3.855,24.179,24.179,0,0,0,.657,4.54c.514,1.456,1.828,2.8,3.341,2.627a7.737,7.737,0,0,0,2.17-.828,2.365,2.365,0,0,1,2.227,0c.971.657.714,2.17.2,3.227s-1.228,2.227-.828,3.341c.343.942,1.428,1.456,1.97,2.313,1,1.542.029,3.627-1.371,4.74Z" transform="translate(-21.44 -46.823)" fill="#308cef"/>
        </g>
        <g id="Grupo_1205169" data-name="Grupo 1205169" transform="translate(56.472 124.255)">
          <path id="Trazado_1045103" data-name="Trazado 1045103" d="M35.264,79.211H35.15a18.866,18.866,0,0,1-5-.885.687.687,0,1,1,.4-1.314,17.625,17.625,0,0,0,4.6.828h.114A8.176,8.176,0,0,0,40.29,76.27,4.96,4.96,0,0,0,42.118,71.7a11.253,11.253,0,0,0-.571-1.742c-.485-1.228-1.057-2.627-.457-4.026a5.559,5.559,0,0,1,2.027-2.113,7.091,7.091,0,0,0,1.2-.971,3.024,3.024,0,0,0,.428-3.2,2.951,2.951,0,0,0-2.8-1.571,6.688,6.688,0,0,0-2.627,1.085c-.228.143-.457.257-.685.4-1.742.971-3.227,1.171-4.4.628-1.913-.857-2.342-3.255-2.085-5.054.086-.571.2-1.171.343-1.742a10.149,10.149,0,0,0,.371-3,5.244,5.244,0,0,0-4.426-4.312,7.66,7.66,0,0,0-6.054,1.97.688.688,0,1,1-.914-1.028,9.067,9.067,0,0,1,7.2-2.313,6.6,6.6,0,0,1,5.6,5.54,10.722,10.722,0,0,1-.4,3.455,16.345,16.345,0,0,0-.314,1.628c-.2,1.428.143,3.084,1.285,3.6.771.371,1.828.171,3.141-.571.228-.114.457-.257.657-.371a7.567,7.567,0,0,1,3.227-1.256,4.246,4.246,0,0,1,3.512,7.082,9.354,9.354,0,0,1-1.428,1.2A4.13,4.13,0,0,0,42.4,66.532c-.371.857.029,1.828.457,2.941a11.4,11.4,0,0,1,.657,1.97,6.292,6.292,0,0,1-2.313,5.94,10.117,10.117,0,0,1-5.94,1.828Z" transform="translate(-21.238 -44.63)" fill="#308cef"/>
        </g>
        <g id="Grupo_1205170" data-name="Grupo 1205170" transform="translate(101.373 78.593)">
          <path id="Trazado_1045104" data-name="Trazado 1045104" d="M86.986,51a7.919,7.919,0,0,1-1.942,2.313,6.513,6.513,0,0,1-6.568.914c-5.483-2.4-1.314-9.823-6.054-11.965a3.04,3.04,0,0,0-2.541.086C67.4,43.6,66.968,46.488,69.2,48.229c1.2,1,1.856.771,1.142,2.6-.485,1.228-1.513,2.2-1.942,3.455a6.4,6.4,0,0,0,.742,5.968c1.028,1.285,2.656,1.942,3.8,3.141,3,3.17,1.256,7.11-2.97,6.625-2.827-.314-6.682-1.942-8.453,1.228-.857,1.571-1.285,3.484-2,5.14-1.485,3.484-4.455,3.255-7.91,2.227a6.013,6.013,0,0,1-3.141-1.942c-2.684-3.6,4.141-6.368,2.627-10.623-.514-1.428-1.742-2.484-2.684-3.684a9.493,9.493,0,0,1-1.742-3.912c-.171-.742.228-3.113-.114-3.6-1.085-1.513-4,.771-5.283.885-5.8.514-5.454-6.454-.685-7.853,1-.286,2.056-.4,3.056-.771A2.843,2.843,0,0,0,45.58,44.86c.114-1.2-.885-2.2-1.8-3-.885-.8-1.828-1.828-1.685-3a1.866,1.866,0,0,1,.4-.828c2.913-3.284,6.054,1.856,8.938.2,2.2-1.256,1.4-3.4.8-5.34-.828-2.541.029-3.255,1.828-4.255A51.434,51.434,0,0,1,86.986,51Z" transform="translate(-36.962 -28.64)" fill="#d3dc5e"/>
        </g>
        <g id="Grupo_1205171" data-name="Grupo 1205171" transform="translate(65.516 102.408)">
          <path id="Trazado_1045105" data-name="Trazado 1045105" d="M39.211,41.321c.286.885.086,1.97.714,2.684a2.022,2.022,0,0,0,2.913-.343,6.566,6.566,0,0,0,1.085-3.113,5.143,5.143,0,0,1,1.314-3,2.739,2.739,0,0,1,3.855.514c1.513,2.256-.942,5.654.6,7.853,1.456,2.056,5.454,1.513,6.168,3.941.485,1.713-1.2,3.2-1.885,4.826-1.742,4.055,2.856,8.567,1.8,12.85a5.148,5.148,0,0,1-3.141,3.541,5.293,5.293,0,0,1-4.712-.571c-1.628-1.114-2.456-3.084-3.827-4.483a7.7,7.7,0,0,0-7.6-1.942,22.533,22.533,0,0,1-2.97.971,2.607,2.607,0,0,1-2.741-1.057c-.971-1.856,1.713-3.855,1.371-5.911-.2-1.256-1.485-2.085-2.713-2.456a14.392,14.392,0,0,1-3.655-1.171C24.7,53.772,23.962,52.229,24.7,51.2c.771-1.057,2.37-.885,3.655-.514,5.4,1.485,3.712-3.341,4.912-6.682.428-1.228,1.285-3.4,2.427-4.026a2.593,2.593,0,0,1,3.512,1.342Z" transform="translate(-24.405 -36.98)" fill="#d3dc5e"/>
        </g>
        <g id="Grupo_1205172" data-name="Grupo 1205172" transform="translate(81.109 135.099)">
          <path id="Trazado_1045106" data-name="Trazado 1045106" d="M82.421,85.986a2.068,2.068,0,0,1,.343.657A51.331,51.331,0,0,1,40.158,90.7a2.2,2.2,0,0,0,.057-.428,7.743,7.743,0,0,0-2.627-6.054,26.6,26.6,0,0,0-4.255-2.541,7.713,7.713,0,0,1-.885-.571,5.749,5.749,0,0,1-2.427-2.97c-.514-1.571.286-3.627,1.913-3.941,2.856-.6,4.6,4.084,7.51,3.855a3.335,3.335,0,0,0,2.741-2.77,10.323,10.323,0,0,0-.286-4.169l-1.8-8.367c.371-2.113,2.856-3.427,4.94-2.941A6.184,6.184,0,0,1,49.3,64.2c1.571-3.227,3.17-6.482,4.74-9.709a21.078,21.078,0,0,1,1.656-2.941,7.278,7.278,0,0,1,5.369-3.113A4.93,4.93,0,0,1,66,51.718a12.34,12.34,0,0,1,0,3.969,4.1,4.1,0,0,0,1.285,3.6c1.256.885,2.97.428,4.483.228,1.542-.2,3.541.257,3.769,1.8a1.84,1.84,0,0,1-.228,1.228,25.058,25.058,0,0,0-1.628,2.627,3.892,3.892,0,0,0,1.485,4.084,15.025,15.025,0,0,0,4.141,2,8.1,8.1,0,0,1,3.8,2.513c-1.856,1.256-3.712,2.484-5.54,3.741a4.311,4.311,0,0,0-2.17,2.541c-.286,1.628,1.314,2.941,2.856,3.541,1.456.657,3.227,1.057,4.169,2.4Z" transform="translate(-29.866 -48.428)" fill="#d3dc5e"/>
        </g>
        <g id="Grupo_1205173" data-name="Grupo 1205173" transform="translate(124.739 109.862)">
          <path id="Trazado_1045107" data-name="Trazado 1045107" d="M80.056,58.637a51.229,51.229,0,0,1-25.615,44.4,2.877,2.877,0,0,0-.343-.657c-.942-1.342-2.713-1.742-4.226-2.37-1.513-.6-3.113-1.942-2.856-3.541a4.394,4.394,0,0,1,2.17-2.541c1.828-1.256,3.684-2.484,5.54-3.741a8.1,8.1,0,0,0-3.8-2.513,15.427,15.427,0,0,1-4.141-2A3.892,3.892,0,0,1,45.3,81.6c.343-.942,1.2-1.742,1.628-2.627a8.363,8.363,0,0,0,4.4-1.2c3.969-2.427,4.712-7.767,5-12.422.286-4.626.828-9.938,4.6-12.622,2.684-1.913,6.311-1.885,9.252-3.427,3.541-1.828,5.6-5.74,6.168-9.709a49.869,49.869,0,0,1,3.712,19.047Z" transform="translate(-45.144 -39.59)" fill="#308cef"/>
        </g>
        <g id="Grupo_1205174" data-name="Grupo 1205174" transform="translate(69.899 162.89)">
          <path id="Trazado_1045108" data-name="Trazado 1045108" d="M47.528,72.21a2.2,2.2,0,0,1-.057.428A51.155,51.155,0,0,1,25.94,58.16a37.031,37.031,0,0,0,8.567,3.969,22.8,22.8,0,0,0,5.226.942c.286.2.6.4.885.571a26.6,26.6,0,0,1,4.255,2.541A7.5,7.5,0,0,1,47.528,72.21Z" transform="translate(-25.94 -58.16)" fill="#308cef"/>
        </g>
        <g id="Grupo_1205175" data-name="Grupo 1205175" transform="translate(83.691 147.462)">
          <path id="Trazado_1045109" data-name="Trazado 1045109" d="M80.743,77.952a2.068,2.068,0,0,1,.343.657A51.331,51.331,0,0,1,38.48,82.663a2.2,2.2,0,0,0,.057-.428,7.743,7.743,0,0,0-2.627-6.054,26.6,26.6,0,0,0-4.255-2.541,7.711,7.711,0,0,1-.885-.571c4.826.343,9.766-.885,13.25-4.169C49.1,64.073,50.845,55.45,57.5,53.251c5.083-1.656,10.966,1.4,16.134,1.256A25.058,25.058,0,0,0,72,57.134a3.892,3.892,0,0,0,1.485,4.084,15.025,15.025,0,0,0,4.141,2,8.1,8.1,0,0,1,3.8,2.513c-1.856,1.256-3.712,2.484-5.54,3.741a4.311,4.311,0,0,0-2.17,2.541c-.286,1.628,1.314,2.941,2.856,3.541,1.456.657,3.227,1.057,4.169,2.4Z" transform="translate(-30.77 -52.757)" fill="#c6c945"/>
        </g>
        <g id="Grupo_1205176" data-name="Grupo 1205176" transform="translate(56.334 76.88)">
          <path id="Trazado_1045110" data-name="Trazado 1045110" d="M65.709,131.527h-.114A52.024,52.024,0,0,1,73.219,28.04a52.044,52.044,0,0,1,48.288,32.7,51.815,51.815,0,0,1,3.712,19.3,51.04,51.04,0,0,1-.371,6.254.683.683,0,0,1-.771.6.7.7,0,0,1-.6-.771,53.916,53.916,0,0,0,.371-6.082,50.774,50.774,0,0,0-3.6-18.79A50.478,50.478,0,0,0,83.3,30.41a51.871,51.871,0,0,0-10.023-1,50.618,50.618,0,0,0-16.705,98.4,49.513,49.513,0,0,0,9.281,2.284.71.71,0,0,1,.6.8A.811.811,0,0,1,65.709,131.527Z" transform="translate(-21.19 -28.04)"/>
        </g>
        <g id="Grupo_1205177" data-name="Grupo 1205177" transform="translate(60 57.804)">
          <path id="Trazado_1045111" data-name="Trazado 1045111" d="M42.424,41.178v.029c.143,3.969-1.77,9.224-5.654,10.737-3.455,1.371-9.538-1.057-11.851-3.655-2.056-2.313-2.627-5.626-2.4-8.71a19.986,19.986,0,0,1,.314-2.284v-.029c.428-2.256,1.114-4.512,1.656-6.739.714-3,1.171-6.2.343-9.166,3.941,2.2,7.91,4.426,11.223,7.51,3.312,3.055,5.911,7.139,6.339,11.622A5.5,5.5,0,0,1,42.424,41.178Z" transform="translate(-22.473 -21.36)" fill="#d3dc5e"/>
        </g>
        <g id="Grupo_1205178" data-name="Grupo 1205178" transform="translate(60 73.738)">
          <path id="Trazado_1045112" data-name="Trazado 1045112" d="M42.424,30.852c.143,3.969-1.77,9.224-5.654,10.737-3.455,1.371-9.538-1.057-11.851-3.655-2.056-2.313-2.627-5.626-2.4-8.71a19.986,19.986,0,0,1,.314-2.284,18.766,18.766,0,0,0,1.228,5.026A2.7,2.7,0,0,0,25.6,33.793c1.2.343,2.313-1,3.6-1.028a3.13,3.13,0,0,1,2.027.942A8.589,8.589,0,0,0,33,35.164a1.992,1.992,0,0,0,2.17-.029,3.532,3.532,0,0,0,.771-1.4,1.649,1.649,0,0,1,1.085-1.085,2.578,2.578,0,0,1,1.342.371,2.979,2.979,0,0,0,4.055-2.17Z" transform="translate(-22.473 -26.94)" fill="#c6c945"/>
        </g>
        <g id="Grupo_1205179" data-name="Grupo 1205179" transform="translate(76.481 84.39)">
          <path id="Trazado_1045113" data-name="Trazado 1045113" d="M39.767,39.351a27.032,27.032,0,0,1-.114,3.4c-.228,2.256-.885,4.626-2.627,6.054a5.377,5.377,0,0,1-5.369.857,5.5,5.5,0,0,1-3.227-6.682,7.09,7.09,0,0,1,1.713-3.227c1.4-1.485,3.2-2.57,4.74-3.912a7.805,7.805,0,0,0,3.027-5.169,25.817,25.817,0,0,1,1.856,8.681Z" transform="translate(-28.245 -30.67)" fill="#d3dc5e"/>
        </g>
        <g id="Grupo_1205180" data-name="Grupo 1205180" transform="translate(76.481 93.071)">
          <path id="Trazado_1045114" data-name="Trazado 1045114" d="M39.767,33.71a27.032,27.032,0,0,1-.114,3.4c-.228,2.256-.885,4.626-2.627,6.054a5.377,5.377,0,0,1-5.369.857,5.5,5.5,0,0,1-3.227-6.682,4.9,4.9,0,0,0,.885,1.713,1.944,1.944,0,0,0,2.313.6c.942-.514,1.2-2,2.256-2.17a2.752,2.752,0,0,1,1.513.457,1.628,1.628,0,0,0,1.513.2,1.371,1.371,0,0,0,.571-1.256,3.538,3.538,0,0,1,.2-1.456c.314-.685,1.114-1,1.742-1.428A3.026,3.026,0,0,1,39.767,33.71Z" transform="translate(-28.245 -33.71)" fill="#c6c945"/>
        </g>
        <g id="Grupo_1205181" data-name="Grupo 1205181" transform="translate(56.906 92.962)">
          <path id="Trazado_1045115" data-name="Trazado 1045115" d="M40.408,40.834a5.537,5.537,0,0,1-3.855,3.827,6.44,6.44,0,0,1-3.6-.2A12.856,12.856,0,0,1,30.1,43.176a25.017,25.017,0,0,1-8.71-8.567c1.713,1.142,3.969,1.085,5.968.628a60.853,60.853,0,0,1,5.968-1.513,6.787,6.787,0,0,1,3.969.714,5.508,5.508,0,0,1,3.113,6.4Z" transform="translate(-21.39 -33.672)" fill="#d3dc5e"/>
        </g>
        <g id="Grupo_1205182" data-name="Grupo 1205182" transform="translate(68.471 93.728)">
          <path id="Trazado_1045116" data-name="Trazado 1045116" d="M32.893,40.337a5.537,5.537,0,0,1-3.855,3.827,6.44,6.44,0,0,1-3.6-.2,1.014,1.014,0,0,0,.286-.057,2.385,2.385,0,0,0,1.628-1.885c.029-.628-.228-1.342.171-1.828.514-.657,1.8-.343,2.2-1.057a1.339,1.339,0,0,0-.228-1.428,2.875,2.875,0,0,1-.685-1.342c-.057-.657.457-1.228.771-1.828a4.92,4.92,0,0,0,.2-.6,5.508,5.508,0,0,1,3.113,6.4Z" transform="translate(-25.44 -33.94)" fill="#c6c945"/>
        </g>
        <g id="Grupo_1205183" data-name="Grupo 1205183" transform="translate(69.92 77.586)">
          <path id="Trazado_1045117" data-name="Trazado 1045117" d="M38.405,61.734a.658.658,0,0,1-.571-.314A75.923,75.923,0,0,1,25.955,29.066a.683.683,0,0,1,.6-.771.668.668,0,0,1,.771.6A74.633,74.633,0,0,0,38.976,60.649a.727.727,0,0,1-.2.971A.527.527,0,0,1,38.405,61.734Z" transform="translate(-25.947 -28.287)" fill="#b2b234"/>
        </g>
        <g id="Grupo_1205184" data-name="Grupo 1205184" transform="translate(154.779 78.593)">
          <path id="Trazado_1045118" data-name="Trazado 1045118" d="M73.186,55.568c-2.313,2.6-8.4,5-11.851,3.627-3.056-1.2-4.883-4.655-5.454-8,0-.029,0-.029-.029-.029a13.894,13.894,0,0,1-.143-3.4c.428-4.483,3.027-8.567,6.339-11.622,3.284-3.084,7.282-5.311,11.223-7.51a18.176,18.176,0,0,0,.343,9.166c.514,2.113,1.142,4.2,1.542,6.311a18.135,18.135,0,0,1,.4,2.741C75.842,49.943,75.271,53.255,73.186,55.568Z" transform="translate(-55.664 -28.64)" fill="#d3dc5e"/>
        </g>
        <g id="Grupo_1205185" data-name="Grupo 1205185" transform="translate(154.996 94.042)">
          <path id="Trazado_1045119" data-name="Trazado 1045119" d="M73.045,45.53c-2.313,2.6-8.4,5-11.851,3.627-3.055-1.2-4.883-4.655-5.454-8a4.673,4.673,0,0,0,6.711,1.314c.685-.514,1.314-1.2,2.17-1.2,1.2.029,2,1.485,3.2,1.456,1.142,0,1.77-1.314,1.942-2.427.143-1.114.171-2.427,1.028-3.17.657-.6,1.628-.657,2.427-1.085a3.909,3.909,0,0,0,1.828-2,18.133,18.133,0,0,1,.4,2.741c.257,3.113-.314,6.425-2.4,8.738Z" transform="translate(-55.74 -34.05)" fill="#c6c945"/>
        </g>
        <g id="Grupo_1205186" data-name="Grupo 1205186" transform="translate(146.78 105.407)">
          <path id="Trazado_1045120" data-name="Trazado 1045120" d="M60.964,57.02a5.437,5.437,0,0,1-5.369-.828,7.658,7.658,0,0,1-2.37-4.512A9.464,9.464,0,0,1,53,50.109,24.966,24.966,0,0,1,54.739,38.03,7.589,7.589,0,0,0,57.766,43.2c1.542,1.371,3.341,2.427,4.74,3.912a6.687,6.687,0,0,1,1.314,2.027c0,.029,0,.029.029.057C65.048,52.108,64.306,55.706,60.964,57.02Z" transform="translate(-52.863 -38.03)" fill="#d3dc5e"/>
        </g>
        <g id="Grupo_1205187" data-name="Grupo 1205187" transform="translate(147.143 116.572)">
          <path id="Trazado_1045121" data-name="Trazado 1045121" d="M60.729,49.764a5.437,5.437,0,0,1-5.369-.828,7.658,7.658,0,0,1-2.37-4.512,4.966,4.966,0,0,0,.4.771,3,3,0,0,0,1.8,1.314,1.835,1.835,0,0,0,1.97-.742c.2-.343.286-.771.6-.971a1.021,1.021,0,0,1,1.085.2c.314.228.571.571.885.771a.946.946,0,0,0,1.085.029c.4-.4.171-1.228.628-1.513a2.222,2.222,0,0,1,.885-.114,1.592,1.592,0,0,0,1.256-1.513,2.029,2.029,0,0,0-.029-.714C64.812,44.853,64.07,48.451,60.729,49.764Z" transform="translate(-52.99 -41.94)" fill="#c6c945"/>
        </g>
        <g id="Grupo_1205188" data-name="Grupo 1205188" transform="translate(158.665 113.728)">
          <path id="Trazado_1045122" data-name="Trazado 1045122" d="M76.229,41.9a23.946,23.946,0,0,1-5.254,6.111,22.144,22.144,0,0,1-3.455,2.427c-1.942,1.142-4.255,2.056-6.454,1.485a5.408,5.408,0,0,1-.971-10.109,7.106,7.106,0,0,1,4.2-.828A48.071,48.071,0,0,1,70.261,42.5a7.833,7.833,0,0,0,5.968-.6Z" transform="translate(-57.025 -40.944)" fill="#d3dc5e"/>
        </g>
        <g id="Grupo_1205189" data-name="Grupo 1205189" transform="translate(158.665 114.602)">
          <path id="Trazado_1045123" data-name="Trazado 1045123" d="M70.975,47.447a22.144,22.144,0,0,1-3.455,2.427c-1.942,1.142-4.255,2.056-6.454,1.485a5.408,5.408,0,0,1-.971-10.109,3.279,3.279,0,0,0-.4.771,1.328,1.328,0,0,0,.314,1.4c.314.228.771.286,1.028.571.457.457.286,1.228.086,1.828s-.343,1.4.143,1.8c.885.714,2.313-.714,3.17-.029.428.343.457,1,.828,1.371a1.885,1.885,0,0,0,1.942.171,16,16,0,0,0,3.769-1.685Z" transform="translate(-57.025 -41.25)" fill="#c6c945"/>
        </g>
        <g id="Grupo_1205190" data-name="Grupo 1205190" transform="translate(151.69 98.375)">
          <path id="Trazado_1045124" data-name="Trazado 1045124" d="M55.261,69.014a.574.574,0,0,1-.371-.114.721.721,0,0,1-.2-.971A74.4,74.4,0,0,0,66.341,36.174a.683.683,0,0,1,.771-.6.7.7,0,0,1,.6.771A75.785,75.785,0,0,1,55.832,68.7a.658.658,0,0,1-.571.314Z" transform="translate(-54.582 -35.567)" fill="#b2b234"/>
        </g>
        <g id="Grupo_1205191" data-name="Grupo 1205191" transform="translate(127.458 36.673)">
          <path id="Trazado_1045125" data-name="Trazado 1045125" d="M62.04,38.433c-2.113,2.342-7.624,4.54-10.766,3.312-2.713-1.057-4.369-4.169-4.94-7.168a11.476,11.476,0,0,1-.2-3.227c.4-4.084,2.77-7.767,5.768-10.566A50.653,50.653,0,0,1,62.126,13.96c-.771,2.684-.343,5.6.286,8.338.4,1.628.885,3.255,1.256,4.912a25.836,25.836,0,0,1,.543,3.313A10.521,10.521,0,0,1,62.04,38.433Z" transform="translate(-46.097 -13.96)" fill="#d3dc5e"/>
        </g>
        <g id="Grupo_1205192" data-name="Grupo 1205192" transform="translate(127.696 49.923)">
          <path id="Trazado_1045126" data-name="Trazado 1045126" d="M61.886,29.823c-2.113,2.342-7.624,4.54-10.766,3.312-2.713-1.057-4.369-4.169-4.94-7.168a4,4,0,0,0,2.684,2.827,4.073,4.073,0,0,0,3.941-1.028c.8-.828,1.314-2.027,2.427-2.313,1.314-.343,2.884.885,3.969.086a2.32,2.32,0,0,0,.685-1.97,5.045,5.045,0,0,1,.228-2.17c.457-.857,1.428-1.228,2.227-1.742A4.5,4.5,0,0,0,63.485,18.6a25.832,25.832,0,0,1,.543,3.312,10.385,10.385,0,0,1-2.142,7.91Z" transform="translate(-46.18 -18.6)" fill="#c6c945"/>
        </g>
        <g id="Grupo_1205193" data-name="Grupo 1205193" transform="translate(121.118 59.832)">
          <path id="Trazado_1045127" data-name="Trazado 1045127" d="M51.283,39.318a4.889,4.889,0,0,1-4.883-.771,7.291,7.291,0,0,1-2.17-3.941s-.029-.029,0-.029A9.574,9.574,0,0,1,44,33.036,22.477,22.477,0,0,1,45.6,22.07a7.1,7.1,0,0,0,2.741,4.712,51.675,51.675,0,0,1,4.312,3.541,5.605,5.605,0,0,1,.714.914C55.109,33.949,54.709,37.947,51.283,39.318Z" transform="translate(-43.876 -22.07)" fill="#d3dc5e"/>
        </g>
        <g id="Grupo_1205194" data-name="Grupo 1205194" transform="translate(121.471 68.998)">
          <path id="Trazado_1045128" data-name="Trazado 1045128" d="M51.053,33.361a4.889,4.889,0,0,1-4.883-.771A7.291,7.291,0,0,1,44,28.65l.257.428a2.21,2.21,0,0,0,2.342.914c.714-.257,1.285-1.057,2.056-.971a2.475,2.475,0,0,1,.942.4,1.039,1.039,0,0,0,1,.029c.4-.314.228-.942.514-1.371a2.53,2.53,0,0,1,.942-.6A2.29,2.29,0,0,0,53,26.137a2.991,2.991,0,0,0,.143-.857c1.742,2.713,1.342,6.711-2.085,8.081Z" transform="translate(-44 -25.28)" fill="#c6c945"/>
        </g>
        <g id="Grupo_1205195" data-name="Grupo 1205195" transform="translate(131.004 68.574)">
          <path id="Trazado_1045129" data-name="Trazado 1045129" d="M64.791,25.984a22.52,22.52,0,0,1-7.339,7.425,6.044,6.044,0,0,1-.571.343c-1.8,1.028-3.855,1.828-5.854,1.342a4.887,4.887,0,0,1-3.512-3.455,4.941,4.941,0,0,1,2.8-5.8,6.092,6.092,0,0,1,3.627-.657,53.9,53.9,0,0,1,5.426,1.371,6.892,6.892,0,0,0,5.426-.571Z" transform="translate(-47.338 -25.132)" fill="#d3dc5e"/>
        </g>
        <g id="Grupo_1205196" data-name="Grupo 1205196" transform="translate(130.975 69.312)">
          <path id="Trazado_1045130" data-name="Trazado 1045130" d="M57.442,32.957a6.04,6.04,0,0,1-.571.343c-1.8,1.028-3.855,1.828-5.854,1.342A4.887,4.887,0,0,1,47.5,31.187a4.941,4.941,0,0,1,2.8-5.8,4.351,4.351,0,0,0-.771,1.542,1.607,1.607,0,0,0,.571,1.713c.371.257.857.286,1.2.571a2.141,2.141,0,0,1,.485,1.456c.086.514.257,1.114.742,1.314.657.228,1.314-.457,2-.485.742-.057,1.314.6,1.913,1a2.866,2.866,0,0,0,1,.457Z" transform="translate(-47.328 -25.39)" fill="#c6c945"/>
        </g>
        <g id="Grupo_1205197" data-name="Grupo 1205197" transform="translate(124.619 54.57)">
          <path id="Trazado_1045131" data-name="Trazado 1045131" d="M45.781,50.733a.574.574,0,0,1-.371-.114.721.721,0,0,1-.2-.971A68.012,68.012,0,0,0,55.8,20.834a.683.683,0,0,1,.771-.6.7.7,0,0,1,.6.771A69.358,69.358,0,0,1,46.381,50.418.787.787,0,0,1,45.781,50.733Z" transform="translate(-45.102 -20.227)" fill="#b2b234"/>
        </g>
        <g id="Grupo_1205198" data-name="Grupo 1205198" transform="translate(49.252 49.837)">
          <path id="Trazado_1045132" data-name="Trazado 1045132" d="M25.535,25.795,58.546,18.57l2.941,7.453L18.71,41.186Z" transform="translate(-18.71 -18.57)" fill="#fe515e"/>
        </g>
        <g id="Grupo_1205199" data-name="Grupo 1205199" transform="translate(4.335 6.403)">
          <path id="Trazado_1045133" data-name="Trazado 1045133" d="M75.283,27.09,66.4,43.624,50.154,73.836l-1.571,2.97-1,1.856a2.764,2.764,0,0,1-3.113,1.371A90.118,90.118,0,0,1,3.778,56.96a2.76,2.76,0,0,1-.4-3.37l.057-.086,1.028-1.713,1.713-2.884,16.191-27.1L33.106,3.817l.286-.457.971.571,7.282,4.141Z" transform="translate(-2.981 -3.36)" fill="#fe515e"/>
        </g>
        <g id="Grupo_1205200" data-name="Grupo 1205200" transform="translate(23.752 6.86)">
          <path id="Trazado_1045134" data-name="Trazado 1045134" d="M31.054,15.97a6.968,6.968,0,0,1-1.685,3.655A4.179,4.179,0,0,1,25.714,21c-1.371-.228-2.541-1.314-3.912-1.4-1.713-.143-3.17,1.142-4.426,2.313-1.256,1.2-2.741,2.427-4.455,2.2a3.908,3.908,0,0,1-2.37-1.485A7.711,7.711,0,0,1,9.78,21.51L20.517,3.52a9.613,9.613,0,0,1,1.256.086l7.282,4.141a11.062,11.062,0,0,1,2,8.224Z" transform="translate(-9.78 -3.52)" fill="#f83b4d"/>
        </g>
        <g id="Grupo_1205201" data-name="Grupo 1205201" transform="translate(20.907 20.165)">
          <path id="Trazado_1045135" data-name="Trazado 1045135" d="M15.741,22.773a6.546,6.546,0,0,1-4.512-2,11.169,11.169,0,0,1-2.4-4.112.7.7,0,1,1,1.314-.457,9.868,9.868,0,0,0,2.085,3.627c1.228,1.285,3.427,2.142,5.083,1.171a6.7,6.7,0,0,0,2.056-2.427l.314-.485c.742-1.114,1.913-2.57,3.655-2.741,1.713-.171,2.97.885,4.2,1.942a8.674,8.674,0,0,0,2.2,1.513c2.113.885,4.655-.657,5.8-2.6,1.256-2.2,1.4-4.94,1.513-7.367a.7.7,0,1,1,1.4.086c-.114,2.456-.286,5.511-1.713,8-1.456,2.484-4.683,4.341-7.539,3.17a10.461,10.461,0,0,1-2.57-1.742c-1.085-.914-2-1.713-3.17-1.6-.885.086-1.713.771-2.627,2.113l-.286.457A7.955,7.955,0,0,1,18,22.2a4.81,4.81,0,0,1-2.256.571Z" transform="translate(-8.784 -8.179)" fill="#f83b4d"/>
        </g>
        <g id="Grupo_1205202" data-name="Grupo 1205202" transform="translate(4.364 56.491)">
          <path id="Trazado_1045136" data-name="Trazado 1045136" d="M47.565,46.115a2.742,2.742,0,0,1-3.084,1.371A90.382,90.382,0,0,1,3.788,24.412a2.76,2.76,0,0,1-.4-3.37l.057-.114.228-.029a12.686,12.686,0,0,0,9.966,6.168A97.706,97.706,0,0,0,24.92,34.55,100.056,100.056,0,0,0,48.593,44.2Z" transform="translate(-2.991 -20.9)" fill="#f83b4d"/>
        </g>
        <g id="Grupo_1205204" data-name="Grupo 1205204" transform="translate(5.819 51.922)">
          <g id="Grupo_1205203" data-name="Grupo 1205203">
            <path id="Trazado_1045137" data-name="Trazado 1045137" d="M47.619,47.2a101.27,101.27,0,0,1-23.673-9.652,97.707,97.707,0,0,1-11.28-7.482A99.031,99.031,0,0,1,3.5,22.184L5.213,19.3a1.118,1.118,0,0,1,.286.228,95.85,95.85,0,0,0,11.965,9.966A95.959,95.959,0,0,0,48.847,44.087a1.747,1.747,0,0,1,.343.143Z" transform="translate(-3.5 -19.3)" fill="#ffcd3b"/>
          </g>
        </g>
        <g id="Grupo_1205205" data-name="Grupo 1205205" transform="translate(14.985 62.145)">
          <path id="Trazado_1045138" data-name="Trazado 1045138" d="M41.663,40.556A101.27,101.27,0,0,1,17.99,30.9,97.707,97.707,0,0,1,6.71,23.423a12,12,0,0,0,4.826-.543A95.959,95.959,0,0,0,42.919,37.472a1.747,1.747,0,0,1,.343.143Z" transform="translate(-6.71 -22.88)" fill="#fcb910"/>
        </g>
        <g id="Grupo_1205206" data-name="Grupo 1205206" transform="translate(19.783 46.667)">
          <path id="Trazado_1045139" data-name="Trazado 1045139" d="M40.116,47.672a1.746,1.746,0,0,0-.343-.143A96.545,96.545,0,0,1,8.39,32.937l.514-.171c3.027-1.2,6-3.627,9.138-2.741,3.6,1,5.2,5.94,8.909,6.425,2.284.286,4.369-1.314,5.883-3.027,1.542-1.713,2.913-3.712,5-4.655,2.627-1.228,6.025-.657,8.2-2.57,2.056-1.828,2.142-5.2,4.255-6.968,1.542-1.314,3.741-1.371,5.711-1.713.114-.029.228-.029.343-.057Z" transform="translate(-8.39 -17.46)" fill="#f83b4d"/>
        </g>
        <g id="Grupo_1205207" data-name="Grupo 1205207" transform="translate(3.636 5.695)">
          <path id="Trazado_1045140" data-name="Trazado 1045140" d="M52.15,72.126a.76.76,0,0,1-.343-.086.7.7,0,0,1-.286-.942L74.795,27.807,34.1,4.734,4.49,54.307a2.086,2.086,0,0,0,.257,2.6A92.91,92.91,0,0,0,20.51,69.3a.722.722,0,0,1,.228.971.7.7,0,0,1-.971.228A92.893,92.893,0,0,1,3.747,57.934a3.457,3.457,0,0,1-.514-4.226L33.246,3.449a.731.731,0,0,1,.942-.257L76.08,26.95a.672.672,0,0,1,.257.942L52.75,71.783a.7.7,0,0,1-.6.343Z" transform="translate(-2.736 -3.112)"/>
        </g>
        <g id="Grupo_1205208" data-name="Grupo 1205208" transform="translate(34.635 5.828)">
          <path id="Trazado_1045141" data-name="Trazado 1045141" d="M55.594,27.464c-.457.828-2.427.714-5.34-.114-4.341-1.228-10.794-4.112-17.733-8.024-7.4-4.2-13.507-8.567-16.648-11.708-1.77-1.77-2.6-3.141-2.17-3.884,1.171-2.056,11.48,1.571,23.045,8.138,11.565,6.539,20.018,13.536,18.847,15.592Z" transform="translate(-13.591 -3.159)" fill="#f83b4d"/>
        </g>
        <g id="Grupo_1205209" data-name="Grupo 1205209" transform="translate(36.888 9.551)">
          <path id="Trazado_1045142" data-name="Trazado 1045142" d="M49.218,24.617a.73.73,0,0,1-.457.343c-4.341-1.228-10.794-4.112-17.733-8.024-7.4-4.2-13.507-8.567-16.648-11.708.029-.086.057-.2.086-.286.971-1.713,9.509,1.314,19.1,6.739,9.652,5.426,16.62,11.223,15.649,12.936Z" transform="translate(-14.38 -4.462)" fill="#ef253d"/>
        </g>
        <g id="Grupo_1205210" data-name="Grupo 1205210" transform="translate(33.928 5.129)">
          <path id="Trazado_1045143" data-name="Trazado 1045143" d="M54.4,29.175c-4.855,0-15.677-5.34-21.76-8.8a102.657,102.657,0,0,1-14.278-9.566c-5.968-4.94-5.083-6.482-4.8-7,1.485-2.6,10.223,1,15.306,3.37a.713.713,0,0,1,.343.914.688.688,0,0,1-.914.343C18.987,4.1,15.132,3.9,14.79,4.5c-.143.257.343,1.8,4.483,5.226a104.13,104.13,0,0,0,14.078,9.423c13.136,7.453,21.5,9.481,22.1,8.424.2-.343-.714-2.8-8.767-8.481a.7.7,0,0,1,.8-1.142c4.883,3.455,10.452,8.053,9.167,10.309a2.416,2.416,0,0,1-2.256.914Z" transform="translate(-13.344 -2.914)"/>
        </g>
        <g id="Grupo_1205211" data-name="Grupo 1205211" transform="translate(87.309 34.816)">
          <path id="Trazado_1045144" data-name="Trazado 1045144" d="M50.293,43.637a10.365,10.365,0,0,1-7.31.942,8.861,8.861,0,0,1-5.6-4.2A36.871,36.871,0,0,1,32.074,23.3,8.9,8.9,0,0,1,34.3,16.68a10.285,10.285,0,0,1,6.568-3.37Z" transform="translate(-32.037 -13.31)" fill="#f83b4d"/>
        </g>
        <g id="Grupo_1205212" data-name="Grupo 1205212" transform="translate(92.71 33.778)">
          <ellipse id="Elipse_12710" data-name="Elipse 12710" cx="3.598" cy="15.877" rx="3.598" ry="15.877" transform="matrix(0.955, -0.297, 0.297, 0.955, 0, 2.137)" fill="#ef253d"/>
        </g>
        <g id="Grupo_1205213" data-name="Grupo 1205213" transform="translate(105.191 46.122)">
          <path id="Trazado_1045145" data-name="Trazado 1045145" d="M48.725,30.493a3.208,3.208,0,0,1-2.684,1.8,3.627,3.627,0,0,1-3.027-2.342A18.8,18.8,0,0,1,42.1,26.01a16.768,16.768,0,0,0-1.656-4.655c-.314-.6-2.427-3-2.113-3.57.971-1.8,6.482,1.628,7.282,2.313a11.181,11.181,0,0,1,2.17,2.6,10.555,10.555,0,0,1,1.485,4.483,6.561,6.561,0,0,1-.543,3.313Z" transform="translate(-38.299 -17.269)" fill="#90e2fd"/>
        </g>
        <g id="Grupo_1205214" data-name="Grupo 1205214" transform="translate(109.906 51.579)">
          <path id="Trazado_1045146" data-name="Trazado 1045146" d="M45.661,26.947a3.208,3.208,0,0,1-2.684,1.8A3.627,3.627,0,0,1,39.95,26.4a1.443,1.443,0,0,0,.885.2,1.535,1.535,0,0,0,1.256-1.114,4.413,4.413,0,0,0,0-1.371,1.275,1.275,0,0,1,.571-1.2,1.966,1.966,0,0,1,.914-.086.89.89,0,0,0,.828-.286,1.016,1.016,0,0,0-.143-1.114,1.517,1.517,0,0,1-.4-1.085c.057-.371.4-.6.657-.885a1.734,1.734,0,0,0,.2-.286A10.555,10.555,0,0,1,46.2,23.663a6.5,6.5,0,0,1-.543,3.284Z" transform="translate(-39.95 -19.18)" fill="#60d4f4"/>
        </g>
        <g id="Grupo_1205215" data-name="Grupo 1205215" transform="translate(104.237 64.429)">
          <path id="Trazado_1045147" data-name="Trazado 1045147" d="M44.319,38.929a3.986,3.986,0,0,1-4.883.029,4.042,4.042,0,0,1-1.285-2.2h-.029a8.573,8.573,0,0,1,.057-3.512,23.732,23.732,0,0,1,2.056-6.368,8.945,8.945,0,0,1,2.313-3.2c.2.657-.029,1.513.114,2.227A11.563,11.563,0,0,0,44,29.306c.314.571.657,1.142.942,1.713a9.708,9.708,0,0,1,1.142,3.227,5.049,5.049,0,0,1-1.77,4.683Z" transform="translate(-37.965 -23.68)" fill="#90e2fd"/>
        </g>
        <g id="Grupo_1205216" data-name="Grupo 1205216" transform="translate(104.423 71.711)">
          <path id="Trazado_1045148" data-name="Trazado 1045148" d="M44.2,34.2a3.986,3.986,0,0,1-4.883.029,4.042,4.042,0,0,1-1.285-2.2,2.777,2.777,0,0,0,1.256.714A1.454,1.454,0,0,0,41,32.027c.2-.514.029-1.2.428-1.571.428-.371,1.057-.086,1.628-.086a2.2,2.2,0,0,0,2-2,5.008,5.008,0,0,0-.228-2.142,9.708,9.708,0,0,1,1.142,3.227A5.1,5.1,0,0,1,44.2,34.2Z" transform="translate(-38.03 -26.23)" fill="#60d4f4"/>
        </g>
        <g id="Grupo_1205217" data-name="Grupo 1205217" transform="translate(113.504 62.973)">
          <path id="Trazado_1045149" data-name="Trazado 1045149" d="M46.521,31.908c.029,1.256-.4,2.77-1.6,3.2a2.433,2.433,0,0,1-2.684-1.057,4.07,4.07,0,0,1-.514-1.314,5.621,5.621,0,0,1-.086-1.685c.086-1.028.343-2.056.457-3.056a9.069,9.069,0,0,0-.885-4.826c.286.571,1.314,1.228,1.77,1.713a21.561,21.561,0,0,1,1.742,1.856,11.664,11.664,0,0,1,.971,1.628A9.888,9.888,0,0,1,46.521,31.908Z" transform="translate(-41.21 -23.17)" fill="#90e2fd"/>
        </g>
        <g id="Grupo_1205218" data-name="Grupo 1205218" transform="translate(114.018 68.17)">
          <path id="Trazado_1045150" data-name="Trazado 1045150" d="M46.187,28.531c.029,1.256-.4,2.77-1.6,3.2A2.433,2.433,0,0,1,41.9,30.673a4.07,4.07,0,0,1-.514-1.314.945.945,0,0,0,.914.543,1.06,1.06,0,0,0,.942-.8,6.706,6.706,0,0,0,.029-.771c.029-.257.143-.571.4-.628.286-.086.6.143.885,0s.228-.571.086-.828c-.143-.286-.343-.571-.286-.857.057-.343.428-.543.714-.742a2.691,2.691,0,0,0,.286-.286A9.888,9.888,0,0,1,46.187,28.531Z" transform="translate(-41.39 -24.99)" fill="#60d4f4"/>
        </g>
        <g id="Grupo_1205219" data-name="Grupo 1205219" transform="translate(126.297 140.874)">
          <path id="Trazado_1045151" data-name="Trazado 1045151" d="M54.828,55.847a4.142,4.142,0,0,0-3.227,1.6,5.988,5.988,0,0,0-1.342,3.827c0-3-2.027-5.426-4.569-5.426a4.247,4.247,0,0,0,3.227-1.571,5.988,5.988,0,0,0,1.342-3.827A5.93,5.93,0,0,0,51.6,54.277a4.3,4.3,0,0,0,3.227,1.571Z" transform="translate(-45.69 -50.45)" fill="#fff"/>
        </g>
        <g id="Grupo_1205220" data-name="Grupo 1205220" transform="translate(136.805 52.892)">
          <path id="Trazado_1045152" data-name="Trazado 1045152" d="M55.2,23.1a2.747,2.747,0,0,0-2.056,1,3.7,3.7,0,0,0-.857,2.427,3.2,3.2,0,0,0-2.913-3.455,2.8,2.8,0,0,0,2.056-1,3.854,3.854,0,0,0,.857-2.427,3.7,3.7,0,0,0,.857,2.427A2.6,2.6,0,0,0,55.2,23.1Z" transform="translate(-49.37 -19.64)" fill="#fff"/>
        </g>
        <g id="Grupo_1205221" data-name="Grupo 1205221" transform="translate(39.229 56.348)">
          <path id="Trazado_1045153" data-name="Trazado 1045153" d="M24.338,26.247a4.142,4.142,0,0,0-3.227,1.6,5.988,5.988,0,0,0-1.342,3.827c0-3-2.027-5.426-4.569-5.426a4.247,4.247,0,0,0,3.227-1.571,5.988,5.988,0,0,0,1.342-3.827,5.93,5.93,0,0,0,1.342,3.827,4.159,4.159,0,0,0,3.227,1.571Z" transform="translate(-15.2 -20.85)" fill="#fff"/>
        </g>
        <g id="Grupo_1205222" data-name="Grupo 1205222" transform="translate(132.094 136.904)">
          <path id="Trazado_1045154" data-name="Trazado 1045154" d="M52.118,51.63a1.948,1.948,0,0,0-1.542.771,2.855,2.855,0,0,0-.657,1.828,2.419,2.419,0,0,0-2.2-2.6,2.052,2.052,0,0,0,1.542-.742,2.834,2.834,0,0,0,.628-1.828,2.8,2.8,0,0,0,.657,1.828A2.159,2.159,0,0,0,52.118,51.63Z" transform="translate(-47.72 -49.06)" fill="#fff"/>
        </g>
        <g id="Grupo_1205225" data-name="Grupo 1205225" transform="translate(10.652 41.074)">
          <g id="Grupo_1205223" data-name="Grupo 1205223" transform="translate(0 4.106)">
            <path id="Trazado_1045155" data-name="Trazado 1045155" d="M11.782,17.113c1.114.714.714,3.4-.914,6-1.628,2.57-3.884,4.112-5.026,3.427s-.742-3.37.914-6C8.412,17.942,10.668,16.4,11.782,17.113Z" transform="translate(-5.192 -16.939)" fill="#fff"/>
          </g>
          <g id="Grupo_1205224" data-name="Grupo 1205224" transform="translate(7.039)">
            <path id="Trazado_1045156" data-name="Trazado 1045156" d="M9.835,15.612c.485.314.457,1.228-.029,2.027-.514.8-1.314,1.2-1.8.885S7.551,17.3,8.036,16.5c.514-.828,1.314-1.2,1.8-.885Z" transform="translate(-7.657 -15.501)" fill="#fff"/>
          </g>
        </g>
        <g id="Grupo_1205228" data-name="Grupo 1205228" transform="translate(91.729 81.57)">
          <g id="Grupo_1205226" data-name="Grupo 1205226">
            <path id="Trazado_1045157" data-name="Trazado 1045157" d="M46.621,31.3c.029,1.371-2.741,2.484-5.968,3.627-3.227,1.057-6.082,1.885-6.911.8-.371-.543-.086-1.513.857-2.57a10.855,10.855,0,0,1,4.512-2.827c4.026-1.371,7.51-.343,7.51.971Z" transform="translate(-33.585 -29.683)" fill="#fff"/>
          </g>
          <g id="Grupo_1205227" data-name="Grupo 1205227" transform="translate(14.864 0.632)">
            <path id="Trazado_1045158" data-name="Trazado 1045158" d="M43.045,31.292c-.114.6-1.114.857-2.227.742s-2.027-.6-2.027-1.171c0-.6,1-1.057,2.227-.942C42.274,30.036,43.159,30.721,43.045,31.292Z" transform="translate(-38.79 -29.904)" fill="#fff"/>
          </g>
        </g>
      </g>
    </g>
  </g>
</svg>
