<svg xmlns="http://www.w3.org/2000/svg" xmlns:xlink="http://www.w3.org/1999/xlink" width="208" height="197" viewBox="0 0 208 197">
  <defs>
    <filter id="Rect치ngulo_416701" x="0" y="25" width="208" height="172" filterUnits="userSpaceOnUse">
      <feOffset dy="3" input="SourceAlpha"/>
      <feGaussianBlur stdDeviation="3" result="blur"/>
      <feFlood flood-opacity="0.161"/>
      <feComposite operator="in" in2="blur"/>
      <feComposite in="SourceGraphic"/>
    </filter>
  </defs>
  <g id="Grupo_1205879" data-name="Grupo 1205879" transform="translate(-1221 -1825.756)">
    <g transform="matrix(1, 0, 0, 1, 1221, 1825.76)" filter="url(#Rect치ngulo_416701)">
      <rect id="Rect치ngulo_416701-2" data-name="Rect치ngulo 416701" width="190" height="154" rx="20" transform="translate(9 31)" fill="#004a54"/>
    </g>
    <g id="Grupo_1205394" data-name="Grupo 1205394">
      <g id="location_11257115" transform="translate(1233.496 1821.826)">
        <g id="Grupo_1205354" data-name="Grupo 1205354" transform="translate(54.988 87.532)">
          <path id="Trazado_1045228" data-name="Trazado 1045228" d="M46.916,50.7a.794.794,0,0,1-.442-.147.708.708,0,0,1-.118-1,1.176,1.176,0,0,0,.206-.383c.589-1.71-.678-4.657-1.945-6.632-3.773-5.954-10.758-9.461-17.39-8.695-2.476.265-5.394,1.5-6.072,4.1a.719.719,0,0,1-1.385-.383c.884-3.3,4.362-4.8,7.31-5.158,7.162-.8,14.678,2.977,18.775,9.373.737,1.15,3.036,5.1,2.093,7.87a2.555,2.555,0,0,1-.413.8A.955.955,0,0,1,46.916,50.7Z" transform="translate(-19.74 -32.294)"/>
        </g>
        <g id="Grupo_1205355" data-name="Grupo 1205355" transform="translate(1.64 127.782)">
          <path id="Trazado_1045229" data-name="Trazado 1045229" d="M178.958,69.353c0,3.714-3.3,7.251-9.2,10.4-14.5,7.722-44.624,13-79.463,13-48.957,0-88.659-10.463-88.659-23.4,0-5.305,6.661-10.2,17.891-14.089C35.712,49.6,61.385,45.95,90.3,45.95c9.284,0,18.215.383,26.645,1.061,19.748,1.651,36.519,5.04,47.631,9.52,9.108,3.714,14.384,8.105,14.384,12.821Z" transform="translate(-1.64 -45.95)" fill="#d3dc5e"/>
        </g>
        <g id="Grupo_1205356" data-name="Grupo 1205356" transform="translate(117.003 128.813)">
          <path id="Trazado_1045230" data-name="Trazado 1045230" d="M88.352,55.879a14.208,14.208,0,0,1-4.421,5.188,10.237,10.237,0,0,1-9.992,1.12c-2.034-.973-3.6-2.653-5.364-4.1-1.768-1.415-3.979-2.564-6.19-2.181-1.5.295-2.8,1.3-4.215,1.916s-3.3.766-4.333-.383c-.8-.914-.825-2.3-1.562-3.242-1.238-1.5-3.537-1.15-5.482-1.415a7.175,7.175,0,0,1-5.158-3.537A6.829,6.829,0,0,1,40.78,46.3C60.469,48.01,77.24,51.4,88.352,55.879Z" transform="translate(-40.78 -46.3)" fill="#c6c945"/>
        </g>
        <g id="Grupo_1205357" data-name="Grupo 1205357" transform="translate(104.033 127.399)">
          <path id="Trazado_1045231" data-name="Trazado 1045231" d="M87.785,72.111A14.607,14.607,0,0,1,76.938,67.6l-.531-.619a5.625,5.625,0,0,0-2.093-1.857c-1.385-.531-2.771.265-4.421,1.179-1.533.855-3.124,1.768-4.922,1.592-2.387-.236-4.009-2.27-5.158-4.009l-.206-.295c-1.032-1.562-2.093-3.154-3.655-3.684a8.285,8.285,0,0,0-3.714-.029l-1.415.177a13.384,13.384,0,0,1-10.67-3.95,13.55,13.55,0,0,1-3.773-9.579.689.689,0,0,1,.737-.707.724.724,0,0,1,.707.737,11.854,11.854,0,0,0,12.88,12.085c.442-.029.914-.088,1.356-.147a9.489,9.489,0,0,1,4.362.088c2.063.678,3.3,2.594,4.392,4.274l.206.295c.973,1.474,2.328,3.183,4.1,3.36,1.356.147,2.682-.619,4.1-1.415,1.768-1,3.625-2.034,5.63-1.267a6.963,6.963,0,0,1,2.682,2.27c.177.206.324.383.5.589a13.574,13.574,0,0,0,11.76,3.92,22.661,22.661,0,0,0,11.642-5.748,38.947,38.947,0,0,0,3.8-3.832.71.71,0,1,1,1.061.943,41.618,41.618,0,0,1-3.95,3.95,24.177,24.177,0,0,1-12.409,6.1c-.707.059-1.415.088-2.152.088Z" transform="translate(-36.379 -45.82)" fill="#c6c945"/>
        </g>
        <g id="Grupo_1205358" data-name="Grupo 1205358" transform="translate(1.64 137.096)">
          <path id="Trazado_1045232" data-name="Trazado 1045232" d="M169.762,73.6c-14.5,7.722-44.654,13-79.463,13C41.342,86.6,1.64,76.138,1.64,63.2,1.64,57.893,8.3,53,19.531,49.11a19.3,19.3,0,0,0-.766,9.078c.943,5.6,4.627,10.316,9.019,11.466,6.013,1.621,12.291-3.006,18.3-1.326,5.512,1.5,9.52,7.988,14.973,9.844,10.169,3.478,20.4-10.11,30.595-6.661,5.924,2.034,10.434,9.55,16.565,9.815,6.4.295,11.318-7.487,17.626-9.137,4.952-1.356,9.962,1.238,14.855,2.889A40.573,40.573,0,0,0,169.762,73.6Z" transform="translate(-1.64 -49.11)" fill="#c6c945"/>
        </g>
        <g id="Grupo_1205359" data-name="Grupo 1205359" transform="translate(25.336 127.104)">
          <path id="Trazado_1045233" data-name="Trazado 1045233" d="M74.642,93.94a303.73,303.73,0,0,1-40.527-2.564.715.715,0,1,1,.206-1.415,300.577,300.577,0,0,0,40.321,2.564c33.807,0,64.136-4.952,79.139-12.91,5.777-3.065,8.813-6.455,8.813-9.756,0-12.291-40.262-22.7-87.952-22.7-24.493,0-47.248,2.564-64.048,7.251a.719.719,0,1,1-.383-1.385c16.948-4.716,39.82-7.31,64.431-7.31,50.136,0,89.4,10.581,89.4,24.11,0,3.95-3.213,7.663-9.579,11.023C139.25,88.93,108.685,93.94,74.642,93.94Z" transform="translate(-9.68 -45.72)"/>
        </g>
        <g id="Grupo_1205360" data-name="Grupo 1205360" transform="translate(99.407 4.637)">
          <path id="Trazado_1045234" data-name="Trazado 1045234" d="M121.17,47.35a31.2,31.2,0,0,1-.589,5.571c-1.5,8.282-5.836,19.689-11.171,31.626-4.6,10.316-9.962,21.074-14.944,30.565-6.278,12.026-11.967,22.076-14.737,26.881a2,2,0,0,1-3.478,0C68.146,127.845,34.81,68.306,34.81,47.35a43.18,43.18,0,0,1,86.36,0Z" transform="translate(-34.81 -4.17)" fill="#fe515e"/>
        </g>
        <g id="Grupo_1205361" data-name="Grupo 1205361" transform="translate(171.465 53.175)">
          <path id="Trazado_1045235" data-name="Trazado 1045235" d="M72.97,20.851c-1.5,8.282-5.836,19.689-11.171,31.626A4.4,4.4,0,0,1,60,50.915a4.712,4.712,0,0,1-.354-4.421c.707-1.5,2.211-2.623,2.594-4.215.413-1.621-.442-3.272-.973-4.863-.56-1.592-.678-3.655.648-4.657,1.3-.973,3.272-.383,4.686-1.12A4.287,4.287,0,0,0,68.519,28.1c.118-1.415-.088-2.83.147-4.215a3.733,3.733,0,0,1,2.387-3.154,3.253,3.253,0,0,1,1.916.118Z" transform="translate(-59.258 -20.638)" fill="#f83b4d"/>
        </g>
        <g id="Grupo_1205362" data-name="Grupo 1205362" transform="translate(163.598 48.187)">
          <path id="Trazado_1045236" data-name="Trazado 1045236" d="M65.523,59.811h-.059a15.947,15.947,0,0,1-2.505-.383,8.566,8.566,0,0,1-5.482-3.714,5.644,5.644,0,0,1,.413-6.661,9.263,9.263,0,0,1,2.181-1.562,5.876,5.876,0,0,0,2-1.5c1.15-1.533.472-3.832-.118-5.895-.5-1.739-1.3-5.63,1.385-7.31a6.418,6.418,0,0,1,2.594-.766,5.385,5.385,0,0,0,1.916-.5c1.415-.737,1.8-2.682,1.886-4.185.029-.324.029-.678.029-1a10.073,10.073,0,0,1,.914-4.716,5.436,5.436,0,0,1,5.04-2.653,5.523,5.523,0,0,1,3.449,1.71.7.7,0,0,1-.029,1,.739.739,0,0,1-1.032-.029A3.923,3.923,0,0,0,75.6,20.4a4,4,0,0,0-3.655,1.916,8.833,8.833,0,0,0-.737,4.038c0,.354-.029.678-.029,1.032-.147,2.682-1.061,4.539-2.623,5.364a7.015,7.015,0,0,1-2.417.648,5.3,5.3,0,0,0-2.034.56c-1.886,1.179-1.091,4.539-.8,5.541.678,2.387,1.5,5.188-.088,7.28a7.193,7.193,0,0,1-2.446,1.886,7.718,7.718,0,0,0-1.827,1.267,4.181,4.181,0,0,0-.236,4.922,7.362,7.362,0,0,0,4.6,3.065,13.534,13.534,0,0,0,2.27.354.744.744,0,0,1,.678.766.8.8,0,0,1-.737.766Z" transform="translate(-56.589 -18.945)" fill="#f83b4d"/>
        </g>
        <g id="Grupo_1205363" data-name="Grupo 1205363" transform="translate(99.407 26.832)">
          <path id="Trazado_1045237" data-name="Trazado 1045237" d="M94.466,100.448c-6.308,12.026-11.967,22.076-14.708,26.881a2.021,2.021,0,0,1-3.507,0C68.175,113.181,34.81,53.642,34.81,32.656A42.974,42.974,0,0,1,40.233,11.7c-.324,1.474-.589,2.947-.766,4.451-1.267,9.7.206,20.072,6.013,27.942,2.623,3.625,6.19,6.661,7.722,10.847,2.27,6.1.118,14.059,4.8,18.539,3.625,3.449,9.815,3.095,13.146,6.779,3.183,3.478,2.387,8.931,3.891,13.381a13.405,13.405,0,0,0,10.581,8.754A13.14,13.14,0,0,0,94.466,100.448Z" transform="translate(-34.81 -11.7)" fill="#f83b4d"/>
        </g>
        <g id="Grupo_1205364" data-name="Grupo 1205364" transform="translate(98.699 3.93)">
          <path id="Trazado_1045238" data-name="Trazado 1045238" d="M74.3,138.894a.662.662,0,0,1-.619-.354C61.922,117.672,34.57,67.035,34.57,47.817a43.9,43.9,0,0,1,87.8,0c0,8.076-4.834,22.577-14.384,43.092a.712.712,0,0,1-1.3-.589c9.461-20.337,14.236-34.633,14.236-42.5a42.473,42.473,0,1,0-84.945,0c0,18.893,27.234,69.265,38.936,90.015a.711.711,0,0,1-.265.973A.785.785,0,0,1,74.3,138.894Z" transform="translate(-34.57 -3.93)"/>
        </g>
        <g id="Grupo_1205365" data-name="Grupo 1205365" transform="translate(111.373 16.398)">
          <circle id="Elipse_12722" data-name="Elipse 12722" cx="31.213" cy="31.213" r="31.213" fill="#fff"/>
        </g>
        <g id="Grupo_1205366" data-name="Grupo 1205366" transform="translate(112.269 15.661)">
          <path id="Trazado_1045239" data-name="Trazado 1045239" d="M69.492,71.781h-.8a.744.744,0,0,1-.707-.737.717.717,0,0,1,.707-.707h.029A30.5,30.5,0,1,0,40.577,30.1a.712.712,0,0,1-.914.442.69.69,0,0,1-.442-.914,31.934,31.934,0,1,1,30.27,42.148Z" transform="translate(-39.174 -7.91)"/>
        </g>
        <g id="Grupo_1205369" data-name="Grupo 1205369" transform="translate(123.34 30.398)">
          <g id="Grupo_1205368" data-name="Grupo 1205368">
            <g id="Grupo_1205367" data-name="Grupo 1205367">
              <path id="Trazado_1045240" data-name="Trazado 1045240" d="M42.93,21.458a8.548,8.548,0,1,1,8.548,8.548,8.554,8.554,0,0,1-8.548-8.548Zm6.809,25.289a2.766,2.766,0,0,1-1.12-2.27,2.927,2.927,0,0,1,.589-1.71L70.577,14.207a2.766,2.766,0,0,1,2.27-1.12,2.8,2.8,0,0,1,1.71.589,2.766,2.766,0,0,1,1.12,2.27,2.856,2.856,0,0,1-.531,1.71L53.777,46.216a2.9,2.9,0,0,1-2.3,1.12,3.084,3.084,0,0,1-1.739-.589Zm-1.12-25.289A2.859,2.859,0,1,0,51.478,18.6a2.862,2.862,0,0,0-2.859,2.859ZM64.3,38.612a8.577,8.577,0,1,1,17.154,0,8.577,8.577,0,0,1-17.154,0Zm5.748,0a2.859,2.859,0,1,0,2.859-2.859A2.862,2.862,0,0,0,70.047,38.612Z" transform="translate(-42.93 -12.91)" fill="#509dff"/>
            </g>
          </g>
        </g>
        <g id="Grupo_1205371" data-name="Grupo 1205371" transform="translate(3.261 55.835)">
          <g id="Grupo_1205370" data-name="Grupo 1205370">
            <path id="Trazado_1045241" data-name="Trazado 1045241" d="M36.056,21.54A33.872,33.872,0,0,0,3.1,47.448a35.156,35.156,0,0,0-.914,7.929c0,16.447,26.173,63.134,32.481,74.217a1.578,1.578,0,0,0,2.741,0c2.122-3.714,6.514-11.5,11.377-20.779,9.579-18.3,21.1-42.532,21.1-53.437A33.838,33.838,0,0,0,36.056,21.54Zm0,58.183A24.464,24.464,0,1,1,60.52,55.259,24.46,24.46,0,0,1,36.056,79.723Z" transform="translate(-2.19 -21.54)" fill="#509dff"/>
          </g>
        </g>
        <g id="Grupo_1205372" data-name="Grupo 1205372" transform="translate(24.333 57.336)">
          <path id="Trazado_1045242" data-name="Trazado 1045242" d="M39.081,34.047a5.4,5.4,0,0,1-4.274-1.827,9.419,9.419,0,0,1-1.179-1.857c-.589-1.061-1.091-2-2-2.211a3.858,3.858,0,0,0-1.8.147,5.5,5.5,0,0,1-2.211.206,5.328,5.328,0,0,1-2.8-1.651,5.642,5.642,0,0,0-1.857-1.267c-1.208-.383-2.446.265-3.832,1a11.817,11.817,0,0,1-3.006,1.267,5.794,5.794,0,0,1-5.571-1.945,5.593,5.593,0,0,1-1.208-3.095.72.72,0,0,1,.648-.766.686.686,0,0,1,.766.648A4.062,4.062,0,0,0,11.67,25,4.232,4.232,0,0,0,15.8,26.443a9.643,9.643,0,0,0,2.623-1.12c1.562-.825,3.154-1.68,4.952-1.12a6.733,6.733,0,0,1,2.358,1.562,4.351,4.351,0,0,0,2.093,1.3,4.166,4.166,0,0,0,1.651-.206,5.087,5.087,0,0,1,2.505-.147c1.5.383,2.24,1.739,2.889,2.918A9.263,9.263,0,0,0,35.9,31.218c1.562,1.8,4.627,1.592,6.6.324a10.385,10.385,0,0,0,2.387-2.211.714.714,0,1,1,1.12.884A10.9,10.9,0,0,1,43.3,32.751a7.48,7.48,0,0,1-4.215,1.3Z" transform="translate(-9.339 -22.049)" fill="#308cef"/>
        </g>
        <g id="Grupo_1205373" data-name="Grupo 1205373" transform="translate(3.261 81.743)">
          <path id="Trazado_1045243" data-name="Trazado 1045243" d="M48.789,91.7c-4.863,9.284-9.255,17.066-11.377,20.779a1.578,1.578,0,0,1-2.741,0C28.334,101.422,2.19,54.705,2.19,38.259a33.555,33.555,0,0,1,.943-7.929A18,18,0,0,0,5.373,41c2.476,4.274,6.779,7.575,8.047,12.379.8,3.095.206,6.337.206,9.52-.029,3.183.766,6.75,3.449,8.518,3.095,2,7.87,1.032,10.139,3.95,1.326,1.71,1.238,4.067,1.562,6.19.354,2.122,1.739,4.51,3.891,4.451,1.916-.059,3.449-2.152,5.364-1.945,1.71.147,2.623,1.975,3.655,3.36a10.853,10.853,0,0,0,7.1,4.274Z" transform="translate(-2.19 -30.33)" fill="#308cef"/>
        </g>
        <g id="Grupo_1205374" data-name="Grupo 1205374" transform="translate(2.524 55.098)">
          <path id="Trazado_1045244" data-name="Trazado 1045244" d="M43.057,121.621a.785.785,0,0,1-.354-.088.721.721,0,0,1-.295-.973c2.181-3.95,4.244-7.84,6.219-11.583,9.579-18.3,21.015-42.384,21.015-53.113A33.137,33.137,0,0,0,4.3,48.082a34.854,34.854,0,0,0-.914,7.781c0,5.04,2.535,13.529,7.575,25.26a.72.72,0,0,1-1.326.56c-5.1-11.908-7.693-20.6-7.693-25.82a36.019,36.019,0,0,1,.943-8.105,34.585,34.585,0,0,1,68.2,8.105c0,10.994-11.525,35.31-21.192,53.761-1.945,3.743-4.067,7.663-6.219,11.613a.639.639,0,0,1-.619.383Zm-6.514-40.7a25.2,25.2,0,0,1,0-50.4,26.142,26.142,0,0,1,5.865.678.711.711,0,1,1-.324,1.385,24.716,24.716,0,0,0-5.512-.648A23.756,23.756,0,1,0,59.887,60.108a.687.687,0,0,1,.825-.56.716.716,0,0,1,.56.855A25.2,25.2,0,0,1,36.543,80.917Z" transform="translate(-1.94 -21.29)"/>
        </g>
        <g id="Grupo_1205375" data-name="Grupo 1205375" transform="translate(69.821 98.553)">
          <path id="Trazado_1045245" data-name="Trazado 1045245" d="M60.577,71.658,36.762,80.412a2.094,2.094,0,0,1-2.712-1.238L24.884,54.268A2.292,2.292,0,0,1,25,52.559l.884-1.68,7.487-14.236a1.154,1.154,0,0,1,1.444-.531L51.5,42.8a2.088,2.088,0,0,1,1.208,1.238l7.634,20.75,1.533,4.156A2.113,2.113,0,0,1,60.577,71.658Z" transform="translate(-24.772 -36.033)" fill="#1b38ab"/>
        </g>
        <g id="Grupo_1205376" data-name="Grupo 1205376" transform="translate(69.821 113.398)">
          <path id="Trazado_1045246" data-name="Trazado 1045246" d="M60.577,61.849,36.762,70.6a2.094,2.094,0,0,1-2.712-1.238L24.884,44.46A2.292,2.292,0,0,1,25,42.75l.884-1.68a15.4,15.4,0,0,0,1,4.893,6.938,6.938,0,0,0,4.6,4.244c1.12.236,2.328.088,3.36.589,1.8.855,2.211,3.154,2.623,5.07.413,1.945,1.385,4.215,3.36,4.362,2.564.236,4.48-3.36,6.956-2.712,1.474.383,2.152,2.063,3.39,2.977,1.739,1.238,4.244.619,5.865-.737a15.547,15.547,0,0,0,3.3-4.775l1.533,4.156A2.113,2.113,0,0,1,60.577,61.849Z" transform="translate(-24.772 -41.07)" fill="#142f84"/>
        </g>
        <g id="Grupo_1205377" data-name="Grupo 1205377" transform="translate(78.922 102.994)">
          <circle id="Elipse_12723" data-name="Elipse 12723" cx="2.712" cy="2.712" r="2.712" fill="#fff"/>
        </g>
        <g id="Grupo_1205379" data-name="Grupo 1205379" transform="translate(78.172 114.494)">
          <g id="Grupo_1205378" data-name="Grupo 1205378">
            <path id="Trazado_1045247" data-name="Trazado 1045247" d="M27.854,50.1a4.019,4.019,0,1,1,5.158,2.387A4.008,4.008,0,0,1,27.854,50.1Zm7.1,10.021A1.262,1.262,0,0,1,34.1,59.3a1.4,1.4,0,0,1-.029-.855L38.848,42.38a1.262,1.262,0,0,1,.825-.855,1.4,1.4,0,0,1,.855-.029,1.262,1.262,0,0,1,.855.825,1.4,1.4,0,0,1,.029.855L36.638,59.239a1.446,1.446,0,0,1-.825.884,1.409,1.409,0,0,1-.855,0Zm-4.6-10.965a1.333,1.333,0,1,0,.8-1.71A1.37,1.37,0,0,0,30.36,49.159Zm9.7,5.04a4.064,4.064,0,0,1,2.387-5.188,4.033,4.033,0,0,1,2.771,7.575A4.068,4.068,0,0,1,40.057,54.2Zm2.535-.943a1.333,1.333,0,0,0,2.505-.914,1.333,1.333,0,0,0-2.505.914Z" transform="translate(-27.606 -41.442)" fill="#fff"/>
          </g>
        </g>
        <g id="Grupo_1205380" data-name="Grupo 1205380" transform="translate(54.775 92.264)">
          <path id="Trazado_1045248" data-name="Trazado 1045248" d="M45.023,48.314a11.53,11.53,0,0,1-1.5-.118,4.854,4.854,0,0,0-.619-.059A54.105,54.105,0,0,1,27.25,44.453a14.844,14.844,0,0,1-5.482-3.39,7.377,7.377,0,0,1-1.916-6.632.719.719,0,0,1,1.385.383A5.926,5.926,0,0,0,22.8,40.09a13.637,13.637,0,0,0,4.952,3.036,51.319,51.319,0,0,0,15.238,3.6c.206.029.442.029.678.059,1.032.118,2.3.265,2.8-.354a.684.684,0,0,1,1-.118.708.708,0,0,1,.118,1,3.067,3.067,0,0,1-2.564,1Z" transform="translate(-19.667 -33.9)"/>
        </g>
        <g id="Grupo_1205381" data-name="Grupo 1205381" transform="translate(74.177 155.753)">
          <path id="Trazado_1045249" data-name="Trazado 1045249" d="M35.741,61.04a4.377,4.377,0,0,0-3.36,1.651A6.2,6.2,0,0,0,31,66.67c0-3.095-2.122-5.63-4.745-5.63a4.49,4.49,0,0,0,3.36-1.621A6.2,6.2,0,0,0,31,55.44a6.2,6.2,0,0,0,1.385,3.979,4.443,4.443,0,0,0,3.36,1.621Z" transform="translate(-26.25 -55.44)" fill="#fff"/>
        </g>
        <g id="Grupo_1205382" data-name="Grupo 1205382" transform="translate(161.863 76.142)">
          <path id="Trazado_1045250" data-name="Trazado 1045250" d="M65.491,34.03a4.377,4.377,0,0,0-3.36,1.651,6.2,6.2,0,0,0-1.385,3.979c0-3.095-2.122-5.63-4.745-5.63a4.49,4.49,0,0,0,3.36-1.621,6.2,6.2,0,0,0,1.385-3.979,6.2,6.2,0,0,0,1.385,3.979A4.5,4.5,0,0,0,65.491,34.03Z" transform="translate(-56 -28.43)" fill="#fff"/>
        </g>
        <g id="Grupo_1205383" data-name="Grupo 1205383" transform="translate(21.801 121.563)">
          <path id="Trazado_1045251" data-name="Trazado 1045251" d="M17.971,49.44a4.377,4.377,0,0,0-3.36,1.651,6.2,6.2,0,0,0-1.385,3.979c0-3.095-2.122-5.63-4.745-5.63a4.49,4.49,0,0,0,3.36-1.621,6.2,6.2,0,0,0,1.385-3.979,6.2,6.2,0,0,0,1.385,3.979,4.443,4.443,0,0,0,3.36,1.621Z" transform="translate(-8.48 -43.84)" fill="#fff"/>
        </g>
        <g id="Grupo_1205384" data-name="Grupo 1205384" transform="translate(70.257 162.503)">
          <path id="Trazado_1045252" data-name="Trazado 1045252" d="M30.108,60.8a2.362,2.362,0,0,0-1.827.914,3.38,3.38,0,0,0-.766,2.181A2.87,2.87,0,0,0,24.92,60.8a2.476,2.476,0,0,0,1.827-.884,3.38,3.38,0,0,0,.766-2.181,3.38,3.38,0,0,0,.766,2.181,2.38,2.38,0,0,0,1.827.884Z" transform="translate(-24.92 -57.73)" fill="#fff"/>
        </g>
        <g id="Grupo_1205387" data-name="Grupo 1205387" transform="translate(49.881 113.318)">
          <g id="Grupo_1205385" data-name="Grupo 1205385" transform="translate(0 4.66)">
            <path id="Trazado_1045253" data-name="Trazado 1045253" d="M22.938,42.672c1.326.383,1.651,3.154.5,6.1-1.12,2.947-3.242,4.775-4.48,4.185s-1.238-3.242-.177-5.983C19.873,44.234,21.612,42.289,22.938,42.672Z" transform="translate(-18.007 -42.624)" fill="#fff"/>
          </g>
          <g id="Grupo_1205386" data-name="Grupo 1205386" transform="translate(4.693)">
            <path id="Trazado_1045254" data-name="Trazado 1045254" d="M21.193,41.064c.589.147.855,1,.619,1.945-.265.914-.943,1.533-1.533,1.356s-.825-1.032-.589-1.945c.265-.884.914-1.5,1.5-1.356Z" transform="translate(-19.599 -41.043)" fill="#fff"/>
          </g>
        </g>
        <g id="Grupo_1205390" data-name="Grupo 1205390" transform="translate(144.693 9.098)">
          <g id="Grupo_1205388" data-name="Grupo 1205388">
            <path id="Trazado_1045255" data-name="Trazado 1045255" d="M70.027,14.162c-.442.56-1.71.295-3.478-.236-1.8-.531-4.126-1.326-6.779-2.211-5.305-1.68-9.9-3.537-9.579-4.952.265-1.3,5.188-1.651,11.141.206a19.142,19.142,0,0,1,7.015,3.92C69.88,12.334,70.469,13.631,70.027,14.162Z" transform="translate(-50.175 -5.684)" fill="#fff"/>
          </g>
          <g id="Grupo_1205389" data-name="Grupo 1205389" transform="translate(21.884 10.238)">
            <path id="Trazado_1045256" data-name="Trazado 1045256" d="M61.551,14.648c-.56.236-1.533-.855-2.564-2.211-.973-1.385-1.68-2.712-1.267-3.154s1.886.295,3.036,1.886C61.934,12.732,62.082,14.412,61.551,14.648Z" transform="translate(-57.599 -9.157)" fill="#fff"/>
          </g>
        </g>
        <g id="Grupo_1205393" data-name="Grupo 1205393" transform="translate(160.649 143.151)">
          <g id="Grupo_1205391" data-name="Grupo 1205391" transform="translate(3.504)">
            <path id="Trazado_1045257" data-name="Trazado 1045257" d="M58.525,64.268c-.531-.442-.5-1.444-.354-2.653a20.191,20.191,0,0,0,.354-3.92,11.029,11.029,0,0,0-1.179-3.478c-.531-1.179-.8-2.211-.324-2.712s1.474-.472,2.83.236A7.328,7.328,0,0,1,62,53.568a6.971,6.971,0,0,1,1.474,3.714,7.948,7.948,0,0,1-2.24,6.042c-1.12,1.12-2.181,1.356-2.712.943Z" transform="translate(-56.777 -51.164)" fill="#fff"/>
          </g>
          <g id="Grupo_1205392" data-name="Grupo 1205392" transform="translate(0 14.305)">
            <path id="Trazado_1045258" data-name="Trazado 1045258" d="M55.623,58.618c-.206-.589.531-1.326,1.474-1.945.973-.589,1.975-.884,2.387-.442.413.413-.059,1.562-1.267,2.3C57.067,59.267,55.8,59.178,55.623,58.618Z" transform="translate(-55.588 -56.018)" fill="#fff"/>
          </g>
        </g>
      </g>
    </g>
  </g>
</svg>
