<svg xmlns="http://www.w3.org/2000/svg" xmlns:xlink="http://www.w3.org/1999/xlink" width="386" height="664" viewBox="0 0 386 664">
  <defs>
    <clipPath id="clip-path">
      <rect id="Rectángulo_417184" data-name="Rectángulo 417184" width="386" height="664" transform="translate(1034 2763)" fill="#fff" stroke="#707070" stroke-width="1"/>
    </clipPath>
    <clipPath id="clip-path-2">
      <rect id="Rectángulo_417147" data-name="Rectángulo 417147" width="915" height="915" transform="translate(0)" fill="none"/>
    </clipPath>
    <clipPath id="clip-path-3">
      <rect id="Rectángulo_417145" data-name="Rectángulo 417145" width="99.275" height="14.014" fill="none"/>
    </clipPath>
    <clipPath id="clip-path-6">
      <rect id="Rectángulo_417168" data-name="Rectángulo 417168" width="20.113" height="39.935" fill="none"/>
    </clipPath>
    <clipPath id="clip-path-7">
      <rect id="Rectángulo_417170" data-name="Rectángulo 417170" width="20.113" height="22.273" fill="none"/>
    </clipPath>
  </defs>
  <g id="Enmascarar_grupo_1098900" data-name="Enmascarar grupo 1098900" transform="translate(-1034 -2763)" clip-path="url(#clip-path)">
    <g id="Grupo_1205415" data-name="Grupo 1205415">
      <ellipse id="Elipse_12724" data-name="Elipse 12724" cx="187.5" cy="307" rx="187.5" ry="307" transform="translate(1033 2763)" fill="#fcf2ec"/>
      <g id="Grupo_1205413" data-name="Grupo 1205413" transform="translate(-7530 -211.058)">
        <path id="Trazado_1045261" data-name="Trazado 1045261" d="M429.414,408.518v0Z" transform="translate(8668.56 3148.006)" fill="#373c40"/>
        <line id="Línea_3514" data-name="Línea 3514" y2="565.056" transform="translate(8493.681 2972.859)" fill="none" stroke="#bccffe" stroke-miterlimit="10" stroke-width="0.567"/>
        <line id="Línea_3515" data-name="Línea 3515" y2="565.056" transform="translate(8551.307 2972.859)" fill="none" stroke="#bccffe" stroke-miterlimit="10" stroke-width="0.567"/>
        <line id="Línea_3516" data-name="Línea 3516" y2="565.056" transform="translate(8608.934 2972.859)" fill="none" stroke="#bccffe" stroke-miterlimit="10" stroke-width="0.567"/>
        <line id="Línea_3517" data-name="Línea 3517" y2="565.056" transform="translate(8666.56 2972.859)" fill="none" stroke="#bccffe" stroke-miterlimit="10" stroke-width="0.567"/>
        <line id="Línea_3518" data-name="Línea 3518" y2="565.056" transform="translate(8724.185 2972.859)" fill="none" stroke="#bccffe" stroke-miterlimit="10" stroke-width="0.567"/>
        <line id="Línea_3519" data-name="Línea 3519" y2="565.056" transform="translate(8781.812 2972.859)" fill="none" stroke="#bccffe" stroke-miterlimit="10" stroke-width="0.567"/>
        <line id="Línea_3520" data-name="Línea 3520" y2="565.056" transform="translate(8839.438 2972.859)" fill="none" stroke="#bccffe" stroke-miterlimit="10" stroke-width="0.567"/>
        <line id="Línea_3521" data-name="Línea 3521" y2="565.056" transform="translate(8897.063 2972.859)" fill="none" stroke="#bccffe" stroke-miterlimit="10" stroke-width="0.567"/>
        <line id="Línea_3522" data-name="Línea 3522" y2="565.056" transform="translate(8954.688 2972.859)" fill="none" stroke="#bccffe" stroke-miterlimit="10" stroke-width="0.567"/>
        <line id="Línea_3523" data-name="Línea 3523" y2="565.056" transform="translate(9012.313 2972.859)" fill="none" stroke="#bccffe" stroke-miterlimit="10" stroke-width="0.567"/>
        <line id="Línea_3524" data-name="Línea 3524" y2="565.056" transform="translate(9069.939 2972.859)" fill="none" stroke="#bccffe" stroke-miterlimit="10" stroke-width="0.567"/>
        <line id="Línea_3525" data-name="Línea 3525" x1="649.49" transform="translate(8449.263 3052.898)" fill="none" stroke="#bccffe" stroke-miterlimit="10" stroke-width="0.567"/>
        <line id="Línea_3526" data-name="Línea 3526" x1="649.49" transform="translate(8449.263 2995.272)" fill="none" stroke="#bccffe" stroke-miterlimit="10" stroke-width="0.567"/>
        <line id="Línea_3527" data-name="Línea 3527" x1="649.49" transform="translate(8449.263 3110.523)" fill="none" stroke="#bccffe" stroke-miterlimit="10" stroke-width="0.567"/>
        <line id="Línea_3528" data-name="Línea 3528" x1="649.49" transform="translate(8449.263 3168.149)" fill="none" stroke="#bccffe" stroke-miterlimit="10" stroke-width="0.567"/>
        <line id="Línea_3529" data-name="Línea 3529" x1="649.49" transform="translate(8449.263 3225.775)" fill="none" stroke="#bccffe" stroke-miterlimit="10" stroke-width="0.567"/>
        <line id="Línea_3530" data-name="Línea 3530" x1="649.49" transform="translate(8449.263 3283.401)" fill="none" stroke="#bccffe" stroke-miterlimit="10" stroke-width="0.567"/>
        <line id="Línea_3531" data-name="Línea 3531" x1="649.49" transform="translate(8449.263 3341.027)" fill="none" stroke="#bccffe" stroke-miterlimit="10" stroke-width="0.567"/>
        <line id="Línea_3532" data-name="Línea 3532" x1="649.49" transform="translate(8449.263 3398.653)" fill="none" stroke="#bccffe" stroke-miterlimit="10" stroke-width="0.567"/>
        <line id="Línea_3533" data-name="Línea 3533" x1="649.49" transform="translate(8449.263 3456.278)" fill="none" stroke="#bccffe" stroke-miterlimit="10" stroke-width="0.567"/>
        <line id="Línea_3534" data-name="Línea 3534" x1="649.49" transform="translate(8449.263 3513.904)" fill="none" stroke="#bccffe" stroke-miterlimit="10" stroke-width="0.567"/>
        <path id="Trazado_1045289" data-name="Trazado 1045289" d="M355.286,190.408l97.5,52.268-3.86-98.3Z" transform="translate(8496.211 2928.736)" fill="#dd5325"/>
        <path id="Trazado_1045290" data-name="Trazado 1045290" d="M178.8,412.39,95.3,532.726l80.1-184.65,72.3,137.1,63.672-194.355H545.594l61.935-116.191,32.587,21.3L566.659,329.749h-221.5L251.7,560.057Z" transform="translate(8280.393 2953.847)" fill="#dd5325"/>
        <g id="Grupo_1205414" data-name="Grupo 1205414" transform="translate(8215 2811.058)">
          <g id="Grupo_1205402" data-name="Grupo 1205402">
            <g id="Grupo_1205401" data-name="Grupo 1205401" transform="translate(0 0)" clip-path="url(#clip-path-2)">
              <path id="Trazado_1045262" data-name="Trazado 1045262" d="M184.159,142.02c-3.587.307-14.046-2.022-10.444-7.987,2.2-3.642,10.031-1.089,13.4-4.065,2.174-1.92,2.1-3.772,5-4.839a16.56,16.56,0,0,1,6.751-.328c5.152,1.155,7.275,5.531,12.987,5.053,2.473-.2,4.938-1.158,7.456-.836,3.049.392,5.064,2.892,8.06,3.69,4.623,1.232,10.06-1.076,14.659.485,1.047.355,5.388,2.527,5.928,3.417,2.6,4.266-1.5,3.876-4.35,4.153-7.112.694-13.854,1.257-21.1,1.257Z" transform="translate(143.587 103.371)" fill="#fff"/>
              <path id="Trazado_1045263" data-name="Trazado 1045263" d="M348.184,128.635c10.188,4.945,33.25,3.819,38.515,4.332,6.349.615,11.773-.952,17.986-.955,6.583,0,13.155.419,19.774.419,2.679,0,6.947.913,8.748-1.146,1.742-1.993,1.08-5.834-.544-7.43-2.412-2.374-6.645-1.261-9.659-1.894a20.858,20.858,0,0,1-9.032-4.714c-6.654-5.686-14.862-10.4-24.264-8.662-4.147.767-7.827,3.075-11.987,3.68-3.539.514-6.861-.461-10.261-1.232-2.655-.6-6.3-1.843-9.066-1.252-3.7.791-3.431,4.059-6.574,5.974-2.476,1.51-6.523.756-7.811,3.743-1.854,4.3.161,7.191,4.174,9.138" transform="translate(264.993 132.773)" fill="#fff"/>
              <path id="Trazado_1045264" data-name="Trazado 1045264" d="M197.027,170.616c12.606,5.02,25.29,1.68,38.486,1.68,13.294,0,26.411-.469,39.747-.419,7.051.026,16.447,3.547,23.323,1.288,4.687-1.541,2.328-4.749-1.093-6.06-4.78-1.832-10.369-3.173-14.767-5.805-4.182-2.5-6.356-6.771-9.7-10.152a21.188,21.188,0,0,0-17.412-6.127c-5.216.529-6.006,3.179-9.478,6.393-3.9,3.6-8.506,3.4-13.349,1.761-5.124-1.731-14.48-7.145-19.112-2.165-2.961,3.183-1.184,7.185-6.142,9.233-2.979,1.234-6.656.245-9.5,1.567-2.22,1.032-5.82,6.733-1.008,8.807" transform="translate(425.843 346.228)" fill="#fff"/>
              <path id="Trazado_1045265" data-name="Trazado 1045265" d="M122.657,174.378c6.006,5.531,17.326,5.814,24.983,5.926,9.828.141,19.257-2.123,28.98-2.659,8.883-.489,18.083.075,27.024.075,3.212,0,16.118,1.817,17.675-1.66,2.055-4.586-13.45-5.066-16.359-6.936-6.336-4.074-10.282-9.363-18.442-10.2-6.92-.71-10.3,4.612-17.13,2.641-7.5-2.161-14.729-5.309-22.43-6.846-5.9-1.175-14.978-2.892-19.762,1.72-5.132,4.952-9.861,13.034-4.539,17.937" transform="translate(323.494 26.288)" fill="#fff"/>
              <g id="Grupo_1205397" data-name="Grupo 1205397" transform="translate(583.2 791.237)" opacity="0.35" style="mix-blend-mode: multiply;isolation: isolate">
                <g id="Grupo_1205396" data-name="Grupo 1205396">
                  <g id="Grupo_1205395" data-name="Grupo 1205395" clip-path="url(#clip-path-3)">
                    <path id="Trazado_1045266" data-name="Trazado 1045266" d="M417.942,439.382c0,3.871-22.223,7.008-49.637,7.008s-49.638-3.137-49.638-7.008,22.223-7.008,49.638-7.008,49.637,3.137,49.637,7.008" transform="translate(-318.667 -432.375)" fill="#a0bafe"/>
                  </g>
                </g>
              </g>
              <g id="Grupo_1205400" data-name="Grupo 1205400" transform="translate(471.712 791.237)" opacity="0.35" style="mix-blend-mode: multiply;isolation: isolate">
                <g id="Grupo_1205399" data-name="Grupo 1205399">
                  <g id="Grupo_1205398" data-name="Grupo 1205398" clip-path="url(#clip-path-3)">
                    <path id="Trazado_1045267" data-name="Trazado 1045267" d="M357.026,439.382c0,3.871-22.223,7.008-49.64,7.008s-49.637-3.137-49.637-7.008,22.223-7.008,49.637-7.008,49.64,3.137,49.64,7.008" transform="translate(-257.749 -432.375)" fill="#a0bafe"/>
                  </g>
                </g>
              </g>
              <path id="Trazado_1045268" data-name="Trazado 1045268" d="M139.037,436.736H288.7s-10.549-24.928-37.043-17.851-25.583-32.119-56.311-12.145c-25.457-15.893-63.331,0-56.311,30" transform="translate(297.217 332.378)" fill="#5f823c"/>
              <path id="Trazado_1045269" data-name="Trazado 1045269" d="M83.425,447.321H278.741s-14.952-21.925-42.988-14.626-40.184-33.989-74.762-18.1c-24.3-28.025-80.37-20.518-77.566,32.73" transform="translate(251.676 330.819)" fill="#8da764"/>
              <path id="Trazado_1045270" data-name="Trazado 1045270" d="M97.262,442.794s-9.722-14.273,0-27.483c6.217,5.011,7.174,16.451,7.174,16.451s-.256-16.127,9.555-23.244c5.607,13.907,0,24.469,0,24.469s7.009-14.98,15.421-17.675c7.009,9.216,0,22.2,0,22.2s6.308-9.985,16.12-13.237c3.5,7.963-3.5,17.287-3.5,17.287s-22.855,8.285-44.765,1.232" transform="translate(259.66 339.059)" fill="#5f823c"/>
              <path id="Trazado_1045271" data-name="Trazado 1045271" d="M409.937,438.6c-24.859-36.273-11.618-55.171,0-9.808-16.3-59.139,4.026-40.06,5.507,2.154-3.99-67.815,16.149-35.008,5.8,0,6.3-69.709,20.688-27.5,3.247,1.684,19.326-57.05,25.312-31.425,3.852,5.371-5.611,2.33-18.4.6-18.4.6" transform="translate(293.073 324.89)" fill="#5f823c"/>
              <path id="Trazado_1045272" data-name="Trazado 1045272" d="M373.385,427.817h71.23s.414-24.7-17.577-16.169-12.879-9.022-28.14,1.958-21.279-.082-25.514,14.211" transform="translate(274.438 340.169)" fill="#8da764"/>
            </g>
          </g>
          <path id="Trazado_1045273" data-name="Trazado 1045273" d="M365.833,177.4V288.688H224.015L220.43,177.4Z" transform="translate(182.984 147.2)" fill="#fff"/>
          <path id="Trazado_1045274" data-name="Trazado 1045274" d="M220.429,214.618h61.1l21.5-85.253H264.954Z" transform="translate(182.983 107.328)" fill="#8da764"/>
          <path id="Trazado_1045275" data-name="Trazado 1045275" d="M222.49,247.823H364.579v-21.2H221.941Z" transform="translate(184.238 188.065)" fill="#a6a8aa"/>
          <path id="Trazado_1045276" data-name="Trazado 1045276" d="M364.386,290.391H299.879V179.1l64.506-3.755Z" transform="translate(248.937 145.496)" fill="#d3d4d5"/>
          <path id="Trazado_1045277" data-name="Trazado 1045277" d="M246.9,214.618h96.953l32.258-85.253H246.9Z" transform="translate(204.96 107.328)" fill="#8da764"/>
          <line id="Línea_3535" data-name="Línea 3535" x1="135.801" transform="translate(442.605 244.961)" fill="none" stroke="#5f823c" stroke-miterlimit="10" stroke-width="0.567"/>
          <line id="Línea_3536" data-name="Línea 3536" x1="136.758" transform="translate(439.579 252.933)" fill="none" stroke="#5f823c" stroke-miterlimit="10" stroke-width="0.567"/>
          <line id="Línea_3537" data-name="Línea 3537" x1="137.724" transform="translate(435.424 260.992)" fill="none" stroke="#5f823c" stroke-miterlimit="10" stroke-width="0.567"/>
          <line id="Línea_3538" data-name="Línea 3538" x1="138.701" transform="translate(431.224 269.14)" fill="none" stroke="#5f823c" stroke-miterlimit="10" stroke-width="0.567"/>
          <line id="Línea_3539" data-name="Línea 3539" x1="139.69" transform="translate(426.976 277.378)" fill="none" stroke="#5f823c" stroke-miterlimit="10" stroke-width="0.567"/>
          <line id="Línea_3540" data-name="Línea 3540" x1="140.689" transform="translate(422.681 285.707)" fill="none" stroke="#5f823c" stroke-miterlimit="10" stroke-width="0.567"/>
          <line id="Línea_3541" data-name="Línea 3541" x1="141.699" transform="translate(418.338 294.131)" fill="none" stroke="#5f823c" stroke-miterlimit="10" stroke-width="0.567"/>
          <line id="Línea_3542" data-name="Línea 3542" x1="142.72" transform="translate(413.946 302.648)" fill="none" stroke="#5f823c" stroke-miterlimit="10" stroke-width="0.567"/>
          <line id="Línea_3543" data-name="Línea 3543" x1="143.754" transform="translate(409.504 311.263)" fill="none" stroke="#5f823c" stroke-miterlimit="10" stroke-width="0.567"/>
          <path id="Trazado_1045278" data-name="Trazado 1045278" d="M364.386,210.862l-64.506,3.755,32.258-85.253Z" transform="translate(248.937 107.328)" fill="#5f823c"/>
          <rect id="Rectángulo_417148" data-name="Rectángulo 417148" width="64.506" height="21.198" transform="translate(548.815 414.688)" fill="#7a7d80"/>
          <rect id="Rectángulo_417149" data-name="Rectángulo 417149" width="26.315" height="21.198" transform="translate(587.007 414.688)" fill="#64676b"/>
          <rect id="Rectángulo_417150" data-name="Rectángulo 417150" width="150.105" height="4.969" transform="translate(401.673 320.124)" fill="#5f823c"/>
          <path id="Trazado_1045279" data-name="Trazado 1045279" d="M368.1,177.869l-66.6,3.755v-4.969l66.6-3.755Z" transform="translate(250.28 143.468)" fill="#527034"/>
          <rect id="Rectángulo_417151" data-name="Rectángulo 417151" width="60.079" height="78.876" transform="translate(428.149 351.346)" fill="#984326"/>
          <rect id="Rectángulo_417152" data-name="Rectángulo 417152" width="72.806" height="5.664" transform="translate(418.345 430.223)" fill="#a34829"/>
          <path id="Trazado_1045280" data-name="Trazado 1045280" d="M287.037,268.415V194.994H236.572v73.421" transform="translate(196.383 161.808)" fill="#b55934"/>
          <rect id="Rectángulo_417153" data-name="Rectángulo 417153" width="16.021" height="14.055" transform="translate(462.512 361.418)" fill="#a0bafe"/>
          <rect id="Rectángulo_417154" data-name="Rectángulo 417154" width="16.021" height="14.055" transform="translate(437.843 361.418)" fill="#a0bafe"/>
          <rect id="Rectángulo_417155" data-name="Rectángulo 417155" width="43.615" height="46.476" transform="translate(496.773 356.394)" fill="#b55934"/>
          <rect id="Rectángulo_417156" data-name="Rectángulo 417156" width="46.957" height="3.243" transform="translate(493.431 402.87)" fill="#984326"/>
          <rect id="Rectángulo_417157" data-name="Rectángulo 417157" width="3.344" height="3.243" transform="translate(537.044 402.87)" fill="#a34829"/>
          <rect id="Rectángulo_417158" data-name="Rectángulo 417158" width="38.226" height="39.992" transform="translate(499.654 359.635)" fill="#a0bafe"/>
          <rect id="Rectángulo_417159" data-name="Rectángulo 417159" width="2.507" height="42.153" transform="translate(524.925 358.555)" fill="#b55934"/>
          <rect id="Rectángulo_417160" data-name="Rectángulo 417160" width="2.507" height="42.153" transform="translate(510.15 358.555)" fill="#b55934"/>
          <rect id="Rectángulo_417161" data-name="Rectángulo 417161" width="40.241" height="2.626" transform="translate(498.673 370.581)" fill="#b55934"/>
          <rect id="Rectángulo_417162" data-name="Rectángulo 417162" width="40.241" height="2.626" transform="translate(498.673 386.056)" fill="#b55934"/>
          <path id="Trazado_1045281" data-name="Trazado 1045281" d="M320.266,203.806l-9.859,22.655v46.571H335.07V196.255Z" transform="translate(257.676 162.855)" fill="#a6a8aa"/>
          <path id="Trazado_1045282" data-name="Trazado 1045282" d="M331.094,203.806l9.859,22.655v46.571H322.174V196.255Z" transform="translate(267.443 162.855)" fill="#7a7d80"/>
          <path id="Trazado_1045283" data-name="Trazado 1045283" d="M325.466,203.806l-9.859,22.655v46.571h18.779V196.255Z" transform="translate(261.992 162.855)" fill="#7a7d80"/>
          <rect id="Rectángulo_417163" data-name="Rectángulo 417163" width="20.111" height="147.22" transform="translate(578.34 219.155)" fill="#a6a8aa"/>
          <rect id="Rectángulo_417164" data-name="Rectángulo 417164" width="11.195" height="158.481" transform="translate(587.258 219.155)" fill="#7a7d80"/>
          <rect id="Rectángulo_417165" data-name="Rectángulo 417165" width="23.237" height="6.484" transform="translate(576.778 219.156)" fill="#7a7d80"/>
          <rect id="Rectángulo_417166" data-name="Rectángulo 417166" width="10.699" height="6.484" transform="translate(589.317 219.156)" fill="#64676b"/>
          <g id="Grupo_1205410" data-name="Grupo 1205410">
            <g id="Grupo_1205409" data-name="Grupo 1205409" transform="translate(0 0)" clip-path="url(#clip-path-2)">
              <g id="Grupo_1205405" data-name="Grupo 1205405" transform="translate(578.341 276.9)" opacity="0.1" style="mix-blend-mode: multiply;isolation: isolate">
                <g id="Grupo_1205404" data-name="Grupo 1205404">
                  <g id="Grupo_1205403" data-name="Grupo 1205403" clip-path="url(#clip-path-6)">
                    <rect id="Rectángulo_417167" data-name="Rectángulo 417167" width="20.111" height="39.937" transform="translate(0 -0.002)" fill="#21262b"/>
                  </g>
                </g>
              </g>
              <g id="Grupo_1205408" data-name="Grupo 1205408" transform="translate(578.341 342.703)" opacity="0.1" style="mix-blend-mode: multiply;isolation: isolate">
                <g id="Grupo_1205407" data-name="Grupo 1205407">
                  <g id="Grupo_1205406" data-name="Grupo 1205406" clip-path="url(#clip-path-7)">
                    <rect id="Rectángulo_417169" data-name="Rectángulo 417169" width="20.111" height="22.271" transform="translate(0 0.002)" fill="#21262b"/>
                  </g>
                </g>
              </g>
            </g>
          </g>
          <line id="Línea_3544" data-name="Línea 3544" y2="73.32" transform="translate(457.754 356.676)" fill="none" stroke="#984326" stroke-miterlimit="10" stroke-width="0.567"/>
          <rect id="Rectángulo_417172" data-name="Rectángulo 417172" width="16.228" height="44.399" transform="translate(462.354 380.524)" fill="none" stroke="#984326" stroke-miterlimit="10" stroke-width="0.567"/>
          <rect id="Rectángulo_417173" data-name="Rectángulo 417173" width="16.228" height="44.399" transform="translate(437.651 380.524)" fill="none" stroke="#984326" stroke-miterlimit="10" stroke-width="0.567"/>
          <path id="Trazado_1045284" data-name="Trazado 1045284" d="M243,167.057h71.455l-38.429-47.662Z" transform="translate(201.717 99.051)" fill="#8da764"/>
          <path id="Trazado_1045285" data-name="Trazado 1045285" d="M263.3,129.427l-20.3,29.3h4.235" transform="translate(201.717 107.379)" fill="none" stroke="#5f823c" stroke-miterlimit="10" stroke-width="0.567"/>
          <path id="Trazado_1045286" data-name="Trazado 1045286" d="M309.611,163.794l-35.353-40.468-29.137,40.468Z" transform="translate(203.48 102.315)" fill="#fff"/>
          <rect id="Rectángulo_417174" data-name="Rectángulo 417174" width="64.495" height="48.372" transform="translate(448.596 266.108)" fill="#fff"/>
          <path id="Trazado_1045287" data-name="Trazado 1045287" d="M299.72,152.5,280.359,193.81V145.438H299.72Z" transform="translate(232.732 120.67)" fill="#d3d4d5"/>
          <path id="Trazado_1045288" data-name="Trazado 1045288" d="M317.7,167.057H299.471l-38.429-47.662,21.811,3.755Z" transform="translate(216.696 99.051)" fill="#5f823c"/>
          <rect id="Rectángulo_417175" data-name="Rectángulo 417175" width="35.082" height="46.476" transform="translate(464.522 256.363)" fill="#b55934"/>
          <rect id="Rectángulo_417176" data-name="Rectángulo 417176" width="39.209" height="3.243" transform="translate(460.395 302.839)" fill="#984326"/>
          <rect id="Rectángulo_417177" data-name="Rectángulo 417177" width="4.127" height="3.243" transform="translate(495.477 302.839)" fill="#a34829"/>
          <rect id="Rectángulo_417178" data-name="Rectángulo 417178" width="28.89" height="39.992" transform="translate(467.616 259.606)" fill="#a0bafe"/>
          <rect id="Rectángulo_417179" data-name="Rectángulo 417179" width="30.955" height="3.243" transform="translate(466.586 272.263)" fill="#b55934"/>
          <rect id="Rectángulo_417180" data-name="Rectángulo 417180" width="30.955" height="3.243" transform="translate(466.586 286.836)" fill="#b55934"/>
          <rect id="Rectángulo_417181" data-name="Rectángulo 417181" width="3.095" height="42.153" transform="translate(480.514 258.524)" fill="#b55934"/>
          <g id="Grupo_1205412" data-name="Grupo 1205412">
            <g id="Grupo_1205411" data-name="Grupo 1205411" transform="translate(0 0)" clip-path="url(#clip-path-2)">
              <path id="Trazado_1045291" data-name="Trazado 1045291" d="M344.689,326.778c-.216-4.3,2.549-9.129,4.941-8.774s14,4.3,13.995,8.755c-.009,6.823-5.468,13.589-9.035,13.21-5.229-.556-9.9-13.191-9.9-13.191" transform="translate(286.124 263.906)" fill="#762f0e"/>
              <path id="Trazado_1045292" data-name="Trazado 1045292" d="M370.177,412.394l-16.852,4.07,4.963,21.473,16.641,9.206Z" transform="translate(293.303 342.276)" fill="#e9a493"/>
              <path id="Trazado_1045293" data-name="Trazado 1045293" d="M350.576,444.266c.306.847.267,2.257.888,2.864,2.553,2.5,21.967-1.993,29.789-14.216,1.307-2.042-.717-4.48-.589-4.683-4.246,3.737-21.987,20.113-30.087,16.036" transform="translate(291.021 355.422)" fill="#fff"/>
              <path id="Trazado_1045294" data-name="Trazado 1045294" d="M368.408,426.936c-1.105-4.53-9.13-3.062-9.963,1.177-.7,3.56-.587,4.283-2.121,7.024-2.7,4.828-6.363,11.345-5.714,13.144,2.828,4.242,26.938-5.651,29.941-15.508.192-5.3-4.354-8.764-5.271-9.379-1.032,2.416-4.621,4.217-6.872,3.543" transform="translate(290.987 351.407)" fill="#42474b"/>
              <path id="Trazado_1045295" data-name="Trazado 1045295" d="M353.921,429.878s5.022-2.773,9.434-1.477" transform="translate(293.798 355.278)" fill="none" stroke="#fff" stroke-miterlimit="10" stroke-width="0.567"/>
              <path id="Trazado_1045296" data-name="Trazado 1045296" d="M353.2,431.219s5.587-2.584,9.107-.756" transform="translate(293.196 356.733)" fill="none" stroke="#fff" stroke-miterlimit="10" stroke-width="0.567"/>
              <path id="Trazado_1045297" data-name="Trazado 1045297" d="M351.983,432.711s7.474-2.2,9.9-.531" transform="translate(292.189 358.181)" fill="none" stroke="#fff" stroke-miterlimit="10" stroke-width="0.567"/>
              <path id="Trazado_1045298" data-name="Trazado 1045298" d="M354.5,428.273c3.089-2.335,8.944-1.762,9.661-1.052" transform="translate(294.278 354.067)" fill="none" stroke="#fff" stroke-miterlimit="10" stroke-width="0.567"/>
              <path id="Trazado_1045299" data-name="Trazado 1045299" d="M365.545,438.462c-6.039,2.742-13.235,4.713-14.881,2.246-.383-1.06-.474-5.313,2.4-7.643,6.588-1.751,10.375.88,12.481,5.4" transform="translate(290.933 358.982)" fill="#fff"/>
              <path id="Trazado_1045300" data-name="Trazado 1045300" d="M363.655,425.329s-2.461,8.594-7.394,14.28" transform="translate(295.74 353.014)" fill="none" stroke="#2c3136" stroke-miterlimit="10" stroke-width="0.567"/>
              <path id="Trazado_1045301" data-name="Trazado 1045301" d="M350.466,410.434l-17.289,1.3,1.437,21.993,14.939,11.77Z" transform="translate(276.578 340.65)" fill="#e9a493"/>
              <path id="Trazado_1045302" data-name="Trazado 1045302" d="M326.9,438.1c.159.886-.113,2.271.4,2.972,2.1,2.888,21.934,2,31.687-8.752,1.629-1.8.038-4.537.2-4.714-4.811,2.976-24.977,15.865-32.283,10.494" transform="translate(271.368 354.906)" fill="#fff"/>
              <path id="Trazado_1045303" data-name="Trazado 1045303" d="M347.961,425.22c-.335-4.65-8.492-4.542-10.02-.5-1.285,3.393-1.292,4.125-3.263,6.572-3.47,4.31-8.109,9.826-7.769,11.709,2.081,4.654,27.446-.783,32.051-10,1.072-5.192-2.829-9.366-3.633-10.128-1.42,2.211-5.26,3.388-7.366,2.348" transform="translate(271.36 350.008)" fill="#42474b"/>
              <path id="Trazado_1045304" data-name="Trazado 1045304" d="M331.492,426.6s5.414-1.894,9.548.119" transform="translate(275.179 353.398)" fill="none" stroke="#fff" stroke-miterlimit="10" stroke-width="0.567"/>
              <path id="Trazado_1045305" data-name="Trazado 1045305" d="M330.523,427.861s5.941-1.616,9.1.772" transform="translate(274.374 354.673)" fill="none" stroke="#fff" stroke-miterlimit="10" stroke-width="0.567"/>
              <path id="Trazado_1045306" data-name="Trazado 1045306" d="M329.059,429.1s7.738-.926,9.852,1.127" transform="translate(273.159 355.968)" fill="none" stroke="#fff" stroke-miterlimit="10" stroke-width="0.567"/>
              <path id="Trazado_1045307" data-name="Trazado 1045307" d="M332.319,425.188c3.437-1.786,9.114-.245,9.7.573" transform="translate(275.865 352.21)" fill="none" stroke="#fff" stroke-miterlimit="10" stroke-width="0.567"/>
              <path id="Trazado_1045308" data-name="Trazado 1045308" d="M341.271,437.173c-6.413,1.7-13.144,2.011-14.354-.7a7.563,7.563,0,0,1,3.583-6.837c6.788-.628,9.447,2.727,10.77,7.533" transform="translate(271.351 356.53)" fill="#fff"/>
              <path id="Trazado_1045309" data-name="Trazado 1045309" d="M342.79,423.627s-3.86,8.063-9.67,12.847" transform="translate(276.53 351.601)" fill="none" stroke="#2c3136" stroke-miterlimit="10" stroke-width="0.567"/>
              <path id="Trazado_1045310" data-name="Trazado 1045310" d="M386.814,340.766l6.2,11.581-7.178,6.217c-1.786-1.607-5.723-9.379-6.782-11.559Z" transform="translate(314.661 282.816)" fill="#e9a493"/>
              <path id="Trazado_1045311" data-name="Trazado 1045311" d="M385.086,361.215l6.711-6.29-6.768-13.2-7.6,4.819Z" transform="translate(313.313 283.609)" fill="#fff"/>
              <path id="Trazado_1045312" data-name="Trazado 1045312" d="M394.805,349.752l-11.2,7.43s-10.878-16.495-18.332-20.8c-6.782-3.913-6.524,30.636-6.524,30.636s12.454,11.193,21.142,12.653c6.226,1.045,16.782-7.712,22.263-12.758a91.919,91.919,0,0,1-7.344-17.165" transform="translate(297.801 278.923)" fill="#a17aec"/>
              <path id="Trazado_1045313" data-name="Trazado 1045313" d="M388.426,357.4c2.293-1.177,5.461-3.426,9.846-5.1,2.945-1.125,7.066-2.377,6.68-4-.339-1.42-3.3-.112-5.4.013,1.658-.617,6.235-1.933,5.88-3.431-.4-1.7-5.373.005-7.472.311,3.426-1.149,7.661-2.789,7.026-4.493-.743-1.995-5.823.375-9.108,1.686,10.964-5.23,8.038-9.919-3.558-2.006-3.428,2.339,4.184-2.03,3.181-4.057-1.654-3.344-15.293,5.329-12.172,13.245,1.579,4.008,3.964,7.022,5.1,7.835" transform="translate(317.828 278.518)" fill="#e9a493"/>
              <path id="Trazado_1045314" data-name="Trazado 1045314" d="M327.632,313.656c.355-2.551,1.435-6.283,1.57-10.975.092-3.15-.813-6.991.849-7.161,1.451-.148,1.918,2.612,2.493,4.636.035-1.77-1-6.481,1.3-6.686,2.383-.209,2.383,4.879,2.169,7.161-.044-3.614-.8-8.759,1.729-8.759,2.917,0,1.761,6.265,1.609,9.8-.478-12.893,7.8-11.407,3.065,2.7-1.321,3.935,1.969-4.332,4.217-4.052,3.7.459-1.424,15.908-9.927,15.569-4.3-.17-7.935-1.427-9.076-2.229" transform="translate(271.975 242.228)" fill="#e9a493"/>
              <path id="Trazado_1045315" data-name="Trazado 1045315" d="M342.334,304.942l-12.977-2.037-3.5,8.827c2.1,1.157,10.741,2.311,13.148,2.591Z" transform="translate(270.499 251.387)" fill="#e9a493"/>
              <path id="Trazado_1045316" data-name="Trazado 1045316" d="M325.011,312.04l3.776-8.521,13.629,4.447-1.054,4.526Z" transform="translate(269.799 251.897)" fill="#fff"/>
              <path id="Trazado_1045317" data-name="Trazado 1045317" d="M343.563,329.285l3.869-18.034a160.883,160.883,0,0,1-18.594-7.044c-3.865,5.633-9.776,30.067-8.164,36.022,2.853,10.527,27.057,32.285,27.057,32.285l16.308-19.322Z" transform="translate(265.972 252.468)" fill="#a17aec"/>
              <path id="Trazado_1045318" data-name="Trazado 1045318" d="M383.957,382.36l-.264-19.207-45.533-3.724s-6.078,50.678-6.892,64.488c-.555,9.394.256,31.593.833,44.849a62.567,62.567,0,0,0,22.754-.968l-.421-40.405,6.191-32.523,9.249,78.867c7.721.944,16.211.254,23.682-3.067Z" transform="translate(274.839 298.309)" fill="#495aab"/>
              <path id="Trazado_1045319" data-name="Trazado 1045319" d="M386.846,341.492c-7.665-7-45.94-16.112-53.654-8.225-.4,18.79-.2,42.257,1.3,60.985,15.69,3.856,32.254,6.18,48.194,2.771,1.719-16.753,3.71-38.7,4.164-55.531" transform="translate(276.441 274.061)" fill="#a17aec"/>
              <path id="Trazado_1045320" data-name="Trazado 1045320" d="M348.584,330.855c-6.08-.906-7.93,5.686,1.429,7.2s10.772-5.258,5.6-5.942" transform="translate(285.154 274.518)" fill="#e9a493"/>
              <path id="Trazado_1045321" data-name="Trazado 1045321" d="M345.158,329.105l-.384,9.722c.309,4.184,10.5,3.953,11.016-1.1.421-6.4.921-8.757.855-11.414Z" transform="translate(286.205 270.815)" fill="#e9a493"/>
              <path id="Trazado_1045322" data-name="Trazado 1045322" d="M352.444,337.8c-5.564,1.367-9.3-1.649-9-4.583.322-3.164,1.336-6.519,2.645-8.234,1.684-4.738,6.845-8.054,12.679-4.466s2.725,15.19-6.325,17.282" transform="translate(285.088 264.752)" fill="#e9a493"/>
              <path id="Trazado_1045323" data-name="Trazado 1045323" d="M348.046,324.145c-.15.313-.093.65.124.754s.514-.066.664-.377.093-.65-.124-.754-.516.064-.664.377" transform="translate(288.851 268.68)" fill="#373c40"/>
              <path id="Trazado_1045324" data-name="Trazado 1045324" d="M345.359,322.755c-.15.313-.093.65.124.754s.514-.066.664-.377.093-.65-.124-.754-.516.064-.664.377" transform="translate(286.621 267.526)" fill="#373c40"/>
              <path id="Trazado_1045325" data-name="Trazado 1045325" d="M354.477,329.444c-1.091,1.391-2.588,2.05-3.345,1.471s-.485-2.176.6-3.567,2.59-2.05,3.345-1.471.487,2.176-.6,3.567" transform="translate(291.126 270.283)" fill="#e9a493"/>
              <path id="Trazado_1045326" data-name="Trazado 1045326" d="M345.924,324.993c-.514-1.409.576-2.041,1.429-1.221" transform="translate(287.049 268.407)" fill="none" stroke="#ab6453" stroke-linecap="round" stroke-linejoin="round" stroke-width="0.567"/>
              <path id="Trazado_1045327" data-name="Trazado 1045327" d="M345.242,325.583c.646-.229,1.2.307,1.724.728" transform="translate(286.593 270.167)" fill="none" stroke="#ab6453" stroke-linecap="round" stroke-linejoin="round" stroke-width="0.567"/>
              <path id="Trazado_1045328" data-name="Trazado 1045328" d="M358.915,333.107a3.311,3.311,0,0,0-2.947,1.649c-.165.236-.547,1.543-.99,1.175a.693.693,0,0,1-.187-.518c-.051-1.129.666-2.006.734-3.065a3.447,3.447,0,0,0-.478-1.429,5.068,5.068,0,0,1-.251-1.546c-.038-.814.059-2.224,1.164-2.229-4.389.024-9.776-2.37-10.326-5.595s5.725-7.489,9.9-2.557c3.926-.024,6.041,3.777,5.467,6.087,4.024,2.981.282,8.259-2.085,8.029" transform="translate(286.892 262.876)" fill="#762f0e"/>
              <line id="Línea_3545" data-name="Línea 3545" x1="7.703" y1="5.278" transform="translate(653.472 644.46)" fill="none" stroke="#814bd9" stroke-linecap="round" stroke-linejoin="round" stroke-width="0.567"/>
              <path id="Trazado_1045329" data-name="Trazado 1045329" d="M349.61,383.576l-.814-6.911-4.442-3.633" transform="translate(285.856 309.602)" fill="none" stroke="#3f4e94" stroke-linecap="round" stroke-linejoin="round" stroke-width="0.567"/>
              <path id="Trazado_1045330" data-name="Trazado 1045330" d="M331.627,414.761s9.31,1.248,22.681-1.12" transform="translate(275.291 343.312)" fill="none" stroke="#3f4e94" stroke-linecap="round" stroke-linejoin="round" stroke-width="0.567"/>
              <path id="Trazado_1045331" data-name="Trazado 1045331" d="M351.652,418.871s15.819.653,23.574-3.882" transform="translate(291.914 344.431)" fill="none" stroke="#3f4e94" stroke-linecap="round" stroke-linejoin="round" stroke-width="0.567"/>
              <path id="Trazado_1045332" data-name="Trazado 1045332" d="M263.447,347.009c-11.92,33.394,9.072,48.652,21.138,34.827s-7.624-46.15-21.138-34.827" transform="translate(215.752 286.038)" fill="#ab6453"/>
              <path id="Trazado_1045333" data-name="Trazado 1045333" d="M288.07,412.751l2.467,31.465,15.34-.062-.593-30.208Z" transform="translate(239.133 342.573)" fill="#ab6453"/>
              <path id="Trazado_1045334" data-name="Trazado 1045334" d="M267.189,412.469l-1.321,26.524h15.913l2.738-26.764Z" transform="translate(220.703 342.14)" fill="#ab6453"/>
              <path id="Trazado_1045335" data-name="Trazado 1045335" d="M320.6,435.321c.005.185-.132,1.411-.58,1.682-2.628,1.6-6.629.727-10.651,1.4-6.6,1.113-9.621,1.852-15.607,1.116a14.377,14.377,0,0,1-5.589-1.781c-.271-.148-.157-.73-.148-1.223a8.282,8.282,0,0,1,.134-1.255Z" transform="translate(239.071 361.261)" fill="#fff"/>
              <path id="Trazado_1045336" data-name="Trazado 1045336" d="M288.9,431.81c.026-2.778,1.772-3.378,3.55-2.7,2.908,1.1,6.195,2.209,14.1-.919,2.725,2.121,9.475,3.706,11.032,4.777,2.1,1.442,2.859,5.331,2.941,8.232-6.113-.093-11.03.044-14.388.686-6.457,1.233-14.2,1.667-18.054-.741Z" transform="translate(239.146 355.386)" fill="#e0643b"/>
              <path id="Trazado_1045337" data-name="Trazado 1045337" d="M302.9,440.274s1.742-6.85-.346-10.17c6.554.322,6.032,9.041,5.558,10.99-1.235,1.523-5.212-.82-5.212-.82" transform="translate(251.161 356.978)" fill="#fff"/>
              <path id="Trazado_1045338" data-name="Trazado 1045338" d="M302.559,430.1c6.554.32,6.8,8.9,5.56,10.99-1.876.875-5.214-.82-5.214-.82" transform="translate(251.161 356.978)" fill="#fff"/>
              <path id="Trazado_1045339" data-name="Trazado 1045339" d="M299.089,428.784a3.376,3.376,0,0,1,1.473,2.461" transform="translate(248.28 355.882)" fill="none" stroke="#fff" stroke-miterlimit="10" stroke-width="0.567"/>
              <path id="Trazado_1045340" data-name="Trazado 1045340" d="M300.127,429.223a3.376,3.376,0,0,1,1.473,2.462" transform="translate(249.142 356.246)" fill="none" stroke="#fff" stroke-miterlimit="10" stroke-width="0.567"/>
              <path id="Trazado_1045341" data-name="Trazado 1045341" d="M301.217,429.486a3.376,3.376,0,0,1,1.473,2.462" transform="translate(250.047 356.465)" fill="none" stroke="#fff" stroke-miterlimit="10" stroke-width="0.567"/>
              <path id="Trazado_1045342" data-name="Trazado 1045342" d="M298.623,432.672a2.56,2.56,0,0,1-.628,1.682c-1.854,1.653-7.1.932-11.173,1.4-6.986.813-10.108,1.852-16.4,1.116a15.649,15.649,0,0,1-5.873-1.781c-.284-.148-.165-.73-.156-1.223a7.847,7.847,0,0,1,.141-1.255Z" transform="translate(219.454 359.062)" fill="#fff"/>
              <path id="Trazado_1045343" data-name="Trazado 1045343" d="M265.318,429.162c.027-2.778,1.861-3.378,3.732-2.7,3.054,1.1,6.508,2.209,14.811-.919,2.864,2.121,9.956,3.706,11.592,4.777,2.2,1.442,3,5.331,3.091,8.232-6.424-.093-11.59.044-15.117.686-6.784,1.234-14.925,1.667-18.969-.741Z" transform="translate(219.532 353.187)" fill="#e0643b"/>
              <path id="Trazado_1045344" data-name="Trazado 1045344" d="M280.029,437.625s1.832-6.85-.364-10.17c6.887.322,6.755,7.549,6.255,9.5-1.3,1.521-5.891.67-5.891.67" transform="translate(232.156 354.779)" fill="#fff"/>
              <path id="Trazado_1045345" data-name="Trazado 1045345" d="M276.019,426.136a3.376,3.376,0,0,1,1.546,2.462" transform="translate(229.13 353.684)" fill="none" stroke="#fff" stroke-miterlimit="10" stroke-width="0.567"/>
              <path id="Trazado_1045346" data-name="Trazado 1045346" d="M277.11,426.574a3.376,3.376,0,0,1,1.546,2.462" transform="translate(230.035 354.047)" fill="none" stroke="#fff" stroke-miterlimit="10" stroke-width="0.567"/>
              <path id="Trazado_1045347" data-name="Trazado 1045347" d="M278.255,426.838A3.376,3.376,0,0,1,279.8,429.3" transform="translate(230.986 354.267)" fill="none" stroke="#fff" stroke-miterlimit="10" stroke-width="0.567"/>
              <path id="Trazado_1045348" data-name="Trazado 1045348" d="M282.341,335.657c-22.963,1.34-23.407,30.219-23.407,30.219l15.433,2.482Z" transform="translate(214.947 278.575)" fill="#42474b"/>
              <path id="Trazado_1045349" data-name="Trazado 1045349" d="M273.344,339.767l1.532-7h9.544l-.787,8.532Z" transform="translate(226.909 276.175)" fill="#ab6453"/>
              <path id="Trazado_1045350" data-name="Trazado 1045350" d="M271.38,334.73c.657,3.874,2.4,6.475,4.767,7.871,3.873,2.284,6.008.928,8.754-.719,1.045-.628,4.39-.944,4.89-2.447.468-1.405.232-2.282-.884-6.407-.738-2.725-.6-3.073-1.244-4.489a11.275,11.275,0,0,0-2.414-3.62c-2.771-2.5-16.129-3.51-13.869,9.811" transform="translate(225.066 268.394)" fill="#ab6453"/>
              <path id="Trazado_1045351" data-name="Trazado 1045351" d="M280.379,329.038c.858-1.744,2.69-1.217,1.023,1.19" transform="translate(232.749 272.228)" fill="#ab6453"/>
              <path id="Trazado_1045352" data-name="Trazado 1045352" d="M280.6,328.063c.139.357.13.69-.022.743s-.386-.2-.525-.553-.128-.69.022-.743.386.2.525.553" transform="translate(232.401 271.806)" fill="#21262b"/>
              <path id="Trazado_1045353" data-name="Trazado 1045353" d="M304.6,365.717s17.932,40.695,20.466,57.717c2.231,14.987.174,38.145.174,38.145a46.864,46.864,0,0,1-19.59.39c-1.739-12.553-1.96-21.874-3.7-34.426l-8.671-20.929-8.076,53.8a63.465,63.465,0,0,1-19.985-1.168c.95-19.989,2.037-37.089,3.012-56.525a30.477,30.477,0,0,0-.979-9.577c-1.19-4.339-2.156-13.034,2.456-26.63,10.057-2.968,34.891-.794,34.891-.794" transform="translate(220.165 302.892)" fill="#6073c9"/>
              <path id="Trazado_1045354" data-name="Trazado 1045354" d="M297.509,336.663a41.821,41.821,0,0,0-22.024-.368c-6.775,7.46-9.035,14.14-9.8,19-1.51,9.612.608,10.719,2.134,24.147,1.054,9.286-2.451,16.574-3.212,21.837,4.189,1.14,14.085,2.061,20.237,2.341,8.938.408,16.228-.615,25.128-6.325-5.935-12.031-2.93-16.78-2.623-23.332.469-10.016,3.862-16.493.593-24.913-2.374-6.114-7.02-10.062-10.435-12.388" transform="translate(219.658 278.027)" fill="#42474b"/>
              <path id="Trazado_1045355" data-name="Trazado 1045355" d="M273.492,382.166l10.624,2.932,2.914,9.154" transform="translate(227.032 317.184)" fill="none" stroke="#495aab" stroke-miterlimit="10" stroke-width="0.567"/>
              <path id="Trazado_1045356" data-name="Trazado 1045356" d="M280.289,331.09s1.051-1.065,1.768-1.065" transform="translate(232.674 273.9)" fill="none" stroke="#762f0e" stroke-miterlimit="10" stroke-width="0.567"/>
              <line id="Línea_3546" data-name="Línea 3546" x1="1.486" y1="10.302" transform="translate(484.12 636.63)" fill="none" stroke="#2c3136" stroke-miterlimit="10" stroke-width="0.567"/>
              <path id="Trazado_1045357" data-name="Trazado 1045357" d="M286.731,372.529l-10.413,1.18,1.193,8.9,5.858,3.6,4.021-4.791Z" transform="translate(229.377 309.184)" fill="none" stroke="#495aab" stroke-miterlimit="10" stroke-width="0.567"/>
              <path id="Trazado_1045358" data-name="Trazado 1045358" d="M274.635,373.71l-8.032-1.18v10.082l4.015,2.557,4.96-3.746Z" transform="translate(221.312 309.184)" fill="none" stroke="#495aab" stroke-miterlimit="10" stroke-width="0.567"/>
              <path id="Trazado_1045359" data-name="Trazado 1045359" d="M285.5,353.472s1.427,15.245,5.732,22.542c5.639,9.557,23.609,15.258,23.609,15.258l4.325-11.705-15.223-14.019-5.52-19.375" transform="translate(237.004 287.304)" fill="#ab6453"/>
              <path id="Trazado_1045360" data-name="Trazado 1045360" d="M283.139,335.907c9.985.88,14.723,4.943,21.846,24.359-6.208,8.245-17.542,7.006-17.542,7.006s-8.647-23.98-4.3-31.365" transform="translate(234.028 278.783)" fill="#42474b"/>
              <line id="Línea_3547" data-name="Línea 3547" x1="1.16" y1="5.421" transform="translate(521.35 641.219)" fill="none" stroke="#2c3136" stroke-miterlimit="10" stroke-width="0.567"/>
              <path id="Trazado_1045361" data-name="Trazado 1045361" d="M300.417,374.475s3.073,6.147,8.993,4.692c2.39,7.035,6.261,4.852,3.073-1.455,4.1,7.641,5.009,1.334,2.617-2.425,5.465,7.639,4.9-1.08,2.392-3.148,6.488,7.028,6.715-8.737-12.066-7.767" transform="translate(249.383 302.377)" fill="#ab6453"/>
              <path id="Trazado_1045362" data-name="Trazado 1045362" d="M291.638,326.411s-.024,4.09-1.574,6.405-3.433,8.236-1.55,11.468c3.468,5.95.474,19.449-11.57,25.929-17.666-13.591-9.432-25.988-7.066-35.609-.93-14.44,16.2-16.819,21.76-8.193" transform="translate(220.723 266.742)" fill="#762f0e"/>
              <path id="Trazado_1045363" data-name="Trazado 1045363" d="M278.409,328.408c-2.947-2.145-5.075,4.621-.375,5.2.587.073.342-1.526.207-2.7-.13-1.127.441-1.987.168-2.5" transform="translate(228.516 272.21)" fill="#ab6453"/>
            </g>
          </g>
          <rect id="Rectángulo_417183" data-name="Rectángulo 417183" width="915" height="915" transform="translate(0)" fill="none"/>
        </g>
      </g>
    </g>
  </g>
</svg>
