<svg xmlns="http://www.w3.org/2000/svg" xmlns:xlink="http://www.w3.org/1999/xlink" width="1152" height="326.135" viewBox="0 0 1152 326.135">
  <defs>
    <radialGradient id="radial-gradient" cx="0.5" cy="0.5" r="0.5" gradientUnits="objectBoundingBox">
      <stop offset="0.36" stop-color="#acc2d4"/>
      <stop offset="0.443" stop-color="#bbcddc"/>
      <stop offset="0.683" stop-color="#e0e8ef"/>
      <stop offset="0.878" stop-color="#f7f9fb"/>
      <stop offset="1" stop-color="#fff"/>
    </radialGradient>
    <radialGradient id="radial-gradient-3" cx="0.5" cy="0.5" r="0.5" gradientTransform="translate(0)" xlink:href="#radial-gradient"/>
    <filter id="Trazado_1043277" x="348.012" y="220.016" width="24.61" height="24.61" filterUnits="userSpaceOnUse">
      <feOffset dy="3" input="SourceAlpha"/>
      <feGaussianBlur stdDeviation="3" result="blur"/>
      <feFlood flood-opacity="0.161"/>
      <feComposite operator="in" in2="blur"/>
      <feComposite in="SourceGraphic"/>
    </filter>
    <filter id="Trazado_1043278" x="310.004" y="180.356" width="64.271" height="56.008" filterUnits="userSpaceOnUse">
      <feOffset dy="3" input="SourceAlpha"/>
      <feGaussianBlur stdDeviation="3" result="blur-2"/>
      <feFlood flood-opacity="0.161"/>
      <feComposite operator="in" in2="blur-2"/>
      <feComposite in="SourceGraphic"/>
    </filter>
    <filter id="Trazado_1043279" x="310.004" y="221.669" width="54.355" height="21.305" filterUnits="userSpaceOnUse">
      <feOffset dy="3" input="SourceAlpha"/>
      <feGaussianBlur stdDeviation="3" result="blur-3"/>
      <feFlood flood-opacity="0.161"/>
      <feComposite operator="in" in2="blur-3"/>
      <feComposite in="SourceGraphic"/>
    </filter>
    <filter id="Trazado_1043280" x="456" y="24.352" width="69.123" height="69.123" filterUnits="userSpaceOnUse">
      <feOffset dy="3" input="SourceAlpha"/>
      <feGaussianBlur stdDeviation="3" result="blur-4"/>
      <feFlood flood-opacity="0.161"/>
      <feComposite operator="in" in2="blur-4"/>
      <feComposite in="SourceGraphic"/>
    </filter>
    <filter id="Trazado_1043298" x="823" y="195.405" width="64.344" height="53.904" filterUnits="userSpaceOnUse">
      <feOffset dy="3" input="SourceAlpha"/>
      <feGaussianBlur stdDeviation="3" result="blur-5"/>
      <feFlood flood-opacity="0.161"/>
      <feComposite operator="in" in2="blur-5"/>
      <feComposite in="SourceGraphic"/>
    </filter>
    <filter id="Trazado_1043299" x="840.689" y="180.352" width="38.291" height="38.291" filterUnits="userSpaceOnUse">
      <feOffset dy="3" input="SourceAlpha"/>
      <feGaussianBlur stdDeviation="3" result="blur-6"/>
      <feFlood flood-opacity="0.161"/>
      <feComposite operator="in" in2="blur-6"/>
      <feComposite in="SourceGraphic"/>
    </filter>
    <filter id="Trazado_1043309" x="665.979" y="42.878" width="43.95" height="43.95" filterUnits="userSpaceOnUse">
      <feOffset dy="3" input="SourceAlpha"/>
      <feGaussianBlur stdDeviation="3" result="blur-7"/>
      <feFlood flood-opacity="0.161"/>
      <feComposite operator="in" in2="blur-7"/>
      <feComposite in="SourceGraphic"/>
    </filter>
    <filter id="Trazado_1043313" x="669.597" y="27.428" width="64.452" height="68.07" filterUnits="userSpaceOnUse">
      <feOffset dy="3" input="SourceAlpha"/>
      <feGaussianBlur stdDeviation="3" result="blur-8"/>
      <feFlood flood-opacity="0.161"/>
      <feComposite operator="in" in2="blur-8"/>
      <feComposite in="SourceGraphic"/>
    </filter>
    <clipPath id="clip-path">
      <rect id="Rectángulo_416746" data-name="Rectángulo 416746" width="235" height="220" transform="translate(659 3671)" fill="#fff" stroke="#707070" stroke-width="1" opacity="0.78"/>
    </clipPath>
  </defs>
  <g id="Grupo_1202055" data-name="Grupo 1202055" transform="translate(-204 -3564.865)">
    <g id="Grupo_1201915" data-name="Grupo 1201915" transform="translate(16 19)">
      <path id="Trazado_1043314" data-name="Trazado 1043314" d="M-313.965,3761.215h-66.864" transform="translate(808)" fill="none" stroke="#707070" stroke-linecap="round" stroke-width="5" stroke-dasharray="0 8"/>
      <g id="Grupo_1201838" data-name="Grupo 1201838" transform="translate(407.879 3756.901) rotate(-22)">
        <path id="Trazado_1043259" data-name="Trazado 1043259" d="M94.224,178.472a7.8,7.8,0,1,0,4.045,10.268A7.8,7.8,0,0,0,94.224,178.472Z" transform="translate(-83.307 -177.823)" fill="#707070"/>
      </g>
    </g>
    <g id="Grupo_1201916" data-name="Grupo 1201916" transform="translate(165 -138)">
      <path id="Trazado_1043314-2" data-name="Trazado 1043314" d="M-313.965,3761.215h-66.864" transform="translate(808)" fill="none" stroke="#707070" stroke-linecap="round" stroke-width="5" stroke-dasharray="0 8"/>
      <g id="Grupo_1201838-2" data-name="Grupo 1201838" transform="translate(407.879 3756.901) rotate(-22)">
        <path id="Trazado_1043259-2" data-name="Trazado 1043259" d="M94.224,178.472a7.8,7.8,0,1,0,4.045,10.268A7.8,7.8,0,0,0,94.224,178.472Z" transform="translate(-83.307 -177.823)" fill="#707070"/>
      </g>
    </g>
    <g id="Grupo_1201918" data-name="Grupo 1201918" transform="translate(939.879 3613.053)">
      <path id="Trazado_1043314-3" data-name="Trazado 1043314" d="M-380.829,3761.215h66.864" transform="translate(380.829 -3751.053)" fill="none" stroke="#707070" stroke-linecap="round" stroke-width="5" stroke-dasharray="0 8"/>
      <g id="Grupo_1201838-3" data-name="Grupo 1201838" transform="translate(80.307 20.324) rotate(-158)">
        <path id="Trazado_1043259-3" data-name="Trazado 1043259" d="M10.918,14.963A7.8,7.8,0,1,1,14.963,4.694,7.8,7.8,0,0,1,10.918,14.963Z" fill="#707070"/>
      </g>
    </g>
    <g id="Grupo_1205881" data-name="Grupo 1205881">
      <g id="Grupo_1179823" data-name="Grupo 1179823" transform="translate(184 3743.841)">
        <g id="Rectángulo_415747" data-name="Rectángulo 415747" transform="translate(46 14.874)" fill="#fff" stroke="#004a54" stroke-width="1">
          <rect width="207" height="43" rx="20" stroke="none"/>
          <rect x="0.5" y="0.5" width="206" height="42" rx="19.5" fill="none"/>
        </g>
        <g id="Elipse_12462" data-name="Elipse 12462" transform="translate(20 9.874)" fill="#fff" stroke="#004a54" stroke-width="1">
          <ellipse cx="26" cy="26.5" rx="26" ry="26.5" stroke="none"/>
          <ellipse cx="26" cy="26.5" rx="25.5" ry="26" fill="none"/>
        </g>
      </g>
      <path id="Trazado_1045620" data-name="Trazado 1045620" d="M10.477-.448a8.311,8.311,0,0,1-3.6.668A6.074,6.074,0,0,1,2.312-1.485,6.233,6.233,0,0,1,.65-6.029a6.659,6.659,0,0,1,1.868-4.9,6.533,6.533,0,0,1,4.847-1.881,9.065,9.065,0,0,1,3.111.466v2.733a5.513,5.513,0,0,0-2.883-.756A3.824,3.824,0,0,0,4.729-9.255a4.142,4.142,0,0,0-1.09,3.023A4.062,4.062,0,0,0,4.667-3.318,3.633,3.633,0,0,0,7.436-2.232a5.905,5.905,0,0,0,3.041-.809ZM16.692.22a4.838,4.838,0,0,1-3.538-1.261,4.573,4.573,0,0,1-1.288-3.423A4.573,4.573,0,0,1,13.2-7.958,5.048,5.048,0,0,1,16.815-9.22a4.78,4.78,0,0,1,3.516,1.261,4.483,4.483,0,0,1,1.274,3.335,4.759,4.759,0,0,1-1.314,3.542A4.892,4.892,0,0,1,16.692.22Zm.07-7.312a1.852,1.852,0,0,0-1.529.677A2.984,2.984,0,0,0,14.688-4.5q0,2.593,2.092,2.593,2,0,2-2.663Q18.775-7.093,16.763-7.093ZM32.1,0H29.333V-5q0-2.092-1.494-2.092a1.483,1.483,0,0,0-1.187.554,2.109,2.109,0,0,0-.466,1.406V0H23.409V-9h2.777v1.424h.035A3.183,3.183,0,0,1,29.113-9.22q2.988,0,2.988,3.709Zm7.639-.105A4.105,4.105,0,0,1,37.886.22q-2.936,0-2.936-3.05V-6.952H33.492V-9h1.459v-1.942l2.769-.791V-9h2.021v2.048H37.719v3.639q0,1.406,1.116,1.406a1.882,1.882,0,0,0,.905-.255ZM47.178-6.5a2.409,2.409,0,0,0-1.169-.272,1.684,1.684,0,0,0-1.415.664,2.9,2.9,0,0,0-.51,1.806V0H41.307V-9h2.777v1.67h.035a2.4,2.4,0,0,1,2.373-1.828,1.788,1.788,0,0,1,.686.105ZM52.691.22a4.838,4.838,0,0,1-3.538-1.261,4.573,4.573,0,0,1-1.288-3.423A4.573,4.573,0,0,1,49.2-7.958,5.048,5.048,0,0,1,52.814-9.22a4.78,4.78,0,0,1,3.516,1.261A4.483,4.483,0,0,1,57.6-4.623,4.759,4.759,0,0,1,56.29-1.081,4.892,4.892,0,0,1,52.691.22Zm.07-7.312a1.852,1.852,0,0,0-1.529.677A2.984,2.984,0,0,0,50.687-4.5q0,2.593,2.092,2.593,2,0,2-2.663Q54.774-7.093,52.761-7.093ZM62.185,0H59.407V-13.324h2.777ZM78.3,0H75.521V-1.239h-.035A3.114,3.114,0,0,1,72.7.22,3.412,3.412,0,0,1,69.984-.971,4.93,4.93,0,0,1,68.956-4.3,5.366,5.366,0,0,1,70.09-7.875,3.7,3.7,0,0,1,73.06-9.22a2.527,2.527,0,0,1,2.426,1.248h.035v-5.353H78.3ZM75.574-4.377v-.677a2.13,2.13,0,0,0-.51-1.459,1.683,1.683,0,0,0-1.327-.58,1.673,1.673,0,0,0-1.441.725,3.367,3.367,0,0,0-.519,1.991,2.914,2.914,0,0,0,.5,1.828,1.663,1.663,0,0,0,1.389.642,1.67,1.67,0,0,0,1.375-.677A2.821,2.821,0,0,0,75.574-4.377Zm13.15.668H82.853q.141,1.96,2.47,1.96a4.822,4.822,0,0,0,2.61-.7v2A6.858,6.858,0,0,1,84.69.22,4.565,4.565,0,0,1,81.306-.989a4.566,4.566,0,0,1-1.2-3.371A4.816,4.816,0,0,1,81.4-7.91a4.334,4.334,0,0,1,3.2-1.31,3.933,3.933,0,0,1,3.045,1.169,4.5,4.5,0,0,1,1.077,3.173ZM86.149-5.414q0-1.934-1.564-1.934a1.494,1.494,0,0,0-1.156.554,2.513,2.513,0,0,0-.593,1.38ZM98.158-1.046h-.035V4.14H95.346V-9h2.777v1.354h.035A3.265,3.265,0,0,1,101.05-9.22a3.253,3.253,0,0,1,2.7,1.2,5.108,5.108,0,0,1,.954,3.265,5.537,5.537,0,0,1-1.112,3.612A3.625,3.625,0,0,1,100.637.22,2.8,2.8,0,0,1,98.158-1.046Zm-.079-3.691v.721A2.291,2.291,0,0,0,98.572-2.5a1.6,1.6,0,0,0,1.292.589,1.7,1.7,0,0,0,1.472-.734,3.543,3.543,0,0,0,.523-2.079q0-2.373-1.846-2.373a1.733,1.733,0,0,0-1.393.646A2.576,2.576,0,0,0,98.079-4.737Zm14.3-1.758a2.409,2.409,0,0,0-1.169-.272A1.684,1.684,0,0,0,109.8-6.1a2.9,2.9,0,0,0-.51,1.806V0H106.51V-9h2.777v1.67h.035A2.4,2.4,0,0,1,111.7-9.158a1.788,1.788,0,0,1,.686.105Zm9.309,2.786h-5.871q.141,1.96,2.47,1.96a4.822,4.822,0,0,0,2.61-.7v2a6.858,6.858,0,0,1-3.243.668,4.565,4.565,0,0,1-3.384-1.208,4.566,4.566,0,0,1-1.2-3.371,4.816,4.816,0,0,1,1.3-3.551,4.334,4.334,0,0,1,3.2-1.31,3.933,3.933,0,0,1,3.045,1.169,4.5,4.5,0,0,1,1.077,3.173Zm-2.575-1.705q0-1.934-1.564-1.934a1.494,1.494,0,0,0-1.156.554,2.513,2.513,0,0,0-.593,1.38Zm11.05,5.089a5.492,5.492,0,0,1-2.716.545,4.593,4.593,0,0,1-3.357-1.257,4.341,4.341,0,0,1-1.283-3.243A4.782,4.782,0,0,1,124.184-7.9a5.083,5.083,0,0,1,3.678-1.323,4.72,4.72,0,0,1,2.3.422v2.355a3.166,3.166,0,0,0-1.942-.65,2.559,2.559,0,0,0-1.894.7,2.607,2.607,0,0,0-.7,1.929,2.565,2.565,0,0,0,.668,1.876,2.455,2.455,0,0,0,1.837.681,3.666,3.666,0,0,0,2.03-.65Zm3.227-10.1a1.622,1.622,0,0,1-1.151-.417,1.345,1.345,0,0,1-.448-1.024,1.3,1.3,0,0,1,.448-1.02,1.676,1.676,0,0,1,1.151-.4,1.672,1.672,0,0,1,1.156.4,1.3,1.3,0,0,1,.444,1.02,1.34,1.34,0,0,1-.444,1.037A1.65,1.65,0,0,1,133.392-10.424ZM134.763,0h-2.777V-9h2.777Zm6.629.22a4.838,4.838,0,0,1-3.538-1.261,4.573,4.573,0,0,1-1.288-3.423A4.573,4.573,0,0,1,137.9-7.958a5.048,5.048,0,0,1,3.612-1.261,4.78,4.78,0,0,1,3.516,1.261,4.483,4.483,0,0,1,1.274,3.335,4.759,4.759,0,0,1-1.314,3.542A4.892,4.892,0,0,1,141.392.22Zm.07-7.312a1.852,1.852,0,0,0-1.529.677,2.984,2.984,0,0,0-.545,1.916q0,2.593,2.092,2.593,2,0,2-2.663Q143.475-7.093,141.462-7.093ZM147.52-.237v-2.25a5.913,5.913,0,0,0,1.367.615,4.531,4.531,0,0,0,1.288.2,2.762,2.762,0,0,0,1.165-.2.653.653,0,0,0,.426-.615.569.569,0,0,0-.193-.439,1.8,1.8,0,0,0-.5-.308,5.635,5.635,0,0,0-.664-.237q-.36-.105-.694-.237a6.653,6.653,0,0,1-.945-.435,2.731,2.731,0,0,1-.686-.541,2.125,2.125,0,0,1-.422-.712,2.841,2.841,0,0,1-.145-.958,2.466,2.466,0,0,1,.33-1.3,2.692,2.692,0,0,1,.879-.892,4.016,4.016,0,0,1,1.257-.51,6.553,6.553,0,0,1,1.472-.163,8.168,8.168,0,0,1,1.213.092,9.053,9.053,0,0,1,1.213.268v2.145a4.383,4.383,0,0,0-1.129-.461,4.764,4.764,0,0,0-1.182-.154,2.619,2.619,0,0,0-.514.048,1.693,1.693,0,0,0-.426.141.783.783,0,0,0-.29.237.546.546,0,0,0-.105.33.609.609,0,0,0,.158.422,1.374,1.374,0,0,0,.413.3,4.078,4.078,0,0,0,.567.229q.312.1.62.207a8.056,8.056,0,0,1,1,.422,3.2,3.2,0,0,1,.769.536,2.105,2.105,0,0,1,.492.721,2.562,2.562,0,0,1,.171.984,2.568,2.568,0,0,1-.347,1.367,2.78,2.78,0,0,1-.923.923,4.185,4.185,0,0,1-1.327.519,7.357,7.357,0,0,1-1.56.163A8.042,8.042,0,0,1,147.52-.237Z" transform="translate(262.562 3786.967)" fill="#0b0a0a"/>
      <g id="Grupo_1179823-2" data-name="Grupo 1179823" transform="translate(319.457 3586.841)">
        <g id="Rectángulo_415747-2" data-name="Rectángulo 415747" transform="translate(46 14.874)" fill="#fff" stroke="#004a54" stroke-width="1">
          <rect width="219.585" height="43" rx="20" stroke="none"/>
          <rect x="0.5" y="0.5" width="218.585" height="42" rx="19.5" fill="none"/>
        </g>
        <g id="Elipse_12462-2" data-name="Elipse 12462" transform="translate(20 9.874)" fill="#fff" stroke="#004a54" stroke-width="1">
          <ellipse cx="26" cy="26.5" rx="26" ry="26.5" stroke="none"/>
          <ellipse cx="26" cy="26.5" rx="25.5" ry="26" fill="none"/>
        </g>
      </g>
      <path id="Trazado_1045618" data-name="Trazado 1045618" d="M1.441,0V-12.6H5.906q6.715,0,6.715,6.144a6.212,6.212,0,0,1-1.833,4.7A6.757,6.757,0,0,1,5.906,0ZM4.28-10.292V-2.3H5.687a3.8,3.8,0,0,0,2.9-1.107,4.2,4.2,0,0,0,1.05-3.015A3.812,3.812,0,0,0,8.591-9.259a3.971,3.971,0,0,0-2.922-1.033ZM22.528-3.709H16.657q.141,1.96,2.47,1.96a4.822,4.822,0,0,0,2.61-.7v2A6.858,6.858,0,0,1,18.494.22,4.565,4.565,0,0,1,15.11-.989a4.566,4.566,0,0,1-1.2-3.371,4.816,4.816,0,0,1,1.3-3.551,4.334,4.334,0,0,1,3.2-1.31,3.933,3.933,0,0,1,3.045,1.169,4.5,4.5,0,0,1,1.077,3.173ZM19.953-5.414q0-1.934-1.564-1.934a1.494,1.494,0,0,0-1.156.554,2.513,2.513,0,0,0-.593,1.38Zm3.64,5.177v-2.25a5.913,5.913,0,0,0,1.367.615,4.531,4.531,0,0,0,1.288.2,2.762,2.762,0,0,0,1.165-.2.653.653,0,0,0,.426-.615.569.569,0,0,0-.193-.439,1.8,1.8,0,0,0-.5-.308,5.635,5.635,0,0,0-.664-.237q-.36-.105-.694-.237a6.653,6.653,0,0,1-.945-.435,2.731,2.731,0,0,1-.686-.541,2.125,2.125,0,0,1-.422-.712,2.841,2.841,0,0,1-.145-.958,2.466,2.466,0,0,1,.33-1.3,2.692,2.692,0,0,1,.879-.892,4.016,4.016,0,0,1,1.257-.51,6.553,6.553,0,0,1,1.472-.163,8.168,8.168,0,0,1,1.213.092,9.053,9.053,0,0,1,1.213.268v2.145a4.383,4.383,0,0,0-1.129-.461,4.764,4.764,0,0,0-1.182-.154,2.619,2.619,0,0,0-.514.048,1.693,1.693,0,0,0-.426.141.783.783,0,0,0-.29.237.546.546,0,0,0-.105.33.609.609,0,0,0,.158.422,1.374,1.374,0,0,0,.413.3,4.078,4.078,0,0,0,.567.229q.312.1.62.207a8.056,8.056,0,0,1,1,.422,3.2,3.2,0,0,1,.769.536,2.105,2.105,0,0,1,.492.721,2.562,2.562,0,0,1,.171.984,2.568,2.568,0,0,1-.347,1.367,2.78,2.78,0,0,1-.923.923A4.185,4.185,0,0,1,27.9.057a7.357,7.357,0,0,1-1.56.163A8.042,8.042,0,0,1,23.593-.237ZM46.394,0H43.626V-5.133q0-1.96-1.441-1.96a1.324,1.324,0,0,0-1.116.589,2.42,2.42,0,0,0-.431,1.468V0H37.86V-5.186q0-1.907-1.415-1.907a1.356,1.356,0,0,0-1.138.563A2.475,2.475,0,0,0,34.88-5V0H32.1V-9H34.88v1.406h.035a3.321,3.321,0,0,1,1.208-1.173,3.321,3.321,0,0,1,1.7-.453,2.592,2.592,0,0,1,2.61,1.679A3.329,3.329,0,0,1,43.459-9.22q2.936,0,2.936,3.621Zm6.488.22a4.838,4.838,0,0,1-3.538-1.261,4.573,4.573,0,0,1-1.288-3.423,4.573,4.573,0,0,1,1.336-3.494A5.048,5.048,0,0,1,53.005-9.22a4.78,4.78,0,0,1,3.516,1.261A4.483,4.483,0,0,1,57.8-4.623a4.759,4.759,0,0,1-1.314,3.542A4.892,4.892,0,0,1,52.882.22Zm.07-7.312a1.852,1.852,0,0,0-1.529.677A2.984,2.984,0,0,0,50.878-4.5q0,2.593,2.092,2.593,2,0,2-2.663Q54.965-7.093,52.953-7.093ZM68.291,0H65.523V-5q0-2.092-1.494-2.092a1.483,1.483,0,0,0-1.187.554,2.109,2.109,0,0,0-.466,1.406V0H59.6V-9h2.777v1.424h.035A3.183,3.183,0,0,1,65.3-9.22q2.988,0,2.988,3.709Zm6.488.22a4.838,4.838,0,0,1-3.538-1.261,4.573,4.573,0,0,1-1.288-3.423A4.573,4.573,0,0,1,71.29-7.958,5.048,5.048,0,0,1,74.9-9.22a4.78,4.78,0,0,1,3.516,1.261,4.483,4.483,0,0,1,1.274,3.335,4.759,4.759,0,0,1-1.314,3.542A4.892,4.892,0,0,1,74.779.22Zm.07-7.312a1.852,1.852,0,0,0-1.529.677A2.984,2.984,0,0,0,72.775-4.5q0,2.593,2.092,2.593,2,0,2-2.663Q76.862-7.093,74.85-7.093Zm9.459,6.047h-.035V4.14H81.5V-9h2.777v1.354h.035A3.265,3.265,0,0,1,87.2-9.22a3.253,3.253,0,0,1,2.7,1.2,5.108,5.108,0,0,1,.954,3.265,5.537,5.537,0,0,1-1.112,3.612A3.625,3.625,0,0,1,86.787.22,2.8,2.8,0,0,1,84.309-1.046Zm-.079-3.691v.721A2.291,2.291,0,0,0,84.722-2.5a1.6,1.6,0,0,0,1.292.589,1.7,1.7,0,0,0,1.472-.734,3.543,3.543,0,0,0,.523-2.079q0-2.373-1.846-2.373a1.733,1.733,0,0,0-1.393.646A2.576,2.576,0,0,0,84.229-4.737ZM96.949.22a4.838,4.838,0,0,1-3.538-1.261,4.573,4.573,0,0,1-1.288-3.423A4.573,4.573,0,0,1,93.46-7.958,5.048,5.048,0,0,1,97.072-9.22a4.78,4.78,0,0,1,3.516,1.261,4.483,4.483,0,0,1,1.274,3.335,4.759,4.759,0,0,1-1.314,3.542A4.892,4.892,0,0,1,96.949.22Zm.07-7.312a1.852,1.852,0,0,0-1.529.677A2.984,2.984,0,0,0,94.945-4.5q0,2.593,2.092,2.593,2,0,2-2.663Q99.032-7.093,97.019-7.093ZM106.443,0h-2.777V-13.324h2.777Zm3.746-10.424a1.622,1.622,0,0,1-1.151-.417,1.345,1.345,0,0,1-.448-1.024,1.3,1.3,0,0,1,.448-1.02,1.676,1.676,0,0,1,1.151-.4,1.672,1.672,0,0,1,1.156.4,1.3,1.3,0,0,1,.444,1.02,1.34,1.34,0,0,1-.444,1.037A1.65,1.65,0,0,1,110.189-10.424ZM111.56,0h-2.777V-9h2.777Zm9.468,0H112.95V-1.151l4.518-5.8H113.4V-9h7.594v1.371l-4.28,5.581h4.315Zm8.984,0h-2.628V-1.292h-.035A2.933,2.933,0,0,1,124.668.22a2.8,2.8,0,0,1-2.061-.743,2.661,2.661,0,0,1-.751-1.982q0-2.619,3.1-3.023l2.443-.325q0-1.477-1.6-1.477a5.46,5.46,0,0,0-3.059.958V-8.464a6.881,6.881,0,0,1,1.586-.527,8.339,8.339,0,0,1,1.833-.229q3.85,0,3.85,3.841ZM127.4-3.656v-.606l-1.635.211q-1.354.176-1.354,1.222a1.01,1.01,0,0,0,.33.778,1.266,1.266,0,0,0,.892.3,1.644,1.644,0,0,0,1.274-.541A1.952,1.952,0,0,0,127.4-3.656Zm11.63,3.331a5.492,5.492,0,0,1-2.716.545,4.593,4.593,0,0,1-3.357-1.257,4.341,4.341,0,0,1-1.283-3.243A4.782,4.782,0,0,1,133.05-7.9a5.083,5.083,0,0,1,3.678-1.323,4.72,4.72,0,0,1,2.3.422v2.355a3.166,3.166,0,0,0-1.942-.65,2.559,2.559,0,0,0-1.894.7,2.607,2.607,0,0,0-.7,1.929,2.565,2.565,0,0,0,.668,1.876A2.455,2.455,0,0,0,137-1.907a3.666,3.666,0,0,0,2.03-.65Zm3.227-10.1a1.622,1.622,0,0,1-1.151-.417,1.345,1.345,0,0,1-.448-1.024,1.3,1.3,0,0,1,.448-1.02,1.676,1.676,0,0,1,1.151-.4,1.672,1.672,0,0,1,1.156.4,1.3,1.3,0,0,1,.444,1.02,1.34,1.34,0,0,1-.444,1.037A1.65,1.65,0,0,1,142.259-10.424ZM143.63,0h-2.777V-9h2.777Zm6.629.22a4.838,4.838,0,0,1-3.538-1.261,4.573,4.573,0,0,1-1.288-3.423,4.573,4.573,0,0,1,1.336-3.494,5.048,5.048,0,0,1,3.612-1.261A4.78,4.78,0,0,1,153.9-7.958a4.483,4.483,0,0,1,1.274,3.335,4.759,4.759,0,0,1-1.314,3.542A4.892,4.892,0,0,1,150.258.22Zm.07-7.312a1.852,1.852,0,0,0-1.529.677,2.984,2.984,0,0,0-.545,1.916q0,2.593,2.092,2.593,2,0,2-2.663Q152.341-7.093,150.329-7.093Zm2.979-6.17-2.751,2.839h-2l2.285-2.839ZM165.659,0H162.89V-5q0-2.092-1.494-2.092a1.483,1.483,0,0,0-1.187.554,2.109,2.109,0,0,0-.466,1.406V0h-2.777V-9h2.777v1.424h.035A3.183,3.183,0,0,1,162.67-9.22q2.988,0,2.988,3.709Z" transform="translate(398.019 3629.967)" fill="#0b0a0a"/>
      <g id="Grupo_1179823-3" data-name="Grupo 1179823" transform="translate(1014.616 3596.715)">
        <g id="Rectángulo_415747-3" data-name="Rectángulo 415747" transform="translate(0 5)" fill="#fff" stroke="#004a54" stroke-width="1">
          <rect width="167.384" height="43" rx="20" stroke="none"/>
          <rect x="0.5" y="0.5" width="166.384" height="42" rx="19.5" fill="none"/>
        </g>
        <g id="Elipse_12462-3" data-name="Elipse 12462" transform="translate(135.384)" fill="#fff" stroke="#004a54" stroke-width="1">
          <ellipse cx="26" cy="26.5" rx="26" ry="26.5" stroke="none"/>
          <ellipse cx="26" cy="26.5" rx="25.5" ry="26" fill="none"/>
        </g>
      </g>
      <path id="Trazado_1045619" data-name="Trazado 1045619" d="M10.477-.448a8.311,8.311,0,0,1-3.6.668A6.074,6.074,0,0,1,2.312-1.485,6.233,6.233,0,0,1,.65-6.029a6.659,6.659,0,0,1,1.868-4.9,6.533,6.533,0,0,1,4.847-1.881,9.065,9.065,0,0,1,3.111.466v2.733a5.513,5.513,0,0,0-2.883-.756A3.824,3.824,0,0,0,4.729-9.255a4.142,4.142,0,0,0-1.09,3.023A4.062,4.062,0,0,0,4.667-3.318,3.633,3.633,0,0,0,7.436-2.232a5.905,5.905,0,0,0,3.041-.809ZM16.692.22a4.838,4.838,0,0,1-3.538-1.261,4.573,4.573,0,0,1-1.288-3.423A4.573,4.573,0,0,1,13.2-7.958,5.048,5.048,0,0,1,16.815-9.22a4.78,4.78,0,0,1,3.516,1.261,4.483,4.483,0,0,1,1.274,3.335,4.759,4.759,0,0,1-1.314,3.542A4.892,4.892,0,0,1,16.692.22Zm.07-7.312a1.852,1.852,0,0,0-1.529.677A2.984,2.984,0,0,0,14.688-4.5q0,2.593,2.092,2.593,2,0,2-2.663Q18.775-7.093,16.763-7.093ZM37.7,0H34.931V-5.133q0-1.96-1.441-1.96a1.324,1.324,0,0,0-1.116.589,2.42,2.42,0,0,0-.431,1.468V0H29.166V-5.186q0-1.907-1.415-1.907a1.356,1.356,0,0,0-1.138.563A2.475,2.475,0,0,0,26.186-5V0H23.409V-9h2.777v1.406h.035A3.321,3.321,0,0,1,27.43-8.767a3.321,3.321,0,0,1,1.7-.453,2.592,2.592,0,0,1,2.61,1.679A3.329,3.329,0,0,1,34.764-9.22Q37.7-9.22,37.7-5.6Zm5.012-1.046h-.035V4.14H39.9V-9h2.777v1.354h.035A3.265,3.265,0,0,1,45.6-9.22a3.253,3.253,0,0,1,2.7,1.2,5.108,5.108,0,0,1,.954,3.265,5.537,5.537,0,0,1-1.112,3.612A3.625,3.625,0,0,1,45.19.22,2.8,2.8,0,0,1,42.711-1.046Zm-.079-3.691v.721A2.291,2.291,0,0,0,43.125-2.5a1.6,1.6,0,0,0,1.292.589,1.7,1.7,0,0,0,1.472-.734,3.543,3.543,0,0,0,.523-2.079q0-2.373-1.846-2.373a1.733,1.733,0,0,0-1.393.646A2.576,2.576,0,0,0,42.632-4.737ZM59.149-3.709H53.278q.141,1.96,2.47,1.96a4.822,4.822,0,0,0,2.61-.7v2A6.858,6.858,0,0,1,55.115.22,4.565,4.565,0,0,1,51.731-.989a4.566,4.566,0,0,1-1.2-3.371,4.816,4.816,0,0,1,1.3-3.551,4.334,4.334,0,0,1,3.2-1.31,3.933,3.933,0,0,1,3.045,1.169,4.5,4.5,0,0,1,1.077,3.173ZM56.574-5.414q0-1.934-1.564-1.934a1.494,1.494,0,0,0-1.156.554,2.513,2.513,0,0,0-.593,1.38Zm9.67,5.309A4.105,4.105,0,0,1,64.389.22q-2.936,0-2.936-3.05V-6.952H59.994V-9h1.459v-1.942l2.769-.791V-9h2.021v2.048H64.222v3.639q0,1.406,1.116,1.406a1.882,1.882,0,0,0,.905-.255Zm9.582-3.6H69.954q.141,1.96,2.47,1.96a4.822,4.822,0,0,0,2.61-.7v2A6.858,6.858,0,0,1,71.791.22,4.565,4.565,0,0,1,68.407-.989a4.566,4.566,0,0,1-1.2-3.371A4.816,4.816,0,0,1,68.5-7.91a4.334,4.334,0,0,1,3.2-1.31,3.933,3.933,0,0,1,3.045,1.169,4.5,4.5,0,0,1,1.077,3.173ZM73.25-5.414q0-1.934-1.564-1.934a1.494,1.494,0,0,0-1.156.554,2.513,2.513,0,0,0-.593,1.38ZM86.172,0H83.4V-5q0-2.092-1.494-2.092a1.483,1.483,0,0,0-1.187.554,2.109,2.109,0,0,0-.466,1.406V0H77.479V-9h2.777v1.424h.035A3.183,3.183,0,0,1,83.184-9.22q2.988,0,2.988,3.709Zm9.019-.325A5.492,5.492,0,0,1,92.475.22a4.593,4.593,0,0,1-3.357-1.257A4.341,4.341,0,0,1,87.835-4.28,4.782,4.782,0,0,1,89.21-7.9,5.083,5.083,0,0,1,92.888-9.22a4.72,4.72,0,0,1,2.3.422v2.355a3.166,3.166,0,0,0-1.942-.65,2.559,2.559,0,0,0-1.894.7,2.607,2.607,0,0,0-.7,1.929,2.565,2.565,0,0,0,.668,1.876,2.455,2.455,0,0,0,1.837.681,3.666,3.666,0,0,0,2.03-.65Zm3.227-10.1a1.622,1.622,0,0,1-1.151-.417,1.345,1.345,0,0,1-.448-1.024,1.3,1.3,0,0,1,.448-1.02,1.676,1.676,0,0,1,1.151-.4,1.672,1.672,0,0,1,1.156.4,1.3,1.3,0,0,1,.444,1.02,1.34,1.34,0,0,1-.444,1.037A1.65,1.65,0,0,1,98.419-10.424ZM99.79,0H97.012V-9H99.79Zm9.828,0H106.99V-1.292h-.035A2.933,2.933,0,0,1,104.274.22a2.8,2.8,0,0,1-2.061-.743,2.661,2.661,0,0,1-.751-1.982q0-2.619,3.1-3.023l2.443-.325q0-1.477-1.6-1.477a5.46,5.46,0,0,0-3.059.958V-8.464a6.881,6.881,0,0,1,1.586-.527,8.339,8.339,0,0,1,1.833-.229q3.85,0,3.85,3.841Zm-2.61-3.656v-.606l-1.635.211q-1.354.176-1.354,1.222a1.01,1.01,0,0,0,.33.778,1.266,1.266,0,0,0,.892.3,1.644,1.644,0,0,0,1.274-.541A1.952,1.952,0,0,0,107.007-3.656Z" transform="translate(1032.438 3629.967)" fill="#0b0a0a"/>
      <g id="Grupo_1179823-4" data-name="Grupo 1179823" transform="translate(1171.616 3740)">
        <g id="Rectángulo_415747-4" data-name="Rectángulo 415747" transform="translate(0 5)" fill="#fff" stroke="#004a54" stroke-width="1">
          <rect width="165.384" height="58" rx="20" stroke="none"/>
          <rect x="0.5" y="0.5" width="164.384" height="57" rx="19.5" fill="none"/>
        </g>
        <g id="Elipse_12462-4" data-name="Elipse 12462" transform="translate(132.384 10)" fill="#fff" stroke="#004a54" stroke-width="1">
          <ellipse cx="26" cy="26.5" rx="26" ry="26.5" stroke="none"/>
          <ellipse cx="26" cy="26.5" rx="25.5" ry="26" fill="none"/>
        </g>
      </g>
      <path id="Trazado_1045621" data-name="Trazado 1045621" d="M4.28-4.342V0H1.441V-12.6H5.889q4.764,0,4.764,4.017A3.854,3.854,0,0,1,9.286-5.515,5.414,5.414,0,0,1,5.634-4.342Zm0-6.082V-6.5H5.4q2.268,0,2.268-1.986,0-1.942-2.268-1.942ZM18.1-6.5a2.409,2.409,0,0,0-1.169-.272,1.684,1.684,0,0,0-1.415.664A2.9,2.9,0,0,0,15-4.3V0H12.227V-9H15v1.67h.035a2.4,2.4,0,0,1,2.373-1.828,1.788,1.788,0,0,1,.686.105ZM23.611.22a4.838,4.838,0,0,1-3.538-1.261,4.573,4.573,0,0,1-1.288-3.423,4.573,4.573,0,0,1,1.336-3.494A5.048,5.048,0,0,1,23.734-9.22,4.78,4.78,0,0,1,27.25-7.958a4.483,4.483,0,0,1,1.274,3.335A4.759,4.759,0,0,1,27.21-1.081,4.892,4.892,0,0,1,23.611.22Zm.07-7.312a1.852,1.852,0,0,0-1.529.677A2.984,2.984,0,0,0,21.607-4.5q0,2.593,2.092,2.593,2,0,2-2.663Q25.694-7.093,23.681-7.093ZM35.768-.105A4.105,4.105,0,0,1,33.914.22q-2.936,0-2.936-3.05V-6.952H29.519V-9h1.459v-1.942l2.769-.791V-9h2.021v2.048H33.747v3.639q0,1.406,1.116,1.406a1.882,1.882,0,0,0,.905-.255Zm9.582-3.6H39.479q.141,1.96,2.47,1.96a4.822,4.822,0,0,0,2.61-.7v2A6.858,6.858,0,0,1,41.316.22,4.565,4.565,0,0,1,37.932-.989a4.566,4.566,0,0,1-1.2-3.371,4.816,4.816,0,0,1,1.3-3.551,4.334,4.334,0,0,1,3.2-1.31,3.933,3.933,0,0,1,3.045,1.169A4.5,4.5,0,0,1,45.35-4.878ZM42.775-5.414q0-1.934-1.564-1.934a1.494,1.494,0,0,0-1.156.554,2.513,2.513,0,0,0-.593,1.38ZM53.824-.325A5.492,5.492,0,0,1,51.109.22a4.593,4.593,0,0,1-3.357-1.257A4.341,4.341,0,0,1,46.468-4.28,4.782,4.782,0,0,1,47.843-7.9,5.083,5.083,0,0,1,51.522-9.22a4.72,4.72,0,0,1,2.3.422v2.355a3.166,3.166,0,0,0-1.942-.65,2.559,2.559,0,0,0-1.894.7,2.607,2.607,0,0,0-.7,1.929,2.565,2.565,0,0,0,.668,1.876,2.455,2.455,0,0,0,1.837.681,3.666,3.666,0,0,0,2.03-.65Zm8.641,0A5.492,5.492,0,0,1,59.75.22a4.593,4.593,0,0,1-3.357-1.257A4.341,4.341,0,0,1,55.109-4.28,4.782,4.782,0,0,1,56.485-7.9,5.083,5.083,0,0,1,60.163-9.22a4.72,4.72,0,0,1,2.3.422v2.355a3.166,3.166,0,0,0-1.942-.65,2.559,2.559,0,0,0-1.894.7,2.607,2.607,0,0,0-.7,1.929A2.565,2.565,0,0,0,58.6-2.588a2.455,2.455,0,0,0,1.837.681,3.666,3.666,0,0,0,2.03-.65Zm3.227-10.1a1.622,1.622,0,0,1-1.151-.417,1.345,1.345,0,0,1-.448-1.024,1.3,1.3,0,0,1,.448-1.02,1.676,1.676,0,0,1,1.151-.4,1.672,1.672,0,0,1,1.156.4,1.3,1.3,0,0,1,.444,1.02,1.34,1.34,0,0,1-.444,1.037A1.65,1.65,0,0,1,65.693-10.424ZM67.064,0H64.287V-9h2.777Zm6.629.22a4.838,4.838,0,0,1-3.538-1.261,4.573,4.573,0,0,1-1.288-3.423A4.573,4.573,0,0,1,70.2-7.958,5.048,5.048,0,0,1,73.816-9.22a4.78,4.78,0,0,1,3.516,1.261,4.483,4.483,0,0,1,1.274,3.335,4.759,4.759,0,0,1-1.314,3.542A4.892,4.892,0,0,1,73.693.22Zm.07-7.312a1.852,1.852,0,0,0-1.529.677A2.984,2.984,0,0,0,71.689-4.5q0,2.593,2.092,2.593,2,0,2-2.663Q75.776-7.093,73.763-7.093Zm2.979-6.17-2.751,2.839h-2l2.285-2.839ZM89.093,0H86.325V-5q0-2.092-1.494-2.092a1.483,1.483,0,0,0-1.187.554,2.109,2.109,0,0,0-.466,1.406V0H80.4V-9h2.777v1.424h.035A3.183,3.183,0,0,1,86.105-9.22q2.988,0,2.988,3.709Zm14.655,0H101.12V-1.292h-.035A2.933,2.933,0,0,1,98.4.22a2.8,2.8,0,0,1-2.061-.743A2.661,2.661,0,0,1,95.592-2.5q0-2.619,3.1-3.023l2.443-.325q0-1.477-1.6-1.477a5.46,5.46,0,0,0-3.059.958V-8.464a6.881,6.881,0,0,1,1.586-.527A8.339,8.339,0,0,1,99.9-9.22q3.85,0,3.85,3.841Zm-2.61-3.656v-.606L99.5-4.052Q98.15-3.876,98.15-2.83a1.01,1.01,0,0,0,.33.778,1.266,1.266,0,0,0,.892.3,1.644,1.644,0,0,0,1.274-.541A1.952,1.952,0,0,0,101.138-3.656ZM108.725,0h-2.777V-13.324h2.777ZM7.989,19.675a5.492,5.492,0,0,1-2.716.545,4.593,4.593,0,0,1-3.357-1.257A4.341,4.341,0,0,1,.633,15.72,4.782,4.782,0,0,1,2.008,12.1,5.083,5.083,0,0,1,5.687,10.78a4.72,4.72,0,0,1,2.3.422v2.355a3.166,3.166,0,0,0-1.942-.65,2.559,2.559,0,0,0-1.894.7,2.607,2.607,0,0,0-.7,1.929,2.565,2.565,0,0,0,.668,1.876,2.455,2.455,0,0,0,1.837.681,3.666,3.666,0,0,0,2.03-.65Zm6.11.545a4.838,4.838,0,0,1-3.538-1.261,4.573,4.573,0,0,1-1.288-3.423,4.573,4.573,0,0,1,1.336-3.494,5.048,5.048,0,0,1,3.612-1.261,4.78,4.78,0,0,1,3.516,1.261,4.483,4.483,0,0,1,1.274,3.335A4.759,4.759,0,0,1,17.7,18.919,4.892,4.892,0,0,1,14.1,20.22Zm.07-7.312a1.852,1.852,0,0,0-1.529.677A2.984,2.984,0,0,0,12.1,15.5q0,2.593,2.092,2.593,2,0,2-2.663Q16.182,12.907,14.17,12.907ZM29.508,20H26.74V15q0-2.092-1.494-2.092a1.483,1.483,0,0,0-1.187.554,2.109,2.109,0,0,0-.466,1.406V20H20.816V11h2.777v1.424h.035A3.183,3.183,0,0,1,26.52,10.78q2.988,0,2.988,3.709Zm1.61-.237v-2.25a5.913,5.913,0,0,0,1.367.615,4.531,4.531,0,0,0,1.288.2,2.762,2.762,0,0,0,1.165-.2.653.653,0,0,0,.426-.615.569.569,0,0,0-.193-.439,1.8,1.8,0,0,0-.5-.308,5.635,5.635,0,0,0-.664-.237q-.36-.105-.694-.237a6.653,6.653,0,0,1-.945-.435,2.731,2.731,0,0,1-.686-.541,2.125,2.125,0,0,1-.422-.712,2.841,2.841,0,0,1-.145-.958,2.466,2.466,0,0,1,.33-1.3,2.692,2.692,0,0,1,.879-.892,4.016,4.016,0,0,1,1.257-.51,6.553,6.553,0,0,1,1.472-.163,8.168,8.168,0,0,1,1.213.092,9.053,9.053,0,0,1,1.213.268v2.145a4.383,4.383,0,0,0-1.129-.461,4.764,4.764,0,0,0-1.182-.154,2.619,2.619,0,0,0-.514.048,1.693,1.693,0,0,0-.426.141.783.783,0,0,0-.29.237.546.546,0,0,0-.105.33.609.609,0,0,0,.158.422,1.374,1.374,0,0,0,.413.3,4.078,4.078,0,0,0,.567.229q.312.1.62.207a8.056,8.056,0,0,1,1,.422,3.2,3.2,0,0,1,.769.536,2.105,2.105,0,0,1,.492.721,2.884,2.884,0,0,1-.176,2.351,2.78,2.78,0,0,1-.923.923,4.185,4.185,0,0,1-1.327.519,7.357,7.357,0,0,1-1.56.163A8.042,8.042,0,0,1,31.119,19.763ZM48.18,20H45.411V18.629h-.044a3.141,3.141,0,0,1-2.751,1.591q-3.129,0-3.129-3.788V11h2.769v5.186q0,1.907,1.512,1.907a1.5,1.5,0,0,0,1.2-.523,2.109,2.109,0,0,0,.448-1.419V11H48.18Zm16.631,0H62.042V14.867q0-1.96-1.441-1.96a1.324,1.324,0,0,0-1.116.589,2.42,2.42,0,0,0-.431,1.468V20H56.277V14.814q0-1.907-1.415-1.907a1.356,1.356,0,0,0-1.138.563A2.475,2.475,0,0,0,53.3,15v5H50.52V11H53.3v1.406h.035a3.41,3.41,0,0,1,2.909-1.626,2.592,2.592,0,0,1,2.61,1.679,3.329,3.329,0,0,1,3.023-1.679q2.936,0,2.936,3.621ZM68.416,9.576a1.622,1.622,0,0,1-1.151-.417,1.345,1.345,0,0,1-.448-1.024,1.3,1.3,0,0,1,.448-1.02,1.88,1.88,0,0,1,2.307,0,1.3,1.3,0,0,1,.444,1.02,1.34,1.34,0,0,1-.444,1.037A1.65,1.65,0,0,1,68.416,9.576ZM69.787,20H67.01V11h2.777Zm11.146,0H78.156V18.761h-.035a3.114,3.114,0,0,1-2.786,1.459,3.412,3.412,0,0,1-2.716-1.191A4.93,4.93,0,0,1,71.591,15.7a5.366,5.366,0,0,1,1.134-3.577A3.7,3.7,0,0,1,75.7,10.78a2.527,2.527,0,0,1,2.426,1.248h.035V6.676h2.777Zm-2.725-4.377v-.677a2.13,2.13,0,0,0-.51-1.459,1.8,1.8,0,0,0-2.769.145,3.367,3.367,0,0,0-.519,1.991,2.914,2.914,0,0,0,.5,1.828,1.779,1.779,0,0,0,2.764-.035A2.821,2.821,0,0,0,78.209,15.623Zm9.353,4.6a4.838,4.838,0,0,1-3.538-1.261,4.573,4.573,0,0,1-1.288-3.423,4.573,4.573,0,0,1,1.336-3.494,5.048,5.048,0,0,1,3.612-1.261A4.78,4.78,0,0,1,91.2,12.042a4.483,4.483,0,0,1,1.274,3.335,4.759,4.759,0,0,1-1.314,3.542A4.892,4.892,0,0,1,87.562,20.22Zm.07-7.312a1.852,1.852,0,0,0-1.529.677,2.984,2.984,0,0,0-.545,1.916q0,2.593,2.092,2.593,2,0,2-2.663Q89.645,12.907,87.633,12.907Zm12.517.6a2.409,2.409,0,0,0-1.169-.272,1.684,1.684,0,0,0-1.415.664,2.9,2.9,0,0,0-.51,1.806V20H94.279V11h2.777v1.67h.035a2.4,2.4,0,0,1,2.373-1.828,1.788,1.788,0,0,1,.686.105Z" transform="translate(1189.438 3770.5)" fill="#0b0a0a"/>
    </g>
    <g id="Grupo_1201917" data-name="Grupo 1201917" transform="translate(1095.879 3764.053)">
      <path id="Trazado_1043314-4" data-name="Trazado 1043314" d="M-380.829,3761.215h66.864" transform="translate(380.829 -3751.053)" fill="none" stroke="#707070" stroke-linecap="round" stroke-width="5" stroke-dasharray="0 8"/>
      <g id="Grupo_1201838-4" data-name="Grupo 1201838" transform="translate(80.307 20.324) rotate(-158)">
        <path id="Trazado_1043259-4" data-name="Trazado 1043259" d="M10.918,14.963A7.8,7.8,0,1,1,14.963,4.694,7.8,7.8,0,0,1,10.918,14.963Z" fill="#707070"/>
      </g>
    </g>
    <g id="Grupo_1201914" data-name="Grupo 1201914" transform="translate(0 -8.783)">
      <g id="Grupo_1201852" data-name="Grupo 1201852" transform="translate(516.201 3599.656)">
        <g id="Grupo_1201848" data-name="Grupo 1201848" transform="translate(80.52 0)">
          <path id="Trazado_1043266" data-name="Trazado 1043266" d="M362.394,118.786a281.526,281.526,0,0,0-199.743,82.669L362.394,401.2Z" transform="translate(-155.315 -113.597)" fill="#ffb300"/>
          <path id="Trazado_1043267" data-name="Trazado 1043267" d="M371.437,416.45,159.169,204.181l3.668-3.668a285.74,285.74,0,0,1,203.411-84.19h5.189V416.45ZM173.878,204.214,361.059,391.4V126.747A275.251,275.251,0,0,0,173.878,204.214Z" transform="translate(-159.169 -116.323)" fill="#fff"/>
        </g>
        <g id="Grupo_1201849" data-name="Grupo 1201849" transform="translate(282.41 0)">
          <path id="Trazado_1043268" data-name="Trazado 1043268" d="M457.205,201.455a281.523,281.523,0,0,0-199.743-82.669V401.2Z" transform="translate(-252.273 -113.597)" fill="#ff3654"/>
          <path id="Trazado_1043269" data-name="Trazado 1043269" d="M255,416.45V116.323h5.189A285.736,285.736,0,0,1,463.6,200.513l3.668,3.668Zm10.378-289.7V391.395L452.559,204.212A275.268,275.268,0,0,0,265.377,126.747Z" transform="translate(-254.999 -116.323)" fill="#fff"/>
        </g>
        <g id="Grupo_1201850" data-name="Grupo 1201850" transform="translate(0 80.518)">
          <path id="Trazado_1043270" data-name="Trazado 1043270" d="M206.081,158.026a281.523,281.523,0,0,0-82.669,199.743H405.824Z" transform="translate(-118.223 -150.686)" fill="#16cabd"/>
          <path id="Trazado_1043271" data-name="Trazado 1043271" d="M421.076,366.812H120.949v-5.189a285.756,285.756,0,0,1,84.188-203.411l3.67-3.67Zm-289.7-10.376H396.021L208.84,169.253A275.251,275.251,0,0,0,131.373,356.436Z" transform="translate(-120.949 -154.542)" fill="#fff"/>
        </g>
        <g id="Grupo_1201851" data-name="Grupo 1201851" transform="translate(275.072 80.518)">
          <path id="Trazado_1043272" data-name="Trazado 1043272" d="M539.874,357.768a281.527,281.527,0,0,0-82.669-199.743L257.462,357.768Z" transform="translate(-244.935 -150.687)" fill="#7b3dd9"/>
          <path id="Trazado_1043273" data-name="Trazado 1043273" d="M551.643,366.812H251.516l212.27-212.27,3.67,3.67a285.755,285.755,0,0,1,84.188,203.411ZM276.572,356.436H541.219a275.253,275.253,0,0,0-77.465-187.183Z" transform="translate(-251.516 -154.542)" fill="#fff"/>
        </g>
      </g>
      <path id="Trazado_1043274" data-name="Trazado 1043274" d="M405.83,234.6c-21.775-24.042-51.868-38.9-85.134-38.9s-63.358,14.861-85.134,38.9-35.235,57.267-35.235,93.995H441.063C441.065,291.871,427.605,258.648,405.83,234.6Z" transform="translate(483.103 3571.184)" fill="#fff"/>
      <g id="Grupo_1201855" data-name="Grupo 1201855" transform="translate(480.816 3726.927)">
        <circle id="Elipse_12635" data-name="Elipse 12635" cx="63.984" cy="63.984" r="63.984" transform="translate(0 0)" fill="url(#radial-gradient)"/>
        <circle id="Elipse_12636" data-name="Elipse 12636" cx="49.696" cy="49.696" r="49.696" transform="translate(14.288 7.982)" fill="#fff"/>
        <circle id="Elipse_12637" data-name="Elipse 12637" cx="42.042" cy="42.042" r="42.042" transform="translate(21.942 15.636)" fill="#16cabd"/>
      </g>
      <g id="Grupo_1201857" data-name="Grupo 1201857" transform="translate(996.792 3726.927)">
        <circle id="Elipse_12638" data-name="Elipse 12638" cx="63.984" cy="63.984" r="63.984" transform="translate(0 0)" fill="url(#radial-gradient)"/>
        <circle id="Elipse_12639" data-name="Elipse 12639" cx="49.696" cy="49.696" r="49.696" transform="translate(14.288 7.982)" fill="#fff"/>
        <circle id="Elipse_12640" data-name="Elipse 12640" cx="42.042" cy="42.042" r="42.042" transform="translate(21.942 15.636)" fill="#7b3dd9"/>
      </g>
      <g id="Grupo_1201858" data-name="Grupo 1201858" transform="translate(630.5 3575.426)">
        <circle id="Elipse_12641" data-name="Elipse 12641" cx="63.984" cy="63.984" r="63.984" transform="translate(0 0)" fill="url(#radial-gradient-3)"/>
        <circle id="Elipse_12642" data-name="Elipse 12642" cx="49.696" cy="49.696" r="49.696" transform="translate(14.288 7.98)" fill="#fff"/>
        <circle id="Elipse_12643" data-name="Elipse 12643" cx="42.042" cy="42.042" r="42.042" transform="translate(15.76 92.441) rotate(-80.782)" fill="#ffb300"/>
      </g>
      <g id="Grupo_1201860" data-name="Grupo 1201860" transform="translate(840.838 3573.648)">
        <circle id="Elipse_12644" data-name="Elipse 12644" cx="63.984" cy="63.984" r="63.984" transform="translate(0 1.777)" fill="url(#radial-gradient-3)"/>
        <circle id="Elipse_12645" data-name="Elipse 12645" cx="49.696" cy="49.696" r="49.696" transform="translate(14.288 9.758)" fill="#fff"/>
        <circle id="Elipse_12646" data-name="Elipse 12646" cx="42.042" cy="42.042" r="42.042" transform="translate(4.521 59.456) rotate(-45)" fill="#ff3654"/>
      </g>
      <g id="_x31_1" transform="translate(521.004 3758.004)">
        <path id="Trazado_1043275" data-name="Trazado 1043275" d="M9.958,5a4.958,4.958,0,1,0,4.958,4.958A4.963,4.963,0,0,0,9.958,5Zm0,6.61A1.653,1.653,0,1,1,11.61,9.958,1.654,1.654,0,0,1,9.958,11.61Z" transform="translate(1.958 1.958)" fill="#fff"/>
        <path id="Trazado_1043276" data-name="Trazado 1043276" d="M16.958,17.263A1.653,1.653,0,1,1,18.61,15.61a1.653,1.653,0,0,0,3.305,0,4.949,4.949,0,0,0-3.305-4.653v-.3a1.653,1.653,0,0,0-3.305,0v.3a4.945,4.945,0,0,0,1.653,9.611,1.653,1.653,0,1,1-1.653,1.653,1.653,1.653,0,0,0-3.305,0,4.949,4.949,0,0,0,3.305,4.653v.3a1.653,1.653,0,0,0,3.305,0v-.3a4.945,4.945,0,0,0-1.653-9.611Z" transform="translate(6.525 4.568)" fill="#fff"/>
        <g transform="matrix(1, 0, 0, 1, -317, -184.36)" filter="url(#Trazado_1043277)">
          <path id="Trazado_1043277-2" data-name="Trazado 1043277" d="M31.126,26.484a1.652,1.652,0,0,0-2.337,0l-.484.484-.484-.484a1.652,1.652,0,0,0-2.337,2.337l.484.484-.484.484a1.652,1.652,0,1,0,2.337,2.337l.484-.484.484.484a1.652,1.652,0,1,0,2.337-2.337l-.484-.484.484-.484a1.652,1.652,0,0,0,0-2.337Z" transform="translate(332.01 200.02)" fill="#fff"/>
        </g>
        <g transform="matrix(1, 0, 0, 1, -317, -184.36)" filter="url(#Trazado_1043278)">
          <path id="Trazado_1043278-2" data-name="Trazado 1043278" d="M47.786,33.882a1.652,1.652,0,0,0-2.337,0l-.484.484V33.4a6.617,6.617,0,0,0-6.61-6.61h-.968l2.137-2.137a1.652,1.652,0,0,0,0-2.337L19.694,2.484A1.653,1.653,0,0,0,18.525,2H3.652A1.652,1.652,0,0,0,2,3.653V18.525a1.651,1.651,0,0,0,.484,1.168l19.83,19.83a1.652,1.652,0,0,0,2.337,0l9.431-9.431h4.273A3.309,3.309,0,0,1,41.66,33.4v.968l-.484-.484a1.652,1.652,0,1,0-2.337,2.337l3.305,3.305a1.652,1.652,0,0,0,2.337,0l3.305-3.305a1.652,1.652,0,0,0,0-2.337Zm-24.3,2.137L5.305,17.841V5.305H17.841L36.019,23.483Z" transform="translate(317 184.36)" fill="#fff"/>
        </g>
        <g transform="matrix(1, 0, 0, 1, -317, -184.36)" filter="url(#Trazado_1043279)">
          <path id="Trazado_1043279-2" data-name="Trazado 1043279" d="M36.7,27H3.653a1.653,1.653,0,1,0,0,3.305H36.7A1.653,1.653,0,0,0,36.7,27Z" transform="translate(317 200.67)" fill="#fff"/>
        </g>
      </g>
      <g id="extraer" transform="translate(669 3604)">
        <g transform="matrix(1, 0, 0, 1, -465, -30.35)" filter="url(#Trazado_1043280)">
          <path id="Trazado_1043280-2" data-name="Trazado 1043280" d="M27.065,29.449l1.192-1.192a1.5,1.5,0,0,1,2.126,2.126l-3.759,3.759a1.5,1.5,0,0,1-2.126,0l-3.759-3.759a1.5,1.5,0,1,1,2.126-2.126l1.192,1.192v-6.9a1.5,1.5,0,1,1,3.007,0ZM40.51,26.036l.293-1.66a1.5,1.5,0,0,1,2.962.522l-.923,5.235a1.5,1.5,0,0,1-1.742,1.22l-5.235-.923a1.5,1.5,0,1,1,.522-2.962l1.66.293-3.955-5.648a1.5,1.5,0,1,1,2.463-1.725ZM13.076,27.761l1.66-.293a1.5,1.5,0,1,1,.522,2.962l-5.235.923a1.5,1.5,0,0,1-1.742-1.22L7.358,24.9a1.5,1.5,0,1,1,2.962-.522l.293,1.66,3.955-5.648a1.5,1.5,0,0,1,2.463,1.725Zm12.485-9.718a9.022,9.022,0,1,1,9.022-9.022A9.022,9.022,0,0,1,25.561,18.043Zm0-3.007a6.014,6.014,0,1,0-6.014-6.014,6.014,6.014,0,0,0,6.014,6.014Zm0,36.087a6.766,6.766,0,1,1,6.766-6.766A6.766,6.766,0,0,1,25.561,51.123Zm0-3.007A3.759,3.759,0,1,0,21.8,44.356,3.759,3.759,0,0,0,25.561,48.115Zm18.8,1.5a6.766,6.766,0,1,1,6.766-6.766,6.766,6.766,0,0,1-6.766,6.766Zm0-3.007A3.759,3.759,0,1,0,40.6,42.853,3.759,3.759,0,0,0,44.356,46.612ZM6.766,49.619a6.766,6.766,0,1,1,6.766-6.766,6.766,6.766,0,0,1-6.766,6.766Zm0-3.007a3.759,3.759,0,1,0-3.759-3.759A3.759,3.759,0,0,0,6.766,46.612Z" transform="translate(465 30.35)" fill="#fff"/>
        </g>
      </g>
      <g id="mercado" transform="translate(1012.826 3760)">
        <g transform="matrix(1, 0, 0, 1, -808.83, -186.35)" filter="url(#Trazado_1043298)">
          <path id="Trazado_1043298-2" data-name="Trazado 1043298" d="M67.562,158.807H52.719a.746.746,0,0,0,0,1.493H67.562a.464.464,0,0,1,.464.464v1.161a.464.464,0,0,1-.464.464H36.479l-.516-2.088H49.236a.746.746,0,0,0,0-1.493H35.594l-.762-3.081a3.412,3.412,0,0,0-2.972-2.581v-.24a1.652,1.652,0,0,0-1.65-1.65H24.824a1.652,1.652,0,0,0-1.65,1.65v1.936a1.652,1.652,0,0,0,1.65,1.65H30.21a1.652,1.652,0,0,0,1.65-1.65v-.19a1.922,1.922,0,0,1,1.523,1.432l1.787,7.23,3.263,13.2.682,2.758a3.48,3.48,0,0,0,3.385,2.65h.649a3.316,3.316,0,1,0,5.4,0h7.333a3.316,3.316,0,1,0,5.4,0H63.1a.746.746,0,1,0,0-1.493H42.5a1.99,1.99,0,0,1-1.936-1.516l-.453-1.832H60.472a3.43,3.43,0,0,0,3.339-2.618l2.6-10.583h1.151a1.959,1.959,0,0,0,1.957-1.957v-1.161A1.959,1.959,0,0,0,67.562,158.807Zm-37.195-3.966a.157.157,0,0,1-.157.157H24.824a.157.157,0,0,1-.157-.157v-1.936a.157.157,0,0,1,.157-.157H30.21a.157.157,0,0,1,.157.157ZM58.585,182.02a1.823,1.823,0,1,1-1.823,1.823A1.825,1.825,0,0,1,58.585,182.02Zm-12.735,0a1.823,1.823,0,1,1-1.823,1.823A1.825,1.825,0,0,1,45.85,182.02Zm-4.962-6.431H39.742l-1.286-5.2h2.432Zm0-6.7h-2.8l-1.239-5.012h4.04Zm4.672,6.7H42.381v-5.2H45.56Zm0-6.7H42.381v-5.012H45.56Zm4.671,6.7H47.052v-5.2h3.179Zm0-6.7H47.052v-5.012h3.179Zm4.672,6.7H51.724v-5.2H54.9Zm0-6.7H51.724v-5.012H54.9Zm4.671,6.7H56.4v-5.2h3.179v5.2Zm0-6.7H56.4v-5.012h3.179v5.012Zm2.787,5.216a1.939,1.939,0,0,1-1.294,1.387v-5.11h2.208Zm1.281-5.216H61.067v-5.012h3.806Z" transform="translate(808.83 50.15)" fill="#fff"/>
        </g>
        <g transform="matrix(1, 0, 0, 1, -808.83, -186.35)" filter="url(#Trazado_1043299)">
          <path id="Trazado_1043299-2" data-name="Trazado 1043299" d="M217.432,4.3a.746.746,0,1,0,1.1-1.009,10.115,10.115,0,1,0,1.984,3.194.746.746,0,0,0-1.392.538,8.587,8.587,0,0,1,.547,2.373h-2.743a13.591,13.591,0,0,0-2.034-7A8.658,8.658,0,0,1,217.432,4.3Zm-10.22-1.908A13.59,13.59,0,0,0,205.175,9.4h-2.744a8.669,8.669,0,0,1,4.78-7.005Zm-4.78,8.5h2.744a13.588,13.588,0,0,0,2.036,7.005A8.669,8.669,0,0,1,202.431,10.892Zm7.873,7.775c-1.921-.678-3.457-3.908-3.635-7.775H210.3Zm0-9.268H206.67c.177-3.867,1.714-7.1,3.635-7.775Zm1.493,9.268V10.892h3.635C215.255,14.758,213.719,17.989,211.8,18.667Zm7.873-7.775a8.669,8.669,0,0,1-4.78,7.005,13.589,13.589,0,0,0,2.036-7.005ZM215.432,9.4H211.8V1.624C213.719,2.3,215.255,5.532,215.432,9.4Z" transform="translate(648.78 186.35)" fill="#fff"/>
        </g>
      </g>
      <g id="departamento" transform="translate(878.979 3607.077)">
        <g id="Grupo_1201887" data-name="Grupo 1201887" transform="translate(34.815 13.104)">
          <g id="Grupo_1201886" data-name="Grupo 1201886">
            <path id="Trazado_1043300" data-name="Trazado 1043300" d="M361.683,134h-4.694a.978.978,0,0,0-.978.978v6.259a.978.978,0,0,0,.978.978h4.694a.978.978,0,0,0,.978-.978v-6.259A.978.978,0,0,0,361.683,134Zm-.978,6.259h-2.738v-4.3h2.738Z" transform="translate(-356.011 -134)" fill="#fff"/>
          </g>
        </g>
        <g id="Grupo_1201889" data-name="Grupo 1201889" transform="translate(26.21 13.104)">
          <g id="Grupo_1201888" data-name="Grupo 1201888">
            <path id="Trazado_1043301" data-name="Trazado 1043301" d="M273.683,134h-4.694a.978.978,0,0,0-.978.978v6.259a.978.978,0,0,0,.978.978h4.694a.978.978,0,0,0,.978-.978v-6.259A.978.978,0,0,0,273.683,134Zm-.978,6.259h-2.738v-4.3h2.738Z" transform="translate(-268.011 -134)" fill="#fff"/>
          </g>
        </g>
        <g id="Grupo_1201891" data-name="Grupo 1201891" transform="translate(17.604 13.104)">
          <g id="Grupo_1201890" data-name="Grupo 1201890">
            <path id="Trazado_1043302" data-name="Trazado 1043302" d="M185.683,134h-4.694a.978.978,0,0,0,0,1.956h3.716v2.151a.978.978,0,1,0,1.956,0v-3.129A.978.978,0,0,0,185.683,134Z" transform="translate(-180.011 -134)" fill="#fff"/>
          </g>
        </g>
        <g id="Grupo_1201893" data-name="Grupo 1201893" transform="translate(34.815 24.839)">
          <g id="Grupo_1201892" data-name="Grupo 1201892">
            <path id="Trazado_1043303" data-name="Trazado 1043303" d="M361.683,254h-4.694a.978.978,0,0,0-.978.978v6.259a.978.978,0,0,0,.978.978h4.694a.978.978,0,0,0,.978-.978v-6.259A.978.978,0,0,0,361.683,254Zm-.978,6.259h-2.738v-4.3h2.738Z" transform="translate(-356.011 -254)" fill="#fff"/>
          </g>
        </g>
        <g id="Grupo_1201895" data-name="Grupo 1201895" transform="translate(28.311 24.839)">
          <g id="Grupo_1201894" data-name="Grupo 1201894">
            <path id="Trazado_1043304" data-name="Trazado 1043304" d="M293.07,254h-2.593a.978.978,0,0,0,0,1.956h1.615v4.3h-1.615a.978.978,0,0,0,0,1.956h2.593a.978.978,0,0,0,.978-.978v-6.259A.978.978,0,0,0,293.07,254Z" transform="translate(-289.499 -254)" fill="#fff"/>
          </g>
        </g>
        <g id="Grupo_1201897" data-name="Grupo 1201897" transform="translate(34.815 36.575)">
          <g id="Grupo_1201896" data-name="Grupo 1201896">
            <path id="Trazado_1043305" data-name="Trazado 1043305" d="M361.683,374h-4.694a.978.978,0,0,0-.978.978v6.259a.978.978,0,0,0,.978.978h4.694a.978.978,0,0,0,.978-.978v-6.259A.978.978,0,0,0,361.683,374Zm-.978,6.259h-2.738v-4.3h2.738Z" transform="translate(-356.011 -374)" fill="#fff"/>
          </g>
        </g>
        <g id="Grupo_1201899" data-name="Grupo 1201899" transform="translate(26.21 36.575)">
          <g id="Grupo_1201898" data-name="Grupo 1201898">
            <path id="Trazado_1043306" data-name="Trazado 1043306" d="M273.683,374h-4.694a.978.978,0,0,0-.978.978v6.259a.978.978,0,0,0,.978.978h4.694a.978.978,0,0,0,.978-.978v-6.259A.978.978,0,0,0,273.683,374Zm-.978,6.259h-2.738v-4.3h2.738Z" transform="translate(-268.011 -374)" fill="#fff"/>
          </g>
        </g>
        <g id="Grupo_1201901" data-name="Grupo 1201901" transform="translate(17.604 39.704)">
          <g id="Grupo_1201900" data-name="Grupo 1201900">
            <path id="Trazado_1043307" data-name="Trazado 1043307" d="M185.683,406a.978.978,0,0,0-.978.978v2.151h-3.716a.978.978,0,0,0,0,1.956h4.694a.978.978,0,0,0,.978-.978v-3.129A.978.978,0,0,0,185.683,406Z" transform="translate(-180.011 -406)" fill="#fff"/>
          </g>
        </g>
        <g id="Grupo_1201903" data-name="Grupo 1201903" transform="translate(8.962 20.572)">
          <g id="Grupo_1201902" data-name="Grupo 1201902">
            <path id="Trazado_1043308" data-name="Trazado 1043308" d="M95.654,217.2a1.792,1.792,0,1,1,2.054-1.773.978.978,0,0,0,1.956,0,3.8,3.8,0,0,0-3.032-3.617v-.468a.978.978,0,1,0-1.956,0v.468a3.8,3.8,0,0,0-3.032,3.617,3.881,3.881,0,0,0,4.01,3.729,1.793,1.793,0,1,1-2.054,1.773.978.978,0,1,0-1.956,0,3.8,3.8,0,0,0,3.032,3.617v.385a.978.978,0,1,0,1.956,0v-.385a3.8,3.8,0,0,0,3.032-3.617A3.881,3.881,0,0,0,95.654,217.2Z" transform="translate(-91.644 -210.362)" fill="#fff"/>
          </g>
        </g>
        <g id="Grupo_1201905" data-name="Grupo 1201905" transform="translate(0 15.45)">
          <g id="Grupo_1201904" data-name="Grupo 1201904">
            <g transform="matrix(1, 0, 0, 1, -674.98, -48.88)" filter="url(#Trazado_1043309)">
              <path id="Trazado_1043309-2" data-name="Trazado 1043309" d="M12.975,157.987A12.975,12.975,0,1,0,25.95,170.962,12.99,12.99,0,0,0,12.975,157.987Zm0,23.994a11.019,11.019,0,1,1,11.019-11.019A11.032,11.032,0,0,1,12.975,181.981Z" transform="translate(674.98 -109.11)" fill="#fff"/>
            </g>
          </g>
        </g>
        <g id="Grupo_1201907" data-name="Grupo 1201907" transform="translate(4.044 27.459)">
          <g id="Grupo_1201906" data-name="Grupo 1201906">
            <path id="Trazado_1043310" data-name="Trazado 1043310" d="M43.02,281.078a.977.977,0,1,0,.287.691A.986.986,0,0,0,43.02,281.078Z" transform="translate(-41.351 -280.791)" fill="#fff"/>
          </g>
        </g>
        <g id="Grupo_1201909" data-name="Grupo 1201909" transform="translate(19.951 27.459)">
          <g id="Grupo_1201908" data-name="Grupo 1201908">
            <path id="Trazado_1043311" data-name="Trazado 1043311" d="M205.68,281.078a.977.977,0,1,0,.287.691A.985.985,0,0,0,205.68,281.078Z" transform="translate(-204.011 -280.791)" fill="#fff"/>
          </g>
        </g>
        <g id="Grupo_1201911" data-name="Grupo 1201911" transform="translate(0 48.114)">
          <g id="Grupo_1201910" data-name="Grupo 1201910">
            <path id="Trazado_1043312" data-name="Trazado 1043312" d="M1.67,492.287a.977.977,0,0,0-1.383,0,.978.978,0,0,0,.691,1.669.978.978,0,0,0,.691-1.669Z" transform="translate(-0.001 -492)" fill="#fff"/>
          </g>
        </g>
        <g id="Grupo_1201913" data-name="Grupo 1201913" transform="translate(3.618)">
          <g id="Grupo_1201912" data-name="Grupo 1201912">
            <g transform="matrix(1, 0, 0, 1, -678.6, -33.43)" filter="url(#Trazado_1043313)">
              <path id="Trazado_1043313-2" data-name="Trazado 1043313" d="M82.475,48.114H79.541V6.259a.978.978,0,0,0-.978-.978H73.674V.978A.978.978,0,0,0,72.7,0H53.137a.978.978,0,0,0-.978.978v4.3H47.27a.978.978,0,0,0-.978.978V11.47a.978.978,0,1,0,1.956,0V7.237H77.585V48.114H48.248v-4.3a.978.978,0,0,0-1.956,0v4.3H37.979a.978.978,0,0,0,0,1.956h44.5a.978.978,0,0,0,0-1.956ZM71.718,5.281h-17.6V1.956h17.6Z" transform="translate(641.6 33.43)" fill="#fff"/>
            </g>
          </g>
        </g>
      </g>
    </g>
    <g id="Enmascarar_grupo_1098887" data-name="Enmascarar grupo 1098887" clip-path="url(#clip-path)">
      <g id="Grupo_1202054" data-name="Grupo 1202054" transform="translate(632.271 3399.444)">
        <g id="Grupo_1202052" data-name="Grupo 1202052" transform="translate(100.695 271.999)">
          <path id="Trazado_1043480" data-name="Trazado 1043480" d="M115.268,298.288s1.89,15.6-4.018,18.672-15.362,8.982-16.307,17.017,13.707,17.725,8.745,23.162-21.98,9.453-12.053,25.052,123.842,29.542,129.515,9.927-9.927-25.289-10.635-32.379,10.635-12.29,8.982-22.452-12.29-11.817-16.072-17.962-4.49-29.779-21.98-32.615S117.158,291.908,115.268,298.288Z" transform="translate(-79.406 -266.777)" fill="#28294a"/>
          <g id="Grupo_1202051" data-name="Grupo 1202051">
            <g id="Grupo_1202040" data-name="Grupo 1202040" transform="translate(0 62.483)">
              <path id="Trazado_1043481" data-name="Trazado 1043481" d="M135.991,358.029s-25.66,5.942-41.866,28.631l-2.178,22.721s31.619-4.355,48.366-25.422l-4.592-28.09" transform="translate(-78.161 -303.469)" fill="#49609b"/>
              <g id="Grupo_1202031" data-name="Grupo 1202031">
                <path id="Trazado_1043482" data-name="Trazado 1043482" d="M107.894,322.058,103.452,330,99.4,327.744l4.442-7.939a2.271,2.271,0,0,1,3.13-1.153A2.6,2.6,0,0,1,107.894,322.058Z" transform="translate(-75.406 -317.329)" fill="#d87f69"/>
                <g id="Grupo_1202029" data-name="Grupo 1202029" transform="translate(0 5.325)">
                  <g id="Grupo_1202028" data-name="Grupo 1202028" transform="translate(21.293)">
                    <g id="Grupo_1202027" data-name="Grupo 1202027">
                      <path id="Trazado_1043483" data-name="Trazado 1043483" d="M104.756,327.578l-.577,14.881-5.609-.44.577-14.881a2.756,2.756,0,0,1,2.871-2.851A3.158,3.158,0,0,1,104.756,327.578Z" transform="translate(-97.005 -320.475)" fill="#d87f69"/>
                      <path id="Trazado_1043484" data-name="Trazado 1043484" d="M111.367,324.774l-.441,14.885-5.613-.389.441-14.885a2.755,2.755,0,0,1,2.844-2.877A3.162,3.162,0,0,1,111.367,324.774Z" transform="translate(-94.511 -321.502)" fill="#bf6c69"/>
                      <path id="Trazado_1043485" data-name="Trazado 1043485" d="M122.362,334.7l-6.823,12.366-4.952-3.3L117.41,331.4a2.6,2.6,0,0,1,3.835-.931A3.338,3.338,0,0,1,122.362,334.7Z" transform="translate(-92.561 -318.365)" fill="#d87f69"/>
                      <path id="Trazado_1043486" data-name="Trazado 1043486" d="M104.278,331.5l-.577,14.881-5.611-.44.577-14.881a2.755,2.755,0,0,1,2.871-2.85A3.16,3.16,0,0,1,104.278,331.5Z" transform="translate(-97.182 -319.025)" fill="#e5aa80"/>
                      <path id="Trazado_1043487" data-name="Trazado 1043487" d="M123.417,341.035c-.493-6.427-6.705-11.417-13.873-11.146s-12.579,5.7-12.086,12.127,6.705,11.417,13.872,11.146S123.91,347.462,123.417,341.035Z" transform="translate(-97.427 -318.405)" fill="#e5aa80"/>
                    </g>
                  </g>
                  <path id="Trazado_1043488" data-name="Trazado 1043488" d="M94.449,396.165h0a9.15,9.15,0,0,1-6.6-11.13l18.925-44.509,14.331,4.4-15.525,44.641A9.149,9.149,0,0,1,94.449,396.165Z" transform="translate(-79.782 -314.467)" fill="#e5aa80"/>
                  <path id="Trazado_1043489" data-name="Trazado 1043489" d="M100.867,345.643l-5.389,12.676,15.783,3.748.451-.444,4.127-11.868Z" transform="translate(-76.855 -312.575)" fill="#49609b"/>
                  <path id="Trazado_1043490" data-name="Trazado 1043490" d="M115.5,350.388l-9.619-2.046a8.16,8.16,0,0,0-8.516,5.194L82.152,394.521c-1.357,5.315,2.594,15.012,7.909,16.368l5.609,1.294c5.315,1.357,13.338-6.033,14.694-11.346l12.064-40.006A8.16,8.16,0,0,0,115.5,350.388Z" transform="translate(-81.882 -311.596)" fill="#647fbc"/>
                </g>
                <g id="Grupo_1202030" data-name="Grupo 1202030" transform="translate(30.61)">
                  <path id="Trazado_1043491" data-name="Trazado 1043491" d="M116.457,357.771l-11.194-6.935a2.187,2.187,0,0,1-1.034-1.857V320.791a2.185,2.185,0,0,1,3.335-1.857l11.194,6.935a2.187,2.187,0,0,1,1.034,1.857v28.188A2.185,2.185,0,0,1,116.457,357.771Z" transform="translate(-104.229 -317.249)" fill="#545971"/>
                  <path id="Trazado_1043492" data-name="Trazado 1043492" d="M117.2,356.783,106,349.848a2.187,2.187,0,0,1-1.034-1.857V319.8a2.185,2.185,0,0,1,3.335-1.857l11.194,6.935a2.187,2.187,0,0,1,1.034,1.857v28.187A2.185,2.185,0,0,1,117.2,356.783Z" transform="translate(-103.955 -317.615)" fill="#494c69"/>
                  <path id="Trazado_1043493" data-name="Trazado 1043493" d="M116.7,354.542l-10.338-6.405a2.016,2.016,0,0,1-.955-1.715V320.391a2.018,2.018,0,0,1,3.081-1.715l10.338,6.405a2.014,2.014,0,0,1,.955,1.715v26.031A2.018,2.018,0,0,1,116.7,354.542Z" transform="translate(-103.794 -317.335)" fill="#fcfdff"/>
                </g>
                <path id="Trazado_1043494" data-name="Trazado 1043494" d="M109.182,329.8l-7.924,4.467-2.29-4.035,7.924-4.467a2.273,2.273,0,0,1,3.274.644A2.609,2.609,0,0,1,109.182,329.8Z" transform="translate(-75.565 -314.757)" fill="#e5aa80"/>
                <path id="Trazado_1043495" data-name="Trazado 1043495" d="M110.329,325.495l-7.924,4.467-2.29-4.035,7.924-4.467a2.273,2.273,0,0,1,3.274.644A2.607,2.607,0,0,1,110.329,325.495Z" transform="translate(-75.141 -316.349)" fill="#d87f69"/>
              </g>
              <g id="Grupo_1202034" data-name="Grupo 1202034" transform="translate(37.828 45.002)">
                <g id="Grupo_1202033" data-name="Grupo 1202033">
                  <path id="Trazado_1043496" data-name="Trazado 1043496" d="M118.909,413.307" transform="translate(-106.019 -327.23)" fill="#bf6c69"/>
                  <g id="Grupo_1202032" data-name="Grupo 1202032" transform="translate(1.728)">
                    <path id="Trazado_1043497" data-name="Trazado 1043497" d="M154.777,350.478h0c-23.84-.5-43.547,17.279-44.017,39.709l.412,73.228c-.351,9.527,5.174,12,15.3,11.906l62.34-1.762c9.653-.092,10.246-.751,10.331-9.832L197.091,392C197.561,369.567,178.617,350.978,154.777,350.478Z" transform="translate(-110.76 -350.468)" fill="#f8f6eb"/>
                  </g>
                  <path id="Trazado_1043498" data-name="Trazado 1043498" d="M156.7,354.62s42.136,10.8,53.3,68.785l-38.58,11.3Z" transform="translate(-92.043 -348.932)" fill="#49609b"/>
                  <path id="Trazado_1043499" data-name="Trazado 1043499" d="M197.557,391.506c.389-18.562-12.524-34.483-30.5-39.709-3.524,15.212-13.481,28.305-13.481,28.305-4.522-1.908-13.092-14-16.873-26.608-14.742,6.205-25.138,19.984-25.478,36.2l-1.712,59.942c-.351,9.527,5.174,12,15.3,11.906l68.785.36c9.653-.092,10.246-.751,10.331-9.834Z" transform="translate(-109.499 -349.976)" fill="#6480bd"/>
                  <path id="Trazado_1043500" data-name="Trazado 1043500" d="M148.184,385.323s16.242-12.239,19.3-31.186a44.765,44.765,0,0,0-6.249-2.34C157.707,367.009,147.75,380.1,147.75,380.1c-4.522-1.908-13.092-14-16.873-26.608a43.89,43.89,0,0,0-5.619,2.859C127.3,364.44,133.114,380.087,148.184,385.323Z" transform="translate(-103.671 -349.976)" fill="#49609b"/>
                </g>
              </g>
              <g id="Grupo_1202035" data-name="Grupo 1202035" transform="translate(52.64 64.398)">
                <path id="Trazado_1043501" data-name="Trazado 1043501" d="M157.025,365.63l-24.374,7.135,3.523,11.513,24.373-7.135Z" transform="translate(-115.749 -364.257)" fill="#222121"/>
                <path id="Trazado_1043502" data-name="Trazado 1043502" d="M204.85,444.646l-60.782,17.793-23.756-80.017,60.782-17.794Z" transform="translate(-120.312 -364.628)" fill="#454540"/>
              </g>
              <g id="Grupo_1202039" data-name="Grupo 1202039" transform="translate(65.845 108.192)">
                <path id="Trazado_1043503" data-name="Trazado 1043503" d="M191.181,397.088c-9.427,2.957-34.912,9.979-49.515,14.548l6.126,10.9s32.827.666,50.1-5.228a10.635,10.635,0,0,0,5.246-16.1h0A10.654,10.654,0,0,0,191.181,397.088Z" transform="translate(-125.621 -396.599)" fill="#e5aa80"/>
                <path id="Trazado_1043504" data-name="Trazado 1043504" d="M174.439,409.214l-12.572-6.965c-2.689.774-5.408,1.559-8.084,2.338a34.418,34.418,0,0,0,3.416,15.674c2.018-.077,4.175-.179,6.413-.318Z" transform="translate(-121.141 -394.509)" fill="#49609b"/>
                <g id="Grupo_1202038" data-name="Grupo 1202038" transform="translate(0 4.817)">
                  <g id="Grupo_1202037" data-name="Grupo 1202037">
                    <g id="Grupo_1202036" data-name="Grupo 1202036">
                      <path id="Trazado_1043505" data-name="Trazado 1043505" d="M158.535,422.9c3.294-5.561.414-10.457-2.84-16.5-3.819-7.1-13.277-4.593-16.573.967s-1.756,14.477,3.653,18.436S155.239,428.466,158.535,422.9Z" transform="translate(-127.199 -399.399)" fill="#e5aa80"/>
                      <path id="Trazado_1043506" data-name="Trazado 1043506" d="M133.777,411.014l14.128-3.746,1.075,5.594-14.128,3.748a2.641,2.641,0,0,1-3.438-1.973A3.26,3.26,0,0,1,133.777,411.014Z" transform="translate(-129.43 -397.47)" fill="#e5aa80"/>
                      <path id="Trazado_1043507" data-name="Trazado 1043507" d="M132.365,407.3l14.128-3.748,1.075,5.594-14.128,3.746A2.641,2.641,0,0,1,130,410.92,3.259,3.259,0,0,1,132.365,407.3Z" transform="translate(-129.952 -398.844)" fill="#e5aa80"/>
                      <path id="Trazado_1043508" data-name="Trazado 1043508" d="M138.909,400.234l14.016,4.148-1.992,5.338-14.016-4.148a2.641,2.641,0,0,1-1.911-3.472A3.261,3.261,0,0,1,138.909,400.234Z" transform="translate(-128.145 -400.115)" fill="#e5aa80"/>
                      <path id="Trazado_1043509" data-name="Trazado 1043509" d="M135.89,414.618l14.128-3.746,1.075,5.594-14.128,3.746a2.641,2.641,0,0,1-3.438-1.972A3.26,3.26,0,0,1,135.89,414.618Z" transform="translate(-128.649 -396.137)" fill="#e5aa80"/>
                      <path id="Trazado_1043510" data-name="Trazado 1043510" d="M138.169,417.665l14.128-3.748,1.075,5.594-14.128,3.746a2.641,2.641,0,0,1-3.438-1.973A3.259,3.259,0,0,1,138.169,417.665Z" transform="translate(-127.806 -395.011)" fill="#e5aa80"/>
                    </g>
                  </g>
                </g>
              </g>
              <path id="Trazado_1043511" data-name="Trazado 1043511" d="M159.988,383.554" transform="translate(-53 -293.231)" fill="#e5aa80"/>
              <path id="Trazado_1043512" data-name="Trazado 1043512" d="M155.919,411.73l3.015,9.36a8.16,8.16,0,0,0,8.745,4.8l34.838-4.212c5.285-1.47,11.725-9.724,10.257-15.009l-1.67-5.509c-1.468-5.285-11.872-8.563-17.157-7.094l-32.417,6.46A8.162,8.162,0,0,0,155.919,411.73Z" transform="translate(-54.758 -289.474)" fill="#647fbc"/>
            </g>
            <g id="Grupo_1202050" data-name="Grupo 1202050" transform="translate(28.981)">
              <g id="Grupo_1202049" data-name="Grupo 1202049">
                <g id="Grupo_1202048" data-name="Grupo 1202048">
                  <g id="Grupo_1202047" data-name="Grupo 1202047">
                    <g id="Grupo_1202041" data-name="Grupo 1202041" transform="translate(43.525 100.743)">
                      <path id="Trazado_1043513" data-name="Trazado 1043513" d="M134.815,358.06c2.142,3.33,5.29,5.8,8,5.841,3.188.048,6.96-2.72,8.4-5.994L151.4,345.8l-16.4-.249Z" transform="translate(-134.815 -345.546)" fill="#e5aa80"/>
                      <path id="Trazado_1043514" data-name="Trazado 1043514" d="M151.277,352.321l.1-6.526-16.4-.249-.1,6.338a34.324,34.324,0,0,0,7.569,1.171A33.563,33.563,0,0,0,151.277,352.321Z" transform="translate(-134.79 -345.546)" fill="#d87f69"/>
                    </g>
                    <g id="Grupo_1202046" data-name="Grupo 1202046">
                      <g id="Grupo_1202044" data-name="Grupo 1202044">
                        <g id="Grupo_1202043" data-name="Grupo 1202043">
                          <path id="Trazado_1043515" data-name="Trazado 1043515" d="M140.419,279.923l9.9-.91c18.97-1.744,35.631,10.79,37.213,27.994l1.992,21.682c1.809,19.684-14.32,37.258-36.025,39.253h0c-21.706,1.994-40.766-12.346-42.576-32.03l-1.993-21.682C107.352,297.026,121.448,281.667,140.419,279.923Z" transform="translate(-100.905 -269.465)" fill="#28294a"/>
                          <g id="Grupo_1202042" data-name="Grupo 1202042" transform="translate(68.163 63.173)">
                            <circle id="Elipse_12650" data-name="Elipse 12650" cx="11.914" cy="11.914" r="11.914" transform="translate(0 18.215) rotate(-49.855)" fill="#e5aa80"/>
                            <path id="Trazado_1043516" data-name="Trazado 1043516" d="M176.172,331.54c1.125,2.9-1.04,6.449-4.834,7.92s-7.785.31-8.909-2.593,1.04-6.449,4.834-7.92S175.048,328.636,176.172,331.54Z" transform="translate(-149.351 -314.35)" fill="#d87f69"/>
                            <path id="Trazado_1043517" data-name="Trazado 1043517" d="M172.9,328.791a6.752,6.752,0,0,0-8.689,3.535" transform="translate(-148.582 -314.346)" fill="none" stroke="#272525" stroke-linecap="round" stroke-linejoin="round" stroke-miterlimit="10" stroke-width="1.053"/>
                          </g>
                          <path id="Trazado_1043518" data-name="Trazado 1043518" d="M140.656,288.671l9.116-.838A31.754,31.754,0,0,1,184.3,316.547l1.407,15.313a36.331,36.331,0,0,1-32.854,39.5h0a36.331,36.331,0,0,1-39.5-32.854L111.942,323.2A31.753,31.753,0,0,1,140.656,288.671Z" transform="translate(-99.798 -266.194)" fill="#e5aa80"/>
                          <path id="Trazado_1043519" data-name="Trazado 1043519" d="M176.054,292.094s-1.012,6.96-6.03,11.086c-20.132,16.555-57.022,18.67-65.128,2.33C89.981,275.445,169.647,254.766,176.054,292.094Z" transform="translate(-103.04 -271.999)" fill="#28294a"/>
                          <path id="Trazado_1043520" data-name="Trazado 1043520" d="M148.523,290.2S151.652,329.09,174,335.125C174,335.124,181.824,271.2,148.523,290.2Z" transform="translate(-86.221 -266.573)" fill="#28294a"/>
                        </g>
                      </g>
                      <g id="Grupo_1202045" data-name="Grupo 1202045" transform="translate(23.143 45.949)">
                        <path id="Trazado_1043521" data-name="Trazado 1043521" d="M157.871,308.667s-16.068,2.059-16.524,1.286S151.2,301.3,157.871,308.667Z" transform="translate(-112.023 -305.544)" fill="#28294a"/>
                        <path id="Trazado_1043522" data-name="Trazado 1043522" d="M119.935,311.439s16.2.138,16.559-.684S125.687,303.329,119.935,311.439Z" transform="translate(-119.935 -304.842)" fill="#28294a"/>
                        <path id="Trazado_1043523" data-name="Trazado 1043523" d="M138.022,331.346s12.575,3.87,14.328-7.206Z" transform="translate(-113.247 -298.667)" fill="#272525"/>
                        <path id="Trazado_1043524" data-name="Trazado 1043524" d="M126.278,320.751a3.587,3.587,0,1,0,3.244-3.9A3.586,3.586,0,0,0,126.278,320.751Z" transform="translate(-117.595 -301.368)" fill="#272525"/>
                        <path id="Trazado_1043525" data-name="Trazado 1043525" d="M143.353,318.345a3.588,3.588,0,1,0,3.244-3.9A3.587,3.587,0,0,0,143.353,318.345Z" transform="translate(-111.281 -302.258)" fill="#272525"/>
                        <path id="Trazado_1043526" data-name="Trazado 1043526" d="M135.768,315.36l1.49,11.849a16.8,16.8,0,0,0,3.846.238" transform="translate(-114.08 -301.914)" fill="none" stroke="#272525" stroke-linecap="round" stroke-linejoin="round" stroke-miterlimit="10" stroke-width="1.053"/>
                      </g>
                    </g>
                  </g>
                </g>
              </g>
            </g>
          </g>
        </g>
        <g id="Grupo_1202053" data-name="Grupo 1202053" transform="translate(31.009 425.57)">
          <path id="Trazado_1043527" data-name="Trazado 1043527" d="M46.438,451.833h99.381l-15.429-60.3a7.417,7.417,0,0,0-7.417-7.417H38.426a7.417,7.417,0,0,0-7.417,7.417Z" transform="translate(-31.009 -384.112)" fill="#28294a"/>
          <path id="Trazado_1043528" data-name="Trazado 1043528" d="M71.845,435.926h99.381v-4.209a4.59,4.59,0,0,0-4.59-4.59H71.845Z" transform="translate(-15.908 -368.206)" fill="#28294a"/>
        </g>
      </g>
    </g>
  </g>
</svg>
