<svg xmlns="http://www.w3.org/2000/svg" xmlns:xlink="http://www.w3.org/1999/xlink" width="505" height="322" viewBox="0 0 505 322">
  <defs>
    <clipPath id="clip-path">
      <rect id="Rectángulo_416964" data-name="Rectángulo 416964" width="505" height="322" fill="#fff" stroke="#707070" stroke-width="1"/>
    </clipPath>
  </defs>
  <g id="Enmascarar_grupo_1098891" data-name="Enmascarar grupo 1098891" clip-path="url(#clip-path)">
    <g id="Grupo_1202704" data-name="Grupo 1202704" transform="translate(12 25.847)">
      <circle id="Elipse_12683" data-name="Elipse 12683" cx="240.5" cy="240.5" r="240.5" transform="translate(0 13.153)" fill="#e4f2f4" opacity="0.57"/>
      <g id="OBJECTS" transform="translate(20 0)">
        <g id="Grupo_1202354" data-name="Grupo 1202354" transform="translate(48.113 23.207)">
          <g id="Grupo_1202339" data-name="Grupo 1202339" transform="translate(0 59.287)">
            <ellipse id="Elipse_12660" data-name="Elipse 12660" cx="176.202" cy="11.247" rx="176.202" ry="11.247" transform="translate(0 169.709)" fill="#001433" opacity="0.1"/>
            <g id="Grupo_1202338" data-name="Grupo 1202338" transform="translate(12.922)">
              <g id="Grupo_1202336" data-name="Grupo 1202336" transform="translate(41.49)">
                <path id="Trazado_1043733" data-name="Trazado 1043733" d="M201.006,321.546a4.675,4.675,0,0,0,4.675,4.675H433.825a4.675,4.675,0,0,0,4.675-4.675V156.983a4.675,4.675,0,0,0-4.675-4.675H205.681a4.675,4.675,0,0,0-4.675,4.675Z" transform="translate(-201.006 -152.308)" fill="#001433" stroke="#22689e" stroke-miterlimit="10" stroke-width="2.139"/>
                <rect id="Rectángulo_416839" data-name="Rectángulo 416839" width="220.185" height="147.258" transform="translate(8.649 9.167)" fill="#faeee8"/>
              </g>
              <g id="Grupo_1202337" data-name="Grupo 1202337" transform="translate(0 165.978)">
                <path id="Trazado_1043734" data-name="Trazado 1043734" d="M140.07,405.422h315.8a2.338,2.338,0,0,1,2.338,2.338V412.9a2.315,2.315,0,0,1-.092.614,7.008,7.008,0,0,1-6.921,5.931H144.746a7.008,7.008,0,0,1-6.921-5.931,2.316,2.316,0,0,1-.092-.614V407.76A2.337,2.337,0,0,1,140.07,405.422Z" transform="translate(-137.733 -405.422)" fill="#22689e"/>
                <path id="Trazado_1043735" data-name="Trazado 1043735" d="M401.166,405.422a9.574,9.574,0,0,1-9.517,8.549H330.379a9.574,9.574,0,0,1-9.517-8.549Z" transform="translate(-200.778 -405.422)" fill="#003154" opacity="0.6"/>
              </g>
            </g>
          </g>
          <g id="Grupo_1202348" data-name="Grupo 1202348" transform="translate(74.234 2.816)">
            <g id="Grupo_1202344" data-name="Grupo 1202344" transform="translate(0 78.302)">
              <g id="Grupo_1202340" data-name="Grupo 1202340">
                <path id="Trazado_1043736" data-name="Trazado 1043736" d="M443.177,290.053a3.757,3.757,0,0,1-3.757,3.757H275.927a3.757,3.757,0,0,1-3.757-3.757v-100.7a3.758,3.758,0,0,1,3.757-3.757H439.419a3.757,3.757,0,0,1,3.757,3.757Z" transform="translate(-272.17 -185.6)" fill="#fff" stroke="#22689e" stroke-miterlimit="10" stroke-width="1.754"/>
              </g>
              <g id="Grupo_1202343" data-name="Grupo 1202343" transform="translate(0 0.507)">
                <g id="Grupo_1202342" data-name="Grupo 1202342">
                  <path id="Trazado_1043737" data-name="Trazado 1043737" d="M272.17,197.953V190.13a3.757,3.757,0,0,1,3.757-3.757H439.419a3.757,3.757,0,0,1,3.757,3.757v7.822Z" transform="translate(-272.17 -186.373)" fill="#22689e"/>
                  <g id="Grupo_1202341" data-name="Grupo 1202341" transform="translate(2.424 1.982)">
                    <circle id="Elipse_12661" data-name="Elipse 12661" cx="2.209" cy="2.209" r="2.209" transform="translate(0)" fill="#fff"/>
                    <path id="Trazado_1043738" data-name="Trazado 1043738" d="M516.2,191.6a2.209,2.209,0,1,1-2.209-2.209A2.209,2.209,0,0,1,516.2,191.6Z" transform="translate(-504.739 -189.395)" fill="#fff"/>
                    <path id="Trazado_1043739" data-name="Trazado 1043739" d="M505.46,191.6a2.209,2.209,0,1,1-2.209-2.209A2.209,2.209,0,0,1,505.46,191.6Z" transform="translate(-486.959 -189.395)" fill="#fff"/>
                  </g>
                </g>
              </g>
            </g>
            <g id="Grupo_1202347" data-name="Grupo 1202347" transform="translate(5.172)">
              <g id="Grupo_1202346" data-name="Grupo 1202346" transform="translate(1.09)">
                <rect id="Rectángulo_416840" data-name="Rectángulo 416840" width="14.185" height="71.601" transform="translate(84.312 99.006)" fill="#ff8255"/>
                <rect id="Rectángulo_416841" data-name="Rectángulo 416841" width="15.773" height="99.204" transform="translate(31.067 71.403)" fill="#ffa94d"/>
                <rect id="Rectángulo_416842" data-name="Rectángulo 416842" width="15.773" height="47.449" transform="translate(109.744 123.158)" fill="#ffa94d"/>
                <rect id="Rectángulo_416843" data-name="Rectángulo 416843" width="15.773" height="54.35" transform="translate(57.292 116.257)" fill="#22689e"/>
                <rect id="Rectángulo_416844" data-name="Rectángulo 416844" width="15.773" height="29.335" transform="translate(135.97 141.272)" fill="#22689e"/>
                <g id="Grupo_1202345" data-name="Grupo 1202345" transform="translate(0)">
                  <rect id="Rectángulo_416845" data-name="Rectángulo 416845" width="14.185" height="151.821" transform="translate(5.635 18.786)" fill="#ff8255"/>
                  <path id="Trazado_1043740" data-name="Trazado 1043740" d="M510.04,88.236,497.312,66.191,484.585,88.236Z" transform="translate(-484.585 -66.191)" fill="#ff8255"/>
                </g>
              </g>
              <line id="Línea_968" data-name="Línea 968" x1="151.054" transform="translate(0 173.291)" fill="none" stroke="#001433" stroke-linecap="round" stroke-miterlimit="10" stroke-width="1.754"/>
            </g>
          </g>
          <g id="Grupo_1202353" data-name="Grupo 1202353" transform="translate(134.299)">
            <g id="Grupo_1202350" data-name="Grupo 1202350" transform="translate(31.18 12.803)">
              <circle id="Elipse_12662" data-name="Elipse 12662" cx="24.975" cy="24.975" r="24.975" transform="translate(35.32 70.64) rotate(-135)" fill="#ff8255"/>
              <g id="Grupo_1202349" data-name="Grupo 1202349" transform="translate(25.541 19.712)">
                <path id="Trazado_1043741" data-name="Trazado 1043741" d="M336.68,139.207a22.182,22.182,0,0,0,7.874-1.829v-6.195a26.952,26.952,0,0,1-4.7,1.838,16.281,16.281,0,0,1-4.46.737,5.3,5.3,0,0,1-2.323-.382,1.327,1.327,0,0,1-.737-1.278,1.3,1.3,0,0,1,.532-1.045,8.242,8.242,0,0,1,1.772-.971q1.24-.541,3.35-1.306a15.159,15.159,0,0,0,3.825-1.969,6.87,6.87,0,0,0,2.118-2.445,7.631,7.631,0,0,0,.662-3.368,6.068,6.068,0,0,0-1.978-4.814,10.492,10.492,0,0,0-5.934-2.146V111.48h-3.862V114a21.892,21.892,0,0,0-7.482,1.829l2.22,5.318a17.41,17.41,0,0,1,7.035-1.754,4.355,4.355,0,0,1,2.1.364,1.176,1.176,0,0,1,.607,1.073,1.319,1.319,0,0,1-.439,1.017,6.181,6.181,0,0,1-1.521.9q-1.082.495-3,1.148a14.512,14.512,0,0,0-5.6,3.144,6.28,6.28,0,0,0-1.7,4.544,6.839,6.839,0,0,0,1.987,5.094,9.673,9.673,0,0,0,5.794,2.426v3.6h3.862Z" transform="translate(-325.037 -111.48)" fill="#fff"/>
              </g>
            </g>
            <path id="Trazado_1043742" data-name="Trazado 1043742" d="M402.538,74.621c.363-7.018,5.7-12.725,12.725-12.725a12.725,12.725,0,0,1,12.725,12.725c0,10.513-12.725,23.356-12.725,23.356S402.067,83.72,402.538,74.621Zm12.725,5.315a5.315,5.315,0,1,0-5.315-5.315A5.315,5.315,0,0,0,415.263,79.936Z" transform="translate(-402.526 -61.896)" fill="#22689e"/>
            <g id="Grupo_1202352" data-name="Grupo 1202352" transform="translate(103.821 16.929)">
              <g id="Grupo_1202351" data-name="Grupo 1202351">
                <circle id="Elipse_12663" data-name="Elipse 12663" cx="14.213" cy="14.213" r="14.213" fill="none" stroke="#ffa94d" stroke-miterlimit="10" stroke-width="15.895" stroke-dasharray="8.51 8.51"/>
              </g>
              <circle id="Elipse_12664" data-name="Elipse 12664" cx="11.371" cy="11.371" r="11.371" transform="translate(2.843 2.843)" fill="none" stroke="#ffa94d" stroke-miterlimit="10" stroke-width="11.56"/>
            </g>
          </g>
        </g>
        <g id="Grupo_1202376" data-name="Grupo 1202376" transform="translate(0 20.408)">
          <ellipse id="Elipse_12665" data-name="Elipse 12665" cx="49.987" cy="9.06" rx="49.987" ry="9.06" transform="translate(0 256.934)" fill="#001433" opacity="0.1"/>
          <g id="Grupo_1202375" data-name="Grupo 1202375" transform="translate(1.31 0)">
            <g id="Grupo_1202361" data-name="Grupo 1202361" transform="translate(32.887 0.89)">
              <g id="Grupo_1202355" data-name="Grupo 1202355">
                <path id="Trazado_1043743" data-name="Trazado 1043743" d="M610.458,60.077s10.595-5.211,18.063,7.121,8.511,30.743,1.216,34.042l.521-2.779s-1.39,4.863-11.289,5.732S610.458,60.077,610.458,60.077Z" transform="translate(-597.328 -58.984)" fill="#000a19"/>
                <path id="Trazado_1043744" data-name="Trazado 1043744" d="M631.2,113.36s5.906,17.542,2.431,18.584,14.937-2.431,14.937-2.431l-2.258-14.937Z" transform="translate(-624.843 -77.703)" fill="#ff927d"/>
                <path id="Trazado_1043745" data-name="Trazado 1043745" d="M635.865,69.6s13.374-2.258,15.284,14.763c2.3,20.487-15.422,30.008-26.574,13.026C616.934,85.757,621.1,71.689,635.865,69.6Z" transform="translate(-620.825 -62.606)" fill="#ffb199"/>
              </g>
              <g id="Grupo_1202360" data-name="Grupo 1202360" transform="translate(7.087 16.61)">
                <g id="Grupo_1202356" data-name="Grupo 1202356" transform="translate(13.575)">
                  <path id="Trazado_1043746" data-name="Trazado 1043746" d="M631.775,86.818a2.1,2.1,0,0,0-.16-.4,3.447,3.447,0,0,0-.249-.426,3.516,3.516,0,0,0-.41-.5,3.648,3.648,0,0,0-.591-.513,3.7,3.7,0,0,0-.794-.421c-.149-.054-.3-.1-.463-.152-.163-.03-.33-.054-.5-.073a4.107,4.107,0,0,0-1.029.038,4.4,4.4,0,0,0-.957.319,3.882,3.882,0,0,0-.811.489,5.455,5.455,0,0,0-.646.569c-.178.2-.334.4-.475.588a2.719,2.719,0,0,0-.335.534c-.092.163-.16.313-.217.434-.112.245-.163.389-.163.389s.142-.074.368-.213.519-.361.887-.58c.186-.108.381-.224.578-.355s.427-.216.641-.342a5.114,5.114,0,0,1,.679-.294,5.176,5.176,0,0,1,.7-.2c.117-.025.235-.024.353-.041a1.348,1.348,0,0,1,.351-.019c.117.008.234.007.351.007.115.022.229.042.344.056a4.675,4.675,0,0,1,.664.172,6.2,6.2,0,0,1,.606.237,9.962,9.962,0,0,1,.919.479C631.644,86.731,631.775,86.818,631.775,86.818Z" transform="translate(-623.975 -84.315)" fill="#000a19"/>
                </g>
                <g id="Grupo_1202357" data-name="Grupo 1202357" transform="translate(0 1.238)">
                  <path id="Trazado_1043747" data-name="Trazado 1043747" d="M652,88.7a2.279,2.279,0,0,0-.205-.412,3.9,3.9,0,0,0-.782-.939,4.256,4.256,0,0,0-1.536-.9l-.494-.146c-.172-.028-.348-.054-.526-.071a5.124,5.124,0,0,0-1.083.033,5.864,5.864,0,0,0-1.025.3c-.159.07-.315.146-.466.224a2.163,2.163,0,0,0-.426.254,6.717,6.717,0,0,0-.732.565c-.207.2-.39.407-.555.6a2.911,2.911,0,0,0-.4.547c-.111.169-.2.324-.268.449-.142.252-.208.4-.208.4s.156-.074.4-.216.57-.373.983-.589c.205-.11.423-.227.64-.365.226-.123.481-.209.718-.341a6.6,6.6,0,0,1,.766-.289c.257-.1.53-.123.792-.2a6.322,6.322,0,0,1,.8-.059c.132.007.264.007.4,0l.388.054a7.314,7.314,0,0,1,.744.164c.231.083.465.146.67.238a9.927,9.927,0,0,1,1.015.479C651.856,88.607,652,88.7,652,88.7Z" transform="translate(-643.291 -86.203)" fill="#000a19"/>
                </g>
                <path id="Trazado_1043748" data-name="Trazado 1043748" d="M626.59,92.45c.153,1.211.629,2.148,1.064,2.093s.664-1.081.511-2.292-.629-2.148-1.064-2.093S626.438,91.238,626.59,92.45Z" transform="translate(-608.521 -86.325)" fill="#000a19"/>
                <path id="Trazado_1043749" data-name="Trazado 1043749" d="M643.987,94.966c.153,1.211.629,2.148,1.063,2.093s.664-1.081.511-2.292-.629-2.148-1.064-2.094S643.834,93.755,643.987,94.966Z" transform="translate(-637.326 -87.192)" fill="#000a19"/>
                <g id="Grupo_1202358" data-name="Grupo 1202358" transform="translate(14.657 8.64)">
                  <path id="Trazado_1043750" data-name="Trazado 1043750" d="M627.879,97.49a2.119,2.119,0,0,0-.106,1.254,2.6,2.6,0,0,0,.573,1.2,3.1,3.1,0,0,0,1.079.821,3.845,3.845,0,0,0,.622.23c.21.056.424.081.635.119l-.4-1.047a9.938,9.938,0,0,0-.725,1.223,6.817,6.817,0,0,0-.526,1.382,6.832,6.832,0,0,0,1.232-.817,10.073,10.073,0,0,0,1.033-.976l.687-.74-1.089-.307-.473-.134c-.144-.064-.306-.1-.443-.164a3.062,3.062,0,0,1-.412-.2.952.952,0,0,1-.2-.113c-.06-.045-.133-.076-.191-.125a3.775,3.775,0,0,1-.359-.3,4.548,4.548,0,0,1-.34-.364A5.08,5.08,0,0,1,628.17,98,5.47,5.47,0,0,1,627.879,97.49Z" transform="translate(-627.725 -97.49)" fill="#db6363"/>
                </g>
                <g id="Grupo_1202359" data-name="Grupo 1202359" transform="translate(6.887 16.888)">
                  <path id="Trazado_1043751" data-name="Trazado 1043751" d="M640.817,110.149s-.172.037-.462.119c-.144.043-.321.092-.516.163a4.193,4.193,0,0,1-.656.192c-.238.051-.49.1-.744.178a6.986,6.986,0,0,1-.833.144,5.275,5.275,0,0,1-.889.108c-.3.008-.611.031-.917.052-.306-.024-.612-.048-.915-.056a5.354,5.354,0,0,1-.885-.115,6.056,6.056,0,0,1-.833-.157c-.258-.081-.512-.142-.751-.2a4.184,4.184,0,0,1-.637-.2c-.187-.072-.359-.125-.5-.172-.286-.09-.462-.135-.462-.135s.108.132.317.353c.106.108.235.244.393.388a2.613,2.613,0,0,0,.561.448c.222.14.468.292.738.437a3.741,3.741,0,0,0,.893.359,4.444,4.444,0,0,0,1.005.257c.352.045.713.075,1.073.106.359-.029.72-.06,1.071-.1a4.54,4.54,0,0,0,1-.249,4.085,4.085,0,0,0,.9-.348c.278-.142.529-.292.756-.43a2.553,2.553,0,0,0,.561-.425c.157-.135.286-.265.4-.369C640.7,110.281,640.817,110.149,640.817,110.149Z" transform="translate(-630.814 -110.069)" fill="#db6363"/>
                </g>
              </g>
            </g>
            <g id="Grupo_1202368" data-name="Grupo 1202368" transform="translate(16.366 77.473)">
              <g id="Grupo_1202365" data-name="Grupo 1202365" transform="translate(0 118.506)">
                <g id="Grupo_1202363" data-name="Grupo 1202363" transform="translate(0 3.433)">
                  <g id="Grupo_1202362" data-name="Grupo 1202362" transform="translate(2.617)">
                    <path id="Trazado_1043752" data-name="Trazado 1043752" d="M673.681,375.368s-14.843,41.217-17.4,45.957c-1.921,3.559-20.339,12.418-4.8-1.4,0,0,3.463-40.867,8.306-54.071S673.681,375.368,673.681,375.368Z" transform="translate(-645.297 -361.727)" fill="#ffb199"/>
                    <path id="Trazado_1043753" data-name="Trazado 1043753" d="M645.3,412.751c1.233-12.327,4.056-37.151,7.632-46.9,4.843-13.2,13.894,9.515,13.894,9.515s-10.049,27.906-15.035,40.434C649.616,414.8,647.456,413.777,645.3,412.751Z" transform="translate(-638.438 -361.727)" fill="#ff927d"/>
                  </g>
                  <path id="Trazado_1043754" data-name="Trazado 1043754" d="M684.894,450.406l-.608,3.213s-26.632,15.285-6.484-2.084C677.8,451.535,673.778,456.2,684.894,450.406Z" transform="translate(-670.267 -392.255)" fill="#001433"/>
                </g>
                <g id="Grupo_1202364" data-name="Grupo 1202364" transform="translate(44.356)">
                  <path id="Trazado_1043755" data-name="Trazado 1043755" d="M597.259,361.078s.232,57.664,1.853,59.285,19.569,10.306,6.021-2.374c0,0,11.348-49.732,10.19-58.069S597.259,361.078,597.259,361.078Z" transform="translate(-597.259 -356.492)" fill="#ff927d"/>
                  <path id="Trazado_1043756" data-name="Trazado 1043756" d="M600.8,449.214l.174,3.127s27.173,15.4,7.026-1.969C608,450.372,611.917,455,600.8,449.214Z" transform="translate(-599.615 -388.412)" fill="#001433"/>
                </g>
              </g>
              <g id="Grupo_1202367" data-name="Grupo 1202367" transform="translate(4.524)">
                <path id="Trazado_1043757" data-name="Trazado 1043757" d="M624.358,186.084s20.842,17.6,24.548,41.221-13.895,117.644-13.895,117.644-4.631,3.706-16.674,1.389l-2.316-102.822s-.991,41.942-3.706,52.8c-6.091,24.366-5.529,19.747-14.821,50.485,0,0-7.874,2.779-17.137-2.316,0,0,5.558-36.59,11.579-55.58,0,0-21.769-59.285,6.484-94.949S624.358,186.084,624.358,186.084Z" transform="translate(-580.357 -175.772)" fill="#001433"/>
                <g id="Grupo_1202366" data-name="Grupo 1202366" transform="translate(13.967 0)">
                  <path id="Trazado_1043758" data-name="Trazado 1043758" d="M588.779,266.619c6.987-2.479,13.428-5.954,18.644-11.3a76.429,76.429,0,0,0,5.178-5.956c.244,1.078.461,2.168.634,3.273,3.706,23.621-13.895,117.644-13.895,117.644s-4.631,3.706-16.674,1.389L580.356,269.1C583.207,268.389,586.029,267.595,588.779,266.619Z" transform="translate(-558.653 -201.108)" fill="#000a19"/>
                  <path id="Trazado_1043759" data-name="Trazado 1043759" d="M643.732,195.831a28.842,28.842,0,0,1-9.575,3.945,74.437,74.437,0,0,1-18.143,1.275,80.854,80.854,0,0,1-11.6-1.2,58.838,58.838,0,0,1,4.1-5.889c28.253-35.663,25.937-7.874,25.937-7.874A81.412,81.412,0,0,1,643.732,195.831Z" transform="translate(-604.412 -175.772)" fill="#000a19"/>
                </g>
              </g>
            </g>
            <g id="Grupo_1202374" data-name="Grupo 1202374" transform="translate(0 20.298)">
              <g id="Grupo_1202371" data-name="Grupo 1202371" transform="translate(57.48)">
                <g id="Grupo_1202369" data-name="Grupo 1202369" transform="translate(39.138)">
                  <path id="Trazado_1043760" data-name="Trazado 1043760" d="M561.084,112.993s4.249-15.072.058-11.951c0,0,0-3.923-1.679-1.481,0,0-1.621-4.169-2.548-.927,0,0,2.084-22.927-2.779.463l-4.863,23.39Z" transform="translate(-549.274 -88.581)" fill="#ffb199"/>
                  <path id="Trazado_1043761" data-name="Trazado 1043761" d="M563.494,118.571c-.474,2.115-.946,3.791-.946,3.791l-11.811,9.5s0-.01,3.34-16.062C557.231,116.672,560.382,117.56,563.494,118.571Z" transform="translate(-550.738 -97.95)" fill="#ff927d"/>
                </g>
                <g id="Grupo_1202370" data-name="Grupo 1202370" transform="translate(0 18.853)">
                  <path id="Trazado_1043762" data-name="Trazado 1043762" d="M550.062,127.754s10.884-4.4,15.053-1.852,19.453,19.453,19.453,19.453l6.948-28.021L602.4,121.27s-5.094,41.453-11.348,43.537S562.8,146.281,562.8,146.281Z" transform="translate(-550.062 -117.332)" fill="#ffa94d"/>
                  <path id="Trazado_1043763" data-name="Trazado 1043763" d="M552.313,142.707c1.734-3.642,3.7-7.393,5.3-11.253,5.885,5.829,13.182,13.9,13.182,13.9l6.948-28.021,10.884,3.937s-5.094,41.453-11.348,43.537c-5.443,1.814-22.815-13.566-27.223-17.579Q551.225,144.985,552.313,142.707Z" transform="translate(-536.294 -117.332)" fill="#ed863a"/>
                </g>
              </g>
              <g id="Grupo_1202372" data-name="Grupo 1202372" transform="translate(23.848 24.181)">
                <path id="Trazado_1043764" data-name="Trazado 1043764" d="M633.832,130.087l-.463-4.632-19.684,1.852,1.39,5.327s-10.19-.231-15.053,4.4,9.958,41.221,9.958,41.221a89.7,89.7,0,0,0,40.063-8.106s4.632-16.674,2.084-22.927-10.19-18.758-10.19-18.758Z" transform="translate(-599.042 -125.456)" fill="#ffa94d"/>
                <path id="Trazado_1043765" data-name="Trazado 1043765" d="M622.264,168.464a54.881,54.881,0,0,0,30.8-.553,100.093,100.093,0,0,1-2.329,11.262,89.714,89.714,0,0,1-40.063,8.106s-9.738-24.047-10.831-35.617C603.652,160.209,613.694,166.208,622.264,168.464Z" transform="translate(-599.731 -134.477)" fill="#ed863a"/>
              </g>
              <g id="Grupo_1202373" data-name="Grupo 1202373" transform="translate(0 30.9)">
                <path id="Trazado_1043766" data-name="Trazado 1043766" d="M649.393,202.8l9.495,5.094s4.631-4.4,6.484-4.169,13.2,2.548.232,2.084c0,0,17.832,8.8-1.39,2.084,0,0,13.9,9.5-1.39,2.084,0,0-2.084,5.558-5.327,4.169s-12.969-6.484-12.969-6.484Z" transform="translate(-625.26 -158.801)" fill="#ffb199"/>
                <path id="Trazado_1043767" data-name="Trazado 1043767" d="M694.412,136.163s-11.811-2.779-19.221,5.327-22.927,25.706-20.379,32.19,28.021,18.527,28.021,18.527l5.558-8.337L671.948,169.51S702.749,149.363,694.412,136.163Z" transform="translate(-654.532 -135.703)" fill="#ffa94d"/>
              </g>
            </g>
            <path id="Trazado_1043768" data-name="Trazado 1043768" d="M663.411,63.778s6.948,13.374-11.116,18.932c0,0,5.384-4.169,6.774-8.684,0,0-4.863,7.468-10.595,9.205,0,0,1.216,15.111,5.384,22.405,0,0-9.727,1.737-12.506-10.769,0,0-.174,4.689,1.911,7.642,0,0-9.205,0-9.032-22.405S655.075,51.62,663.411,63.778Z" transform="translate(-610.099 -57.627)" fill="#001433"/>
          </g>
        </g>
        <g id="Grupo_1202427" data-name="Grupo 1202427" transform="translate(279.992)">
          <ellipse id="Elipse_12666" data-name="Elipse 12666" cx="55.56" cy="9.748" rx="55.56" ry="9.748" transform="translate(50.17 276.658)" fill="#352c38" opacity="0.1"/>
          <g id="Grupo_1202426" data-name="Grupo 1202426">
            <g id="Grupo_1202387" data-name="Grupo 1202387" transform="translate(84.945)">
              <g id="Grupo_1202380" data-name="Grupo 1202380">
                <g id="Grupo_1202377" data-name="Grupo 1202377" transform="translate(2.258 8.543)">
                  <path id="Trazado_1043769" data-name="Trazado 1043769" d="M113.415,84.239s-1.452,16.164-.812,17.446,19.706,6.248,19.706,6.248-33.8,14.1-44.539,8.651-7.049-12.977-5.447-12.817,15.06-.961,15.06-.961l-.321-8.972Z" transform="translate(-80.396 -54.924)" fill="#dd938a"/>
                  <path id="Trazado_1043770" data-name="Trazado 1043770" d="M132.764,73.912s9.5-17.5-2.468-29.054-23.138-1.952-24.115,6.564S101.243,85.4,116.34,84.454,132.764,73.912,132.764,73.912Z" transform="translate(-100.552 -39.534)" fill="#ffac9d"/>
                </g>
                <g id="Grupo_1202379" data-name="Grupo 1202379">
                  <g id="Grupo_1202378" data-name="Grupo 1202378">
                    <path id="Trazado_1043771" data-name="Trazado 1043771" d="M95.732,29.781l1.822,3.066s.659-4.521,3.725-6.342c0,0-.589,5.016,4.611,4.206s15-7.6,22.636,2.195c.951,1.22,1.765,2.364,2.464,3.432,1.694-.511,4.273-.483,6.573,2.877,2.317,3.385,5.054,17.346-8.686,32.274l1.017-7.126s1.87.851,3.365-2.073c2.59-5.068.134-7.339-1.9-6.262s-1.957,5.937-1.957,5.937l-2.742-.37.33-8.848c-3.831-2.265-2.643-8.128-2.643-8.128a110.65,110.65,0,0,1-19.992.662C90.043,44.213,95.732,29.781,95.732,29.781Z" transform="translate(-94.616 -26.505)" fill="#001433"/>
                  </g>
                  <path id="Trazado_1043772" data-name="Trazado 1043772" d="M102,83.011s4.889-.42,5.321-7.178-3.86-6.843-4.771-2.622A42.8,42.8,0,0,0,102,83.011Z" transform="translate(-67.301 -41.596)" fill="#ffac9d"/>
                </g>
              </g>
              <g id="Grupo_1202386" data-name="Grupo 1202386" transform="translate(7.603 22.969)">
                <g id="Grupo_1202381" data-name="Grupo 1202381" transform="translate(4.729 5.634)">
                  <path id="Trazado_1043773" data-name="Trazado 1043773" d="M139.737,70.124a28.367,28.367,0,0,0-1,2.75c-.29.926-.545,1.858-.779,2.8a56.271,56.271,0,0,0-1.113,5.685l-.094.649.586-.014c.714-.016,1.429-.045,2.145-.1s1.432-.115,2.152-.237c-.7-.187-1.413-.31-2.121-.433s-1.418-.209-2.127-.291l.492.635a56.263,56.263,0,0,0,1.26-5.654c.162-.953.3-1.91.408-2.873A28.512,28.512,0,0,0,139.737,70.124Z" transform="translate(-136.753 -70.124)" fill="#db6363"/>
                </g>
                <g id="Grupo_1202382" data-name="Grupo 1202382" transform="translate(5.338 17.809)">
                  <path id="Trazado_1043774" data-name="Trazado 1043774" d="M136.878,88.692s-.163.147-.458.38-.713.561-1.226.921c-.258.179-.539.364-.841.549-.292.2-.635.351-.96.551-.344.165-.7.34-1.063.486a7.508,7.508,0,0,1-1.13.387,6.754,6.754,0,0,1-1.159.273,9.759,9.759,0,0,1-1.15.136,2.991,2.991,0,0,1-.556.016l-.538,0a7.442,7.442,0,0,1-.993-.075,8.557,8.557,0,0,1-.852-.1c-.25-.056-.473-.093-.659-.127-.371-.064-.593-.092-.593-.092s.179.119.509.313c.165.1.367.215.606.34a4.723,4.723,0,0,0,.837.336,4.867,4.867,0,0,0,1.039.291,6.441,6.441,0,0,0,1.206.153,6.876,6.876,0,0,0,1.308-.047,7.615,7.615,0,0,0,1.328-.268,8.692,8.692,0,0,0,1.263-.479,9.646,9.646,0,0,0,1.132-.637,8.9,8.9,0,0,0,.953-.738,7.18,7.18,0,0,0,.765-.751,7.76,7.76,0,0,0,.952-1.276A4.017,4.017,0,0,0,136.878,88.692Z" transform="translate(-124.7 -88.692)" fill="#db6363"/>
                </g>
                <g id="Grupo_1202383" data-name="Grupo 1202383" transform="translate(27.658 7.749)">
                  <path id="Trazado_1043775" data-name="Trazado 1043775" d="M105.366,81.915a3.653,3.653,0,0,0,.894-.36,2.984,2.984,0,0,0,.418-.287,1.165,1.165,0,0,0,.194-.192,1,1,0,0,0,.174-.247.879.879,0,0,0,.121-.334.847.847,0,0,0-.02-.412,1.275,1.275,0,0,0-.188-.357,1.789,1.789,0,0,0-.246-.239,1.277,1.277,0,0,0-.252-.171c-.083-.046-.169-.1-.255-.137l-.5-.176.441.489-.026-.882-.016-.887c-.009-.59,0-1.174.032-1.746.019-.287.058-.564.1-.838a3.656,3.656,0,0,1,.086-.4c.039-.127.072-.252.121-.372a1.768,1.768,0,0,1,.182-.321,1.021,1.021,0,0,1,.263-.254,1.556,1.556,0,0,1,.829-.211,1.706,1.706,0,0,0-.45-.193,1.263,1.263,0,0,0-.529-.022,1.532,1.532,0,0,0-.525.206,2.2,2.2,0,0,0-.414.374,2.745,2.745,0,0,0-.3.442,4.571,4.571,0,0,0-.217.469,4.915,4.915,0,0,0-.277.959,9.005,9.005,0,0,0-.171,1.919,11.282,11.282,0,0,0,.182,1.9l.078.414.363.075.386.08c.1.039.241.061.311.1.031.019.087.035.108.051,0,.014.045.021.05.031s.038.006.031.038a.138.138,0,0,1,0,.106.38.38,0,0,1-.047.153.91.91,0,0,1-.087.17,2.46,2.46,0,0,1-.237.355C105.787,81.448,105.583,81.682,105.366,81.915Z" transform="translate(-104.828 -73.35)" fill="#db6363"/>
                </g>
                <g id="Grupo_1202384" data-name="Grupo 1202384" transform="translate(0 0.797)">
                  <path id="Trazado_1043776" data-name="Trazado 1043776" d="M147.6,66.3a1.988,1.988,0,0,0-.046-.435,4.064,4.064,0,0,0-.373-1.075,4.177,4.177,0,0,0-.428-.647,3.681,3.681,0,0,0-.635-.635,2.32,2.32,0,0,0-.411-.276,2.089,2.089,0,0,0-.466-.233c-.169-.059-.341-.123-.517-.172-.181-.033-.369-.049-.555-.069a1.87,1.87,0,0,0-.555.018c-.184.02-.365.057-.542.09a5.13,5.13,0,0,0-.927.418,7.749,7.749,0,0,0-.706.558c-.181.21-.342.414-.481.6a2.319,2.319,0,0,0-.314.557,4.776,4.776,0,0,0-.185.456,3.14,3.14,0,0,0-.123.412s.162-.05.407-.155c.121-.053.271-.113.423-.194a4.159,4.159,0,0,1,.523-.235c.189-.077.384-.163.579-.259.2-.068.413-.125.613-.207.2-.063.409-.071.6-.138a2.134,2.134,0,0,0,.29-.01.674.674,0,0,1,.285,0l.285.017a2.509,2.509,0,0,0,.288.065,4.638,4.638,0,0,1,.589.193,5.858,5.858,0,0,1,.584.277c.2.089.371.212.553.3.166.111.344.2.487.3l.391.246Z" transform="translate(-140.335 -62.749)" fill="#000a19"/>
                </g>
                <g id="Grupo_1202385" data-name="Grupo 1202385" transform="translate(10.466)">
                  <path id="Trazado_1043777" data-name="Trazado 1043777" d="M118.509,65.884l.5-.306.554-.336c.209-.13.458-.255.708-.406.266-.13.529-.3.83-.43l.445-.217c.158-.058.311-.127.47-.192.312-.137.647-.22.972-.33a6.32,6.32,0,0,1,1-.178,4.049,4.049,0,0,1,.5-.049c.167.014.332.013.5.016a7.6,7.6,0,0,1,.982.125c.323.06.626.189.935.262a8.138,8.138,0,0,1,.85.337,5.141,5.141,0,0,1,.743.323c.212.118.414.209.578.289.332.157.544.236.544.236a5.846,5.846,0,0,0-.282-.515c-.1-.16-.215-.359-.369-.574a3.443,3.443,0,0,0-.58-.675,5.367,5.367,0,0,0-.813-.7,7.643,7.643,0,0,0-1.079-.6c-.2-.075-.418-.142-.635-.211l-.328-.1c-.113-.023-.23-.029-.345-.045-.232-.025-.468-.054-.7-.068a5.723,5.723,0,0,0-.71.045,5.8,5.8,0,0,0-1.365.317,5.373,5.373,0,0,0-.614.277,3.3,3.3,0,0,0-.567.317c-.175.119-.349.231-.511.351s-.3.256-.444.384a7.236,7.236,0,0,0-.727.771,6.8,6.8,0,0,0-.824,1.331A3.192,3.192,0,0,0,118.509,65.884Z" transform="translate(-118.509 -61.533)" fill="#000a19"/>
                </g>
                <path id="Trazado_1043778" data-name="Trazado 1043778" d="M123.163,72.892c.031,1.22.411,2.2.849,2.19s.768-1.009.737-2.23-.411-2.2-.849-2.19S123.132,71.673,123.163,72.892Z" transform="translate(-106.226 -64.676)" fill="#000a19"/>
                <path id="Trazado_1043779" data-name="Trazado 1043779" d="M143.686,72.892c.031,1.22.411,2.2.849,2.19s.768-1.009.737-2.23-.411-2.2-.849-2.19S143.655,71.673,143.686,72.892Z" transform="translate(-140.207 -64.676)" fill="#000a19"/>
              </g>
            </g>
            <g id="Grupo_1202401" data-name="Grupo 1202401" transform="translate(67.026 113.409)">
              <g id="Grupo_1202398" data-name="Grupo 1202398" transform="translate(0 142.069)">
                <g id="Grupo_1202392" data-name="Grupo 1202392" transform="translate(0 1.182)">
                  <g id="Grupo_1202388" data-name="Grupo 1202388" transform="translate(0.098)">
                    <path id="Trazado_1043780" data-name="Trazado 1043780" d="M177.276,428.823l-.8,17.541s-46.34,13.131-9.662-4.862l.343-23.593Z" transform="translate(-152.694 -417.908)" fill="#22689e"/>
                    <path id="Trazado_1043781" data-name="Trazado 1043781" d="M158.969,441.665a20.684,20.684,0,0,0,3.6-.262l.57-12.582-10.114-10.914-.33,22.733A17.4,17.4,0,0,0,158.969,441.665Z" transform="translate(-138.556 -417.908)" fill="#161826" opacity="0.3"/>
                  </g>
                  <g id="Grupo_1202391" data-name="Grupo 1202391" transform="translate(0 23.519)">
                    <g id="Grupo_1202389" data-name="Grupo 1202389" transform="translate(0 4.112)">
                      <path id="Trazado_1043782" data-name="Trazado 1043782" d="M154.226,464.074c-4.254,4.757,23.48-3.018,23.48-3.018l.043-1.012C175.538,460.661,155.538,466.159,154.226,464.074Z" transform="translate(-153.782 -460.045)" fill="#fff"/>
                    </g>
                    <g id="Grupo_1202390" data-name="Grupo 1202390" transform="translate(9.537)">
                      <path id="Trazado_1043783" data-name="Trazado 1043783" d="M164.618,453.774s2.321-.052,3.355,1.414" transform="translate(-160.648 -453.774)" fill="none" stroke="#fff" stroke-linecap="round" stroke-miterlimit="10" stroke-width="1.004"/>
                      <path id="Trazado_1043784" data-name="Trazado 1043784" d="M167.469,455.469s2.321-.052,3.355,1.414" transform="translate(-165.369 -454.357)" fill="none" stroke="#fff" stroke-linecap="round" stroke-miterlimit="10" stroke-width="1.004"/>
                      <path id="Trazado_1043785" data-name="Trazado 1043785" d="M170.672,457.243s2.321-.052,3.355,1.414" transform="translate(-170.672 -454.968)" fill="none" stroke="#fff" stroke-linecap="round" stroke-miterlimit="10" stroke-width="1.004"/>
                    </g>
                  </g>
                </g>
                <g id="Grupo_1202397" data-name="Grupo 1202397" transform="translate(53.966)">
                  <g id="Grupo_1202393" data-name="Grupo 1202393" transform="translate(0)">
                    <path id="Trazado_1043786" data-name="Trazado 1043786" d="M68.789,427.537l1.764,17.474s47,10.666,9.379-5.365L78.285,416.1Z" transform="translate(-68.789 -416.105)" fill="#22689e"/>
                    <path id="Trazado_1043787" data-name="Trazado 1043787" d="M96.007,440.141a20.752,20.752,0,0,1-3.609-.071l-1.266-12.533,9.5-11.432,1.587,22.682A17.37,17.37,0,0,1,96.007,440.141Z" transform="translate(-91.133 -416.105)" fill="#161826" opacity="0.3"/>
                  </g>
                  <g id="Grupo_1202396" data-name="Grupo 1202396" transform="translate(1.637 23.428)">
                    <g id="Grupo_1202394" data-name="Grupo 1202394" transform="translate(0 4.66)">
                      <path id="Trazado_1043788" data-name="Trazado 1043788" d="M92.342,461.72c4.512,4.526-23.613-1.774-23.613-1.774l-.1-1.008C70.871,459.435,91.147,463.87,92.342,461.72Z" transform="translate(-68.631 -458.938)" fill="#fff"/>
                    </g>
                    <g id="Grupo_1202395" data-name="Grupo 1202395" transform="translate(6.945)">
                      <path id="Trazado_1043789" data-name="Trazado 1043789" d="M93.229,451.832s-2.321.07-3.272,1.589" transform="translate(-89.957 -451.832)" fill="none" stroke="#fff" stroke-linecap="round" stroke-miterlimit="10" stroke-width="1.004"/>
                      <path id="Trazado_1043790" data-name="Trazado 1043790" d="M90.289,453.375s-2.321.07-3.272,1.589" transform="translate(-85.089 -452.363)" fill="none" stroke="#fff" stroke-linecap="round" stroke-miterlimit="10" stroke-width="1.004"/>
                      <path id="Trazado_1043791" data-name="Trazado 1043791" d="M86.992,454.978s-2.321.07-3.272,1.589" transform="translate(-79.63 -452.915)" fill="none" stroke="#fff" stroke-linecap="round" stroke-miterlimit="10" stroke-width="1.004"/>
                    </g>
                  </g>
                </g>
              </g>
              <g id="Grupo_1202400" data-name="Grupo 1202400" transform="translate(11.383)">
                <path id="Trazado_1043792" data-name="Trazado 1043792" d="M93.021,212.387s-7.25,83.762-3.508,151.277c0,0,9.572,3.123,12.517.513,2.142-16.09,1.767-47.147,5-70.439,3.047-21.931,6.439-47.865,6.439-47.865l1.889.262s13.256,109.265,15.2,117.231c9.979,2.268,13.31-2.039,13.31-2.039s-3.913-128.466-7.265-149.7C132.215,183.8,93.021,212.387,93.021,212.387Z" transform="translate(-88.441 -199.452)" fill="#ffa94d"/>
                <g id="Grupo_1202399" data-name="Grupo 1202399" transform="translate(0)">
                  <path id="Trazado_1043793" data-name="Trazado 1043793" d="M118.59,244.685c-7.474,1.244-14.987,2.2-22.508,3.086,1.18-21.285,2.4-35.385,2.4-35.385s39.193-28.587,43.586-.763c.74,4.688,1.508,14.6,2.254,27.208A192.569,192.569,0,0,1,118.59,244.685Z" transform="translate(-93.902 -199.452)" fill="#ed863a"/>
                  <path id="Trazado_1043794" data-name="Trazado 1043794" d="M137.493,261.341c-1.831,30.277-3.957,80.3-1.555,123.629,0,0,9.572,3.123,12.517.513,2.142-16.09,1.767-47.147,5-70.439,2.849-20.5,6-44.5,6.4-47.541A69.627,69.627,0,0,1,137.493,261.341Z" transform="translate(-134.865 -220.758)" fill="#ed863a"/>
                </g>
              </g>
            </g>
            <g id="Grupo_1202425" data-name="Grupo 1202425" transform="translate(0 55.358)">
              <g id="Grupo_1202410" data-name="Grupo 1202410" transform="translate(45.339)">
                <g id="Grupo_1202404" data-name="Grupo 1202404" transform="translate(33.743 0.428)">
                  <g id="Grupo_1202403" data-name="Grupo 1202403">
                    <g id="Grupo_1202402" data-name="Grupo 1202402">
                      <path id="Trazado_1043795" data-name="Trazado 1043795" d="M125.571,111.577s-3.383,9.88-13.938,9.613c-8.952-.227-9.132-8.972-9.132-8.972s-14.671.4-16.876,5.34S88.9,132.064,88.9,132.064s-6.315,56.425-6.052,68.591c0,0,32.242,4.913,49.772.854,0,0,3.625-62.726,8.651-83.363Z" transform="translate(-82.84 -111.577)" fill="#22689e"/>
                    </g>
                  </g>
                </g>
                <g id="Grupo_1202409" data-name="Grupo 1202409">
                  <g id="Grupo_1202405" data-name="Grupo 1202405" transform="translate(0 0.748)">
                    <path id="Trazado_1043796" data-name="Trazado 1043796" d="M196.714,112.065s-20.08.534-22.644,7.37-28.2,61.094-28.2,61.094l16.235-.428,18.8-30.76Z" transform="translate(-145.874 -112.065)" fill="#001433"/>
                    <path id="Trazado_1043797" data-name="Trazado 1043797" d="M189.75,131.484c4.169,5.192,8.682,10.1,13.151,15.055l-4.023,9.487-18.8,30.761-16.235.428S182.818,147.055,189.75,131.484Z" transform="translate(-163.845 -118.75)" fill="#000a19"/>
                  </g>
                  <g id="Grupo_1202408" data-name="Grupo 1202408" transform="translate(29.693)">
                    <g id="Grupo_1202406" data-name="Grupo 1202406" transform="translate(0 0.706)">
                      <path id="Trazado_1043798" data-name="Trazado 1043798" d="M167.022,112.043s-6.088,54.792-4.486,92.6l-16.662-1.923s.321-76.9,3.845-84.271S167.022,112.043,167.022,112.043Z" transform="translate(-145.874 -112.002)" fill="#001433"/>
                      <path id="Trazado_1043799" data-name="Trazado 1043799" d="M161.093,204.194c2.747-.771,5.485-1.542,8.209-2.346-.441,11.53-.586,23.278-.144,33.728L152.5,233.654s.05-12.093.331-27.143Q156.962,205.361,161.093,204.194Z" transform="translate(-152.496 -142.932)" fill="#000a19"/>
                    </g>
                    <g id="Grupo_1202407" data-name="Grupo 1202407" transform="translate(29.256)">
                      <path id="Trazado_1043800" data-name="Trazado 1043800" d="M89.912,110.925s-9.826,15.38-15.38,56.395-2.991,38.451-2.991,38.451l27.343.854,11.535-87.155Z" transform="translate(-69.396 -110.925)" fill="#001433"/>
                      <path id="Trazado_1043801" data-name="Trazado 1043801" d="M81.619,182.144c10.757-6.419,21.36-13.11,32.115-19.533l-8.18,61.807L76.074,228.4s-.426-2.27,5.128-43.284C81.338,184.106,81.478,183.119,81.619,182.144Z" transform="translate(-76.066 -128.718)" fill="#000a19"/>
                    </g>
                  </g>
                </g>
              </g>
              <g id="Grupo_1202424" data-name="Grupo 1202424">
                <g id="Grupo_1202418" data-name="Grupo 1202418" transform="translate(0 66.097)">
                  <g id="Grupo_1202415" data-name="Grupo 1202415">
                    <g id="Grupo_1202411" data-name="Grupo 1202411" transform="translate(0.001)">
                      <path id="Trazado_1043802" data-name="Trazado 1043802" d="M232.753,304.169a3.325,3.325,0,0,1-3.325,3.325H122.185a3.325,3.325,0,0,1-3.325-3.325V215.047a3.325,3.325,0,0,1,3.325-3.325H229.427a3.325,3.325,0,0,1,3.325,3.325v89.122Z" transform="translate(-118.86 -211.722)" fill="#fff" stroke="#ff8255" stroke-miterlimit="10" stroke-width="2.011"/>
                    </g>
                    <g id="Grupo_1202414" data-name="Grupo 1202414" transform="translate(0 0.449)">
                      <g id="Grupo_1202413" data-name="Grupo 1202413">
                        <path id="Trazado_1043803" data-name="Trazado 1043803" d="M118.861,222.656v-6.923a3.325,3.325,0,0,1,3.325-3.325H229.429a3.325,3.325,0,0,1,3.325,3.325v6.923Z" transform="translate(-118.861 -212.407)" fill="#ff8255"/>
                        <g id="Grupo_1202412" data-name="Grupo 1202412" transform="translate(2.146 1.753)">
                          <circle id="Elipse_12667" data-name="Elipse 12667" cx="1.955" cy="1.955" r="1.955" transform="translate(0)" fill="#fff"/>
                          <path id="Trazado_1043804" data-name="Trazado 1043804" d="M277.717,217.036a1.955,1.955,0,1,1-1.955-1.955A1.955,1.955,0,0,1,277.717,217.036Z" transform="translate(-267.574 -215.081)" fill="#fff"/>
                          <circle id="Elipse_12668" data-name="Elipse 12668" cx="1.955" cy="1.955" r="1.955" transform="translate(12.464)" fill="#fff"/>
                        </g>
                      </g>
                    </g>
                  </g>
                  <g id="Grupo_1202417" data-name="Grupo 1202417" transform="translate(22.88 17.178)">
                    <g id="Grupo_1202416" data-name="Grupo 1202416">
                      <circle id="Elipse_12669" data-name="Elipse 12669" cx="34.067" cy="34.067" r="34.067" transform="translate(0)" fill="#ffa94d" stroke="#fff" stroke-miterlimit="10" stroke-width="2.011"/>
                      <path id="Trazado_1043805" data-name="Trazado 1043805" d="M182.248,288.721l1.545.094h31.661c0,.22.016.438.016.659a34.062,34.062,0,0,1-61.719,19.887Z" transform="translate(-147.336 -255.407)" fill="#ff8255" stroke="#fff" stroke-miterlimit="10" stroke-width="2.011"/>
                      <path id="Trazado_1043806" data-name="Trazado 1043806" d="M153.751,237.954a34.056,34.056,0,0,1,0,68.087Z" transform="translate(-118.745 -237.93)" fill="#22689e" stroke="#fff" stroke-miterlimit="10" stroke-width="2.011"/>
                    </g>
                    <circle id="Elipse_12670" data-name="Elipse 12670" cx="14.506" cy="14.506" r="14.506" transform="translate(19.562 19.561)" fill="#fff"/>
                  </g>
                </g>
                <g id="Grupo_1202423" data-name="Grupo 1202423" transform="translate(83.522)">
                  <g id="Grupo_1202419" data-name="Grupo 1202419" transform="translate(17.329)">
                    <path id="Trazado_1043807" data-name="Trazado 1043807" d="M104.955,228.415s-19.64-1.584,1.291-1.937c0,0-14.022-5.5,2.218-.633l3.434,4.36,5-6.727a58.325,58.325,0,0,0,6.718,9.642c-5.205,4.144-9.689,7.141-11.074,6.7-3.655-1.17-7.62-6.042-7.62-6.042s-18.226,6.59-.024-2.022C104.894,231.753,82.1,236.882,104.955,228.415Z" transform="translate(-94.781 -149.672)" fill="#ffb199"/>
                    <path id="Trazado_1043808" data-name="Trazado 1043808" d="M57.995,110.925s20.934,3.845,23.5,8.117,12.39,45.286,8.544,52.122S59.7,200.643,59.7,200.643l-7.69-11.962,18.8-23.5-5.981-32.47Z" transform="translate(-34.042 -110.925)" fill="#001433"/>
                  </g>
                  <g id="Grupo_1202422" data-name="Grupo 1202422" transform="translate(0 1.512)">
                    <g id="Grupo_1202420" data-name="Grupo 1202420" transform="translate(28.678 0.197)">
                      <path id="Trazado_1043809" data-name="Trazado 1043809" d="M111.517,113.531l-.231,6.074-.2,6.075c-.118,4.051-.252,8.1-.333,12.152l.292-.278-9.452-.309-.967-.031.758.6,6.28,4.964-.035-.407c-2.538,2.853-5.03,5.746-7.544,8.621l-3.748,4.331-3.726,4.352,3.889-4.207,3.866-4.227c2.563-2.831,5.146-5.643,7.685-8.5l.2-.221-.231-.186-6.234-5.022-.208.568,9.454.24.287.007.005-.286c.079-4.051.1-8.1.147-12.155l.041-6.078Z" transform="translate(-92.612 -113.531)" fill="#22689e"/>
                    </g>
                    <g id="Grupo_1202421" data-name="Grupo 1202421">
                      <path id="Trazado_1043810" data-name="Trazado 1043810" d="M159.468,113.231l-3.012,11-2.95,11.018-.049.182.184.045,6.845,1.689-.054-.368c-2.089,1.2-4.156,2.441-6.234,3.663l-.13.076.045.142,3.481,11.093c1.159,3.7,2.363,7.382,3.548,11.072-1.1-3.717-2.176-7.439-3.3-11.148l-3.368-11.127-.085.218c2.083-1.213,4.176-2.409,6.246-3.642l.424-.252-.478-.115-6.853-1.659.135.227L156.7,124.3Z" transform="translate(-153.457 -113.231)" fill="#22689e"/>
                    </g>
                  </g>
                </g>
              </g>
            </g>
          </g>
        </g>
      </g>
    </g>
  </g>
</svg>
