<svg xmlns="http://www.w3.org/2000/svg" xmlns:xlink="http://www.w3.org/1999/xlink" width="196" height="205.767" viewBox="0 0 196 205.767">
  <defs>
    <filter id="Rect치ngulo_416616" x="0" y="30.856" width="196" height="174.912" filterUnits="userSpaceOnUse">
      <feOffset dy="3" input="SourceAlpha"/>
      <feGaussianBlur stdDeviation="3" result="blur"/>
      <feFlood flood-opacity="0.161"/>
      <feComposite operator="in" in2="blur"/>
      <feComposite in="SourceGraphic"/>
    </filter>
  </defs>
  <g id="Grupo_1202335" data-name="Grupo 1202335" transform="translate(-1227 -772.662)">
    <g transform="matrix(1, 0, 0, 1, 1227, 772.66)" filter="url(#Rect치ngulo_416616)">
      <rect id="Rect치ngulo_416616-2" data-name="Rect치ngulo 416616" width="178" height="156.912" rx="20" transform="translate(9 36.86)" fill="#004a54"/>
    </g>
    <g id="_x32_3" transform="translate(1238.019 771.053)">
      <g id="Grupo_1202328" data-name="Grupo 1202328" transform="translate(10.13 1.609)">
        <g id="Grupo_1202236" data-name="Grupo 1202236" transform="translate(100.243 99.906)">
          <g id="Grupo_1202235" data-name="Grupo 1202235">
            <path id="Trazado_1043696" data-name="Trazado 1043696" d="M75.328,40.938v85.346a7.219,7.219,0,0,1-7.138,7.138H48.638a7.023,7.023,0,0,1-7.138-7.138V40.938A7.023,7.023,0,0,1,48.638,33.8H68.19a7.023,7.023,0,0,1,7.138,7.138Z" transform="translate(-41.5 -33.8)" fill="#fc5b63"/>
          </g>
        </g>
        <g id="Grupo_1202238" data-name="Grupo 1202238" transform="translate(102.105 100.194)">
          <g id="Grupo_1202237" data-name="Grupo 1202237">
            <path id="Trazado_1043697" data-name="Trazado 1043697" d="M74.066,40.742V42.6A64.13,64.13,0,0,1,48.307,38.88,25.941,25.941,0,0,1,42.1,36.4a6.819,6.819,0,0,1,5.586-2.483H67.238C70.963,33.6,74.066,36.708,74.066,40.742Z" transform="translate(-42.1 -33.893)"/>
          </g>
        </g>
        <g id="Grupo_1202240" data-name="Grupo 1202240" transform="translate(51.829 126.596)">
          <g id="Grupo_1202239" data-name="Grupo 1202239">
            <path id="Trazado_1043698" data-name="Trazado 1043698" d="M59.728,49.538V108.5a7.219,7.219,0,0,1-7.138,7.138H33.038A7.219,7.219,0,0,1,25.9,108.5V49.538A7.023,7.023,0,0,1,33.038,42.4H52.59A7.432,7.432,0,0,1,59.728,49.538Z" transform="translate(-25.9 -42.4)" fill="#31caff"/>
          </g>
        </g>
        <g id="Grupo_1202242" data-name="Grupo 1202242" transform="translate(0 154.217)">
          <g id="Grupo_1202241" data-name="Grupo 1202241">
            <path id="Trazado_1043699" data-name="Trazado 1043699" d="M43.028,58.438V89.473a7.219,7.219,0,0,1-7.138,7.138H16.338A7.023,7.023,0,0,1,9.2,89.473V58.438A7.219,7.219,0,0,1,16.338,51.3H35.89a7.023,7.023,0,0,1,7.138,7.138Z" transform="translate(-9.2 -51.3)" fill="#32ce5a"/>
          </g>
        </g>
        <g id="Grupo_1202313" data-name="Grupo 1202313" transform="translate(60.791)">
          <g id="Grupo_1202302" data-name="Grupo 1202302" transform="translate(0 10.576)">
            <g id="Grupo_1202301" data-name="Grupo 1202301" transform="translate(0 0)">
              <g id="Grupo_1202296" data-name="Grupo 1202296">
                <g id="Grupo_1202289" data-name="Grupo 1202289">
                  <g id="Grupo_1202244" data-name="Grupo 1202244" transform="translate(15.138 5.313)">
                    <g id="Grupo_1202243" data-name="Grupo 1202243">
                      <path id="Trazado_1043700" data-name="Trazado 1043700" d="M112.291,56.607a32.736,32.736,0,0,1-1.862,7.448c-13.345,41.277-68.587,33.518-76.036-8.069C28.186,20.3,62.945-4.532,91.5,11.916c14.9,8.379,23.587,27.311,20.793,44.69Z" transform="translate(-33.666 -6.728)" fill="#ffdc00"/>
                    </g>
                  </g>
                  <g id="Grupo_1202247" data-name="Grupo 1202247" transform="translate(60.245 10.811)">
                    <g id="Grupo_1202246" data-name="Grupo 1202246">
                      <g id="Grupo_1202245" data-name="Grupo 1202245">
                        <path id="Trazado_1043701" data-name="Trazado 1043701" d="M63.407,9.741l-14.9,2.793-.31-1.862L60.924,8.5a6.111,6.111,0,0,1,2.483,1.241Z" transform="translate(-48.2 -8.5)" fill="#f4cb00"/>
                      </g>
                    </g>
                  </g>
                  <g id="Grupo_1202250" data-name="Grupo 1202250" transform="translate(52.486 6.156)">
                    <g id="Grupo_1202249" data-name="Grupo 1202249">
                      <g id="Grupo_1202248" data-name="Grupo 1202248">
                        <path id="Trazado_1043702" data-name="Trazado 1043702" d="M59.666,8.241,46.01,10.724,45.7,8.862,55.321,7C56.873,7.31,58.114,7.931,59.666,8.241Z" transform="translate(-45.7 -7)" fill="#f4cb00"/>
                      </g>
                    </g>
                  </g>
                  <g id="Grupo_1202253" data-name="Grupo 1202253" transform="translate(65.211 17.018)">
                    <g id="Grupo_1202252" data-name="Grupo 1202252">
                      <g id="Grupo_1202251" data-name="Grupo 1202251">
                        <path id="Trazado_1043703" data-name="Trazado 1043703" d="M67.49,12.052l-17.38,3.1-.31-1.862L65.938,10.5l1.552,1.552Z" transform="translate(-49.8 -10.5)" fill="#f4cb00"/>
                      </g>
                    </g>
                  </g>
                  <g id="Grupo_1202256" data-name="Grupo 1202256" transform="translate(68.935 26.019)">
                    <g id="Grupo_1202255" data-name="Grupo 1202255">
                      <g id="Grupo_1202254" data-name="Grupo 1202254">
                        <path id="Trazado_1043704" data-name="Trazado 1043704" d="M71.483,15.262,51.31,18.676,51,16.814,70.552,13.4C70.552,14.021,71.173,14.641,71.483,15.262Z" transform="translate(-51 -13.4)" fill="#f4cb00"/>
                      </g>
                    </g>
                  </g>
                  <g id="Grupo_1202259" data-name="Grupo 1202259" transform="translate(71.728 35.639)">
                    <g id="Grupo_1202258" data-name="Grupo 1202258">
                      <g id="Grupo_1202257" data-name="Grupo 1202257">
                        <path id="Trazado_1043705" data-name="Trazado 1043705" d="M73,18.672,52.21,22.086l-.31-1.862L72.383,16.5A4.486,4.486,0,0,1,73,18.672Z" transform="translate(-51.9 -16.5)" fill="#f4cb00"/>
                      </g>
                    </g>
                  </g>
                  <g id="Grupo_1202262" data-name="Grupo 1202262" transform="translate(70.797 44.329)">
                    <g id="Grupo_1202261" data-name="Grupo 1202261" transform="translate(0 0)">
                      <g id="Grupo_1202260" data-name="Grupo 1202260">
                        <path id="Trazado_1043706" data-name="Trazado 1043706" d="M74.876,19.3v1.862L51.91,25.2l-.31-1.862Z" transform="translate(-51.6 -19.3)" fill="#f4cb00"/>
                      </g>
                    </g>
                  </g>
                  <g id="Grupo_1202265" data-name="Grupo 1202265" transform="translate(72.659 53.019)">
                    <g id="Grupo_1202264" data-name="Grupo 1202264">
                      <g id="Grupo_1202263" data-name="Grupo 1202263">
                        <path id="Trazado_1043707" data-name="Trazado 1043707" d="M73.614,22.1c0,.621-.31,1.241-.31,2.172L52.51,28l-.31-1.862Z" transform="translate(-52.2 -22.1)" fill="#f4cb00"/>
                      </g>
                    </g>
                  </g>
                  <g id="Grupo_1202268" data-name="Grupo 1202268" transform="translate(68.625 62.64)">
                    <g id="Grupo_1202267" data-name="Grupo 1202267">
                      <g id="Grupo_1202266" data-name="Grupo 1202266">
                        <path id="Trazado_1043708" data-name="Trazado 1043708" d="M74.487,25.2c-.31.621-.621,1.552-.931,2.172L51.21,31.1l-.31-1.862Z" transform="translate(-50.9 -25.2)" fill="#f4cb00"/>
                      </g>
                    </g>
                  </g>
                  <g id="Grupo_1202271" data-name="Grupo 1202271" transform="translate(66.452 70.399)">
                    <g id="Grupo_1202270" data-name="Grupo 1202270">
                      <g id="Grupo_1202269" data-name="Grupo 1202269">
                        <path id="Trazado_1043709" data-name="Trazado 1043709" d="M72.235,27.7a9.431,9.431,0,0,1-1.552,2.172L50.51,33.286l-.31-1.862Z" transform="translate(-50.2 -27.7)" fill="#f4cb00"/>
                      </g>
                    </g>
                  </g>
                  <g id="Grupo_1202274" data-name="Grupo 1202274" transform="translate(61.176 78.157)">
                    <g id="Grupo_1202273" data-name="Grupo 1202273">
                      <g id="Grupo_1202272" data-name="Grupo 1202272">
                        <path id="Trazado_1043710" data-name="Trazado 1043710" d="M70.225,30.2a18.726,18.726,0,0,1-2.483,2.483L48.81,36.1l-.31-1.862Z" transform="translate(-48.5 -30.2)" fill="#f4cb00"/>
                      </g>
                    </g>
                  </g>
                  <g id="Grupo_1202276" data-name="Grupo 1202276" transform="translate(52.349 10.811)">
                    <g id="Grupo_1202275" data-name="Grupo 1202275">
                      <path id="Trazado_1043711" data-name="Trazado 1043711" d="M45.793,88.881c24.828-1.241,41.9-27.621,33.518-53.691A43.1,43.1,0,0,0,55.1,8.5c1.241,24.828,2.483,49.966,3.724,74.794-.31-1.241-.931-2.793-1.241-4.035-4.035,3.1-8.069,6.207-11.793,9.621C45.793,88.57,45.483,89.191,45.793,88.881Z" transform="translate(-45.656 -8.5)"/>
                    </g>
                  </g>
                  <g id="Grupo_1202278" data-name="Grupo 1202278">
                    <g id="Grupo_1202277" data-name="Grupo 1202277">
                      <ellipse id="Elipse_12656" data-name="Elipse 12656" cx="39.415" cy="42.828" rx="39.415" ry="42.828" transform="matrix(0.985, -0.174, 0.174, 0.985, 0, 13.716)" fill="#fce67a"/>
                    </g>
                  </g>
                  <g id="Grupo_1202280" data-name="Grupo 1202280" transform="translate(13.992 15.503)">
                    <g id="Grupo_1202279" data-name="Grupo 1202279" transform="translate(0 0)">
                      <ellipse id="Elipse_12657" data-name="Elipse 12657" cx="27.621" cy="29.173" rx="27.621" ry="29.173" transform="matrix(0.985, -0.174, 0.174, 0.985, 0, 9.612)" fill="#ffdc00"/>
                    </g>
                  </g>
                  <g id="Grupo_1202288" data-name="Grupo 1202288" transform="translate(33.471 26.511)">
                    <g id="Grupo_1202283" data-name="Grupo 1202283" transform="translate(0 3.198)">
                      <g id="Grupo_1202282" data-name="Grupo 1202282">
                        <g id="Grupo_1202281" data-name="Grupo 1202281">
                          <path id="Trazado_1043712" data-name="Trazado 1043712" d="M49.9,46.589c4.966,0,9.931-2.483,8.69-7.138-.931-2.793-3.1-4.035-7.759-4.345-6.207-.31-9.621-2.793-10.862-6.517-2.172-7.759,4.966-13.655,13.345-13.966,1.241,0,3.1-.31,3.724.931a2.833,2.833,0,0,1-.621,3.414c-.931.621-2.483.31-3.414.31-4.655,0-9.311,2.483-8.069,6.828.931,2.483,3.1,3.1,7.448,3.414,6.207.31,9.931,2.483,11.483,7.448,2.793,8.69-6.207,14.276-15.207,13.655-1.862,0-3.724,0-4.035-2.172a2.326,2.326,0,0,1,.31-1.552C45.864,45.969,48.036,46.589,49.9,46.589Z" transform="translate(-39.573 -14.589)" fill="#fff"/>
                        </g>
                      </g>
                    </g>
                    <g id="Grupo_1202285" data-name="Grupo 1202285" transform="translate(6.415)">
                      <g id="Grupo_1202284" data-name="Grupo 1202284">
                        <path id="Trazado_1043713" data-name="Trazado 1043713" d="M42.447,19.894c-.31-1.241-.31-2.483-.621-4.035-.31-.931-.31-1.241.621-1.862a3.5,3.5,0,0,1,2.483-.31c.31.31.31.31,1.241,4.966" transform="translate(-41.64 -13.559)" fill="#fff"/>
                      </g>
                    </g>
                    <g id="Grupo_1202287" data-name="Grupo 1202287" transform="translate(11.877 37.991)">
                      <g id="Grupo_1202286" data-name="Grupo 1202286">
                        <path id="Trazado_1043714" data-name="Trazado 1043714" d="M43.4,25.8a15.725,15.725,0,0,1,.621,4.035c.31.931.31,1.241,1.241,1.552.621,0,1.862,0,2.172-.621.31-.31.31-.621-.621-4.966" transform="translate(-43.4 -25.8)" fill="#fff"/>
                      </g>
                    </g>
                  </g>
                </g>
                <g id="Grupo_1202291" data-name="Grupo 1202291" transform="translate(4.288 16.863)">
                  <g id="Grupo_1202290" data-name="Grupo 1202290">
                    <path id="Trazado_1043715" data-name="Trazado 1043715" d="M44.229,74.537a44.781,44.781,0,0,1-1.552-63.622,1.536,1.536,0,1,1,2.172,2.172A41.51,41.51,0,0,0,46.4,72.365a1.5,1.5,0,0,1,0,2.172c-.31.621-1.552.621-2.172,0Z" transform="translate(-30.17 -10.45)"/>
                  </g>
                </g>
                <g id="Grupo_1202293" data-name="Grupo 1202293" transform="translate(16.502 36.454)">
                  <g id="Grupo_1202292" data-name="Grupo 1202292">
                    <path id="Trazado_1043716" data-name="Trazado 1043716" d="M44.641,51.638A28.686,28.686,0,0,1,36.572,17.81a1.671,1.671,0,1,1,3.1,1.241,25.748,25.748,0,0,0,7.138,30.1,1.912,1.912,0,0,1,.31,2.172C46.193,51.948,45.262,52.259,44.641,51.638Z" transform="translate(-34.105 -16.762)"/>
                  </g>
                </g>
                <g id="Grupo_1202295" data-name="Grupo 1202295" transform="translate(64.125 43.628)">
                  <g id="Grupo_1202294" data-name="Grupo 1202294" transform="translate(0 0)">
                    <path id="Trazado_1043717" data-name="Trazado 1043717" d="M49.916,47.086a1.5,1.5,0,0,1,0-2.172,26.894,26.894,0,0,0,6.517-23.9c-.31-.931.31-1.552,1.241-1.862s1.552.31,1.862,1.241c2.172,9.311-.931,19.552-7.448,26.69-.31.621-1.552.621-2.172,0Z" transform="translate(-49.45 -19.074)"/>
                  </g>
                </g>
              </g>
              <g id="Grupo_1202298" data-name="Grupo 1202298" transform="translate(54.659 10.501)">
                <g id="Grupo_1202297" data-name="Grupo 1202297">
                  <path id="Trazado_1043718" data-name="Trazado 1043718" d="M57.262,12.745a5.408,5.408,0,0,0-4.345,6.517A5.408,5.408,0,0,0,46.4,14.917,5.408,5.408,0,0,0,50.745,8.4c.621,2.793,3.724,4.655,6.517,4.345Z" transform="translate(-46.4 -8.4)" fill="#fff"/>
                </g>
              </g>
              <g id="Grupo_1202300" data-name="Grupo 1202300" transform="translate(63.969 20.432)">
                <g id="Grupo_1202299" data-name="Grupo 1202299">
                  <path id="Trazado_1043719" data-name="Trazado 1043719" d="M56.228,14.393a3.507,3.507,0,0,0-2.793,4.035A3.507,3.507,0,0,0,49.4,15.635,3.507,3.507,0,0,0,52.193,11.6,3.685,3.685,0,0,0,56.228,14.393Z" transform="translate(-49.4 -11.6)" fill="#fff"/>
                </g>
              </g>
            </g>
          </g>
          <g id="Grupo_1202304" data-name="Grupo 1202304" transform="translate(27.275 2.778)">
            <g id="Grupo_1202303" data-name="Grupo 1202303" transform="translate(0 0)">
              <ellipse id="Elipse_12658" data-name="Elipse 12658" cx="4.966" cy="11.483" rx="4.966" ry="11.483" transform="matrix(0.989, -0.148, 0.148, 0.989, 0, 1.47)"/>
            </g>
          </g>
          <g id="Grupo_1202306" data-name="Grupo 1202306" transform="translate(42.767)">
            <g id="Grupo_1202305" data-name="Grupo 1202305" transform="translate(0)">
              <ellipse id="Elipse_12659" data-name="Elipse 12659" cx="4.966" cy="11.483" rx="4.966" ry="11.483" transform="matrix(0.989, -0.148, 0.148, 0.989, 0, 1.47)"/>
            </g>
          </g>
          <g id="Grupo_1202308" data-name="Grupo 1202308" transform="translate(46.59 9.856)">
            <g id="Grupo_1202307" data-name="Grupo 1202307" transform="translate(0 0)">
              <path id="Trazado_1043720" data-name="Trazado 1043720" d="M46.9,7.315c.31,1.552-.31,2.793-1.241,3.1S43.8,9.488,43.8,7.936s.31-2.793,1.241-3.1S46.9,5.763,46.9,7.315Z" transform="translate(-43.8 -4.785)" fill="#fff"/>
            </g>
          </g>
          <g id="Grupo_1202310" data-name="Grupo 1202310" transform="translate(32.003 11.718)">
            <g id="Grupo_1202309" data-name="Grupo 1202309">
              <path id="Trazado_1043721" data-name="Trazado 1043721" d="M42.2,7.915c.31,1.552-.31,2.793-1.241,3.1-.931,0-1.862-.931-1.862-2.483s.31-2.793,1.241-3.1S41.893,6.363,42.2,7.915Z" transform="translate(-39.1 -5.385)" fill="#fff"/>
            </g>
          </g>
          <g id="Grupo_1202312" data-name="Grupo 1202312" transform="translate(43.952 26.272)">
            <g id="Grupo_1202311" data-name="Grupo 1202311">
              <path id="Trazado_1043722" data-name="Trazado 1043722" d="M43.416,14.189a1.536,1.536,0,0,1,2.172-2.172,1.481,1.481,0,0,0,2.483-.621,1.582,1.582,0,0,1,3.1.621c-.31,3.724-4.966,4.966-7.759,2.172Z" transform="translate(-42.95 -10.074)"/>
            </g>
          </g>
        </g>
        <g id="Grupo_1202315" data-name="Grupo 1202315" transform="translate(88.011 96.774)">
          <g id="Grupo_1202314" data-name="Grupo 1202314">
            <path id="Trazado_1043723" data-name="Trazado 1043723" d="M40.791,57.337c-.31-1.241-2.483-11.793-3.1-13.035A1.365,1.365,0,0,1,38,42.75c3.724-3.414,7.138-6.828,11.173-9.621,1.552-1.241,3.414,1.241,1.862,2.483A66.438,66.438,0,0,0,41.1,44.3c.31,1.552.931,4.345,2.172,9.311.31,1.552.621,2.483.621,2.793.31.931-.31,1.552-1.241,1.862s-1.862-.31-1.862-.931Z" transform="translate(-37.559 -32.791)"/>
          </g>
        </g>
        <g id="Grupo_1202317" data-name="Grupo 1202317" transform="translate(107.834 96.68)">
          <g id="Grupo_1202316" data-name="Grupo 1202316">
            <path id="Trazado_1043724" data-name="Trazado 1043724" d="M49.7,57.09c-5.276-9.311-6.207-9.621-5.586-10.862L50.631,33.5a1.6,1.6,0,1,1,2.793,1.552l-6.207,12.1,4.966,8.69a1.636,1.636,0,0,1-.621,2.172A3.415,3.415,0,0,1,49.7,57.09Z" transform="translate(-43.946 -32.761)"/>
          </g>
        </g>
        <g id="Grupo_1202319" data-name="Grupo 1202319" transform="translate(85.918 119.95)">
          <g id="Grupo_1202318" data-name="Grupo 1202318">
            <path id="Trazado_1043725" data-name="Trazado 1043725" d="M45.933,40.7a3.3,3.3,0,0,0-2.483-.31c-.931.31-1.552.621-4.655,2.793-.931.621-2.172,1.241-1.862,2.793s2.172,2.793,5.276,1.241c2.483-1.552,6.207-4.966,3.724-6.517Z" transform="translate(-36.884 -40.259)" fill="#573af1"/>
          </g>
        </g>
        <g id="Grupo_1202321" data-name="Grupo 1202321" transform="translate(107.643 118.762)">
          <g id="Grupo_1202320" data-name="Grupo 1202320">
            <path id="Trazado_1043726" data-name="Trazado 1043726" d="M52.623,40.261c-1.552-.931-3.1,0-4.345.931A28.623,28.623,0,0,1,45.8,42.744c-.931.621-2.172,1.241-1.862,2.793s2.172,2.793,5.276,1.241c2.483-1.552,5.9-4.966,3.414-6.517Z" transform="translate(-43.884 -39.876)" fill="#573af1"/>
          </g>
        </g>
        <g id="Grupo_1202323" data-name="Grupo 1202323" transform="translate(100.554 117.595)">
          <g id="Grupo_1202322" data-name="Grupo 1202322">
            <path id="Trazado_1043727" data-name="Trazado 1043727" d="M75.118,39.5v74.794a7.219,7.219,0,0,1-7.138,7.138H48.428a6.738,6.738,0,0,1-6.828-5.276C66.738,97.225,66.118,66.5,75.118,39.5Z" transform="translate(-41.6 -39.5)" fill="#ef3a3e"/>
          </g>
        </g>
        <g id="Grupo_1202325" data-name="Grupo 1202325" transform="translate(52.139 155.148)">
          <g id="Grupo_1202324" data-name="Grupo 1202324">
            <path id="Trazado_1043728" data-name="Trazado 1043728" d="M59.518,51.6V89.152A7.219,7.219,0,0,1,52.38,96.29H32.828A7.38,7.38,0,0,1,26,91.325c6.828-5.276,12.724-9.931,17.69-17.38C48.966,66.5,53.311,58.428,59.518,51.6Z" transform="translate(-26 -51.6)" fill="#14b5ff"/>
          </g>
        </g>
        <g id="Grupo_1202327" data-name="Grupo 1202327" transform="translate(2.172 168.803)">
          <g id="Grupo_1202326" data-name="Grupo 1202326">
            <path id="Trazado_1043729" data-name="Trazado 1043729" d="M41.556,56V79.587a7.219,7.219,0,0,1-7.138,7.138H14.866A7.324,7.324,0,0,1,9.9,84.552C15.176,80.207,30.073,72.449,41.556,56Z" transform="translate(-9.9 -56)" fill="#1fb64a"/>
          </g>
        </g>
      </g>
      <g id="Grupo_1202330" data-name="Grupo 1202330" transform="translate(8.758 158.619)">
        <g id="Grupo_1202329" data-name="Grupo 1202329">
          <path id="Trazado_1043730" data-name="Trazado 1043730" d="M11.061,92.546c-3.1-3.724-2.172-6.207-2.172-38.794A1.466,1.466,0,0,1,10.44,52.2a1.466,1.466,0,0,1,1.552,1.552c0,32.587-.621,34.139,1.552,36.932a5.91,5.91,0,0,0,5.9,1.552c.931-.31,1.552,0,2.172.931,1.241,2.483-6.828,4.035-10.552-.621Z" transform="translate(-8.758 -52.2)"/>
        </g>
      </g>
      <g id="Grupo_1202332" data-name="Grupo 1202332" transform="translate(59.635 131.929)">
        <g id="Grupo_1202331" data-name="Grupo 1202331">
          <path id="Trazado_1043731" data-name="Trazado 1043731" d="M27.475,111.256a335.787,335.787,0,0,1-1.241-66.1,1.552,1.552,0,1,1,3.1,0,355.232,355.232,0,0,0,1.241,65.484,2.1,2.1,0,0,1-1.241,1.862C28.406,112.5,27.475,112.187,27.475,111.256Z" transform="translate(-25.151 -43.6)"/>
        </g>
      </g>
      <g id="Grupo_1202334" data-name="Grupo 1202334" transform="translate(108.201 118.273)">
        <g id="Grupo_1202333" data-name="Grupo 1202333">
          <path id="Trazado_1043732" data-name="Trazado 1043732" d="M42.352,116.477a1.466,1.466,0,0,1-1.552-1.552l1.552-74.174a1.552,1.552,0,0,1,3.1,0L43.9,114.926A1.663,1.663,0,0,1,42.352,116.477Z" transform="translate(-40.8 -39.2)"/>
        </g>
      </g>
    </g>
  </g>
</svg>
