<svg xmlns="http://www.w3.org/2000/svg" xmlns:xlink="http://www.w3.org/1999/xlink" width="113" height="113" viewBox="0 0 113 113">
  <defs>
    <filter id="Trazado_982547" x="0" y="0" width="113" height="113" filterUnits="userSpaceOnUse">
      <feOffset dy="3" input="SourceAlpha"/>
      <feGaussianBlur stdDeviation="3" result="blur"/>
      <feFlood flood-opacity="0.161"/>
      <feComposite operator="in" in2="blur"/>
      <feComposite in="SourceGraphic"/>
    </filter>
    <clipPath id="clip-path">
      <path id="path8877" d="M0-682.665H63.168V-619.5H0Z" transform="translate(0 682.665)"/>
    </clipPath>
  </defs>
  <g id="Grupo_1204874" data-name="Grupo 1204874" transform="translate(-614 -4101)">
    <g id="Grupo_1201805" data-name="Grupo 1201805" transform="translate(3 3558)">
      <g id="Grupo_1184772" data-name="Grupo 1184772" transform="translate(420.762 128)">
        <g id="Grupo_1183774" data-name="Grupo 1183774" transform="translate(-2.762 -669.432)">
          <g id="Grupo_1173793" data-name="Grupo 1173793" transform="translate(202 1090.432)">
            <g id="Grupo_1167519" data-name="Grupo 1167519">
              <g id="Grupo_1166845" data-name="Grupo 1166845">
                <g id="Grupo_1166720" data-name="Grupo 1166720">
                  <g id="Grupo_1164305" data-name="Grupo 1164305">
                    <g id="Grupo_1163948" data-name="Grupo 1163948">
                      <g id="Grupo_1158168" data-name="Grupo 1158168">
                        <g id="Grupo_1152576" data-name="Grupo 1152576">
                          <g id="Grupo_1148633" data-name="Grupo 1148633">
                            <g id="Grupo_1148525" data-name="Grupo 1148525">
                              <g transform="matrix(1, 0, 0, 1, -9, -6)" filter="url(#Trazado_982547)">
                                <g id="Trazado_982547-2" data-name="Trazado 982547" transform="translate(9 6)" fill="#fcf2ec">
                                  <path d="M 47.5 93.5 C 41.28937149047852 93.5 35.26533508300781 92.28397369384766 29.59518623352051 89.88570404052734 C 24.11771965026855 87.56893157958984 19.19813346862793 84.25196075439453 14.97309303283691 80.02691650390625 C 10.74804019927979 75.80186462402344 7.431066513061523 70.88229370117188 5.114293098449707 65.40481567382812 C 2.716026782989502 59.73468017578125 1.5 53.71062850952148 1.5 47.5 C 1.5 41.28937149047852 2.716026782989502 35.26533508300781 5.114293098449707 29.59518623352051 C 7.431066513061523 24.11771965026855 10.74804019927979 19.19813346862793 14.97309303283691 14.97309303283691 C 19.19813346862793 10.74804019927979 24.11771965026855 7.431066513061523 29.59518623352051 5.114293098449707 C 35.26533508300781 2.716026782989502 41.28937149047852 1.5 47.5 1.5 C 53.71062850952148 1.5 59.73468017578125 2.716026782989502 65.40481567382812 5.114293098449707 C 70.88229370117188 7.431066513061523 75.80186462402344 10.74804019927979 80.02691650390625 14.97309303283691 C 84.25196075439453 19.19813346862793 87.56893157958984 24.11771965026855 89.88570404052734 29.59518623352051 C 92.28397369384766 35.26533508300781 93.5 41.28937149047852 93.5 47.5 C 93.5 53.71062850952148 92.28397369384766 59.73468017578125 89.88570404052734 65.40481567382812 C 87.56893157958984 70.88229370117188 84.25196075439453 75.80186462402344 80.02691650390625 80.02691650390625 C 75.80186462402344 84.25196075439453 70.88229370117188 87.56893157958984 65.40481567382812 89.88570404052734 C 59.73468017578125 92.28397369384766 53.71062850952148 93.5 47.5 93.5 Z" stroke="none"/>
                                  <path d="M 47.5 3 C 41.49121475219727 3 35.66376876831055 4.176155090332031 30.17950439453125 6.495796203613281 C 24.88084411621094 8.736953735351562 20.12152099609375 11.94598388671875 16.03375244140625 16.03375244140625 C 11.94598388671875 20.12152099609375 8.736953735351562 24.88084411621094 6.495796203613281 30.17950439453125 C 4.176155090332031 35.66376876831055 3 41.49121475219727 3 47.5 C 3 53.50878524780273 4.176155090332031 59.33623123168945 6.495796203613281 64.82049560546875 C 8.736953735351562 70.11915588378906 11.94598388671875 74.87847900390625 16.03375244140625 78.96624755859375 C 20.12152099609375 83.05401611328125 24.88084411621094 86.26304626464844 30.17950439453125 88.50419616699219 C 35.66376876831055 90.82384490966797 41.49121475219727 92 47.5 92 C 53.50878524780273 92 59.33623123168945 90.82384490966797 64.82049560546875 88.50419616699219 C 70.11915588378906 86.26304626464844 74.87847900390625 83.05401611328125 78.96624755859375 78.96624755859375 C 83.05401611328125 74.87847900390625 86.26304626464844 70.11915588378906 88.50419616699219 64.82049560546875 C 90.82384490966797 59.33623123168945 92 53.50878524780273 92 47.5 C 92 41.49121475219727 90.82384490966797 35.66376876831055 88.50419616699219 30.17950439453125 C 86.26304626464844 24.88084411621094 83.05401611328125 20.12152099609375 78.96624755859375 16.03375244140625 C 74.87847900390625 11.94598388671875 70.11915588378906 8.736953735351562 64.82049560546875 6.495796203613281 C 59.33623123168945 4.176155090332031 53.50878524780273 3 47.5 3 M 47.5 0 C 73.7335205078125 0 95 21.2664794921875 95 47.5 C 95 73.7335205078125 73.7335205078125 95 47.5 95 C 21.2664794921875 95 0 73.7335205078125 0 47.5 C 0 21.2664794921875 21.2664794921875 0 47.5 0 Z" stroke="none" fill="#e8864c"/>
                                </g>
                              </g>
                            </g>
                          </g>
                        </g>
                      </g>
                    </g>
                  </g>
                </g>
              </g>
            </g>
          </g>
        </g>
      </g>
    </g>
    <g id="g8871" transform="translate(638.916 4805.581)">
      <g id="g8873" transform="translate(0 -682.665)">
        <g id="g8875" clip-path="url(#clip-path)">
          <g id="g8881" transform="translate(28.747 0.925)">
            <path id="path8883" d="M-290.389-163.556V-167.3a.62.62,0,0,0-.62-.62h-3.157a.622.622,0,0,1-.6-.457,10.765,10.765,0,0,0-.969-2.342.623.623,0,0,1,.1-.746l2.232-2.232a.62.62,0,0,0,0-.877l-2.648-2.648a.62.62,0,0,0-.876,0l-2.232,2.232a.623.623,0,0,1-.746.1,10.765,10.765,0,0,0-2.342-.969.622.622,0,0,1-.457-.6v-3.157a.62.62,0,0,0-.62-.62h-3.744a.62.62,0,0,0-.62.62v3.157a.622.622,0,0,1-.457.6,10.767,10.767,0,0,0-2.342.969.623.623,0,0,1-.746-.1l-2.232-2.232a.62.62,0,0,0-.876,0l-2.648,2.648a.62.62,0,0,0,0,.877l2.232,2.232a.623.623,0,0,1,.1.746,10.763,10.763,0,0,0-.969,2.342.622.622,0,0,1-.6.457h-3.157a.62.62,0,0,0-.62.62v3.744a.62.62,0,0,0,.62.62h3.157a.622.622,0,0,1,.6.457,10.765,10.765,0,0,0,.969,2.342.623.623,0,0,1-.1.746l-2.232,2.232a.62.62,0,0,0,0,.876l2.648,2.648a.62.62,0,0,0,.876,0l2.232-2.232a.623.623,0,0,1,.746-.1,10.772,10.772,0,0,0,2.342.969.622.622,0,0,1,.457.6v3.157a.62.62,0,0,0,.62.62h3.744a.62.62,0,0,0,.62-.62V-154.4a.622.622,0,0,1,.457-.6,10.77,10.77,0,0,0,2.342-.969.623.623,0,0,1,.746.1l2.232,2.232a.62.62,0,0,0,.876,0l2.648-2.648a.62.62,0,0,0,0-.876l-2.232-2.232a.623.623,0,0,1-.1-.746,10.768,10.768,0,0,0,.969-2.342.622.622,0,0,1,.6-.457h3.157a.62.62,0,0,0,.62-.62" transform="translate(319.999 180.233)" fill="#cbc4cb"/>
          </g>
          <g id="g8885" transform="translate(28.747 0.925)">
            <path id="path8887" d="M-290.389-163.556V-167.3a.62.62,0,0,0-.62-.62h-3.157a.622.622,0,0,1-.6-.457,10.765,10.765,0,0,0-.969-2.342.623.623,0,0,1,.1-.746l2.232-2.232a.62.62,0,0,0,0-.877l-2.648-2.648a.62.62,0,0,0-.876,0l-2.232,2.232a.623.623,0,0,1-.746.1,10.765,10.765,0,0,0-2.342-.969.622.622,0,0,1-.457-.6v-3.157a.62.62,0,0,0-.62-.62h-3.744a.62.62,0,0,0-.62.62v3.157a.622.622,0,0,1-.457.6,10.767,10.767,0,0,0-2.342.969.623.623,0,0,1-.746-.1l-2.232-2.232a.62.62,0,0,0-.876,0l-2.648,2.648a.62.62,0,0,0,0,.877l2.232,2.232a.623.623,0,0,1,.1.746,10.763,10.763,0,0,0-.969,2.342.622.622,0,0,1-.6.457h-3.157a.62.62,0,0,0-.62.62v3.744a.62.62,0,0,0,.62.62h3.157a.622.622,0,0,1,.6.457,10.765,10.765,0,0,0,.969,2.342.623.623,0,0,1-.1.746l-2.232,2.232a.62.62,0,0,0,0,.876l2.648,2.648a.62.62,0,0,0,.876,0l2.232-2.232a.623.623,0,0,1,.746-.1,10.772,10.772,0,0,0,2.342.969.622.622,0,0,1,.457.6v3.157a.62.62,0,0,0,.62.62h3.744a.62.62,0,0,0,.62-.62V-154.4a.622.622,0,0,1,.457-.6,10.77,10.77,0,0,0,2.342-.969.623.623,0,0,1,.746.1l2.232,2.232a.62.62,0,0,0,.876,0l2.648-2.648a.62.62,0,0,0,0-.876l-2.232-2.232a.623.623,0,0,1-.1-.746,10.768,10.768,0,0,0,.969-2.342.622.622,0,0,1,.6-.457h3.157A.62.62,0,0,0-290.389-163.556Z" transform="translate(319.999 180.233)" fill="none" stroke="#000" stroke-linecap="round" stroke-linejoin="round" stroke-miterlimit="10" stroke-width="1"/>
          </g>
          <g id="g8889" transform="translate(36.813 8.992)">
            <path id="path8891" d="M-132.166-66.083a6.738,6.738,0,0,1-6.738,6.738,6.738,6.738,0,0,1-6.738-6.738,6.738,6.738,0,0,1,6.738-6.738,6.738,6.738,0,0,1,6.738,6.738" transform="translate(145.642 72.821)" fill="#7a6d79"/>
          </g>
          <g id="g8893" transform="translate(36.813 8.992)">
            <path id="path8895" d="M-40.674-66.083a6.74,6.74,0,0,1,4.665-6.412,6.731,6.731,0,0,0-2.074-.327,6.738,6.738,0,0,0-6.738,6.738,6.738,6.738,0,0,0,6.738,6.738,6.731,6.731,0,0,0,2.074-.327,6.74,6.74,0,0,1-4.665-6.412" transform="translate(44.821 72.821)" fill="#685e68"/>
          </g>
          <g id="g8897" transform="translate(36.813 8.992)">
            <path id="path8899" d="M-101.744-10.461a6.7,6.7,0,0,0-3.636-1.067,6.738,6.738,0,0,0-6.738,6.738,6.738,6.738,0,0,0,6.738,6.738A6.738,6.738,0,0,0-98.642-4.79a6.724,6.724,0,0,0-.394-2.273" transform="translate(112.118 11.528)" fill="none" stroke="#000" stroke-linecap="round" stroke-linejoin="round" stroke-miterlimit="10" stroke-width="1"/>
          </g>
          <g id="g8901" transform="translate(40.196 12.375)">
            <path id="path8903" d="M-65.817-32.908a3.356,3.356,0,0,1-3.356,3.356,3.355,3.355,0,0,1-3.356-3.356,3.355,3.355,0,0,1,3.356-3.356,3.356,3.356,0,0,1,3.356,3.356" transform="translate(72.528 36.264)" fill="#e2dee2"/>
          </g>
          <g id="g8905" transform="translate(40.196 12.375)">
            <path id="path8907" d="M-25.649-32.908A3.357,3.357,0,0,1-23.6-36a3.337,3.337,0,0,0-1.305-.266,3.356,3.356,0,0,0-3.356,3.356,3.356,3.356,0,0,0,3.356,3.356,3.337,3.337,0,0,0,1.305-.266,3.357,3.357,0,0,1-2.045-3.09" transform="translate(28.264 36.264)" fill="#cbc4cb"/>
          </g>
          <g id="g8909" transform="translate(40.196 12.375)">
            <path id="path8911" d="M-65.817-32.908a3.356,3.356,0,0,1-3.356,3.356,3.355,3.355,0,0,1-3.356-3.356,3.355,3.355,0,0,1,3.356-3.356A3.356,3.356,0,0,1-65.817-32.908Z" transform="translate(72.528 36.264)" fill="none" stroke="#000" stroke-linecap="round" stroke-linejoin="round" stroke-miterlimit="10" stroke-width="1"/>
          </g>
          <g id="g8913" transform="translate(19.242 16.357)">
            <path id="path8915" d="M-218.086-209.882h-22.238v-21.4H-218.7a.617.617,0,0,1,.617.617Z" transform="translate(240.323 231.283)" fill="#ffbd86"/>
          </g>
          <path id="path8917" d="M207.949-484.492h11.819v-21.4H207.949Z" transform="translate(-188.707 522.25)" fill="#f6a96c"/>
          <g id="g8919" transform="translate(19.242 16.357)">
            <path id="path8921" d="M-218.086-209.882h-22.238v-21.4H-218.7a.617.617,0,0,1,.617.617Z" transform="translate(240.323 231.283)" fill="none" stroke="#000" stroke-linecap="round" stroke-linejoin="round" stroke-miterlimit="10" stroke-width="1"/>
          </g>
          <g id="g8923" transform="translate(7.268 16.357)">
            <path id="path8925" d="M-196.1-209.882h-20v-20.784a.617.617,0,0,1,.617-.617H-196.1Z" transform="translate(216.091 231.283)" fill="#fed2a4"/>
          </g>
          <g id="g8927" transform="translate(7.268 16.357)">
            <path id="path8929" d="M-46.09,0h-4.083a.617.617,0,0,0-.617.617V21.4h4.083V.617A.617.617,0,0,1-46.09,0" transform="translate(50.789)" fill="#ffbd86"/>
          </g>
          <g id="g8931" transform="translate(7.268 16.357)">
            <path id="path8933" d="M-196.1-209.882h-20v-20.784a.617.617,0,0,1,.617-.617H-196.1Z" transform="translate(216.091 231.283)" fill="none" stroke="#000" stroke-linecap="round" stroke-linejoin="round" stroke-miterlimit="10" stroke-width="1"/>
          </g>
          <g id="g8935" transform="translate(14.453 16.357)">
            <path id="path8937" d="M-51.543-72.424h-4.886a.37.37,0,0,1-.37-.37v-7.015h5.626v7.015a.37.37,0,0,1-.37.37" transform="translate(56.799 79.809)" fill="#fe646f"/>
          </g>
          <g id="g8939" transform="translate(14.453 16.357)">
            <path id="path8941" d="M-24.026-68.793v-7.015h-2.45v7.015a.37.37,0,0,0,.37.37h2.45a.37.37,0,0,1-.37-.37" transform="translate(26.476 75.808)" fill="#fd4755"/>
          </g>
          <g id="g8943" transform="translate(14.453 16.357)">
            <path id="path8945" d="M-51.543-72.424h-4.886a.37.37,0,0,1-.37-.37v-7.015h5.626v7.015A.37.37,0,0,1-51.543-72.424Z" transform="translate(56.799 79.809)" fill="none" stroke="#000" stroke-linecap="round" stroke-linejoin="round" stroke-miterlimit="10" stroke-width="1"/>
          </g>
          <path id="path8947" d="M219.273-276.3h-29v-21.4h29Z" transform="translate(-172.669 333.318)" fill="#f6a96c"/>
          <path id="path8949" d="M190.277-276.3h17.555v-21.4H190.277Z" transform="translate(-172.67 333.318)" fill="#ea9b58"/>
          <path id="path8951" d="M219.273-276.3h-29v-21.4h29Z" transform="translate(-172.669 333.318)" fill="none" stroke="#000" stroke-linecap="round" stroke-linejoin="round" stroke-miterlimit="10" stroke-width="1"/>
          <g id="g8953" transform="translate(1.993 35.622)">
            <path id="path8955" d="M-284.377-209.884h-28.38a.617.617,0,0,1-.617-.617v-20.167a.617.617,0,0,1,.617-.617h28.38Z" transform="translate(313.374 231.285)" fill="#ffbd86"/>
          </g>
          <g id="g8957" transform="translate(1.993 35.622)">
            <path id="path8959" d="M-40.953-203.834V-224a.617.617,0,0,1,.617-.617h-4.176a.617.617,0,0,0-.617.617v20.167a.617.617,0,0,0,.617.617h4.176a.617.617,0,0,1-.617-.617" transform="translate(45.129 224.618)" fill="#f6a96c"/>
          </g>
          <g id="g8961" transform="translate(1.993 35.622)">
            <path id="path8963" d="M-97.821-209.884H-78.8v-21.4h-28.38a.617.617,0,0,0-.617.617V-210.5a.617.617,0,0,0,.617.617h5.04" transform="translate(107.796 231.285)" fill="none" stroke="#000" stroke-linecap="round" stroke-linejoin="round" stroke-miterlimit="10" stroke-width="1"/>
          </g>
          <g id="g8965" transform="translate(5.552 50.214)">
            <path id="path8967" d="M-59.288-33.879h-5.675a.37.37,0,0,1-.37-.37v-2.714a.37.37,0,0,1,.37-.37h5.675a.37.37,0,0,1,.37.37v2.714a.37.37,0,0,1-.37.37" transform="translate(65.333 37.333)" fill="#fff"/>
          </g>
          <g id="g8969" transform="translate(5.552 50.214)">
            <path id="path8971" d="M-59.288-33.879h-5.675a.37.37,0,0,1-.37-.37v-2.714a.37.37,0,0,1,.37-.37h5.675a.37.37,0,0,1,.37.37v2.714A.37.37,0,0,1-59.288-33.879Z" transform="translate(65.333 37.333)" fill="none" stroke="#000" stroke-linecap="round" stroke-linejoin="round" stroke-miterlimit="10" stroke-width="1"/>
          </g>
          <g id="g8973" transform="translate(13.357 35.622)">
            <path id="path8975" d="M-57.856-70.506h-5.529a.37.37,0,0,1-.37-.37V-77.7h6.27v6.819a.37.37,0,0,1-.37.37" transform="translate(63.756 77.696)" fill="#fe646f"/>
          </g>
          <g id="g8977" transform="translate(13.357 35.622)">
            <path id="path8979" d="M-26.306-66.877V-73.7h-2.682v6.819a.37.37,0,0,0,.37.37h2.682a.37.37,0,0,1-.37-.37" transform="translate(28.988 73.696)" fill="#fd4755"/>
          </g>
          <g id="g8981" transform="translate(13.357 35.622)">
            <path id="path8983" d="M-57.856-70.506h-5.529a.37.37,0,0,1-.37-.37V-77.7h6.27v6.819A.37.37,0,0,1-57.856-70.506Z" transform="translate(63.756 77.696)" fill="none" stroke="#000" stroke-linecap="round" stroke-linejoin="round" stroke-miterlimit="10" stroke-width="1"/>
          </g>
          <g id="g8985" transform="translate(41.045 38.155)">
            <path id="path8987" d="M-.773-153.12l6.458,8.331a.372.372,0,0,0,.589,0l6.458-8.331a.373.373,0,0,0-.295-.6H9.2a.373.373,0,0,1-.372-.373V-168.36a.373.373,0,0,0-.373-.373H3.5a.373.373,0,0,0-.373.373v14.267a.373.373,0,0,1-.373.373H-.479a.373.373,0,0,0-.294.6" transform="translate(0.852 168.733)" fill="#4fc123"/>
          </g>
          <g id="g8989" transform="translate(41.045 53.167)">
            <path id="path8991" d="M-34.582,0h-3.153a.373.373,0,0,0-.294.6l6.458,8.331a.373.373,0,0,0,.589,0l1.662-2.144Z" transform="translate(38.108)" fill="#47a920"/>
          </g>
          <g id="g8993" transform="translate(41.045 38.155)">
            <path id="path8995" d="M-.773-153.12l6.458,8.331a.372.372,0,0,0,.589,0l6.458-8.331a.373.373,0,0,0-.295-.6H9.2a.373.373,0,0,1-.372-.373V-168.36a.373.373,0,0,0-.373-.373H3.5a.373.373,0,0,0-.373.373v14.267a.373.373,0,0,1-.373.373H-.479A.373.373,0,0,0-.773-153.12Z" transform="translate(0.852 168.733)" fill="none" stroke="#000" stroke-linecap="round" stroke-linejoin="round" stroke-miterlimit="10" stroke-width="1"/>
          </g>
          <g id="g8997" transform="translate(34.578 19.017)">
            <path id="path8999" d="M-260.846-130.423a13.3,13.3,0,0,1-13.3,13.3,13.3,13.3,0,0,1-13.3-13.3,13.3,13.3,0,0,1,13.3-13.3,13.3,13.3,0,0,1,13.3,13.3" transform="translate(287.443 143.722)" fill="#fddf30"/>
          </g>
          <g id="g9001" transform="translate(34.578 19.017)">
            <path id="path9003" d="M-260.846-130.423a13.3,13.3,0,0,1-13.3,13.3,13.3,13.3,0,0,1-13.3-13.3,13.3,13.3,0,0,1,13.3-13.3A13.3,13.3,0,0,1-260.846-130.423Z" transform="translate(287.443 143.722)" fill="none" stroke="#000" stroke-linecap="round" stroke-linejoin="round" stroke-miterlimit="10" stroke-width="1"/>
          </g>
          <g id="g9005" transform="translate(38.26 22.7)">
            <path id="path9007" d="M-188.62-94.31a9.616,9.616,0,0,1-9.616,9.616,9.616,9.616,0,0,1-9.617-9.616,9.617,9.617,0,0,1,9.617-9.617,9.616,9.616,0,0,1,9.616,9.617" transform="translate(207.853 103.926)" fill="#fac600"/>
          </g>
          <g id="g9009" transform="translate(38.26 22.7)">
            <path id="path9011" d="M-41.138-94.31a9.618,9.618,0,0,1,7.519-9.384,9.637,9.637,0,0,0-2.1-.232,9.616,9.616,0,0,0-9.616,9.617,9.616,9.616,0,0,0,9.616,9.616,9.644,9.644,0,0,0,2.1-.232,9.618,9.618,0,0,1-7.519-9.384" transform="translate(45.333 103.926)" fill="#e8b801"/>
          </g>
          <g id="g9013" transform="translate(38.26 22.7)">
            <path id="path9015" d="M-187.519-79.87a9.619,9.619,0,0,0-9.5-8.144A9.617,9.617,0,0,0-206.64-78.4a9.616,9.616,0,0,0,9.616,9.616,9.621,9.621,0,0,0,9.188-6.771" transform="translate(206.64 88.014)" fill="none" stroke="#000" stroke-linecap="round" stroke-linejoin="round" stroke-miterlimit="10" stroke-width="1"/>
          </g>
          <g id="g9017" transform="translate(44.305 28.574)">
            <path id="path9019" d="M-11.081-73.395h4.157A1.855,1.855,0,0,0-5.069-75.25,1.855,1.855,0,0,0-6.924-77.1h-3.428a1.859,1.859,0,0,1-1.859-1.858v-.057a1.859,1.859,0,0,1,1.859-1.859H-6.23" transform="translate(12.211 80.878)" fill="none" stroke="#000" stroke-linecap="round" stroke-linejoin="round" stroke-miterlimit="10" stroke-width="1"/>
          </g>
          <g id="g9021" transform="translate(47.877 27.158)">
            <path id="path9023" d="M0,0V1.19" fill="none" stroke="#000" stroke-linecap="round" stroke-linejoin="round" stroke-miterlimit="10" stroke-width="1"/>
          </g>
          <g id="g9025" transform="translate(47.877 36.284)">
            <path id="path9027" d="M0,0V1.19" fill="none" stroke="#000" stroke-linecap="round" stroke-linejoin="round" stroke-miterlimit="10" stroke-width="1"/>
          </g>
        </g>
      </g>
    </g>
  </g>
</svg>
