<svg xmlns="http://www.w3.org/2000/svg" xmlns:xlink="http://www.w3.org/1999/xlink" width="295" height="179" viewBox="0 0 295 179">
  <defs>
    <clipPath id="clip-path">
      <rect id="Rectángulo_417100" data-name="Rectángulo 417100" width="295" height="179" transform="translate(285 4706)" fill="#fff" stroke="#707070" stroke-width="1"/>
    </clipPath>
  </defs>
  <g id="Enmascarar_grupo_1098894" data-name="Enmascarar grupo 1098894" transform="translate(-285 -4706)" clip-path="url(#clip-path)">
    <g id="Grupo_1204909" data-name="Grupo 1204909" transform="translate(-1606.429 271.75)">
      <g id="Grupo_1204877" data-name="Grupo 1204877">
        <path id="Trazado_1043319" data-name="Trazado 1043319" d="M272.965,434.085s-13.435-40.136,2.112-60.584,23.271-17.892,28.1-25.56,20.6-91.049,87.313-84.219c87.386,8.946,88.23,124.181,88.23,168.568C478.716,434.207,272.125,433.085,272.965,434.085Z" transform="translate(1672.855 4181.915)" fill="#e4f2f4"/>
        <g id="Grupo_1201968" data-name="Grupo 1201968" transform="translate(1672.855 4181.915)">
          <g id="Grupo_1201967" data-name="Grupo 1201967">
            <g id="Grupo_1201966" data-name="Grupo 1201966">
              <g id="Grupo_1201958" data-name="Grupo 1201958">
                <g id="Grupo_1201945" data-name="Grupo 1201945">
                  <path id="Trazado_1043320" data-name="Trazado 1043320" d="M396.764,355.36S434.9,381.535,439.259,402.7L428.433,410.3l-34.577-26.337Z" fill="#d6def0"/>
                  <path id="Trazado_1043321" data-name="Trazado 1043321" d="M368.446,376.541l-20,38.409c-1.534,2.946-11.264,9.321-14.21,7.787l-7.756-3.555c-2.946-1.534-4.443-9.98-2.908-12.926l22.353-41.445a6.013,6.013,0,0,1,8.112-2.556l11.855,6.174A6.015,6.015,0,0,1,368.446,376.541Z" fill="#d2dcef"/>
                  <path id="Trazado_1043322" data-name="Trazado 1043322" d="M401.159,408.3" fill="#e3a184"/>
                  <g id="Grupo_1201944" data-name="Grupo 1201944">
                    <path id="Trazado_1043323" data-name="Trazado 1043323" d="M377.417,347.841h0c17.256-.362,31.506,11.839,31.829,27.25L409.838,425c6.792,10.142.9,12.128-10.077,11.053l-45.121-1.162c-6.987-.056-14.745.528-9.471-7.913l1.589-50.575C346.435,360.99,360.162,348.2,377.417,347.841Z" fill="#fffdf4"/>
                  </g>
                  <path id="Trazado_1043324" data-name="Trazado 1043324" d="M376.7,366.891s-2.9,50.471-2.481,51.935,6.933,8.571,6.272,8.571c-1.463,0,5.435-7.108,5.435-8.362s-4-52.353-4-52.353Z" fill="#49629c"/>
                  <path id="Trazado_1043325" data-name="Trazado 1043325" d="M373.2,361.257l2.912,6.563h6.273l3.361-7.656S378.576,351.413,373.2,361.257Z" fill="#6480bd"/>
                  <path id="Trazado_1043326" data-name="Trazado 1043326" d="M371.155,348.653s-5.391,4.888-1.6,16.942l9.844-4.188,9.023,5.281s6.094-15.022-3.375-19.643S371.155,348.653,371.155,348.653Z" fill="#d6def0"/>
                </g>
                <g id="Grupo_1201957" data-name="Grupo 1201957">
                  <g id="Grupo_1201949" data-name="Grupo 1201949">
                    <g id="Grupo_1201948" data-name="Grupo 1201948">
                      <g id="Grupo_1201947" data-name="Grupo 1201947">
                        <g id="Grupo_1201946" data-name="Grupo 1201946">
                          <path id="Trazado_1043327" data-name="Trazado 1043327" d="M395.168,387.76l8.32,5.079-2.423,3.315-8.32-5.08a1.8,1.8,0,0,1-.526-2.673A2.3,2.3,0,0,1,395.168,387.76Z" fill="#d37458"/>
                          <path id="Trazado_1043328" data-name="Trazado 1043328" d="M385.369,402.447l-2.119-1.808,15.692-18.392a1.339,1.339,0,0,1,1.887-.149l.083.071a1.339,1.339,0,0,1,.149,1.887Z" fill="#2c334d"/>
                          <path id="Trazado_1043329" data-name="Trazado 1043329" d="M406.5,395.757c-2.118-4.11-7.472-5.742-11.958-3.647s-6.4,7.126-4.287,11.235,7.472,5.742,11.958,3.647S408.615,399.866,406.5,395.757Z" fill="#e3a184"/>
                          <path id="Trazado_1043330" data-name="Trazado 1043330" d="M389.677,391.05l10.1.737-.56,3.908-10.1-.738a1.831,1.831,0,0,1-1.807-2.069A2.261,2.261,0,0,1,389.677,391.05Z" fill="#e3a184"/>
                        </g>
                      </g>
                    </g>
                    <path id="Trazado_1043331" data-name="Trazado 1043331" d="M387.936,395.061l10.267-.487.031,3.884-10.267.487a1.9,1.9,0,0,1-2.131-1.8A2.182,2.182,0,0,1,387.936,395.061Z" fill="#e3a184"/>
                    <path id="Trazado_1043332" data-name="Trazado 1043332" d="M388.376,398.764l10.27-.425.007,3.884-10.27.425a1.9,1.9,0,0,1-2.12-1.817A2.183,2.183,0,0,1,388.376,398.764Z" fill="#e3a184"/>
                    <path id="Trazado_1043333" data-name="Trazado 1043333" d="M389.262,402.059l10.207-1.211.3,3.872-10.207,1.211a1.9,1.9,0,0,1-2.253-1.65A2.181,2.181,0,0,1,389.262,402.059Z" fill="#e3a184"/>
                  </g>
                  <path id="Trazado_1043334" data-name="Trazado 1043334" d="M406.3,394.946s24.1,1.585,31.864,6.28c8.044,4.867,4.381,13.33-2.457,15.21-10.047,2.762-31.387-7.115-32.477-8.4S406.3,394.946,406.3,394.946Z" fill="#d2dcef"/>
                  <g id="Grupo_1201956" data-name="Grupo 1201956">
                    <g id="Grupo_1201951" data-name="Grupo 1201951">
                      <g id="Grupo_1201950" data-name="Grupo 1201950">
                        <path id="Trazado_1043335" data-name="Trazado 1043335" d="M324.614,352.565s1.162,13.945-.219,13.7,49.646-.456,49.646-.456-7.1-22.677-35.3-13.89Z" fill="#96a0cf"/>
                      </g>
                      <path id="Trazado_1043336" data-name="Trazado 1043336" d="M393.785,422.565H343.149L323.442,365.36h50.636Z" fill="#36599f"/>
                      <path id="Trazado_1043337" data-name="Trazado 1043337" d="M332.73,392.32l10.419,30.245h50.636l-12.4-35.994C372.709,413.726,347.033,401.7,332.73,392.32Z" fill="#262425" opacity="0.15"/>
                      <path id="Trazado_1043338" data-name="Trazado 1043338" d="M356.491,363.777h-20.3l2.545,7.384h20.3Z" fill="#cfd9ea"/>
                      <path id="Trazado_1043339" data-name="Trazado 1043339" d="M309.855,364.567l32.759.474s5.912-13.713,12.77-15.009l-36.708-1.053S304.936,354.534,309.855,364.567Z" fill="#fff"/>
                    </g>
                    <g id="Grupo_1201955" data-name="Grupo 1201955">
                      <g id="Grupo_1201953" data-name="Grupo 1201953">
                        <g id="Grupo_1201952" data-name="Grupo 1201952">
                          <path id="Trazado_1043340" data-name="Trazado 1043340" d="M342.159,400.546l-7.016,6.694-2.564-3.18,7.016-6.694a1.787,1.787,0,0,1,2.7.18A2.291,2.291,0,0,1,342.159,400.546Z" fill="#d37458"/>
                          <path id="Trazado_1043341" data-name="Trazado 1043341" d="M335.912,401.654c4.4-.456,8.536,3.126,9.234,8s-2.3,9.2-6.707,9.655-8.536-3.126-9.234-8S331.51,402.11,335.912,401.654Z" fill="#e3a184"/>
                        </g>
                      </g>
                      <g id="Grupo_1201954" data-name="Grupo 1201954">
                        <path id="Trazado_1043342" data-name="Trazado 1043342" d="M344.077,415.921l4.541-1.786a1.766,1.766,0,0,0,.9-2.422l-.174-.345a1.767,1.767,0,0,0-2.26-.836l-4.768,1.881a1.822,1.822,0,0,0-1.05,2.523A2.25,2.25,0,0,0,344.077,415.921Z" fill="#e3a184"/>
                        <path id="Trazado_1043343" data-name="Trazado 1043343" d="M344.412,411.9l4.541-1.786a1.766,1.766,0,0,0,.9-2.422l-.174-.346a1.767,1.767,0,0,0-2.26-.836l-4.768,1.881a1.822,1.822,0,0,0-1.05,2.523A2.25,2.25,0,0,0,344.412,411.9Z" fill="#e3a184"/>
                        <path id="Trazado_1043344" data-name="Trazado 1043344" d="M343.767,408.842l4.541-1.786a1.766,1.766,0,0,0,.9-2.422l-.174-.346a1.765,1.765,0,0,0-2.26-.835L342,405.334a1.822,1.822,0,0,0-1.05,2.523A2.251,2.251,0,0,0,343.767,408.842Z" fill="#e3a184"/>
                        <path id="Trazado_1043345" data-name="Trazado 1043345" d="M342.977,405.926l4.541-1.786a1.766,1.766,0,0,0,.9-2.422l-.174-.346a1.767,1.767,0,0,0-2.26-.836l-4.768,1.881a1.822,1.822,0,0,0-1.05,2.523A2.251,2.251,0,0,0,342.977,405.926Z" fill="#e3a184"/>
                      </g>
                    </g>
                  </g>
                </g>
              </g>
              <g id="Grupo_1201965" data-name="Grupo 1201965">
                <g id="Grupo_1201959" data-name="Grupo 1201959">
                  <path id="Trazado_1043346" data-name="Trazado 1043346" d="M385.729,354.588c-1.551,2.41-4.335,6.977-6.3,7.007-2.307.035-4.532-4.749-5.574-7.118l-.133-8.767,11.868-.181Z" fill="#e3a184"/>
                  <path id="Trazado_1043347" data-name="Trazado 1043347" d="M385.71,353.346l-.119-7.817-11.868.181.109,7.193A26.579,26.579,0,0,0,385.71,353.346Z" fill="#d37458"/>
                  <path id="Trazado_1043348" data-name="Trazado 1043348" d="M373.8,350.434l-.072-4.723,11.868-.181.07,4.587a24.834,24.834,0,0,1-5.479.848A24.308,24.308,0,0,1,373.8,350.434Z" fill="#d37458"/>
                </g>
                <g id="Grupo_1201964" data-name="Grupo 1201964">
                  <path id="Trazado_1043349" data-name="Trazado 1043349" d="M388.6,279.711l-7.146-.866c-13.689-1.659-26.006,7.059-27.511,19.473l-1.9,15.645c-1.722,14.2,9.579,27.257,25.242,29.155h0c15.662,1.9,29.754-8.077,31.476-22.28l1.9-15.645C412.164,292.779,402.286,281.37,388.6,279.711Z" fill="#28294a"/>
                  <path id="Trazado_1043350" data-name="Trazado 1043350" d="M365.139,282.241s-12.538-.686-15.8,12.327c-2.531,10.087,4.082,28.236,4.082,28.236l15.35-38.392Z" fill="#28294a"/>
                  <path id="Trazado_1043351" data-name="Trazado 1043351" d="M401.769,286.515s12.359,2.219,12.541,15.634c.141,10.4-10.473,26.537-10.473,26.537l-6.1-40.895Z" fill="#28294a"/>
                  <g id="Grupo_1201960" data-name="Grupo 1201960">
                    <path id="Trazado_1043352" data-name="Trazado 1043352" d="M362.491,321.161a8.624,8.624,0,1,1-7.524-9.6A8.625,8.625,0,0,1,362.491,321.161Z" fill="#e3a184"/>
                    <path id="Trazado_1043353" data-name="Trazado 1043353" d="M346.671,320.2c-.875,2.077.617,4.688,3.332,5.832s5.625.388,6.5-1.689-.617-4.688-3.332-5.832S347.546,318.12,346.671,320.2Z" fill="#d37458"/>
                    <path id="Trazado_1043354" data-name="Trazado 1043354" d="M415.962,327.115a8.624,8.624,0,1,1-7.524-9.6A8.623,8.623,0,0,1,415.962,327.115Z" fill="#e3a184"/>
                    <path id="Trazado_1043355" data-name="Trazado 1043355" d="M403.673,329.8c.575,2.179,3.35,3.337,6.2,2.585s4.692-3.127,4.117-5.306-3.35-3.337-6.2-2.585S403.1,327.622,403.673,329.8Z" fill="#d37458"/>
                    <path id="Trazado_1043356" data-name="Trazado 1043356" d="M348.541,318.263a4.886,4.886,0,0,1,6.212,2.74" fill="none" stroke="#262425" stroke-linecap="round" stroke-linejoin="round" stroke-miterlimit="10" stroke-width="0.813"/>
                    <path id="Trazado_1043357" data-name="Trazado 1043357" d="M412.158,325.446s-5.358-2.417-8.38,1.307" fill="none" stroke="#262425" stroke-linecap="round" stroke-linejoin="round" stroke-miterlimit="10" stroke-width="0.813"/>
                  </g>
                  <path id="Trazado_1043358" data-name="Trazado 1043358" d="M387.372,288.378l-6.578-.8a22.985,22.985,0,0,0-25.583,20.051l-1.339,11.05a26.3,26.3,0,0,0,22.942,29.271h0a26.3,26.3,0,0,0,29.27-22.942l1.339-11.05A22.983,22.983,0,0,0,387.372,288.378Z" fill="#e3a184"/>
                  <g id="Grupo_1201961" data-name="Grupo 1201961">
                    <path id="Trazado_1043359" data-name="Trazado 1043359" d="M363.717,342.913s1.947-15.877,6.662-17.317,19.371-.392,20.616,1.932,1.28,16.633,1.28,16.633S369.337,350.768,363.717,342.913Z" fill="#28294a"/>
                    <path id="Trazado_1043360" data-name="Trazado 1043360" d="M371.525,327.151c1.738-.757,16.073-.542,16.784,1.485s-.5,15.681-1.923,17.3-13.476,2.639-16-.895S368.53,328.456,371.525,327.151Z" fill="#e3a184"/>
                  </g>
                  <g id="Grupo_1201963" data-name="Grupo 1201963">
                    <g id="Grupo_1201962" data-name="Grupo 1201962">
                      <path id="Trazado_1043361" data-name="Trazado 1043361" d="M373.544,317.34a2.6,2.6,0,1,1-2.265-2.89A2.6,2.6,0,0,1,373.544,317.34Z" fill="#262425"/>
                      <path id="Trazado_1043362" data-name="Trazado 1043362" d="M391.646,319.534a2.6,2.6,0,1,1-2.265-2.89A2.6,2.6,0,0,1,391.646,319.534Z" fill="#262425"/>
                      <path id="Trazado_1043363" data-name="Trazado 1043363" d="M381.076,314.978l-.52,8.781a12.2,12.2,0,0,1-2.788.092" fill="none" stroke="#262425" stroke-linecap="round" stroke-linejoin="round" stroke-miterlimit="10" stroke-width="0.813"/>
                    </g>
                    <path id="Trazado_1043364" data-name="Trazado 1043364" d="M386.673,331.287c-9.529,3.877-14.764-1.626-14.764-1.626" fill="none" stroke="#262425" stroke-linecap="round" stroke-linejoin="round" stroke-miterlimit="10" stroke-width="0.813"/>
                    <path id="Trazado_1043365" data-name="Trazado 1043365" d="M370.929,304.43a6.628,6.628,0,0,0-5.612,3.2s11.713-.523,11.943-1.131c.142-.377-3-2.189-6.331-2.064" fill="#25232a"/>
                    <path id="Trazado_1043366" data-name="Trazado 1043366" d="M397.91,311.7s-11.277-3.211-11.36-3.855S395.571,304.891,397.91,311.7Z" fill="#25232a"/>
                  </g>
                  <path id="Trazado_1043367" data-name="Trazado 1043367" d="M359.457,289.343s1.471,7.354,26.078,12.749c0,0-11.261-8.3-12.515-12.525,0,0,10.4,10.725,24.693,12.975,0,0-3.412-10.687-3.987-10.754s6.77,11.855,13.2,11.635c0,0,4.459-24.91-23.46-31.856C349.774,263.185,359.457,289.343,359.457,289.343Z" fill="#28294a"/>
                  <path id="Trazado_1043368" data-name="Trazado 1043368" d="M382.443,345.844c-2.889.592-3.056-4.158-3.056-4.158l-4.251-.5c-.628,3.62-7.77,5.044-14.292-4.13-3.87-5.444-5.125-21.665-5.522-30.184-.039.251-.08.5-.111.755l-1.339,11.05c-1.748,14.418,6.968,30.746,21.386,32.493l.945.016c14.418,1.748,28.684-8.1,32.389-35.765l-1.115-9.5C405.02,337.871,384.835,345.354,382.443,345.844Z" fill="#28294a"/>
                </g>
              </g>
            </g>
            <path id="Trazado_1043369" data-name="Trazado 1043369" d="M402.99,390.536l-7.629,3.278-6.722-3.278V377.284H402.99Z" fill="#d6def0"/>
          </g>
        </g>
      </g>
      <g id="_x33_9" transform="translate(1941.482 4453.367)">
        <g id="Grupo_1204902" data-name="Grupo 1204902" transform="translate(2.947 1.807)">
          <g id="Grupo_1204899" data-name="Grupo 1204899" transform="translate(0 0.623)">
            <g id="Grupo_1204886" data-name="Grupo 1204886" transform="translate(1.178 0.451)">
              <g id="Grupo_1204879" data-name="Grupo 1204879" transform="translate(0 4.2)">
                <g id="Grupo_1204878" data-name="Grupo 1204878">
                  <path id="Trazado_1044937" data-name="Trazado 1044937" d="M44.823,28.928c-.9,11.327-3.252,29.047-3.813,40.822a3.032,3.032,0,0,1-2.8,2.916c-10.991.561-20.972.336-31.85-2.019A2.911,2.911,0,0,1,4,67.732c-.112-13.121,2.579-31.4,4.262-43.85a2.08,2.08,0,0,1,.785-1.346l17.944-15.7a1.31,1.31,0,0,1,1.907.224c5.383,6.953,10.43,13.009,15.477,20.3a2.575,2.575,0,0,1,.449,1.57Z" transform="translate(-3.997 -6.51)" fill="#ef3a3e"/>
                </g>
              </g>
              <g id="Grupo_1204881" data-name="Grupo 1204881" transform="translate(14.131 5.535)">
                <g id="Grupo_1204880" data-name="Grupo 1204880">
                  <path id="Trazado_1044938" data-name="Trazado 1044938" d="M40.039,61.531c-.224,2.916-.449,5.607-.561,8.075A3.022,3.022,0,0,1,36.9,72.522c-4.037.224-7.85.336-11.551.224-1.009-3.589-1.458-7.514-2.355-11.215-3.589-15.7-6.5-27.14-6.392-32.747.112-4.71,2.579-4.374,4.15-8.748.785-2.131,1.57-4.262,2.467-6.392.561-1.234,2.579-4.71,2.355-5.944,1.234,7.514-2.243,15.477-1.458,23.215.673,6.168,3.589,11.888,6.617,17.271,2.692,4.71,5.607,9.533,9.308,13.346Z" transform="translate(-16.597 -7.7)"/>
                </g>
              </g>
              <g id="Grupo_1204883" data-name="Grupo 1204883" transform="translate(13.854)">
                <g id="Grupo_1204882" data-name="Grupo 1204882">
                  <path id="Trazado_1044939" data-name="Trazado 1044939" d="M69.34,58.991c-9.981,6.28-19.29,11.215-30.617,14.8a3.193,3.193,0,0,1-3.7-1.458c-6.729-12.112-13.682-30.617-18.5-43.065a2.187,2.187,0,0,1,0-1.682l8.523-24a1.266,1.266,0,0,1,1.794-.673c8.635,3.589,16.374,6.617,24.9,10.766a2.222,2.222,0,0,1,1.234,1.234c4.935,10.991,11.888,28.6,17.5,40.037a2.939,2.939,0,0,1-1.121,4.037Z" transform="translate(-16.35 -2.765)" fill="#fc5b63"/>
                </g>
              </g>
              <g id="Grupo_1204885" data-name="Grupo 1204885" transform="translate(26.358 10.581)">
                <g id="Grupo_1204884" data-name="Grupo 1204884" transform="translate(0)">
                  <circle id="Elipse_12701" data-name="Elipse 12701" cx="3.701" cy="3.701" r="3.701"/>
                </g>
              </g>
            </g>
            <g id="Grupo_1204888" data-name="Grupo 1204888" transform="translate(16.615)">
              <g id="Grupo_1204887" data-name="Grupo 1204887">
                <path id="Trazado_1044940" data-name="Trazado 1044940" d="M18.141,22.816a.579.579,0,0,1-.336-.785,173.623,173.623,0,0,0,7.178-19.29.532.532,0,1,1,1.009.336,167.982,167.982,0,0,1-7.29,19.4c.112.336-.224.449-.561.336Z" transform="translate(-17.762 -2.362)"/>
              </g>
            </g>
            <g id="Grupo_1204890" data-name="Grupo 1204890" transform="translate(41.749 23.663)">
              <g id="Grupo_1204889" data-name="Grupo 1204889">
                <path id="Trazado_1044941" data-name="Trazado 1044941" d="M40.2,69.934a.545.545,0,0,1,.336-.673c6.056-1.907,20.075-8.972,24.224-12.336,3.028-2.467,2.692-3.925.785-7.738-1.009-2.019.112.336-11.1-24.9-.112-.336,0-.561.336-.785.336-.112.561,0,.785.336,11.215,25.121,10.093,22.878,11.1,24.785,2.131,4.15,2.579,6.28-1.009,9.2C61.4,61.3,47.381,68.364,41.1,70.383A1,1,0,0,1,40.2,69.934Z" transform="translate(-40.173 -23.462)"/>
              </g>
            </g>
            <g id="Grupo_1204892" data-name="Grupo 1204892" transform="translate(0 32.2)">
              <g id="Grupo_1204891" data-name="Grupo 1204891">
                <path id="Trazado_1044942" data-name="Trazado 1044942" d="M21.175,70.243c-3.14-.561-6.392-.673-9.42-1.009-3.589-.336-6.729-.224-8.187-4.15-1.009-2.579-.561-5.5-.224-7.85L6.932,31.552A.494.494,0,0,1,7.6,31.1a.494.494,0,0,1,.449.673l-3.7,25.57c-.336,2.355-.673,5.047.224,7.29C5.81,68,8.5,67.776,11.866,68.112c3.14.336,6.392.561,9.533,1.121a.494.494,0,0,1,.449.673C21.735,70.131,21.4,70.355,21.175,70.243Z" transform="translate(-2.947 -31.074)"/>
              </g>
            </g>
            <g id="Grupo_1204894" data-name="Grupo 1204894" transform="translate(38.273 30.434)">
              <g id="Grupo_1204893" data-name="Grupo 1204893">
                <path id="Trazado_1044943" data-name="Trazado 1044943" d="M37.1,51.93l4.822-21.981a.572.572,0,0,1,1.121.224L38.225,52.154C38,52.939,36.879,52.715,37.1,51.93Z" transform="translate(-37.074 -29.5)"/>
              </g>
            </g>
            <g id="Grupo_1204896" data-name="Grupo 1204896" transform="translate(29.662 33.9)">
              <g id="Grupo_1204895" data-name="Grupo 1204895">
                <path id="Trazado_1044944" data-name="Trazado 1044944" d="M29.625,38.209a5.351,5.351,0,0,1,.561-4.374c1.458-2.019,4.374-1.346,5.832.336a4.352,4.352,0,0,1,.9,3.477c-.9,3.477-5.944,4.822-7.29.561Zm1.458-3.7a4.349,4.349,0,0,0-.449,3.364c1.009,3.14,4.6,1.907,5.047-.449a2.77,2.77,0,0,0-.561-2.467c-1.009-1.234-3.14-1.794-4.037-.449Z" transform="translate(-29.396 -32.59)"/>
              </g>
            </g>
            <g id="Grupo_1204898" data-name="Grupo 1204898" transform="translate(44.038 39.218)">
              <g id="Grupo_1204897" data-name="Grupo 1204897">
                <path id="Trazado_1044945" data-name="Trazado 1044945" d="M42.983,43.689a3.8,3.8,0,0,1-.336-4.037,4.127,4.127,0,0,1,7.29-.224,4.278,4.278,0,0,1-1.458,5.5,4.332,4.332,0,0,1-5.5-1.234Zm.673-3.589a2.791,2.791,0,0,0,.224,2.916,3.117,3.117,0,0,0,4.037.9,3.036,3.036,0,0,0,1.009-3.925A2.97,2.97,0,0,0,43.656,40.1Z" transform="translate(-42.214 -37.332)"/>
              </g>
            </g>
          </g>
          <g id="Grupo_1204901" data-name="Grupo 1204901" transform="translate(5.493)">
            <g id="Grupo_1204900" data-name="Grupo 1204900">
              <path id="Trazado_1044946" data-name="Trazado 1044946" d="M12.393,19.631a.412.412,0,0,1-.336-.112,13.136,13.136,0,0,1-4.037-7.4C6.673,3.481,13.29-1.453,22.486,4.266A32.883,32.883,0,0,1,34.262,16.939a.577.577,0,0,1-1.009.561A31.248,31.248,0,0,0,21.925,5.276C13.626,0,7.907,4.154,9.14,11.892a12.183,12.183,0,0,0,3.7,6.729.542.542,0,0,1,0,.785.583.583,0,0,1-.449.224Z" transform="translate(-7.845 -1.807)"/>
            </g>
          </g>
        </g>
        <g id="Grupo_1204904" data-name="Grupo 1204904" transform="translate(54.819 4.379)">
          <g id="Grupo_1204903" data-name="Grupo 1204903">
            <path id="Trazado_1044947" data-name="Trazado 1044947" d="M49.761,10.492a.53.53,0,0,1-.561-.561V4.661a.561.561,0,1,1,1.121,0V9.932A.6.6,0,0,1,49.761,10.492Z" transform="translate(-49.2 -4.1)"/>
          </g>
        </g>
        <g id="Grupo_1204906" data-name="Grupo 1204906" transform="translate(57.691 8.933)">
          <g id="Grupo_1204905" data-name="Grupo 1204905">
            <path id="Trazado_1044948" data-name="Trazado 1044948" d="M52.029,12.13a.693.693,0,0,1-.224-.785L53.6,8.429a.693.693,0,0,1,.785-.224.693.693,0,0,1,.224.785l-1.794,2.916C52.7,12.242,52.366,12.242,52.029,12.13Z" transform="translate(-51.761 -8.161)"/>
          </g>
        </g>
        <g id="Grupo_1204908" data-name="Grupo 1204908" transform="translate(59.612 15.117)">
          <g id="Grupo_1204907" data-name="Grupo 1204907">
            <path id="Trazado_1044949" data-name="Trazado 1044949" d="M57.092,14.937a6.4,6.4,0,0,0-2.916,0,.532.532,0,0,1-.336-1.009,6.114,6.114,0,0,1,3.477,0,.5.5,0,0,1,.336.673A.379.379,0,0,1,57.092,14.937Z" transform="translate(-53.473 -13.675)"/>
          </g>
        </g>
      </g>
    </g>
  </g>
</svg>
