<svg xmlns="http://www.w3.org/2000/svg" xmlns:xlink="http://www.w3.org/1999/xlink" width="208" height="147.285" viewBox="0 0 208 147.285">
  <defs>
    <filter id="Rect치ngulo_416684" x="0" y="8.523" width="208" height="129.956" filterUnits="userSpaceOnUse">
      <feOffset dy="3" input="SourceAlpha"/>
      <feGaussianBlur stdDeviation="3" result="blur"/>
      <feFlood flood-opacity="0.161"/>
      <feComposite operator="in" in2="blur"/>
      <feComposite in="SourceGraphic"/>
    </filter>
  </defs>
  <g id="Grupo_1204873" data-name="Grupo 1204873" transform="translate(-171 -3024.871)">
    <g transform="matrix(1, 0, 0, 1, 171, 3024.87)" filter="url(#Rect치ngulo_416684)">
      <rect id="Rect치ngulo_416684-2" data-name="Rect치ngulo 416684" width="190" height="111.956" rx="20" transform="translate(9 14.52)" fill="#004a54"/>
    </g>
    <g id="_x33_0" transform="translate(198.66 3018.071)">
      <g id="Grupo_1204866" data-name="Grupo 1204866" transform="translate(2 6.8)">
        <g id="Grupo_1204863" data-name="Grupo 1204863">
          <g id="Grupo_1204845" data-name="Grupo 1204845" transform="translate(0 4.333)">
            <g id="Grupo_1204844" data-name="Grupo 1204844">
              <g id="Grupo_1204837" data-name="Grupo 1204837">
                <g id="Grupo_1204828" data-name="Grupo 1204828" transform="translate(0 0.114)">
                  <g id="Grupo_1204827" data-name="Grupo 1204827">
                    <path id="Trazado_1044913" data-name="Trazado 1044913" d="M72.419,149.437A70.452,70.452,0,0,1,2,79.018,84.964,84.964,0,0,1,3.625,63.309,18.4,18.4,0,0,1,4.438,60.6c.271-1.9,2.979-9.209,5.146-13.271,24.105-48.481,92.358-52.544,122.15-7.042,30.334,46.314-3.25,109.15-59.315,109.15Z" transform="translate(-2 -8.442)" fill="#31caff"/>
                  </g>
                </g>
                <g id="Grupo_1204830" data-name="Grupo 1204830" transform="translate(108.697 15.167)">
                  <g id="Grupo_1204829" data-name="Grupo 1204829">
                    <path id="Trazado_1044914" data-name="Trazado 1044914" d="M74.274,66.814C65.066,63.835,56.4,58.689,50.44,51.376c-7.854-9.75-9.75-21.938-7.313-30.064.813-2.438,2.438-4.875,3.25-7.313A18.384,18.384,0,0,0,48,28.626c2.438,4.6,6.229,8.125,10.292,11.1a34.715,34.715,0,0,0,12.188,6.229A76.691,76.691,0,0,1,74.274,66.814Z" transform="translate(-42.133 -14)"/>
                  </g>
                </g>
                <g id="Grupo_1204832" data-name="Grupo 1204832" transform="translate(69.897 67.173)">
                  <g id="Grupo_1204831" data-name="Grupo 1204831">
                    <path id="Trazado_1044915" data-name="Trazado 1044915" d="M98.207,46.74a70.676,70.676,0,0,1-67.169,60.4c-5.959-10.021-4.063-22.48,8.938-24.647,7.313-1.083,16.521,2.438,22.751-2.167,3.25-2.167,4.875-7.042,2.708-10.292C63,66.241,57.581,66.782,52.976,65.7A17.07,17.07,0,0,1,40.247,49.99c0-7.313,5.146-14.355,11.917-16.251a17.134,17.134,0,0,1,18.688,7.584c1.9,3.25,2.979,7.313,6.5,8.667,7.042,2.438,13.542-9.48,20.855-3.25Z" transform="translate(-27.807 -33.201)" fill="#32ce5a"/>
                  </g>
                </g>
                <g id="Grupo_1204834" data-name="Grupo 1204834" transform="translate(63.639)">
                  <g id="Grupo_1204833" data-name="Grupo 1204833">
                    <path id="Trazado_1044916" data-name="Trazado 1044916" d="M91.32,40.63a13.03,13.03,0,0,1-2.438,2.979c-2.979,2.979-7.313,4.6-11.375,3.25-3.792-1.083-6.229-4.6-9.209-7.313s-7.313-4.875-10.834-2.979c-3.521,2.167-3.792,7.042-5.146,10.834-2.167,6.229-8.125,10.834-14.626,10.563S25.235,51.735,25.506,45.506c.271-7.854,7.584-13,12.73-18.688,6.229-6.5,5.146-13.542-1.083-18.417A71.089,71.089,0,0,1,91.32,40.63Z" transform="translate(-25.497 -8.4)" fill="#32ce5a"/>
                  </g>
                </g>
                <g id="Grupo_1204836" data-name="Grupo 1204836" transform="translate(0 34.092)">
                  <g id="Grupo_1204835" data-name="Grupo 1204835">
                    <path id="Trazado_1044917" data-name="Trazado 1044917" d="M55.356,101.733c-1.625,3.521-6.229,4.6-10.021,3.792s-7.042-2.979-10.292-5.146c-4.063-2.708-15.98-7.042-17.6,1.083A69.227,69.227,0,0,1,2,57.585,69.238,69.238,0,0,1,3.625,42.147a12.184,12.184,0,0,1,.542-2.167c.271-1.625,2.167-4.6,2.167-7.042a60.23,60.23,0,0,1,2.979-6.771c1.083.271,2.438-.542,3.25-1.354,3.25-3.521,9.75-5.688,13.542-1.625,3.521,3.521,1.625,9.48,0,14.084s-2.979,10.834.813,14.084c4.333,3.521,12.459,1.083,14.626,6.229,1.354,2.979-.813,6.5-3.25,8.667s-5.417,4.063-6.5,7.313c-1.354,4.333,2.167,8.938,6.229,11.1s8.667,3.25,12.459,5.688c4.063,2.167,7.042,7.313,4.875,11.375Z" transform="translate(-2 -20.988)" fill="#32ce5a"/>
                  </g>
                </g>
              </g>
              <g id="Grupo_1204839" data-name="Grupo 1204839" transform="translate(6.476 32.966)">
                <g id="Grupo_1204838" data-name="Grupo 1204838">
                  <path id="Trazado_1044918" data-name="Trazado 1044918" d="M45.313,107.86c-7.313,0-11.375-3.521-17.063-6.5-3.25-1.625-11.1-4.875-13.813.542-.271.813-1.083,1.083-1.625.542a1.554,1.554,0,0,1-.542-1.9c2.708-5.146,8.938-5.959,17.334-1.625,3.25,1.625,6.229,3.521,9.48,4.875,4.063,1.625,11.375,2.167,12.73-2.167C52.9,97.839,49.375,92.964,46.4,90.8,42.875,88.359,38.542,87,34.479,85.109c-5.688-2.438-8.667-5.959-8.4-10.021s4.063-6.5,7.313-8.667c1.354-.813,5.417-3.792,4.333-7.042-1.9-5.417-12.188-1.354-16.251-7.854-3.792-5.959,2.979-12.73,2.438-20.584-.271-2.979-1.625-6.5-4.6-7.584a7.93,7.93,0,0,0-6.5.542,32.136,32.136,0,0,0-6.229,4.333,1.354,1.354,0,0,1-1.625-2.167c1.9-1.354,4.063-3.25,6.5-4.333,7.854-3.521,14.626,1.354,15.167,9.48.542,8.4-5.688,15.167-2.979,19.23,3.25,4.875,14.084.813,16.521,8.4,1.083,3.25-.813,7.042-5.417,10.021l-.271.271c-2.708,1.9-5.417,3.792-5.688,6.5-.271,3.792,4.6,6.229,6.771,7.313,4.063,1.625,8.667,2.979,12.459,5.959,6.229,4.6,9.75,14.626,2.979,18.146a20.618,20.618,0,0,1-5.688.813Z" transform="translate(-4.391 -20.572)"/>
                </g>
              </g>
              <g id="Grupo_1204841" data-name="Grupo 1204841" transform="translate(67.104 65.299)">
                <g id="Grupo_1204840" data-name="Grupo 1204840">
                  <path id="Trazado_1044919" data-name="Trazado 1044919" d="M31.445,105.611a13.222,13.222,0,0,1,2.167-21.667c9.209-4.875,21.4,2.438,29.522-3.521,2.979-2.167,4.333-7.042,2.167-9.75-2.708-3.25-8.667-2.167-13.542-3.792-6.5-2.167-10.834-9.75-9.75-17.334,2.167-13.813,20.313-21.667,28.168-14.084,2.708,2.708,3.521,6.229,4.875,9.48.542,1.354,2.708,5.417,5.959,5.417,2.438,0,4.333-1.9,6.771-3.521,6.5-4.063,11.646.813,9.209,2.438a1.338,1.338,0,0,1-1.9-.271c-1.083-1.625-4.063-.813-5.959.271C86.7,50.9,84.26,53.338,81.01,53.338c-.271,0-5.146.542-8.4-7.042-1.354-3.25-2.167-6.5-4.333-8.667-6.5-6.229-21.938,1.083-23.834,12.73-1.083,6.229,2.708,12.459,7.854,14.084,4.6,1.625,11.1.271,14.626,4.6,3.521,4.063,1.625,10.563-2.438,13.813-9.209,6.771-21.4-.542-29.793,3.792a10.455,10.455,0,0,0-1.9,17.063,1.668,1.668,0,0,1,.271,1.9A1.7,1.7,0,0,1,31.445,105.611Z" transform="translate(-26.776 -32.51)"/>
                </g>
              </g>
              <g id="Grupo_1204843" data-name="Grupo 1204843" transform="translate(61.804 11.926)">
                <g id="Grupo_1204842" data-name="Grupo 1204842">
                  <path id="Trazado_1044920" data-name="Trazado 1044920" d="M41.831,51.525c-10.834,0-18.417-9.75-16.792-17.876,2.167-9.75,14.084-12.188,17.6-20.042a1.334,1.334,0,1,1,2.438,1.083c-3.792,8.4-15.438,11.375-17.334,19.5-1.083,5.146,2.438,10.292,6.5,12.73,5.146,2.979,13,2.979,16.251-2.167,1.354-2.167,1.9-4.6,2.438-7.584s1.083-5.959,2.708-8.667,4.875-5.146,8.4-4.333c3.521.542,5.417,3.521,7.313,6.229a28.373,28.373,0,0,0,2.167,2.979,10.984,10.984,0,0,0,8.4,3.521c3.25,0,6.5-1.083,8.4-3.25a1.341,1.341,0,0,1,1.9,1.9c-2.438,2.708-6.5,4.063-10.292,4.063A13.156,13.156,0,0,1,71.623,35c-2.979-3.25-4.6-7.854-8.125-8.667a6.081,6.081,0,0,0-5.688,3.25c-1.354,2.167-1.9,4.875-2.438,7.584a21.943,21.943,0,0,1-2.979,8.667c-1.9,4.063-6.229,5.688-10.563,5.688Z" transform="translate(-24.819 -12.803)"/>
                </g>
              </g>
            </g>
          </g>
          <g id="Grupo_1204860" data-name="Grupo 1204860" transform="translate(110.775 1.354)">
            <g id="Grupo_1204847" data-name="Grupo 1204847" transform="translate(5.146 0.813)">
              <g id="Grupo_1204846" data-name="Grupo 1204846">
                <circle id="Elipse_12698" data-name="Elipse 12698" cx="28.709" cy="28.709" r="28.709"/>
              </g>
            </g>
            <g id="Grupo_1204849" data-name="Grupo 1204849">
              <g id="Grupo_1204848" data-name="Grupo 1204848">
                <circle id="Elipse_12699" data-name="Elipse 12699" cx="28.709" cy="28.709" r="28.709" fill="#fce67a"/>
              </g>
            </g>
            <g id="Grupo_1204851" data-name="Grupo 1204851" transform="translate(8.396 8.396)">
              <g id="Grupo_1204850" data-name="Grupo 1204850">
                <circle id="Elipse_12700" data-name="Elipse 12700" cx="20.313" cy="20.313" r="20.313" fill="#ffdc00"/>
              </g>
            </g>
            <g id="Grupo_1204859" data-name="Grupo 1204859" transform="translate(20.28 12.73)">
              <g id="Grupo_1204854" data-name="Grupo 1204854" transform="translate(0 2.673)">
                <g id="Grupo_1204853" data-name="Grupo 1204853">
                  <g id="Grupo_1204852" data-name="Grupo 1204852">
                    <path id="Trazado_1044921" data-name="Trazado 1044921" d="M55.3,34.96c3.521.542,7.313-.542,7.042-3.792-.271-2.167-1.625-2.979-4.875-4.063-4.333-1.083-6.771-3.25-7.042-6.229-.542-5.688,5.688-8.938,11.646-7.584.813.271,2.167.271,2.438,1.354a1.706,1.706,0,0,1-.813,2.167c-.813.271-1.625-.271-2.438-.271-3.25-.813-7.042.271-6.771,3.521.542,4.875,11.1,2.167,11.917,10.292.542,6.5-6.5,9.209-12.73,7.854-1.354-.271-2.708-.542-2.708-2.167A1.407,1.407,0,0,1,51.5,34.96C52.317,33.877,54.213,34.69,55.3,34.96Z" transform="translate(-50.388 -12.987)" fill="#fff"/>
                  </g>
                </g>
              </g>
              <g id="Grupo_1204856" data-name="Grupo 1204856" transform="translate(6.804)">
                <g id="Grupo_1204855" data-name="Grupo 1204855">
                  <path id="Trazado_1044922" data-name="Trazado 1044922" d="M52.9,15.792V13.083c0-.813,0-1.083.813-1.083.542,0,1.354,0,1.625.271s.271.271,0,3.792" transform="translate(-52.9 -12)" fill="#fff"/>
                </g>
              </g>
              <g id="Grupo_1204858" data-name="Grupo 1204858" transform="translate(5.721 26.272)">
                <g id="Grupo_1204857" data-name="Grupo 1204857">
                  <path id="Trazado_1044923" data-name="Trazado 1044923" d="M52.5,21.971v2.708c0,.813,0,1.083.813,1.083.542.271,1.354.271,1.625-.271.271-.271.271-.271.271-3.792" transform="translate(-52.5 -21.7)" fill="#fff"/>
                </g>
              </g>
            </g>
          </g>
          <g id="Grupo_1204862" data-name="Grupo 1204862" transform="translate(109.962)">
            <g id="Grupo_1204861" data-name="Grupo 1204861">
              <path id="Trazado_1044924" data-name="Trazado 1044924" d="M43.683,32.259A1.485,1.485,0,0,1,42.6,30.634,30.847,30.847,0,0,1,70.768,6.8a1.279,1.279,0,0,1,1.354,1.354,1.279,1.279,0,0,1-1.354,1.354A27.675,27.675,0,0,0,45.308,31.176,1.485,1.485,0,0,1,43.683,32.259Z" transform="translate(-42.6 -6.8)"/>
            </g>
          </g>
        </g>
        <g id="Grupo_1204865" data-name="Grupo 1204865" transform="translate(0.375 30.741)">
          <g id="Grupo_1204864" data-name="Grupo 1204864">
            <path id="Trazado_1044925" data-name="Trazado 1044925" d="M46.994,131.227C30.2,125.539,16.118,113.081,8.805,97.913,3.659,87.35,1.492,74.35,2.3,60,3.117,42.12,7.722,28.307,16.66,18.556a1.341,1.341,0,1,1,1.9,1.9c-8.4,9.209-13,22.48-13.542,39.543-.542,13.813,1.625,26.272,6.229,36.564a63.737,63.737,0,0,0,36.564,31.959,72.717,72.717,0,0,0,49.023-1.625,1.285,1.285,0,0,1,.813,2.438,75.866,75.866,0,0,1-50.648,1.9Z" transform="translate(-2.139 -18.15)"/>
          </g>
        </g>
      </g>
      <g id="Grupo_1204868" data-name="Grupo 1204868" transform="translate(5.614 22.06)">
        <g id="Grupo_1204867" data-name="Grupo 1204867">
          <path id="Trazado_1044926" data-name="Trazado 1044926" d="M10.825,18.029a15.379,15.379,0,0,1-7.042-3.25,1.668,1.668,0,0,1-.271-1.9,1.668,1.668,0,0,1,1.9-.271,12.024,12.024,0,0,0,5.959,2.708,1.193,1.193,0,0,1,1.083,1.625c-.271.813-1.083,1.354-1.625,1.083Z" transform="translate(-3.334 -12.434)"/>
        </g>
      </g>
      <g id="Grupo_1204870" data-name="Grupo 1204870" transform="translate(14.086 11.303)">
        <g id="Grupo_1204869" data-name="Grupo 1204869">
          <path id="Trazado_1044927" data-name="Trazado 1044927" d="M13.064,19.127a19.682,19.682,0,0,1-6.5-8.938,1.136,1.136,0,0,1,.813-1.625A1.136,1.136,0,0,1,9,9.377a15.725,15.725,0,0,0,5.688,7.584,1.338,1.338,0,0,1,.271,1.9,1.668,1.668,0,0,1-1.9.271Z" transform="translate(-6.462 -8.462)"/>
        </g>
      </g>
      <g id="Grupo_1204872" data-name="Grupo 1204872" transform="translate(25.293 7.613)">
        <g id="Grupo_1204871" data-name="Grupo 1204871">
          <path id="Trazado_1044928" data-name="Trazado 1044928" d="M11.954,16.58,10.6,8.725A1.485,1.485,0,0,1,11.683,7.1a1.485,1.485,0,0,1,1.625,1.083l1.354,7.854a1.485,1.485,0,0,1-1.083,1.625A1.485,1.485,0,0,1,11.954,16.58Z" transform="translate(-10.6 -7.1)"/>
        </g>
      </g>
    </g>
  </g>
</svg>
