<svg xmlns="http://www.w3.org/2000/svg" xmlns:xlink="http://www.w3.org/1999/xlink" width="113" height="113" viewBox="0 0 113 113">
  <defs>
    <filter id="Trazado_982547" x="0" y="0" width="113" height="113" filterUnits="userSpaceOnUse">
      <feOffset dy="3" input="SourceAlpha"/>
      <feGaussianBlur stdDeviation="3" result="blur"/>
      <feFlood flood-opacity="0.161"/>
      <feComposite operator="in" in2="blur"/>
      <feComposite in="SourceGraphic"/>
    </filter>
  </defs>
  <g id="Grupo_1201830" data-name="Grupo 1201830" transform="translate(-146.239 -4239.288)">
    <g id="Grupo_1184832" data-name="Grupo 1184832" transform="translate(155.239 4245.288)">
      <g id="Grupo_1183751" data-name="Grupo 1183751">
        <g id="Grupo_1173793" data-name="Grupo 1173793">
          <g id="Grupo_1167519" data-name="Grupo 1167519">
            <g id="Grupo_1166845" data-name="Grupo 1166845">
              <g id="Grupo_1166720" data-name="Grupo 1166720">
                <g id="Grupo_1164305" data-name="Grupo 1164305">
                  <g id="Grupo_1163948" data-name="Grupo 1163948">
                    <g id="Grupo_1158168" data-name="Grupo 1158168">
                      <g id="Grupo_1152576" data-name="Grupo 1152576">
                        <g id="Grupo_1148633" data-name="Grupo 1148633">
                          <g id="Grupo_1148525" data-name="Grupo 1148525">
                            <g transform="matrix(1, 0, 0, 1, -9, -6)" filter="url(#Trazado_982547)">
                              <g id="Trazado_982547-2" data-name="Trazado 982547" transform="translate(9 6)" fill="#e4f2f4">
                                <path d="M 47.5 93.5 C 41.28937149047852 93.5 35.26533508300781 92.28397369384766 29.59518623352051 89.88570404052734 C 24.11771965026855 87.56893157958984 19.19813346862793 84.25196075439453 14.97309303283691 80.02691650390625 C 10.74804019927979 75.80186462402344 7.431066513061523 70.88229370117188 5.114293098449707 65.40481567382812 C 2.716026782989502 59.73468017578125 1.5 53.71062850952148 1.5 47.5 C 1.5 41.28937149047852 2.716026782989502 35.26533508300781 5.114293098449707 29.59518623352051 C 7.431066513061523 24.11771965026855 10.74804019927979 19.19813346862793 14.97309303283691 14.97309303283691 C 19.19813346862793 10.74804019927979 24.11771965026855 7.431066513061523 29.59518623352051 5.114293098449707 C 35.26533508300781 2.716026782989502 41.28937149047852 1.5 47.5 1.5 C 53.71062850952148 1.5 59.73468017578125 2.716026782989502 65.40481567382812 5.114293098449707 C 70.88229370117188 7.431066513061523 75.80186462402344 10.74804019927979 80.02691650390625 14.97309303283691 C 84.25196075439453 19.19813346862793 87.56893157958984 24.11771965026855 89.88570404052734 29.59518623352051 C 92.28397369384766 35.26533508300781 93.5 41.28937149047852 93.5 47.5 C 93.5 53.71062850952148 92.28397369384766 59.73468017578125 89.88570404052734 65.40481567382812 C 87.56893157958984 70.88229370117188 84.25196075439453 75.80186462402344 80.02691650390625 80.02691650390625 C 75.80186462402344 84.25196075439453 70.88229370117188 87.56893157958984 65.40481567382812 89.88570404052734 C 59.73468017578125 92.28397369384766 53.71062850952148 93.5 47.5 93.5 Z" stroke="none"/>
                                <path d="M 47.5 3 C 41.49121475219727 3 35.66376876831055 4.176155090332031 30.17950439453125 6.495796203613281 C 24.88084411621094 8.736953735351562 20.12152099609375 11.94598388671875 16.03375244140625 16.03375244140625 C 11.94598388671875 20.12152099609375 8.736953735351562 24.88084411621094 6.495796203613281 30.17950439453125 C 4.176155090332031 35.66376876831055 3 41.49121475219727 3 47.5 C 3 53.50878524780273 4.176155090332031 59.33623123168945 6.495796203613281 64.82049560546875 C 8.736953735351562 70.11915588378906 11.94598388671875 74.87847900390625 16.03375244140625 78.96624755859375 C 20.12152099609375 83.05401611328125 24.88084411621094 86.26304626464844 30.17950439453125 88.50419616699219 C 35.66376876831055 90.82384490966797 41.49121475219727 92 47.5 92 C 53.50878524780273 92 59.33623123168945 90.82384490966797 64.82049560546875 88.50419616699219 C 70.11915588378906 86.26304626464844 74.87847900390625 83.05401611328125 78.96624755859375 78.96624755859375 C 83.05401611328125 74.87847900390625 86.26304626464844 70.11915588378906 88.50419616699219 64.82049560546875 C 90.82384490966797 59.33623123168945 92 53.50878524780273 92 47.5 C 92 41.49121475219727 90.82384490966797 35.66376876831055 88.50419616699219 30.17950439453125 C 86.26304626464844 24.88084411621094 83.05401611328125 20.12152099609375 78.96624755859375 16.03375244140625 C 74.87847900390625 11.94598388671875 70.11915588378906 8.736953735351562 64.82049560546875 6.495796203613281 C 59.33623123168945 4.176155090332031 53.50878524780273 3 47.5 3 M 47.5 0 C 73.7335205078125 0 95 21.2664794921875 95 47.5 C 95 73.7335205078125 73.7335205078125 95 47.5 95 C 21.2664794921875 95 0 73.7335205078125 0 47.5 C 0 21.2664794921875 21.2664794921875 0 47.5 0 Z" stroke="none" fill="#01899b"/>
                              </g>
                            </g>
                          </g>
                        </g>
                      </g>
                    </g>
                  </g>
                </g>
              </g>
            </g>
          </g>
        </g>
      </g>
    </g>
    <g id="dolar" transform="translate(171.892 4261.941)">
      <g id="Grupo_1201145" data-name="Grupo 1201145" transform="translate(0.904 0.895)">
        <g id="Grupo_1201142" data-name="Grupo 1201142" transform="translate(0 16.868)">
          <g id="Grupo_1201141" data-name="Grupo 1201141">
            <g id="Grupo_1201139" data-name="Grupo 1201139">
              <path id="Trazado_1042716" data-name="Trazado 1042716" d="M34.794,190.44h-11a33.462,33.462,0,0,1,0-6A106.728,106.728,0,0,1,7.5,170.025c.7-11.651.71-11.76.02-22.3-.007-.1-.013-.206-.02-.311,6.519,0,6.522,4.1,6.522,17.682l3.34,3.047h0c3.881-2.9,7.049.631,17.362,9.608A80.32,80.32,0,0,1,34.794,190.44Z" transform="translate(-7.5 -147.412)" fill="#ffe6c7"/>
              <path id="Trazado_1042717" data-name="Trazado 1042717" d="M95.207,334.5H91.873a94.4,94.4,0,0,0-.307-11.276c-6.532-7.371-10.523-10.006-15.375-9.543l1.586-1.48h0c3.881-2.9,7.049.631,17.362,9.608A80.323,80.323,0,0,1,95.207,334.5Z" transform="translate(-67.913 -291.471)" fill="#ffd5b0"/>
              <path id="Trazado_1042718" data-name="Trazado 1042718" d="M43.414,196.022c.381-7.035,1.561-16.224-5.1-16.224H36v16.2Z" transform="translate(-32.568 -175.896)" fill="#ffe6c7"/>
              <path id="Trazado_1042719" data-name="Trazado 1042719" d="M17.363,168.141c-7.547.564-6.444-5.042-6.444-8.741,0-7.066-.78-10.543-3.4-11.677-.007-.1-.013-.206-.02-.311,6.519,0,6.522,4.1,6.522,17.682Z" transform="translate(-7.5 -147.412)" fill="#ffd5b0"/>
            </g>
            <g id="Grupo_1201140" data-name="Grupo 1201140" transform="translate(32.377)">
              <path id="Trazado_1042720" data-name="Trazado 1042720" d="M276.409,190.44h11a33.463,33.463,0,0,0,0-6A106.735,106.735,0,0,0,303.7,170.025c-.7-11.651-.71-11.76-.02-22.3.007-.1.013-.206.02-.311-6.519,0-6.522,4.1-6.522,17.682l-3.34,3.047h0c-3.881-2.9-7.049.631-17.362,9.608A80.322,80.322,0,0,0,276.409,190.44Z" transform="translate(-276.193 -147.412)" fill="#ffe6c7"/>
              <path id="Trazado_1042721" data-name="Trazado 1042721" d="M276.409,334.5h3.334a94.394,94.394,0,0,1,.307-11.276c6.532-7.371,10.523-10.006,15.375-9.543l-1.586-1.48h0c-3.881-2.9-7.049.631-17.362,9.608A80.325,80.325,0,0,0,276.409,334.5Z" transform="translate(-276.193 -291.471)" fill="#ffd5b0"/>
              <path id="Trazado_1042722" data-name="Trazado 1042722" d="M412.083,196.022c-.381-7.035-1.561-16.224,5.1-16.224H419.5v16.2Z" transform="translate(-395.42 -175.896)" fill="#ffe6c7"/>
              <path id="Trazado_1042723" data-name="Trazado 1042723" d="M422.647,168.141c7.547.564,6.444-5.042,6.444-8.741,0-7.066.78-10.543,3.4-11.677.007-.1.013-.206.02-.311-6.519,0-6.522,4.1-6.522,17.682Z" transform="translate(-405 -147.412)" fill="#ffd5b0"/>
            </g>
          </g>
        </g>
        <g id="Grupo_1201144" data-name="Grupo 1201144" transform="translate(13.394)">
          <g id="Grupo_1201143" data-name="Grupo 1201143">
            <path id="Trazado_1042724" data-name="Trazado 1042724" d="M151.873,24.031a16.605,16.605,0,0,1-16.607,16.6q-.761,0-1.506-.067a16.6,16.6,0,0,1,0-33.073q.745-.067,1.506-.067A16.606,16.606,0,0,1,151.873,24.031Z" transform="translate(-118.659 -7.427)" fill="#fff18d"/>
            <path id="Trazado_1042725" data-name="Trazado 1042725" d="M262.092,24.031a16.605,16.605,0,0,1-16.607,16.6q-.761,0-1.506-.067a16.6,16.6,0,0,0,0-33.073q.745-.067,1.506-.067A16.606,16.606,0,0,1,262.092,24.031Z" transform="translate(-228.878 -7.427)" fill="#ffd366"/>
          </g>
          <path id="Trazado_1042726" data-name="Trazado 1042726" d="M183.349,60.5A11.615,11.615,0,1,1,171.739,48.9,11.609,11.609,0,0,1,183.349,60.5Z" transform="translate(-155.132 -43.9)" fill="#ffd366"/>
          <path id="Trazado_1042727" data-name="Trazado 1042727" d="M255.336,60.5a11.615,11.615,0,0,1-13.357,11.476,11.608,11.608,0,0,0,0-22.952A11.615,11.615,0,0,1,255.336,60.5Z" transform="translate(-227.119 -43.9)" fill="#ffaf5f"/>
        </g>
      </g>
      <g id="Grupo_1201146" data-name="Grupo 1201146" transform="translate(0 0)">
        <path id="Trazado_1042728" data-name="Trazado 1042728" d="M365.5,426.679c-1.12.871-2.245,1.7-3.344,2.478a.9.9,0,0,0-.379.828,32.571,32.571,0,0,1,0,5.8.9.9,0,0,0,.8,1,.926.926,0,0,0,.1.006.9.9,0,0,0,.9-.8,33.01,33.01,0,0,0,.045-5.653c.987-.7,1.99-1.453,2.99-2.23a.9.9,0,1,0-1.11-1.427Z" transform="translate(-318.183 -375.098)"/>
        <path id="Trazado_1042729" data-name="Trazado 1042729" d="M298,163.8a204.115,204.115,0,0,1,0-22.471.9.9,0,0,0-.9-.963c-3.495,0-5.443,1.181-6.421,3.927a5.284,5.284,0,0,0-3.5,1.627c-2.635,2.8-2.277,8.614-1.962,13.742q.014.229.028.457a5.445,5.445,0,0,0-2.917.453c-2.435,1.011-5.284,3.511-10,7.655-.959.842-1.951,1.713-3.041,2.661a.9.9,0,0,0-.306.591,80.256,80.256,0,0,0-.07,12.835.9.9,0,0,0,.9.835l.07,0a.9.9,0,0,0,.833-.97,81.153,81.153,0,0,1,.034-12.163c.986-.859,1.893-1.655,2.773-2.428,8.806-7.731,10.8-9.3,14.007-6.182-1.254,1.114-4.061,3.576-7.244,6.156a.9.9,0,0,0,1.138,1.4c4.333-3.512,7.977-6.809,8.014-6.842a.9.9,0,0,0,.06-1.279q-.448-.491-.881-.892l2.576-2.352a.9.9,0,0,0,.294-.667c0-6.661,0-11.062.779-13.658a3.792,3.792,0,0,1,3.883-3.063,208.086,208.086,0,0,0,.033,21.32,108.149,108.149,0,0,1-9.232,8.81.9.9,0,1,0,1.17,1.378,107.311,107.311,0,0,0,9.662-9.261A.9.9,0,0,0,298,163.8Zm-8.329-5.269-2.519,2.3-.06-.036c-.024-.41-.049-.825-.075-1.245-.293-4.762-.625-10.16,1.475-12.393a3.305,3.305,0,0,1,1.7-.962C289.683,148.982,289.672,152.97,289.671,158.528Z" transform="translate(-236.307 -123.45)"/>
        <path id="Trazado_1042730" data-name="Trazado 1042730" d="M181.006,351.482c-1.09-.948-2.082-1.818-3.041-2.66-1.194-1.048-2.321-2.038-3.326-2.9a.9.9,0,0,0-1.177,1.372c1,.855,2.069,1.8,3.31,2.886.88.772,1.787,1.568,2.773,2.427a81.152,81.152,0,0,1,.034,12.163.9.9,0,0,0,.833.97l.07,0a.9.9,0,0,0,.9-.835,80.226,80.226,0,0,0-.07-12.835.9.9,0,0,0-.306-.591Z" transform="translate(-152.284 -304.048)"/>
        <path id="Trazado_1042731" data-name="Trazado 1042731" d="M18.8,162.437c-2.441-1.8-4.324-2.576-6.067-2.316l.031-.506c.318-5.114.678-10.911-1.947-13.7a5.266,5.266,0,0,0-3.488-1.622C6.346,141.543,4.4,140.362.9,140.362a.9.9,0,0,0-.9.9c0,.02,0,.041,0,.061C.708,152.1.708,152.1,0,163.8a.9.9,0,0,0,.227.655,108.942,108.942,0,0,0,16.026,14.235,33.01,33.01,0,0,0,.045,5.653.9.9,0,0,0,.9.8.927.927,0,0,0,.1-.006.9.9,0,0,0,.8-1,32.645,32.645,0,0,1,0-5.8.9.9,0,0,0-.379-.828A107.248,107.248,0,0,1,1.829,163.525c.668-11.062.682-11.523.042-21.319a3.789,3.789,0,0,1,3.873,3.063c.779,2.6.779,7,.779,13.658a.9.9,0,0,0,.294.667l2.576,2.351q-.434.4-.88.892a.9.9,0,0,0,.06,1.279c.036.033,3.681,3.33,8.014,6.842a.9.9,0,1,0,1.138-1.4c-3.181-2.579-5.988-5.04-7.242-6.155a4.349,4.349,0,0,1,2.871-1.518c1.1-.027,2.448.595,4.37,2.011a.9.9,0,0,0,1.072-1.455Zm-7.84-2.934q-.041.66-.079,1.3l-.029.018-2.517-2.3c0-5.557-.012-9.545-.517-12.334a3.286,3.286,0,0,1,1.682.956C11.586,149.372,11.251,154.754,10.956,159.5Z" transform="translate(0 -123.449)"/>
        <path id="Trazado_1042732" data-name="Trazado 1042732" d="M155.162,57.82a.9.9,0,0,0-1.685.655,12.511,12.511,0,1,0-.844-4.524.9.9,0,1,0,1.807,0,10.673,10.673,0,1,1,.722,3.87Z" transform="translate(-134.241 -36.451)"/>
        <path id="Trazado_1042733" data-name="Trazado 1042733" d="M146.181,17.5a17.365,17.365,0,0,0-3.309-10.24.9.9,0,1,0-1.465,1.059A15.707,15.707,0,1,1,128.67,1.807a15.73,15.73,0,0,1,10.022,3.61.9.9,0,0,0,1.154-1.391A17.5,17.5,0,1,0,146.181,17.5Z" transform="translate(-97.765 0)"/>
        <path id="Trazado_1042734" data-name="Trazado 1042734" d="M230.179,88.967a1.8,1.8,0,0,1-1.8-1.794.9.9,0,0,0-1.807,0,3.609,3.609,0,0,0,2.7,3.487v1.234a.9.9,0,1,0,1.807,0V90.66a3.6,3.6,0,0,0-.9-7.089,1.794,1.794,0,1,1,1.8-1.794.9.9,0,1,0,1.807,0,3.609,3.609,0,0,0-2.7-3.487V77.056a.9.9,0,1,0-1.807,0V78.29a3.6,3.6,0,0,0,.9,7.089,1.794,1.794,0,1,1,0,3.588Z" transform="translate(-199.273 -66.976)"/>
      </g>
    </g>
  </g>
</svg>
