<svg xmlns="http://www.w3.org/2000/svg" xmlns:xlink="http://www.w3.org/1999/xlink" width="108" height="108" viewBox="0 0 108 108">
  <defs>
    <filter id="Trazado_978624" x="0" y="0" width="108" height="108" filterUnits="userSpaceOnUse">
      <feOffset dy="3" input="SourceAlpha"/>
      <feGaussianBlur stdDeviation="3" result="blur"/>
      <feFlood flood-opacity="0.161"/>
      <feComposite operator="in" in2="blur"/>
      <feComposite in="SourceGraphic"/>
    </filter>
  </defs>
  <g id="Grupo_1202645" data-name="Grupo 1202645" transform="translate(-163 -3877)">
    <g id="Grupo_1201782" data-name="Grupo 1201782" transform="translate(0 -2435.835)">
      <g id="Grupo_1171926" data-name="Grupo 1171926" transform="translate(-11 1511.835)">
        <g id="Grupo_1171925" data-name="Grupo 1171925" transform="translate(-22 -2251)">
          <g id="Grupo_1164524" data-name="Grupo 1164524" transform="translate(205 7058)">
            <g id="Grupo_1144123" data-name="Grupo 1144123">
              <g transform="matrix(1, 0, 0, 1, -9, -6)" filter="url(#Trazado_978624)">
                <g id="Trazado_978624-2" data-name="Trazado 978624" transform="translate(9 6)" fill="#fcf2ec">
                  <path d="M 45 88.5 C 39.12687683105469 88.5 33.43022537231445 87.35007476806641 28.06830024719238 85.08217620849609 C 22.88852500915527 82.89131164550781 18.23629951477051 79.75458526611328 14.2408504486084 75.75914764404297 C 10.24541282653809 71.76370239257812 7.108687400817871 67.11147308349609 4.917825222015381 61.93170166015625 C 2.649924993515015 56.56977462768555 1.5 50.87312316894531 1.5 45 C 1.5 39.12687683105469 2.649924993515015 33.43022537231445 4.917825222015381 28.06830024719238 C 7.108687400817871 22.88852500915527 10.24541282653809 18.23629951477051 14.2408504486084 14.2408504486084 C 18.23629951477051 10.24541282653809 22.88852500915527 7.108687400817871 28.06830024719238 4.917825222015381 C 33.43022537231445 2.649924993515015 39.12687683105469 1.5 45 1.5 C 50.87312316894531 1.5 56.56977462768555 2.649924993515015 61.93170166015625 4.917825222015381 C 67.11147308349609 7.108687400817871 71.76370239257812 10.24541282653809 75.75914764404297 14.2408504486084 C 79.75458526611328 18.23629951477051 82.89131164550781 22.88852500915527 85.08217620849609 28.06830024719238 C 87.35007476806641 33.43022537231445 88.5 39.12687683105469 88.5 45 C 88.5 50.87312316894531 87.35007476806641 56.56977462768555 85.08217620849609 61.93170166015625 C 82.89131164550781 67.11147308349609 79.75458526611328 71.76370239257812 75.75914764404297 75.75914764404297 C 71.76370239257812 79.75458526611328 67.11147308349609 82.89131164550781 61.93170166015625 85.08217620849609 C 56.56977462768555 87.35007476806641 50.87312316894531 88.5 45 88.5 Z" stroke="none"/>
                  <path d="M 45 3 C 39.32871246337891 3 33.82865524291992 4.110054016113281 28.65262985229492 6.299339294433594 C 23.65165710449219 8.414573669433594 19.15968322753906 11.44334411621094 15.301513671875 15.301513671875 C 11.44334411621094 19.15968322753906 8.414573669433594 23.65165710449219 6.299339294433594 28.65262985229492 C 4.110054016113281 33.82865524291992 3 39.32871246337891 3 45 C 3 50.67128753662109 4.110054016113281 56.17134475708008 6.299339294433594 61.34737396240234 C 8.414573669433594 66.34834289550781 11.44334411621094 70.84031677246094 15.301513671875 74.698486328125 C 19.15968322753906 78.55665588378906 23.65165710449219 81.58542633056641 28.65262985229492 83.70066070556641 C 33.82865524291992 85.88994598388672 39.32871246337891 87 45 87 C 50.67128753662109 87 56.17134475708008 85.88994598388672 61.34737396240234 83.70066070556641 C 66.34834289550781 81.58542633056641 70.84031677246094 78.55665588378906 74.698486328125 74.698486328125 C 78.55665588378906 70.84031677246094 81.58542633056641 66.34834289550781 83.70066070556641 61.34737396240234 C 85.88994598388672 56.17134475708008 87 50.67128753662109 87 45 C 87 39.32871246337891 85.88994598388672 33.82865524291992 83.70066070556641 28.65262985229492 C 81.58542633056641 23.65165710449219 78.55665588378906 19.15968322753906 74.698486328125 15.301513671875 C 70.84031677246094 11.44334411621094 66.34834289550781 8.414573669433594 61.34737396240234 6.299339294433594 C 56.17134475708008 4.110054016113281 50.67128753662109 3 45 3 M 45 0 C 69.85281372070312 0 90 20.14718627929688 90 45 C 90 69.85281372070312 69.85281372070312 90 45 90 C 20.14718627929688 90 0 69.85281372070312 0 45 C 0 20.14718627929688 20.14718627929688 0 45 0 Z" stroke="none" fill="#e8864c"/>
                </g>
              </g>
            </g>
          </g>
        </g>
      </g>
    </g>
    <g id="digital-economy" transform="translate(180.308 3889.304)">
      <g id="Grupo_1202643" data-name="Grupo 1202643" transform="translate(9.838 9.842)">
        <g id="Grupo_1202637" data-name="Grupo 1202637" transform="translate(0 9.796)">
          <g id="Grupo_1202636" data-name="Grupo 1202636">
            <path id="Trazado_1043857" data-name="Trazado 1043857" d="M166.137,388.392H149.284c1.345-1.9,2.46-6.808,1.977-10.591h12.78C163.558,381.585,164.793,386.489,166.137,388.392Z" transform="translate(-133.26 -344.099)" fill="#cad0d7" fill-rule="evenodd"/>
            <path id="Trazado_1043858" data-name="Trazado 1043858" d="M108.665,460.451h22.86a2.137,2.137,0,0,1,0,4.274h-22.86a2.137,2.137,0,1,1,0-4.274Z" transform="translate(-95.644 -416.812)" fill="#e4e8eb" fill-rule="evenodd"/>
            <path id="Trazado_1043859" data-name="Trazado 1043859" d="M62.323,97.478a2.579,2.579,0,0,1,2.579,2.579v29a3.51,3.51,0,0,1-3.511,3.511H19.512A3.511,3.511,0,0,1,16,129.059v-28.07a3.51,3.51,0,0,1,3.511-3.511Z" transform="translate(-16.001 -97.478)" fill="#cad0d7" fill-rule="evenodd"/>
            <path id="Trazado_1043860" data-name="Trazado 1043860" d="M32.948,138.459H77.774V114.967a.541.541,0,0,0-.541-.542H34.421a1.472,1.472,0,0,0-1.473,1.473q0,11.28,0,22.561Z" transform="translate(-30.911 -112.388)" fill="#38a8d2" fill-rule="evenodd"/>
            <path id="Trazado_1043861" data-name="Trazado 1043861" d="M64.9,331.276v3.473a3.511,3.511,0,0,1-3.511,3.511H19.512A3.511,3.511,0,0,1,16,334.749v-3.473Z" transform="translate(-16.001 -303.167)" fill="#e4e8eb" fill-rule="evenodd"/>
          </g>
        </g>
        <g id="Grupo_1202642" data-name="Grupo 1202642" transform="translate(4.968)">
          <g id="Grupo_1202640" data-name="Grupo 1202640" transform="translate(20.385)">
            <path id="Trazado_1043862" data-name="Trazado 1043862" d="M228.678,19.608a1.8,1.8,0,1,0-1.8-1.8A1.8,1.8,0,0,0,228.678,19.608Z" transform="translate(-226.875 -16.001)" fill="#f5b945" fill-rule="evenodd"/>
            <g id="Grupo_1202638" data-name="Grupo 1202638" transform="translate(1.538 14.858)">
              <circle id="Elipse_12677" data-name="Elipse 12677" cx="8.043" cy="8.043" r="8.043" transform="translate(0.957 0.949)" fill="#fdcd56"/>
              <circle id="Elipse_12678" data-name="Elipse 12678" cx="6.36" cy="6.36" r="6.36" transform="translate(0 8.993) rotate(-45)" fill="#f5b945"/>
            </g>
            <g id="Grupo_1202639" data-name="Grupo 1202639" transform="translate(17.375)">
              <path id="Trazado_1043863" data-name="Trazado 1043863" d="M373.2,19.608a1.8,1.8,0,1,0-1.8-1.8A1.8,1.8,0,0,0,373.2,19.608Z" transform="translate(-371.393 -16.001)" fill="#f5b945" fill-rule="evenodd"/>
              <path id="Trazado_1043864" data-name="Trazado 1043864" d="M467.8,130.725a1.8,1.8,0,1,0-1.8-1.8A1.8,1.8,0,0,0,467.8,130.725Z" transform="translate(-454.625 -113.759)" fill="#f5b945" fill-rule="evenodd"/>
              <path id="Trazado_1043865" data-name="Trazado 1043865" d="M467.8,275.243a1.8,1.8,0,1,0-1.8-1.8A1.8,1.8,0,0,0,467.8,275.243Z" transform="translate(-454.625 -240.902)" fill="#f5b945" fill-rule="evenodd"/>
            </g>
          </g>
          <g id="Grupo_1202641" data-name="Grupo 1202641" transform="translate(0 14.087)">
            <path id="Trazado_1043866" data-name="Trazado 1043866" d="M58.521,133.171h8.5l5.722,5.722v12.6a1.2,1.2,0,0,1-1.2,1.2H58.521a1.2,1.2,0,0,1-1.2-1.2V134.373A1.2,1.2,0,0,1,58.521,133.171Z" transform="translate(-57.319 -133.171)" fill="#f4f6f8" fill-rule="evenodd"/>
            <path id="Trazado_1043867" data-name="Trazado 1043867" d="M137.986,137.69a1.2,1.2,0,0,0,1.2,1.2h4.519l-5.722-5.722Z" transform="translate(-128.288 -133.171)" fill="#e4e8eb" fill-rule="evenodd"/>
          </g>
        </g>
      </g>
      <g id="Grupo_1202644" data-name="Grupo 1202644" transform="translate(8.996 9)">
        <path id="Trazado_1043868" data-name="Trazado 1043868" d="M147.87,398.1l-1.493-.779a18.579,18.579,0,0,0,1.6-8.132l1.68-.051A20.247,20.247,0,0,1,147.87,398.1Zm14.571.005a20.174,20.174,0,0,1-1.9-8.963l1.686.041a18.473,18.473,0,0,0,1.7,8.132Z" transform="translate(-129.86 -343.439)" fill-rule="evenodd"/>
        <path id="Trazado_1043869" data-name="Trazado 1043869" d="M13.351,92.157a2.673,2.673,0,0,0-2.67,2.669V122.9a2.674,2.674,0,0,0,2.67,2.669h41.88A2.674,2.674,0,0,0,57.9,122.9v-29a1.741,1.741,0,0,0-1.742-1.738Zm41.88,35.092H13.351A4.361,4.361,0,0,1,9,122.9V94.826a4.361,4.361,0,0,1,4.355-4.352H56.159A3.424,3.424,0,0,1,59.582,93.9v29a4.356,4.356,0,0,1-4.35,4.353Z" transform="translate(-8.996 -80.679)" fill-rule="evenodd"/>
        <path id="Trazado_1043870" data-name="Trazado 1043870" d="M102.539,455.131a1.3,1.3,0,1,0,0,2.591H125.4a1.3,1.3,0,0,0,0-2.591ZM125.4,459.4H102.539a2.979,2.979,0,0,1,0-5.957H125.4a2.979,2.979,0,0,1,0,5.957Z" transform="translate(-88.675 -400.013)" fill-rule="evenodd"/>
        <path id="Trazado_1043871" data-name="Trazado 1043871" d="M16.006,324.275h48.9v1.683h-48.9Z" transform="translate(-15.163 -286.371)" fill-rule="evenodd"/>
        <path id="Trazado_1043872" data-name="Trazado 1043872" d="M380.286,153.165h-9.441v-1.683H379.9l2.37-2.7,1.267,1.109-2.625,2.988A.828.828,0,0,1,380.286,153.165Zm1.985,11.388-2.37-2.7h-9.056v-1.683h9.441a.828.828,0,0,1,.628.287l2.625,2.988Z" transform="translate(-327.341 -131.976)" fill-rule="evenodd"/>
        <path id="Trazado_1043873" data-name="Trazado 1043873" d="M252.706,50.9h-1.68V39.781l-2.789-2.608,1.148-1.229L252.44,38.8a.841.841,0,0,1,.266.614Zm8.688,0h-1.686V39.416a.847.847,0,0,1,.271-.614l3-2.811,1.154,1.229-2.738,2.561Z" transform="translate(-219.474 -32.705)" fill-rule="evenodd"/>
        <path id="Trazado_1043874" data-name="Trazado 1043874" d="M222.555,10.683a.962.962,0,1,0,.962.962A.962.962,0,0,0,222.555,10.683Zm0,3.607a2.645,2.645,0,1,1,2.647-2.645A2.645,2.645,0,0,1,222.555,14.29Z" transform="translate(-194.555 -9)" fill-rule="evenodd"/>
        <path id="Trazado_1043875" data-name="Trazado 1043875" d="M52.032,145.692H65.771V133.077l-5.232-5.229H52.032Zm14.582,1.683H51.195a.84.84,0,0,1-.843-.842V127.007a.84.84,0,0,1,.843-.842h9.7a.844.844,0,0,1,.594.247l5.724,5.722a.836.836,0,0,1,.243.6v13.8A.839.839,0,0,1,66.614,147.375Z" transform="translate(-45.38 -112.079)" fill-rule="evenodd"/>
        <path id="Trazado_1043876" data-name="Trazado 1043876" d="M137.559,139.729h-5.724a.843.843,0,0,1-.843-.841v-5.722h1.686v4.88h4.882Z" transform="translate(-116.325 -118.238)" fill-rule="evenodd"/>
        <path id="Trazado_1043877" data-name="Trazado 1043877" d="M367.046,10.683a.962.962,0,1,0,.962.962A.962.962,0,0,0,367.046,10.683Zm0,3.607a2.645,2.645,0,1,1,2.642-2.645,2.649,2.649,0,0,1-2.642,2.645Z" transform="translate(-321.67 -9)" fill-rule="evenodd"/>
        <path id="Trazado_1043878" data-name="Trazado 1043878" d="M461.661,121.8a.962.962,0,1,0,.962.962A.961.961,0,0,0,461.661,121.8Zm0,3.606a2.645,2.645,0,1,1,2.642-2.645A2.649,2.649,0,0,1,461.661,125.4Z" transform="translate(-404.91 -106.755)" fill-rule="evenodd"/>
        <path id="Trazado_1043879" data-name="Trazado 1043879" d="M461.661,266.316a.962.962,0,1,0,.962.962A.962.962,0,0,0,461.661,266.316Zm0,3.607a2.645,2.645,0,1,1,2.642-2.645A2.649,2.649,0,0,1,461.661,269.923Z" transform="translate(-404.91 -233.899)" fill-rule="evenodd"/>
        <path id="Trazado_1043880" data-name="Trazado 1043880" d="M249.5,142.155a7.2,7.2,0,1,0,7.2,7.2A7.209,7.209,0,0,0,249.5,142.155Zm0,16.086a8.885,8.885,0,1,1,8.886-8.885,8.9,8.9,0,0,1-8.886,8.885Z" transform="translate(-212.768 -124.666)" fill-rule="evenodd"/>
        <path id="Trazado_1043881" data-name="Trazado 1043881" d="M201.043,355h-3.858a.842.842,0,1,1,0-1.683h3.858a.842.842,0,1,1,0,1.683Z" transform="translate(-173.819 -311.918)" fill-rule="evenodd"/>
        <path id="Trazado_1043882" data-name="Trazado 1043882" d="M93.946,209.058H87.187a.842.842,0,1,1,0-1.683h6.759a.842.842,0,1,1,0,1.683Zm0,4.809H87.187a.841.841,0,1,1,0-1.683h6.759a.841.841,0,1,1,0,1.683Z" transform="translate(-77.045 -183.525)" fill-rule="evenodd"/>
        <path id="Trazado_1043883" data-name="Trazado 1043883" d="M292.2,177.361a.842.842,0,0,1-.843-.821l-.011-.4a3.535,3.535,0,0,1-1.561-.959.841.841,0,0,1,1.154-1.224,1.569,1.569,0,0,0,1.233.6,1.11,1.11,0,1,0,0-2.179,2.9,2.9,0,0,1-3-2.773,2.814,2.814,0,0,1,2.149-2.657l-.011-.444a.841.841,0,0,1,.82-.861h.017a.842.842,0,0,1,.843.821l.011.5a3.272,3.272,0,0,1,1.8,1.14.842.842,0,0,1-1.408.924,2.189,2.189,0,0,0-1.216-.512,1.109,1.109,0,1,0,0,2.179,2.9,2.9,0,0,1,3,2.772,2.816,2.816,0,0,1-2.144,2.657l.006.373a.841.841,0,0,1-.82.862Z" transform="translate(-255.486 -146.811)" fill-rule="evenodd"/>
      </g>
    </g>
  </g>
</svg>
