<svg xmlns="http://www.w3.org/2000/svg" xmlns:xlink="http://www.w3.org/1999/xlink" width="295" height="179" viewBox="0 0 295 179">
  <defs>
    <clipPath id="clip-path">
      <rect id="Rectángulo_417099" data-name="Rectángulo 417099" width="295" height="179" transform="translate(1020 4527)" fill="#fff" stroke="#707070" stroke-width="1"/>
    </clipPath>
  </defs>
  <g id="Enmascarar_grupo_1098893" data-name="Enmascarar grupo 1098893" transform="translate(-1020 -4527)" clip-path="url(#clip-path)">
    <g id="Grupo_1204876" data-name="Grupo 1204876" transform="translate(-743 568.563)">
      <path id="Trazado_1043371" data-name="Trazado 1043371" d="M478.807,229.345s13.788-36.831-2.168-55.6-33.563-16.419-38.515-23.456S413.61,58.41,345.139,64.678c-89.684,8.21-83.082,122.287-83.082,163.02C262.058,229.457,479.668,228.427,478.807,229.345Z" transform="translate(1536.66 3909.101)" fill="#98cfd6" opacity="0.29"/>
      <g id="Grupo_1204875" data-name="Grupo 1204875" transform="translate(501.83 -8)">
        <path id="Trazado_1044935" data-name="Trazado 1044935" d="M524.823,659.259,440.564,575l-62,62L364.4,622.829l76.167-76.167,84.259,84.259,72.2-72.2,14.17,14.169Z" transform="translate(898.167 3479.187)" fill="#e8864c"/>
        <path id="Trazado_1044936" data-name="Trazado 1044936" d="M1123.167,537.906l18.285-68.239-68.239,18.285Z" transform="translate(402.718 3533.004)" fill="#e8864c"/>
      </g>
      <g id="Grupo_1201973" data-name="Grupo 1201973" transform="translate(1536.66 3909.101)">
        <path id="Trazado_1043376" data-name="Trazado 1043376" d="M322.91,231.794h89.48V166.449a30.414,30.414,0,0,0-30.414-30.414H353.324a30.414,30.414,0,0,0-30.414,30.414Z" fill="#fff"/>
      </g>
      <g id="Grupo_1201995" data-name="Grupo 1201995" transform="translate(1536.66 3909.101)">
        <path id="Trazado_1043377" data-name="Trazado 1043377" d="M365.842,88.357s3.314-2.882,9.244-2.113,21.978,10.375,24.768,17.677-.7,21.711,1.395,24.4,8.024,13.257,5.93,24.017H329.037s-4.361-15.947-1.395-20.559,6.105-3.843,6.977-6.725-2.093-10.183.174-15.179,5.756-6.917,7.675-10.375,3.314-11.528,8.372-12.681S365.842,88.357,365.842,88.357Z" fill="#28294a"/>
        <g id="Grupo_1201993" data-name="Grupo 1201993">
          <g id="Grupo_1201981" data-name="Grupo 1201981">
            <g id="Grupo_1201980" data-name="Grupo 1201980">
              <g id="Grupo_1201977" data-name="Grupo 1201977">
                <g id="Grupo_1201976" data-name="Grupo 1201976">
                  <path id="Trazado_1043378" data-name="Trazado 1043378" d="M370.624,89.572l-6.281.044c-12.031.083-21.723,9-21.648,19.907l.1,13.751c.087,12.484,11.316,22.526,25.081,22.431h0c13.766-.1,24.854-10.293,24.768-22.776l-.1-13.751C392.469,98.266,382.655,89.489,370.624,89.572Z" fill="#28294a"/>
                  <g id="Grupo_1201974" data-name="Grupo 1201974">
                    <path id="Trazado_1043379" data-name="Trazado 1043379" d="M353.9,136.034a7.525,7.525,0,1,1-7.578-7.473A7.525,7.525,0,0,1,353.9,136.034Z" fill="#e5aa80"/>
                    <ellipse id="Elipse_12647" data-name="Elipse 12647" cx="3.56" cy="4.654" rx="3.56" ry="4.654" transform="translate(339.148 140.403) rotate(-74.46)" fill="#d87f69"/>
                    <path id="Trazado_1043380" data-name="Trazado 1043380" d="M341.509,135.074a4.265,4.265,0,0,1,5.681,1.682" fill="none" stroke="#262425" stroke-linecap="round" stroke-linejoin="round" stroke-miterlimit="10" stroke-width="0.813"/>
                  </g>
                  <g id="Grupo_1201975" data-name="Grupo 1201975">
                    <path id="Trazado_1043381" data-name="Trazado 1043381" d="M382.333,133.546a7.525,7.525,0,1,0,6.164-8.675A7.525,7.525,0,0,0,382.333,133.546Z" fill="#e5aa80"/>
                    <path id="Trazado_1043382" data-name="Trazado 1043382" d="M396.082,132.056c.848,1.774-.345,4.111-2.665,5.219s-4.887.568-5.735-1.206.345-4.111,2.665-5.219S395.234,130.282,396.082,132.056Z" fill="#d87f69"/>
                    <path id="Trazado_1043383" data-name="Trazado 1043383" d="M394.373,130.447a4.264,4.264,0,0,0-5.3,2.643" fill="none" stroke="#262425" stroke-linecap="round" stroke-linejoin="round" stroke-miterlimit="10" stroke-width="0.813"/>
                  </g>
                  <path id="Trazado_1043384" data-name="Trazado 1043384" d="M370.525,97.209l-5.782.04a20.055,20.055,0,0,0-19.915,20.193l.067,9.712A22.946,22.946,0,0,0,368,149.94h0c12.672-.088,23.294-8.22,22.786-23.1l-.067-9.712A20.054,20.054,0,0,0,370.525,97.209Z" fill="#e5aa80"/>
                  <path id="Trazado_1043385" data-name="Trazado 1043385" d="M390.262,110.128h-9.245s-.174-8.721-2.093-10.989c0,0,.872,8.372-.175,10.814l-16.4-.7s2.616-7.326.7-11.686c0,0-5.846,13.695-4.186,12.035.174-.174-11.163,2.093-11.163,2.093s1.744,12.733-3.314,17.094c0,0-2.965-20.059,3.14-28.431S386.773,83.092,390.262,110.128Z" fill="#28294a"/>
                </g>
              </g>
              <g id="Grupo_1201979" data-name="Grupo 1201979">
                <path id="Trazado_1043386" data-name="Trazado 1043386" d="M355.363,115.445s10.079-1.753,10.21-2.305S358.016,109.753,355.363,115.445Z" fill="#28294a"/>
                <path id="Trazado_1043387" data-name="Trazado 1043387" d="M383.632,116.307s-9.927-2.471-10.019-3.03S381.394,110.44,383.632,116.307Z" fill="#28294a"/>
                <g id="Grupo_1201978" data-name="Grupo 1201978">
                  <path id="Trazado_1043388" data-name="Trazado 1043388" d="M373.4,132.546a15.34,15.34,0,0,1-10.293-1" fill="none" stroke="#262425" stroke-linecap="round" stroke-linejoin="round" stroke-miterlimit="10" stroke-width="0.813"/>
                  <path id="Trazado_1043389" data-name="Trazado 1043389" d="M363.446,124.359a2.266,2.266,0,1,1-2.281-2.25A2.265,2.265,0,0,1,363.446,124.359Z" fill="#272525"/>
                  <path id="Trazado_1043390" data-name="Trazado 1043390" d="M379.355,124.249a2.266,2.266,0,1,1-2.281-2.25A2.265,2.265,0,0,1,379.355,124.249Z" fill="#272525"/>
                  <path id="Trazado_1043391" data-name="Trazado 1043391" d="M370.812,121.326l-.2,7.54a10.611,10.611,0,0,1-2.4.389" fill="none" stroke="#262425" stroke-linecap="round" stroke-linejoin="round" stroke-miterlimit="10" stroke-width="0.813"/>
                </g>
              </g>
            </g>
          </g>
          <g id="Grupo_1201992" data-name="Grupo 1201992">
            <g id="Grupo_1201989" data-name="Grupo 1201989">
              <g id="Grupo_1201988" data-name="Grupo 1201988">
                <path id="Trazado_1043392" data-name="Trazado 1043392" d="M349.232,158.175s-12.187,1.25-17.5,11.875S310.57,214.534,312.445,216.1s18.14,0,18.14,0l17.709-55.421" fill="#e5aa80"/>
                <path id="Trazado_1043393" data-name="Trazado 1043393" d="M380.2,158.175s12.187,1.25,17.5,11.875,13.607,38.536,11.732,40.1-10.585,5.948-10.585,5.948l-17.709-55.421" fill="#e5aa80"/>
                <path id="Trazado_1043394" data-name="Trazado 1043394" d="M316.365,203.54c.059,0,.118,0,.176.01l17.232,2.571-3.188,9.977s-16.265,1.563-18.14,0C311.738,215.507,313.55,210.33,316.365,203.54Z" fill="#d87f69"/>
                <g id="Grupo_1201986" data-name="Grupo 1201986">
                  <g id="Grupo_1201984" data-name="Grupo 1201984">
                    <path id="Trazado_1043395" data-name="Trazado 1043395" d="M386.483,205.827" fill="#bf6c69"/>
                    <g id="Grupo_1201982" data-name="Grupo 1201982">
                      <path id="Trazado_1043396" data-name="Trazado 1043396" d="M365.734,151.471h0c15.056-.316,27.5,10.912,27.8,25.078l2.6,48.544c.221,6.017-3.267,7.581-9.666,7.52L347.1,231.5c-6.1-.058-6.471-.474-6.525-6.21l-.4-13.992-1.159-33.606C338.713,163.527,350.678,151.787,365.734,151.471Z" fill="#8a8dc3"/>
                    </g>
                    <g id="Grupo_1201983" data-name="Grupo 1201983">
                      <path id="Trazado_1043397" data-name="Trazado 1043397" d="M372.723,155.111c-1.353,2.1-3.341,3.663-5.055,3.689-2.013.031-4.395-1.718-5.3-3.786l-.116-7.649,10.355-.158Z" fill="#e5aa80"/>
                      <path id="Trazado_1043398" data-name="Trazado 1043398" d="M362.311,151.486l-.063-4.121,10.355-.158.061,4a7.351,7.351,0,0,1-4.752,1.986A7.464,7.464,0,0,1,362.311,151.486Z" fill="#d87f69"/>
                    </g>
                  </g>
                  <g id="Grupo_1201985" data-name="Grupo 1201985">
                    <path id="Trazado_1043399" data-name="Trazado 1043399" d="M308.627,214.65h0c-.346,3.16,2.728,9.974,8.4,9.148l28.094-1.1,2.377-11.394-30.961-4.618C313.381,206.343,308.972,211.49,308.627,214.65Z" fill="#e5aa80"/>
                    <path id="Trazado_1043400" data-name="Trazado 1043400" d="M390.61,206.8h0c-.345,3.16,2.728,9.974,8.4,9.148l30.206,11.061,2.377-11.394-33.073-16.777C395.365,198.492,390.956,203.639,390.61,206.8Z" fill="#e5aa80"/>
                  </g>
                </g>
                <g id="Grupo_1201987" data-name="Grupo 1201987">
                  <path id="Trazado_1043401" data-name="Trazado 1043401" d="M394.392,232.5H359.368a1.264,1.264,0,0,1-1.264-1.264v-.081a1.264,1.264,0,0,1,1.264-1.264h35.024a1.264,1.264,0,0,1,1.264,1.264v.081A1.264,1.264,0,0,1,394.392,232.5Z" fill="#d1d9da"/>
                </g>
              </g>
            </g>
            <g id="Grupo_1201991" data-name="Grupo 1201991">
              <g id="Grupo_1201990" data-name="Grupo 1201990">
                <path id="Trazado_1043402" data-name="Trazado 1043402" d="M421.969,232.2a6.914,6.914,0,0,1-1.01-3.588c0-4.142,3.714-7.5,8.3-7.5s8.3,3.358,8.3,7.5a6.9,6.9,0,0,1-1.01,3.588Z" fill="#232221"/>
                <path id="Trazado_1043403" data-name="Trazado 1043403" d="M426.977,228.678l-.015-8,3.537.115.015,8a1.6,1.6,0,0,1-1.732,1.592A1.829,1.829,0,0,1,426.977,228.678Z" fill="#e5aa80"/>
                <path id="Trazado_1043404" data-name="Trazado 1043404" d="M430.628,227.365l-.508-7.985,3.539-.044.508,7.985a1.572,1.572,0,0,1-1.631,1.667A1.866,1.866,0,0,1,430.628,227.365Z" fill="#e5aa80"/>
                <path id="Trazado_1043405" data-name="Trazado 1043405" d="M419.27,224.038l3.89-6.818,3.217,1.633-3.89,6.818a1.775,1.775,0,0,1-2.379.6A1.661,1.661,0,0,1,419.27,224.038Z" fill="#d87f69"/>
                <path id="Trazado_1043406" data-name="Trazado 1043406" d="M433.571,225.32l-1.5-7.894,3.514-.366,1.5,7.893a1.513,1.513,0,0,1-1.414,1.806A1.943,1.943,0,0,1,433.571,225.32Z" fill="#e5aa80"/>
                <path id="Trazado_1043407" data-name="Trazado 1043407" d="M420.933,221.943c1.06,3.341,5.485,5.35,9.883,4.488s7.1-4.269,6.044-7.61-5.485-5.35-9.883-4.488S419.872,218.6,420.933,221.943Z" fill="#e5aa80"/>
                <path id="Trazado_1043408" data-name="Trazado 1043408" d="M423.547,228.877l.315-7.876,3.579.318-.315,7.876a1.579,1.579,0,0,1-1.82,1.467A1.868,1.868,0,0,1,423.547,228.877Z" fill="#e5aa80"/>
              </g>
            </g>
          </g>
        </g>
        <g id="Grupo_1201994" data-name="Grupo 1201994">
          <path id="Trazado_1043409" data-name="Trazado 1043409" d="M332.333,231.794h68.1a4.672,4.672,0,0,0,4.672-4.672V187.6a8.13,8.13,0,0,0-8.129-8.129H335.79a8.128,8.128,0,0,0-8.129,8.129v39.526A4.672,4.672,0,0,0,332.333,231.794Z" fill="#232221"/>
          <path id="Trazado_1043410" data-name="Trazado 1043410" d="M328.617,231.794h75.531a7.622,7.622,0,0,0,7.622-7.622v-1.7H321v1.7A7.621,7.621,0,0,0,328.617,231.794Z" fill="#232221"/>
        </g>
      </g>
    </g>
  </g>
</svg>
