<svg xmlns="http://www.w3.org/2000/svg" xmlns:xlink="http://www.w3.org/1999/xlink" width="208" height="169.088" viewBox="0 0 208 169.088">
  <defs>
    <filter id="Rect치ngulo_416657" x="0" y="20.043" width="208" height="129.912" filterUnits="userSpaceOnUse">
      <feOffset dy="3" input="SourceAlpha"/>
      <feGaussianBlur stdDeviation="3" result="blur"/>
      <feFlood flood-opacity="0.161"/>
      <feComposite operator="in" in2="blur"/>
      <feComposite in="SourceGraphic"/>
    </filter>
  </defs>
  <g id="Grupo_1202703" data-name="Grupo 1202703" transform="translate(-171 -5267.527)">
    <g transform="matrix(1, 0, 0, 1, 171, 5267.53)" filter="url(#Rect치ngulo_416657)">
      <rect id="Rect치ngulo_416657-2" data-name="Rect치ngulo 416657" width="190" height="111.912" rx="20" transform="translate(9 26.04)" fill="#004a54"/>
    </g>
    <g id="_x34_7" transform="translate(190.255 5263.057)">
      <g id="Grupo_1202700" data-name="Grupo 1202700" transform="translate(8 4.47)">
        <g id="Grupo_1202695" data-name="Grupo 1202695">
          <g id="Grupo_1202690" data-name="Grupo 1202690">
            <g id="Grupo_1202679" data-name="Grupo 1202679" transform="translate(16.556)">
              <g id="Grupo_1202670" data-name="Grupo 1202670">
                <g id="Grupo_1202647" data-name="Grupo 1202647">
                  <g id="Grupo_1202646" data-name="Grupo 1202646">
                    <path id="Trazado_1043884" data-name="Trazado 1043884" d="M49.155,12.847c-10.864,1.144-22.3,0-32.019,4.574-5.146,2.287-5.146,5.146-2.287,9.434C23.711,39.72,32,52.585,40.864,65.45c3.717,5.432,7.147,10.292,9.434,16.581a96.064,96.064,0,0,1,4.288,20.012c.572,4.574-.572,8.863-1.144,13.437-.572,3.145.286,6,0,9.148-1.144,22.013-4.86,26.016-9.72,39.738-.572,2-1.429,4.288-.572,6,1.144,2.287,4.288,3.431,6.861,3.145,5.718-.572,12.865-7.147,25.158-6.575,6.29.286,12.579,2.859,19.154,2.573,12.579-.858,19.155-11.721,38.595-14.58,2-.286,4.288-.572,5.432-2,1.715-2.287.286-5.432-2-7.147C106.619,121.2,94.326,98.327,94.04,60.018c-.286-28.3,5.146-36.308,6.861-48.6.858-5.146-.858-7.433-6.575-6.861-1.429,0-30.018,6.861-45.17,8.291Z" transform="translate(-12.928 -4.47)" fill="#32ce5a"/>
                  </g>
                </g>
                <g id="Grupo_1202649" data-name="Grupo 1202649" transform="translate(43.902 38.065)">
                  <g id="Grupo_1202648" data-name="Grupo 1202648" transform="translate(0 0)">
                    <path id="Trazado_1043885" data-name="Trazado 1043885" d="M28.9,32.409a11.157,11.157,0,0,1,2.573-11.436A11.294,11.294,0,0,1,42.909,18.4a10.838,10.838,0,0,1,7.147,9.434" transform="translate(-28.285 -17.785)" fill="#1fb64a"/>
                  </g>
                </g>
                <g id="Grupo_1202651" data-name="Grupo 1202651" transform="translate(16.283 8.895)">
                  <g id="Grupo_1202650" data-name="Grupo 1202650">
                    <path id="Trazado_1043886" data-name="Trazado 1043886" d="M44.571,73.675A137.487,137.487,0,0,0,25.417,36.8c-2-2.859-8-8-6.575-10.006a2.184,2.184,0,0,1,1.429-.572c5.146.572,5.718-4,3.431-5.718a1.462,1.462,0,0,1,.858-2.573c16.582.286,34.307,0,48.029-10.006,1.429-1.144,3.145.858,1.715,2.287a3,3,0,0,0-.286,3.717c.572,1.144,2.287,1.429,3.431,1.144a1.524,1.524,0,0,1,2,1.429L78.02,49.66a1.532,1.532,0,0,1-1.429,1.429,1.35,1.35,0,0,1-1.429-1.429l1.715-31.734a5.256,5.256,0,0,1-5.718-5.146C58.008,20.5,42.57,21.071,27.418,21.071a5.917,5.917,0,0,1-4.86,8c.858.858,1.715,2,2.573,2.859,6.29,6.861,16.3,23.157,22.3,40.882a1.388,1.388,0,0,1-.858,1.715,1.477,1.477,0,0,1-2-.858Z" transform="translate(-18.624 -7.581)"/>
                  </g>
                </g>
                <g id="Grupo_1202653" data-name="Grupo 1202653" transform="translate(41.659 119.513)">
                  <g id="Grupo_1202652" data-name="Grupo 1202652">
                    <path id="Trazado_1043887" data-name="Trazado 1043887" d="M32.646,82.37c-1.144,0-2-1.429-1.144-2.287.572-.572.572-1.429,0-1.715-.286-.572-1.144-.572-1.715-.286A1.563,1.563,0,0,1,27.5,76.653c.858-5.146,4-24.015,4.574-29.161a1.26,1.26,0,0,1,1.715-1.144,1.26,1.26,0,0,1,1.144,1.715c-.572,4-3.431,21.156-4.288,26.873a4.2,4.2,0,0,1,4,4.574c17.725.286,36.308,0,52.318-8.291a4.044,4.044,0,0,1,1.429-6A49.233,49.233,0,0,1,82.1,54.639c-.286-.858,0-1.429.858-2,.858-.286,1.429,0,2,.858A38.845,38.845,0,0,0,92.4,65.217,1.4,1.4,0,0,1,90.967,67.5c-.572,0-1.429.286-1.429.858-.286.572.286,1.429.858,1.715a1.4,1.4,0,0,1,.286,2.573C72.67,82.656,52.372,82.37,32.646,82.37Z" transform="translate(-27.5 -46.274)"/>
                  </g>
                </g>
                <g id="Grupo_1202655" data-name="Grupo 1202655" transform="translate(18.979 70.943)">
                  <g id="Grupo_1202654" data-name="Grupo 1202654">
                    <path id="Trazado_1043888" data-name="Trazado 1043888" d="M46.821,79.073c-10.578,7.719-13.437-9.148-20.012-15.152-4.288-3.717-9.72-4.86-6-17.153,2.287-7.719,8.291-16.582,17.153-17.439,2.573-.286,5.718.858,6.861,3.145s.286,5.146-.858,7.719c-1.715,4,.286,6.861,2.573,11.15,1.429,2.573.286,5.432,2.287,7.719,4.574,5.718,4.574,15.438-2,20.012Z" transform="translate(-19.567 -29.285)" fill="#f9bb98"/>
                  </g>
                </g>
                <g id="Grupo_1202657" data-name="Grupo 1202657" transform="translate(30.285 102.954)">
                  <g id="Grupo_1202656" data-name="Grupo 1202656">
                    <path id="Trazado_1043889" data-name="Trazado 1043889" d="M38.04,51.111A6,6,0,0,0,36.9,47.966c-4-6.29-4.288-7.147-5.146-7.433-1.144-.286-1.715.572-6.861,4-1.144.858-1.715,1.429-1.144,3.145a18.543,18.543,0,0,0,4.574,9.148c1.429,1.429,2,1.144,3.717.572,2.287-.858,6-3.431,6-6.29Z" transform="translate(-23.522 -40.482)" fill="#fff"/>
                  </g>
                </g>
                <g id="Grupo_1202659" data-name="Grupo 1202659" transform="translate(16.464 72.961)">
                  <g id="Grupo_1202658" data-name="Grupo 1202658">
                    <path id="Trazado_1043890" data-name="Trazado 1043890" d="M32.161,71.471c-2.573-5.718-2.859-7.147-7.147-10.006a16.2,16.2,0,0,1-4.288-3.431c-2.573-3.431-2.287-8-1.429-11.15A27.269,27.269,0,0,1,31.3,30.3a1.429,1.429,0,1,1,1.715,2.287A25.4,25.4,0,0,0,22.441,47.456c-2.573,9.72,3.717,10.292,7.433,14.009,2.573,2.573,3.717,5.718,5.146,8.863,1.715,4,5.718,8.291,10.864,6.861,4-1.144,8-6.575,7.433-12.579a12.176,12.176,0,0,0-4.574-8.291c-2-1.429-2.573-3.145-4-4.86-2-2.287-2.859-3.431-2.287-6.575.572-4.288,1.144-8.291,2.859-12.007a1.472,1.472,0,0,1,2.573,1.429c-1.715,3.145-2,7.147-2.573,11.15-.286,2,0,2.573,1.715,4.288,1.429,1.715,2,3.145,3.431,4.288,10.006,7.433,5.432,22.871-4,25.73-6,2-11.436-2.573-14.294-8.291Z" transform="translate(-18.687 -29.991)"/>
                  </g>
                </g>
                <g id="Grupo_1202661" data-name="Grupo 1202661" transform="translate(49.925 116.728)">
                  <g id="Grupo_1202660" data-name="Grupo 1202660">
                    <path id="Trazado_1043891" data-name="Trazado 1043891" d="M47.855,69.6c8,1.429,22.3-.286,29.732-5.146,4.288-2.859,7.719-8,7.433-13.437-9.434,9.434-29.161,12.293-40.31,8C38.421,56.736,32.989,51.875,31.56,45.3c.286,1.429,1.429,2.573,1.144,4s-2.573,3.431-2.287,4.86C31.56,61.31,37.563,67.885,47.855,69.6Z" transform="translate(-30.391 -45.3)"/>
                  </g>
                </g>
                <g id="Grupo_1202663" data-name="Grupo 1202663" transform="translate(39.909 46.114)">
                  <g id="Grupo_1202662" data-name="Grupo 1202662" transform="translate(0 0)">
                    <path id="Trazado_1043892" data-name="Trazado 1043892" d="M27.78,46.9c0,.572,2.573,4.574,2.859,4a5.528,5.528,0,0,0-1.429,2.573c0,.572.572,1.715.286,2-2.573,3.431-3.431,4.86-1.715,11.721.858,3.145,1.429,6.29,4.86,9.148a15.021,15.021,0,0,0-2.287,11.436c.572,2.859,2.859,4.574,4.86,6.575.858.858.858,2.287,2,2.859-1.144,2.573-.572,6.29,1.715,9.148,3.431,4,7.433,4.574,12.293,5.146a91.829,91.829,0,0,0,17.725.286c8.863-1.144,23.443-6.29,22.585-17.439-.286-2.859-1.715-5.718-1.144-8.577.572-1.715,1.715-2.859,2.859-4.288a13.415,13.415,0,0,0,2-8c-.286-3.145-2.573-6-2.287-9.148.286-4.288,4-8,3.717-12.293-.572-5.432-6.861-8.291-9.148-13.151-2-4.288-.572-9.72-3.145-13.723-2.859-4.288-9.434-4.574-14.58-4.574a132.3,132.3,0,0,0-24.3,2.287c-4.288.858-8.863,2.287-12.007,5.146-5.432,4.288-6.29,11.721-5.718,18.869Z" transform="translate(-26.888 -20.6)" fill="#f9bb98"/>
                  </g>
                </g>
                <g id="Grupo_1202665" data-name="Grupo 1202665" transform="translate(43.198 100.325)">
                  <g id="Grupo_1202664" data-name="Grupo 1202664">
                    <path id="Trazado_1043893" data-name="Trazado 1043893" d="M36.505,63.113c-6.575-2.859-9.72-16.01-8-22.585a1.2,1.2,0,0,1,1.715-.858,1.2,1.2,0,0,1,.858,1.715c-1.429,5.718,1.715,17.153,6.29,19.155,7.147,3.145,21.442-1.144,28.3-4,.858-.286,1.429,0,2,.858.286.858,0,1.429-.858,2-7.433,3.145-22.3,7.147-30.3,3.717Z" transform="translate(-28.038 -39.563)"/>
                  </g>
                </g>
                <g id="Grupo_1202667" data-name="Grupo 1202667" transform="translate(38.597 75.131)">
                  <g id="Grupo_1202666" data-name="Grupo 1202666">
                    <path id="Trazado_1043894" data-name="Trazado 1043894" d="M38.353,59.2c-4.574-.286-7.719-1.715-11.15-9.434-2-4.86,0-13.723,4.574-18.583a1.415,1.415,0,1,1,2,2c-3.717,4-5.718,12.007-4,15.724,3.145,6.861,5.432,7.433,8.863,7.719,10.292.858,20.3-2.859,31.162-7.433.858-.286,1.429,0,2,.858.286.858,0,1.429-.858,2-10.292,4-21.156,8.291-32.591,7.147Z" transform="translate(-26.429 -30.75)"/>
                  </g>
                </g>
                <g id="Grupo_1202669" data-name="Grupo 1202669" transform="translate(40.328 51.234)">
                  <g id="Grupo_1202668" data-name="Grupo 1202668">
                    <path id="Trazado_1043895" data-name="Trazado 1043895" d="M31.8,48.718a7.7,7.7,0,0,1-4.288-5.432,17.235,17.235,0,0,1-.286-6.575c.572-6.575,2.573-11.15,6-14.009a1.429,1.429,0,0,1,1.715,2.287c-4.86,4-5.718,14.009-4.574,17.725.572,1.715,1.429,3.145,2.859,3.717,1.429.858,3.431.572,5.146.286a90.621,90.621,0,0,0,28.3-8.863,1.9,1.9,0,0,1,2,.572,1.9,1.9,0,0,1-.572,2,93.762,93.762,0,0,1-29.161,9.148c-2.573,0-5.146.286-7.147-.858Z" transform="translate(-27.034 -22.391)"/>
                  </g>
                </g>
              </g>
              <g id="Grupo_1202672" data-name="Grupo 1202672" transform="translate(76.537 8.377)">
                <g id="Grupo_1202671" data-name="Grupo 1202671">
                  <circle id="Elipse_12679" data-name="Elipse 12679" cx="2.287" cy="2.287" r="2.287"/>
                </g>
              </g>
              <g id="Grupo_1202674" data-name="Grupo 1202674" transform="translate(12.212 18.668)">
                <g id="Grupo_1202673" data-name="Grupo 1202673">
                  <circle id="Elipse_12680" data-name="Elipse 12680" cx="2.573" cy="2.573" r="2.573"/>
                </g>
              </g>
              <g id="Grupo_1202676" data-name="Grupo 1202676" transform="translate(37.942 155.895)">
                <g id="Grupo_1202675" data-name="Grupo 1202675">
                  <circle id="Elipse_12681" data-name="Elipse 12681" cx="2.573" cy="2.573" r="2.573"/>
                </g>
              </g>
              <g id="Grupo_1202678" data-name="Grupo 1202678" transform="translate(109.986 141.029)">
                <g id="Grupo_1202677" data-name="Grupo 1202677">
                  <circle id="Elipse_12682" data-name="Elipse 12682" cx="2.573" cy="2.573" r="2.573"/>
                </g>
              </g>
            </g>
            <g id="Grupo_1202684" data-name="Grupo 1202684" transform="translate(126.256 22.329)">
              <g id="Grupo_1202681" data-name="Grupo 1202681" transform="translate(6.498 11.206)">
                <g id="Grupo_1202680" data-name="Grupo 1202680">
                  <path id="Trazado_1043896" data-name="Trazado 1043896" d="M54.222,101.109c-.286.286-.858,0-.572-.572a61.769,61.769,0,0,0,.286-75.474c4.574-3.431,7.719-6,12.007-8.863C81.1,41.644,78.809,78.238,54.222,101.109Z" transform="translate(-53.573 -16.2)" fill="#fc5b63"/>
                </g>
              </g>
              <g id="Grupo_1202683" data-name="Grupo 1202683">
                <g id="Grupo_1202682" data-name="Grupo 1202682">
                  <path id="Trazado_1043897" data-name="Trazado 1043897" d="M77.888,21.485C72.17,26.345,63.593,32.92,54.159,39.5a1.375,1.375,0,0,1-2-1.144A79.515,79.515,0,0,0,51.3,13.766c0-.858.572-1.715,1.429-1.429,8.863,2.287,16.3,4,24.586,7.147,1.144,0,1.429,1.144.572,2Z" transform="translate(-51.3 -12.28)" fill="#fc5b63"/>
                </g>
              </g>
            </g>
            <g id="Grupo_1202689" data-name="Grupo 1202689" transform="translate(0 49.426)">
              <g id="Grupo_1202686" data-name="Grupo 1202686">
                <g id="Grupo_1202685" data-name="Grupo 1202685">
                  <path id="Trazado_1043898" data-name="Trazado 1043898" d="M37.907,94.493c-2.287,2.859-5.718,8-9.148,12.007C6.745,85.344-.4,49.894,16.465,21.877c.286-.286.858,0,.572.286A62.088,62.088,0,0,0,37.907,94.493Z" transform="translate(-7.137 -21.759)" fill="#fc5b63"/>
                </g>
              </g>
              <g id="Grupo_1202688" data-name="Grupo 1202688" transform="translate(15.101 64.591)">
                <g id="Grupo_1202687" data-name="Grupo 1202687">
                  <path id="Trazado_1043899" data-name="Trazado 1043899" d="M39.237,70.506c-9.148.286-16.582.858-25.73,0a1.263,1.263,0,0,1-.858-2A261.037,261.037,0,0,1,30.661,44.776c.572-.858,2-.286,2.287.572A77.718,77.718,0,0,0,40.667,68.79,1.6,1.6,0,0,1,39.237,70.506Z" transform="translate(-12.419 -44.352)" fill="#fc5b63"/>
                </g>
              </g>
            </g>
          </g>
          <g id="Grupo_1202692" data-name="Grupo 1202692" transform="translate(2.467 98.717)">
            <g id="Grupo_1202691" data-name="Grupo 1202691">
              <path id="Trazado_1043900" data-name="Trazado 1043900" d="M47.453,80.454c-9.148.286-16.582.858-25.73,0a1.263,1.263,0,0,1-.858-2c1.429-2.287,2.859-4.288,4.574-6.575A68.1,68.1,0,0,1,8,39,55.357,55.357,0,0,0,31.157,64.444a62.17,62.17,0,0,0,14.009,5.432c1.144,2.859,2.287,5.718,3.717,8.577,0,1.144-.572,2-1.429,2Z" transform="translate(-8 -39)" fill="#ef3a3e"/>
            </g>
          </g>
          <g id="Grupo_1202694" data-name="Grupo 1202694" transform="translate(126.828 25.816)">
            <g id="Grupo_1202693" data-name="Grupo 1202693">
              <path id="Trazado_1043901" data-name="Trazado 1043901" d="M58.075,106.128c-.286.286-.858,0-.572-.572a61.8,61.8,0,0,0,2.287-72.9l-6,4.288a1.375,1.375,0,0,1-2-1.144A83.064,83.064,0,0,0,51.5,13.5c13.437,8.577,22.585,22.013,27.731,36.88C80.946,70.964,74.085,91.262,58.075,106.128Z" transform="translate(-51.5 -13.5)" fill="#ef3a3e"/>
            </g>
          </g>
        </g>
        <g id="Grupo_1202697" data-name="Grupo 1202697" transform="translate(125.354 21.921)">
          <g id="Grupo_1202696" data-name="Grupo 1202696">
            <path id="Trazado_1043902" data-name="Trazado 1043902" d="M51.029,40.047c.572-8.577,1.429-17.439,0-26.3-.286-1.715,2.573-2.287,2.859-.572,1.429,8,.858,16.3.286,24.3,2-1.144,3.717-2.287,5.432-3.431a1.429,1.429,0,1,1,1.715,2.287,34.965,34.965,0,0,1-8.291,4.86c-1.144.572-2.287-.286-2-1.144Z" transform="translate(-50.984 -12.138)"/>
          </g>
        </g>
        <g id="Grupo_1202699" data-name="Grupo 1202699" transform="translate(131.545 42.571)">
          <g id="Grupo_1202698" data-name="Grupo 1202698">
            <path id="Trazado_1043903" data-name="Trazado 1043903" d="M53.579,95.233a1.382,1.382,0,0,1,0-2c17.439-19.155,15.152-48.887,2.287-71.758a1.9,1.9,0,0,1,.572-2,1.9,1.9,0,0,1,2,.572c13.437,24.015,15.724,55.176-2.573,75.189A1.729,1.729,0,0,1,53.579,95.233Z" transform="translate(-53.15 -19.361)"/>
          </g>
        </g>
      </g>
      <g id="Grupo_1202702" data-name="Grupo 1202702" transform="translate(6.673 69.166)">
        <g id="Grupo_1202701" data-name="Grupo 1202701">
          <path id="Trazado_1043904" data-name="Trazado 1043904" d="M51.348,104.862C22.474,104,21.9,103.718,21.33,103.718a1.5,1.5,0,0,1-1.144-2.287l4.86-6.575C9.323,77.7,2.747,51.115,9.037,28.244A1.778,1.778,0,0,1,10.752,27.1,1.568,1.568,0,0,1,11.9,28.815c-6,22.3.286,48.315,16.01,64.9a1.072,1.072,0,0,1,0,1.715l-4,5.432,27.159.858C53.349,102,53.349,104.862,51.348,104.862Z" transform="translate(-6.673 -27.1)"/>
        </g>
      </g>
    </g>
  </g>
</svg>
