<svg xmlns="http://www.w3.org/2000/svg" xmlns:xlink="http://www.w3.org/1999/xlink" width="208" height="197" viewBox="0 0 208 197">
  <defs>
    <filter id="Rect치ngulo_416685" x="0" y="22" width="208" height="175" filterUnits="userSpaceOnUse">
      <feOffset dy="3" input="SourceAlpha"/>
      <feGaussianBlur stdDeviation="3" result="blur"/>
      <feFlood flood-opacity="0.161"/>
      <feComposite operator="in" in2="blur"/>
      <feComposite in="SourceGraphic"/>
    </filter>
  </defs>
  <g id="Grupo_1205079" data-name="Grupo 1205079" transform="translate(-171 -5129.835)">
    <g transform="matrix(1, 0, 0, 1, 171, 5129.83)" filter="url(#Rect치ngulo_416685)">
      <rect id="Rect치ngulo_416685-2" data-name="Rect치ngulo 416685" width="190" height="157" rx="20" transform="translate(9 28)" fill="#004a54"/>
    </g>
    <g id="sale_11257198" transform="translate(184.722 5128.23)">
      <g id="Grupo_1205035" data-name="Grupo 1205035" transform="translate(110.413 28.015)">
        <path id="Trazado_1044991" data-name="Trazado 1044991" d="M53.354,55.087a.679.679,0,0,1-.589-.324.7.7,0,0,1,.206-1,3.823,3.823,0,0,0,.029-2,10.969,10.969,0,0,0-.884-2.357l-.324-.737c-2.062-4.832-2.151-10.193-2.21-15.349,0-.766-.029-1.5-.029-2.268-.118-5.539-.737-11.784-4.39-16.2a8.083,8.083,0,0,0-3.093-2.475,4.809,4.809,0,0,0-1.561-.354.723.723,0,0,1,.088-1.444,6.188,6.188,0,0,1,2.033.471,9.666,9.666,0,0,1,3.683,2.887c3.948,4.773,4.6,11.313,4.714,17.087.029.766.029,1.5.029,2.268.059,5.038.118,10.223,2.092,14.819l.324.707a12.909,12.909,0,0,1,.972,2.651c.059.265.5,2.681-.648,3.476a.777.777,0,0,1-.442.147Z" transform="translate(-39.829 -10.569)"/>
      </g>
      <g id="Grupo_1205036" data-name="Grupo 1205036" transform="translate(20.677 45.399)">
        <path id="Trazado_1044992" data-name="Trazado 1044992" d="M49.466,21.655V149.721H9.37V21.655a5.174,5.174,0,0,1,5.185-5.185H44.311A5.149,5.149,0,0,1,49.466,21.655Z" transform="translate(-9.37 -16.47)" fill="#fe515e"/>
      </g>
      <g id="Grupo_1205037" data-name="Grupo 1205037" transform="translate(20.647 45.369)">
        <path id="Trazado_1044993" data-name="Trazado 1044993" d="M37.819,16.489c-.029.029-.029.029-.029.059-1.8,2.445-5.745,2.416-7.6,4.832-1.355,1.768-1.12,4.213-1.09,6.452.059,2.21-.383,4.861-2.357,5.863-1.768.913-4.154.118-5.745,1.3a4.328,4.328,0,0,0-1.532,3.27c-.088,1.237.118,2.475.029,3.742A8.815,8.815,0,0,1,14.133,49.4a8.788,8.788,0,0,1-4.773.442V21.645a5.174,5.174,0,0,1,5.185-5.185H37.819Z" transform="translate(-9.36 -16.46)" fill="#f83b4d"/>
      </g>
      <g id="Grupo_1205038" data-name="Grupo 1205038" transform="translate(19.954 45.193)">
        <path id="Trazado_1044994" data-name="Trazado 1044994" d="M16.182,59.707A11.135,11.135,0,0,1,14,59.5,16.658,16.658,0,0,1,9.524,57.91a.725.725,0,0,1,.648-1.3,16.753,16.753,0,0,0,4.1,1.473c3.211.589,6.334-.324,8.013-2.357,1.591-1.915,1.915-4.6,2.268-7.218l.118-.825c.354-2.681,1.178-6.422,4.125-8.22a12.011,12.011,0,0,1,2.18-.972c1.237-.442,2.416-.884,2.946-1.827.56-.972.354-2.239.118-3.565-.265-1.532-.53-3.093.295-4.508.884-1.532,2.622-2.062,4.154-2.534.354-.088.678-.206,1.031-.324A10.8,10.8,0,0,0,46.5,17.078.692.692,0,0,1,47.2,16.4a.75.75,0,0,1,.707.766,12.291,12.291,0,0,1-7.954,9.958l-1.061.354c-1.414.412-2.71.825-3.329,1.856-.56.972-.354,2.21-.118,3.535.265,1.532.53,3.093-.265,4.537-.8,1.414-2.268,1.944-3.712,2.475a10.74,10.74,0,0,0-1.944.854c-2.445,1.473-3.152,4.8-3.447,7.188l-.118.825c-.354,2.8-.707,5.715-2.563,7.954a9.5,9.5,0,0,1-7.218,3.005Z" transform="translate(-9.125 -16.4)" fill="#f83b4d"/>
      </g>
      <g id="Grupo_1205039" data-name="Grupo 1205039" transform="translate(20.677 121.644)">
        <path id="Trazado_1044995" data-name="Trazado 1044995" d="M49.466,42.35V99.357H9.37v-16.7a9.112,9.112,0,0,0,5.038,1.738,8.975,8.975,0,0,0,7.424-3.8c1.944-2.769,2.445-6.864,5.509-8.367,2.71-1.326,6.069.177,8.9-.825,3.034-1.061,4.478-4.625,4.714-7.837.265-3.241-.295-6.54.471-9.663C42.543,49.273,46.284,45.856,49.466,42.35Z" transform="translate(-9.37 -42.35)" fill="#f83b4d"/>
      </g>
      <g id="Grupo_1205040" data-name="Grupo 1205040" transform="translate(19.97 44.692)">
        <path id="Trazado_1044996" data-name="Trazado 1044996" d="M49.933,150.9H9.837a.717.717,0,0,1-.707-.707V22.122a5.909,5.909,0,0,1,5.892-5.892H44.778a5.909,5.909,0,0,1,5.892,5.892v18.8a.707.707,0,0,1-1.414,0v-18.8a4.464,4.464,0,0,0-4.449-4.449H15.052A4.464,4.464,0,0,0,10.6,22.122V149.481H49.992a.717.717,0,0,1,.707.707A.75.75,0,0,1,49.933,150.9Z" transform="translate(-9.13 -16.23)"/>
      </g>
      <g id="Grupo_1205041" data-name="Grupo 1205041" transform="translate(70.583 75.066)">
        <path id="Trazado_1044997" data-name="Trazado 1044997" d="M66.436,31.725v98.4H26.31v-98.4A5.174,5.174,0,0,1,31.5,26.54H61.251A5.155,5.155,0,0,1,66.436,31.725Z" transform="translate(-26.31 -26.54)" fill="#ffcd3b"/>
      </g>
      <g id="Grupo_1205042" data-name="Grupo 1205042" transform="translate(70.583 75.066)">
        <path id="Trazado_1044998" data-name="Trazado 1044998" d="M48.435,36.645c-1.178,2.71-4.154,4.743-7.071,4.213-1.915-.354-3.859-1.709-5.656-.913-1.974.854-2.121,3.712-3.653,5.273-1.414,1.473-3.889,1.5-5.745.648V31.725A5.174,5.174,0,0,1,31.5,26.54H47.61a12.513,12.513,0,0,1,.619,1.444,11.75,11.75,0,0,1,.206,8.661Z" transform="translate(-26.31 -26.54)" fill="#fcb910"/>
      </g>
      <g id="Grupo_1205043" data-name="Grupo 1205043" transform="translate(69.887 74.383)">
        <path id="Trazado_1044999" data-name="Trazado 1044999" d="M34.047,55.509a9.753,9.753,0,0,1-3.742-.766,14.585,14.585,0,0,1-4.007-2.71.729.729,0,1,1,1-1.061,12.768,12.768,0,0,0,3.594,2.445c2.357,1.031,5.627.972,7.365-1.09a10.515,10.515,0,0,0,1.532-2.976,8.712,8.712,0,0,1,2.445-4.007c2.033-1.62,4.566-1.237,7.012-.884a12.781,12.781,0,0,0,4.832.118c3.565-.913,5.126-5.509,4.3-9.044-.737-3.123-2.74-5.686-4.832-8.043a.71.71,0,0,1,1.061-.943c2.092,2.357,4.331,5.215,5.156,8.661,1,4.272-.913,9.634-5.362,10.753a13.85,13.85,0,0,1-5.391-.088c-2.239-.324-4.36-.648-5.922.589a7.714,7.714,0,0,0-1.974,3.388A11.109,11.109,0,0,1,39.35,53.27a6.876,6.876,0,0,1-5.3,2.239Z" transform="translate(-26.074 -26.308)" fill="#fcb910"/>
      </g>
      <g id="Grupo_1205044" data-name="Grupo 1205044" transform="translate(70.583 133.87)">
        <path id="Trazado_1045000" data-name="Trazado 1045000" d="M66.436,46.5V91.28H26.31V75.9a7.77,7.77,0,0,0,4.861.884A7.939,7.939,0,0,0,37.535,71.1c.589-2.121.206-4.39.383-6.6s1.12-4.625,3.211-5.362c1.738-.648,3.653.147,5.421.707,1.768.589,3.977.854,5.273-.442,2.593-2.563-1.09-7.689,1.326-10.37a4.576,4.576,0,0,1,3.742-1.149c1.326.118,2.651.471,3.977.53A9.491,9.491,0,0,0,66.436,46.5Z" transform="translate(-26.31 -46.5)" fill="#fcb910"/>
      </g>
      <g id="Grupo_1205045" data-name="Grupo 1205045" transform="translate(69.876 74.359)">
        <path id="Trazado_1045001" data-name="Trazado 1045001" d="M66.9,131.3H26.777a.717.717,0,0,1-.707-.707v-23.51a.707.707,0,1,1,1.414,0v22.773H66.166V32.192a4.464,4.464,0,0,0-4.449-4.449H31.962a4.464,4.464,0,0,0-4.449,4.449v25.4a.707.707,0,1,1-1.414,0v-25.4A5.909,5.909,0,0,1,31.992,26.3H61.747a5.909,5.909,0,0,1,5.892,5.892v98.4A.743.743,0,0,1,66.9,131.3Z" transform="translate(-26.07 -26.3)"/>
      </g>
      <g id="Grupo_1205046" data-name="Grupo 1205046" transform="translate(120.52 108.504)">
        <path id="Trazado_1045002" data-name="Trazado 1045002" d="M83.386,43.075v64.961H43.26V43.075a5.174,5.174,0,0,1,5.185-5.185H78.2A5.193,5.193,0,0,1,83.386,43.075Z" transform="translate(-43.26 -37.89)" fill="#ff7a43"/>
      </g>
      <g id="Grupo_1205047" data-name="Grupo 1205047" transform="translate(120.49 108.504)">
        <path id="Trazado_1045003" data-name="Trazado 1045003" d="M56.92,44.371c-.589,1.944-1.561,4.036-3.506,4.743-1.414.5-3.064.177-4.3,1a4.25,4.25,0,0,0-1.532,3.742,20.2,20.2,0,0,1,.059,4.213,5.544,5.544,0,0,1-3.476,4.183,4.664,4.664,0,0,1-.913.265V43.075a5.174,5.174,0,0,1,5.185-5.185H57.8a17.437,17.437,0,0,1-.884,6.481Z" transform="translate(-43.25 -37.89)" fill="#f26636"/>
      </g>
      <g id="Grupo_1205048" data-name="Grupo 1205048" transform="translate(119.794 107.808)">
        <path id="Trazado_1045004" data-name="Trazado 1045004" d="M45.86,73.29a7.183,7.183,0,0,1-2.357-.383.717.717,0,0,1,.471-1.355,5.78,5.78,0,0,0,3.241.147,6.25,6.25,0,0,0,4.507-4.8,14.528,14.528,0,0,0,.088-3.005c-.059-1.944-.147-3.948,1.09-5.568,1.3-1.679,3.329-2.092,5.273-2.475a13.916,13.916,0,0,0,2.593-.678c3.771-1.444,5.509-5.892,5.509-9.427a20.629,20.629,0,0,0-1.414-7.13.717.717,0,1,1,1.355-.471,22.11,22.11,0,0,1,1.5,7.63c0,4.125-2,9.074-6.422,10.753a19.013,19.013,0,0,1-2.828.737c-1.768.354-3.476.707-4.449,1.944-.943,1.208-.854,2.858-.8,4.625a15.472,15.472,0,0,1-.118,3.3,7.659,7.659,0,0,1-5.6,5.951,6.031,6.031,0,0,1-1.65.206Z" transform="translate(-43.014 -37.654)" fill="#f26636"/>
      </g>
      <g id="Grupo_1205049" data-name="Grupo 1205049" transform="translate(120.52 131.631)">
        <path id="Trazado_1045005" data-name="Trazado 1045005" d="M83.386,45.74V92.76H43.26V76.085a10.546,10.546,0,0,0,6.776,1.561A10.38,10.38,0,0,0,58.373,70.9c.825-2.386,1-5.421,3.182-6.658,3.27-1.885,8.1,1.885,10.842-.678s-.737-7.513,1.061-10.783c1-1.856,3.27-2.5,5.185-3.388a16.245,16.245,0,0,0,4.743-3.653Z" transform="translate(-43.26 -45.74)" fill="#f26636"/>
      </g>
      <g id="Grupo_1205050" data-name="Grupo 1205050" transform="translate(119.812 107.797)">
        <path id="Trazado_1045006" data-name="Trazado 1045006" d="M83.853,109.21H43.727a.717.717,0,0,1-.707-.707V43.542a5.909,5.909,0,0,1,5.892-5.892h25.6a.707.707,0,1,1,0,1.414h-25.6a4.464,4.464,0,0,0-4.449,4.449v64.225H83.146v-24.1a.707.707,0,0,1,1.414,0v24.836A.723.723,0,0,1,83.853,109.21Z" transform="translate(-43.02 -37.65)"/>
      </g>
      <g id="Grupo_1205051" data-name="Grupo 1205051" transform="translate(51.637 1.605)">
        <path id="Trazado_1045007" data-name="Trazado 1045007" d="M141.85,73.77,93.24,45.929a.5.5,0,0,0-.147-.059v-.029a1.321,1.321,0,0,0-1.591.412l-12.02,15.82a1.35,1.35,0,0,1-1.974.177L41.182,30.285a1.366,1.366,0,0,0-1.944.147L32.9,37.945a1.345,1.345,0,0,1-2.327-.471L19.941,3.358A1.349,1.349,0,0,1,21.414,1.62L56.826,6.393A1.343,1.343,0,0,1,57.68,8.6l-5.391,6.422a1.324,1.324,0,0,0,.236,1.944L76.918,35.53a1.316,1.316,0,0,0,1.856-.236L90.146,21.153a1.38,1.38,0,0,1,2.062-.088L124.321,55.18Z" transform="translate(-19.879 -1.605)" fill="#509dff"/>
      </g>
      <g id="Grupo_1205052" data-name="Grupo 1205052" transform="translate(124.998 45.929)">
        <path id="Trazado_1045008" data-name="Trazado 1045008" d="M93.39,44.49,44.78,16.65c1.768.8,2.445,1.473,4.39,1.8a9.1,9.1,0,0,0,3.889-.177c1.09-.324,2.033-1.237,3.211-1.178,2.416.147,2.8,4.3,5.185,4.625,1.267.177,2.386-.884,3.653-.884,1.355-.029,2.445,1.178,3.152,2.357s1.385,2.5,2.593,3.123a5.255,5.255,0,0,0,4.213-.118A5.483,5.483,0,0,0,75.8,25.9Z" transform="translate(-44.78 -16.65)" fill="#308cef"/>
      </g>
      <g id="Grupo_1205053" data-name="Grupo 1205053" transform="translate(4.297 171.432)">
        <path id="Trazado_1045009" data-name="Trazado 1045009" d="M176.509,66.468a7.242,7.242,0,0,1-7.218,7.218H11.028A7.23,7.23,0,0,1,3.81,66.468a7.242,7.242,0,0,1,7.218-7.218H169.292A7.211,7.211,0,0,1,176.509,66.468Z" transform="translate(-3.81 -59.25)" fill="#1b38ab"/>
      </g>
      <g id="Grupo_1205054" data-name="Grupo 1205054" transform="translate(37.587 171.403)">
        <path id="Trazado_1045010" data-name="Trazado 1045010" d="M154.519,66.487a7.242,7.242,0,0,1-7.218,7.218H15.11A57.03,57.03,0,0,0,22,70.936c6.6-3.093,13.758-6.54,20.829-4.8,5.951,1.444,11.666,6.481,17.411,4.3,3.977-1.5,6.511-6.246,10.783-6.54,4.154-.295,7.395,3.83,11.549,4.39,4.8.589,8.691-3.683,13.287-5.185,5.922-1.915,12.2.913,18.03,3.093,5.833,2.121,13.169,3.329,17.647-1a19.094,19.094,0,0,0,3.624-5.951H147.33A7.249,7.249,0,0,1,154.519,66.487Z" transform="translate(-15.11 -59.24)" fill="#142f84"/>
      </g>
      <g id="Grupo_1205055" data-name="Grupo 1205055" transform="translate(3.56 170.696)">
        <path id="Trazado_1045011" data-name="Trazado 1045011" d="M110.709,74.909H11.514a7.954,7.954,0,1,1,0-15.909H169.778a7.873,7.873,0,0,1,4.213,1.208.728.728,0,1,1-.766,1.237,6.444,6.444,0,0,0-3.447-1H11.514A6.538,6.538,0,0,0,5,66.954a6.513,6.513,0,0,0,6.511,6.511h99.195a.717.717,0,0,1,.707.707.705.705,0,0,1-.707.737Z" transform="translate(-3.56 -59)"/>
      </g>
      <g id="Grupo_1205056" data-name="Grupo 1205056" transform="translate(113.567 64.548)">
        <circle id="Elipse_12706" data-name="Elipse 12706" cx="17.352" cy="17.352" r="17.352" fill="#fa778d"/>
      </g>
      <g id="Grupo_1205058" data-name="Grupo 1205058" transform="translate(118.957 70.851)">
        <g id="Grupo_1205057" data-name="Grupo 1205057">
          <path id="Trazado_1045012" data-name="Trazado 1045012" d="M43.7,38.87a4.6,4.6,0,1,1,6.452.8A4.6,4.6,0,0,1,43.7,38.87ZM54.957,47.3a1.444,1.444,0,0,1-1.237-.589,1.556,1.556,0,0,1-.324-.913l-.412-19.12a1.532,1.532,0,0,1,2.74-.972,1.579,1.579,0,0,1,.354.913l.412,19.12a1.611,1.611,0,0,1-.589,1.237,2.12,2.12,0,0,1-.943.324ZM46.119,36.984a1.532,1.532,0,1,0,.265-2.151A1.514,1.514,0,0,0,46.119,36.984ZM58.4,39.047a4.606,4.606,0,1,1,6.452.766A4.63,4.63,0,0,1,58.4,39.047Zm2.445-1.915a1.532,1.532,0,1,0,.265-2.151A1.514,1.514,0,0,0,60.849,37.132Z" transform="translate(-42.73 -25.109)" fill="#fff"/>
        </g>
      </g>
      <g id="Grupo_1205059" data-name="Grupo 1205059" transform="translate(121.433 69.351)">
        <circle id="Elipse_12707" data-name="Elipse 12707" cx="2.563" cy="2.563" r="2.563" fill="#fff"/>
      </g>
      <g id="Grupo_1205060" data-name="Grupo 1205060" transform="translate(104.659 28.037)">
        <path id="Trazado_1045013" data-name="Trazado 1045013" d="M56.8,55.19c-.854,0-1.591-.884-2.033-1.414-.118-.118-.206-.236-.295-.324-1.208-1.237-2.769-2.887-4.331-4.625a62.079,62.079,0,0,1-7.571-10.135,36.388,36.388,0,0,1-3.005-6.6A32.7,32.7,0,0,1,38.152,17.51c.442-3.27,1.532-5.332,3.388-6.334a5.322,5.322,0,0,1,2.828-.589.725.725,0,0,1,.678.766.706.706,0,0,1-.766.678,3.766,3.766,0,0,0-2.033.412c-1.414.766-2.268,2.475-2.651,5.244a31.059,31.059,0,0,0,1.355,13.935,35.51,35.51,0,0,0,2.887,6.334,59.209,59.209,0,0,0,7.395,9.9c1.532,1.709,3.093,3.359,4.3,4.6.088.118.236.236.354.412.206.265.707.854.943.884a.688.688,0,0,1,.972.206.752.752,0,0,1-.236,1,1.359,1.359,0,0,1-.766.236Z" transform="translate(-37.876 -10.577)"/>
      </g>
      <g id="Grupo_1205061" data-name="Grupo 1205061" transform="translate(124.85 45.87)">
        <path id="Trazado_1045014" data-name="Trazado 1045014" d="M44.73,16.63a.644.644,0,0,1,.147.088A.392.392,0,0,0,44.73,16.63Z" transform="translate(-44.73 -16.63)" fill="#308cef"/>
      </g>
      <g id="Grupo_1205062" data-name="Grupo 1205062" transform="translate(34.877 143.15)">
        <path id="Trazado_1045015" data-name="Trazado 1045015" d="M27.948,57.781a6.38,6.38,0,0,0-4.861,2.386,8.8,8.8,0,0,0-2.033,5.745c0-4.508-3.064-8.161-6.864-8.161a6.447,6.447,0,0,0,4.861-2.357,8.94,8.94,0,0,0,2-5.745,8.8,8.8,0,0,0,2.033,5.745,6.38,6.38,0,0,0,4.861,2.386Z" transform="translate(-14.19 -49.65)" fill="#fff"/>
      </g>
      <g id="Grupo_1205063" data-name="Grupo 1205063" transform="translate(90.381 81.488)">
        <path id="Trazado_1045016" data-name="Trazado 1045016" d="M46.788,36.851a6.38,6.38,0,0,0-4.861,2.386,8.8,8.8,0,0,0-2.033,5.745c0-4.508-3.064-8.161-6.864-8.161a6.447,6.447,0,0,0,4.861-2.357,8.94,8.94,0,0,0,2-5.745,8.8,8.8,0,0,0,2.033,5.745A6.334,6.334,0,0,0,46.788,36.851Z" transform="translate(-33.03 -28.72)" fill="#fff"/>
      </g>
      <g id="Grupo_1205064" data-name="Grupo 1205064" transform="translate(143.735 142.738)">
        <path id="Trazado_1045017" data-name="Trazado 1045017" d="M60.214,54.842A4.163,4.163,0,0,0,57,56.433a5.833,5.833,0,0,0-1.326,3.8c0-2.976-2.033-5.362-4.537-5.362a4.227,4.227,0,0,0,3.211-1.561,5.833,5.833,0,0,0,1.326-3.8A5.891,5.891,0,0,0,57,53.31,4.3,4.3,0,0,0,60.214,54.842Z" transform="translate(-51.14 -49.51)" fill="#fff"/>
      </g>
      <g id="Grupo_1205065" data-name="Grupo 1205065" transform="translate(119.518 29.991)">
        <path id="Trazado_1045018" data-name="Trazado 1045018" d="M51.847,16.513a4.065,4.065,0,0,0-3.152,1.561,5.729,5.729,0,0,0-1.326,3.742c0-2.917-2-5.3-4.449-5.3a4.128,4.128,0,0,0,3.152-1.532,5.871,5.871,0,0,0,1.3-3.742,5.729,5.729,0,0,0,1.326,3.742,4.128,4.128,0,0,0,3.152,1.532Z" transform="translate(-42.92 -11.24)" fill="#fff"/>
      </g>
      <g id="Grupo_1205066" data-name="Grupo 1205066" transform="translate(44.569 133.84)">
        <path id="Trazado_1045019" data-name="Trazado 1045019" d="M25.67,51.351a3.761,3.761,0,0,0-2.887,1.414,5.355,5.355,0,0,0-1.208,3.417c0-2.681-1.827-4.861-4.1-4.861a3.761,3.761,0,0,0,2.887-1.414,5.355,5.355,0,0,0,1.208-3.417,5.355,5.355,0,0,0,1.208,3.417A3.7,3.7,0,0,0,25.67,51.351Z" transform="translate(-17.48 -46.49)" fill="#fff"/>
      </g>
      <g id="Grupo_1205069" data-name="Grupo 1205069" transform="translate(25.802 93.774)">
        <g id="Grupo_1205067" data-name="Grupo 1205067">
          <path id="Trazado_1045020" data-name="Trazado 1045020" d="M13.585,53.336c-1.385,0-2.5-4.6-2.475-10.223,0-5.656,1.149-10.223,2.5-10.223s2.5,4.6,2.475,10.223C16.089,48.74,14.97,53.336,13.585,53.336Z" transform="translate(-11.11 -32.89)" fill="#fff"/>
        </g>
        <g id="Grupo_1205068" data-name="Grupo 1205068" transform="translate(1.385 23.185)">
          <path id="Trazado_1045021" data-name="Trazado 1045021" d="M12.67,47.094c-.589,0-1.09-1.414-1.09-3.182,0-1.738.5-3.182,1.09-3.152.589,0,1.09,1.414,1.09,3.182C13.76,45.651,13.259,47.094,12.67,47.094Z" transform="translate(-11.58 -40.76)" fill="#fff"/>
        </g>
      </g>
      <g id="Grupo_1205072" data-name="Grupo 1205072" transform="translate(99.541 99.253)">
        <g id="Grupo_1205070" data-name="Grupo 1205070" transform="translate(0 7.336)">
          <path id="Trazado_1045022" data-name="Trazado 1045022" d="M38.557,37.24c1.385,0,2.534,3.683,2.593,8.22s-1.031,8.249-2.416,8.308-2.534-3.624-2.593-8.22S37.173,37.211,38.557,37.24Z" transform="translate(-36.139 -37.24)" fill="#fff"/>
        </g>
        <g id="Grupo_1205071" data-name="Grupo 1205071" transform="translate(1.297)">
          <path id="Trazado_1045023" data-name="Trazado 1045023" d="M37.641,34.75c.589,0,1.09,1.149,1.12,2.563s-.471,2.563-1.061,2.534c-.589,0-1.09-1.149-1.12-2.563S37.023,34.75,37.641,34.75Z" transform="translate(-36.58 -34.75)" fill="#fff"/>
        </g>
      </g>
      <g id="Grupo_1205075" data-name="Grupo 1205075" transform="translate(141.609 112.969)">
        <g id="Grupo_1205073" data-name="Grupo 1205073">
          <path id="Trazado_1045024" data-name="Trazado 1045024" d="M63.386,46.755c-.589.383-1.532-.029-2.593-.5a34.337,34.337,0,0,0-3.859-1.591,40.453,40.453,0,0,0-4.1-1.061c-1.149-.265-2.092-.53-2.357-1.178-.265-.619.295-1.591,1.8-2.327A8.457,8.457,0,0,1,58.5,39.89a8.6,8.6,0,0,1,4.89,3.918C64.122,45.311,63.975,46.4,63.386,46.755Z" transform="translate(-50.418 -39.405)" fill="#fff"/>
        </g>
        <g id="Grupo_1205074" data-name="Grupo 1205074" transform="translate(13.413 9.038)">
          <path id="Trazado_1045025" data-name="Trazado 1045025" d="M56.882,46.854c-.589.147-1.3-.707-1.679-1.856-.354-1.149-.324-2.21.236-2.475.53-.265,1.444.56,1.827,1.8C57.678,45.587,57.472,46.706,56.882,46.854Z" transform="translate(-54.971 -42.473)" fill="#fff"/>
        </g>
      </g>
      <g id="Grupo_1205078" data-name="Grupo 1205078" transform="translate(58.491 7.979)">
        <g id="Grupo_1205076" data-name="Grupo 1205076">
          <path id="Trazado_1045026" data-name="Trazado 1045026" d="M26.609,16.087c-1.326.383-3.152-2.21-3.948-5.568-.766-3.359-.589-6.216.707-6.688,1.3-.5,3.359,2.033,4.154,5.509C28.317,12.788,27.9,15.7,26.609,16.087Z" transform="translate(-22.205 -3.769)" fill="#fff"/>
        </g>
        <g id="Grupo_1205077" data-name="Grupo 1205077" transform="translate(4.245 13.912)">
          <path id="Trazado_1045027" data-name="Trazado 1045027" d="M25.572,12.23c-.53.236-1.355-.412-1.738-1.473s-.147-2.062.412-2.239c.589-.177,1.3.53,1.65,1.5C26.25,11.022,26.132,11.994,25.572,12.23Z" transform="translate(-23.646 -8.491)" fill="#fff"/>
        </g>
      </g>
    </g>
  </g>
</svg>
