<svg xmlns="http://www.w3.org/2000/svg" width="505.904" height="329.201" viewBox="0 0 505.904 329.201">
  <g id="Grupo_1205881" data-name="Grupo 1205881" transform="translate(-897.723 -378.023)">
    <path id="Trazado_1043232" data-name="Trazado 1043232" d="M3262.991,676.965h450.976" transform="translate(-2336 16.023)" fill="none" stroke="#707070" stroke-linecap="round" stroke-width="1.5"/>
    <path id="Trazado_1043233" data-name="Trazado 1043233" d="M3274.381,376.071v314.38" transform="translate(-2336 16.023)" fill="none" stroke="#707070" stroke-linecap="round" stroke-width="1.5"/>
    <g id="Trazado_1045618" data-name="Trazado 1045618" transform="translate(929 378.023)" fill="#707070">
      <path d="M 18.1478157043457 16.5 L 0.8521844148635864 16.5 L 9.5 1.024961590766907 L 18.1478157043457 16.5 Z" stroke="none"/>
      <path d="M 9.5 2.049922943115234 L 1.704368591308594 16 L 17.29563140869141 16 L 9.5 2.049922943115234 M 9.5 0 L 19 17 L 0 17 L 9.5 0 Z" stroke="none" fill="#707070"/>
    </g>
    <g id="Trazado_1045619" data-name="Trazado 1045619" transform="translate(1393 683.023) rotate(90)" fill="#707070">
      <path d="M 18.1478157043457 16.5 L 0.8521844148635864 16.5 L 9.5 1.024961590766907 L 18.1478157043457 16.5 Z" stroke="none"/>
      <path d="M 9.5 2.049922943115234 L 1.704368591308594 16 L 17.29563140869141 16 L 9.5 2.049922943115234 M 9.5 0 L 19 17 L 0 17 L 9.5 0 Z" stroke="none" fill="#707070"/>
    </g>
    <path id="Trazado_1043234" data-name="Trazado 1043234" d="M3274.5,499.182h279.826" transform="translate(-2336 16.023)" fill="none" stroke="#707070" stroke-linecap="round" stroke-width="1"/>
    <path id="Trazado_1043235" data-name="Trazado 1043235" d="M3274.5,550.577h209.113" transform="translate(-2336 16.023)" fill="none" stroke="#707070" stroke-linecap="round" stroke-width="1"/>
    <path id="Trazado_1043236" data-name="Trazado 1043236" d="M3274.5,588.3h323.11" transform="translate(-2336 16.023)" fill="none" stroke="#707070" stroke-linecap="round" stroke-width="1"/>
    <path id="Trazado_1043237" data-name="Trazado 1043237" d="M3313.4,613.873s85.411-7.345,165.374-57.336,154.475-142.629,154.475-142.629" transform="translate(-2336 16.023)" fill="none" stroke="#707070" stroke-linecap="round" stroke-width="2"/>
    <path id="Trazado_1043238" data-name="Trazado 1043238" d="M3306.288,385s53.9,95.362,147.367,148.315,226.5,63.5,226.5,63.5" transform="translate(-2336 16.023)" fill="none" stroke="#707070" stroke-linecap="round" stroke-width="2"/>
    <g id="Trazado_1045620" data-name="Trazado 1045620" transform="translate(1137 515.023) rotate(180)" fill="#707070">
      <path d="M 16.1419677734375 14.5 L 0.8580323457717896 14.5 L 8.5 1.014174699783325 L 16.1419677734375 14.5 Z" stroke="none"/>
      <path d="M 8.5 2.028339385986328 L 1.716058731079102 14 L 15.2839412689209 14 L 8.5 2.028339385986328 M 8.5 0 L 17 15 L 0 15 L 8.5 0 Z" stroke="none" fill="#707070"/>
    </g>
    <path id="Trazado_1043239" data-name="Trazado 1043239" d="M3464.5,485.25V449.771" transform="translate(-2336 16.023)" fill="none" stroke="#707070" stroke-linecap="round" stroke-width="1"/>
    <path id="Trazado_1043240" data-name="Trazado 1043240" d="M3464.5,485.25V449.771" transform="translate(-2336 16.023)" fill="none" stroke="#707070" stroke-linecap="round" stroke-width="1"/>
    <path id="Trazado_1043241" data-name="Trazado 1043241" d="M3464.5,485.25V449.771" transform="translate(4630.222 1103.023) rotate(180)" fill="none" stroke="#707070" stroke-linecap="round" stroke-width="1"/>
    <g id="Trazado_1045621" data-name="Trazado 1045621" transform="translate(1061 509.023)" fill="#ff848e">
      <path d="M 8 15.5 C 3.864490032196045 15.5 0.5 12.13551044464111 0.5 8 C 0.5 3.864490032196045 3.864490032196045 0.5 8 0.5 C 12.13551044464111 0.5 15.5 3.864490032196045 15.5 8 C 15.5 12.13551044464111 12.13551044464111 15.5 8 15.5 Z" stroke="none"/>
      <path d="M 8 1 C 4.140190124511719 1 1 4.140190124511719 1 8 C 1 11.85980987548828 4.140190124511719 15 8 15 C 11.85980987548828 15 15 11.85980987548828 15 8 C 15 4.140190124511719 11.85980987548828 1 8 1 M 8 0 C 12.41827964782715 0 16 3.581720352172852 16 8 C 16 12.41827964782715 12.41827964782715 16 8 16 C 3.581720352172852 16 0 12.41827964782715 0 8 C 0 3.581720352172852 3.581720352172852 0 8 0 Z" stroke="none" fill="#707070"/>
    </g>
    <g id="Trazado_1045622" data-name="Trazado 1045622" transform="translate(1069 596.023)" fill="#ff848e">
      <path d="M 8 15.5 C 3.864490032196045 15.5 0.5 12.13551044464111 0.5 8 C 0.5 3.864490032196045 3.864490032196045 0.5 8 0.5 C 12.13551044464111 0.5 15.5 3.864490032196045 15.5 8 C 15.5 12.13551044464111 12.13551044464111 15.5 8 15.5 Z" stroke="none"/>
      <path d="M 8 1 C 4.140190124511719 1 1 4.140190124511719 1 8 C 1 11.85980987548828 4.140190124511719 15 8 15 C 11.85980987548828 15 15 11.85980987548828 15 8 C 15 4.140190124511719 11.85980987548828 1 8 1 M 8 0 C 12.41827964782715 0 16 3.581720352172852 16 8 C 16 12.41827964782715 12.41827964782715 16 8 16 C 3.581720352172852 16 0 12.41827964782715 0 8 C 0 3.581720352172852 3.581720352172852 0 8 0 Z" stroke="none" fill="#707070"/>
    </g>
    <g id="Trazado_1045623" data-name="Trazado 1045623" transform="translate(1210 507.023)" fill="#ff848e">
      <path d="M 8 15.5 C 3.864490032196045 15.5 0.5 12.13551044464111 0.5 8 C 0.5 3.864490032196045 3.864490032196045 0.5 8 0.5 C 12.13551044464111 0.5 15.5 3.864490032196045 15.5 8 C 15.5 12.13551044464111 12.13551044464111 15.5 8 15.5 Z" stroke="none"/>
      <path d="M 8 1 C 4.140190124511719 1 1 4.140190124511719 1 8 C 1 11.85980987548828 4.140190124511719 15 8 15 C 11.85980987548828 15 15 11.85980987548828 15 8 C 15 4.140190124511719 11.85980987548828 1 8 1 M 8 0 C 12.41827964782715 0 16 3.581720352172852 16 8 C 16 12.41827964782715 12.41827964782715 16 8 16 C 3.581720352172852 16 0 12.41827964782715 0 8 C 0 3.581720352172852 3.581720352172852 0 8 0 Z" stroke="none" fill="#707070"/>
    </g>
    <g id="Trazado_1045624" data-name="Trazado 1045624" transform="translate(1262 596.023)" fill="#ff848e">
      <path d="M 8 15.5 C 3.864490032196045 15.5 0.5 12.13551044464111 0.5 8 C 0.5 3.864490032196045 3.864490032196045 0.5 8 0.5 C 12.13551044464111 0.5 15.5 3.864490032196045 15.5 8 C 15.5 12.13551044464111 12.13551044464111 15.5 8 15.5 Z" stroke="none"/>
      <path d="M 8 1 C 4.140190124511719 1 1 4.140190124511719 1 8 C 1 11.85980987548828 4.140190124511719 15 8 15 C 11.85980987548828 15 15 11.85980987548828 15 8 C 15 4.140190124511719 11.85980987548828 1 8 1 M 8 0 C 12.41827964782715 0 16 3.581720352172852 16 8 C 16 12.41827964782715 12.41827964782715 16 8 16 C 3.581720352172852 16 0 12.41827964782715 0 8 C 0 3.581720352172852 3.581720352172852 0 8 0 Z" stroke="none" fill="#707070"/>
    </g>
    <g id="Trazado_1045625" data-name="Trazado 1045625" transform="translate(1144 559.023)" fill="#fff">
      <path d="M 8 15.5 C 3.864490032196045 15.5 0.5 12.13551044464111 0.5 8 C 0.5 3.864490032196045 3.864490032196045 0.5 8 0.5 C 12.13551044464111 0.5 15.5 3.864490032196045 15.5 8 C 15.5 12.13551044464111 12.13551044464111 15.5 8 15.5 Z" stroke="none"/>
      <path d="M 8 1 C 4.140190124511719 1 1 4.140190124511719 1 8 C 1 11.85980987548828 4.140190124511719 15 8 15 C 11.85980987548828 15 15 11.85980987548828 15 8 C 15 4.140190124511719 11.85980987548828 1 8 1 M 8 0 C 12.41827964782715 0 16 3.581720352172852 16 8 C 16 12.41827964782715 12.41827964782715 16 8 16 C 3.581720352172852 16 0 12.41827964782715 0 8 C 0 3.581720352172852 3.581720352172852 0 8 0 Z" stroke="none" fill="#707070"/>
    </g>
    <path id="Trazado_1045626" data-name="Trazado 1045626" d="M7.521,35.024H7.454v9.795H2.208V20H7.454v2.557h.066a6.167,6.167,0,0,1,5.462-2.972,6.145,6.145,0,0,1,5.1,2.266,9.648,9.648,0,0,1,1.8,6.167,10.459,10.459,0,0,1-2.1,6.823A6.847,6.847,0,0,1,12.2,37.415,5.293,5.293,0,0,1,7.521,35.024Zm-.149-6.973v1.361a4.328,4.328,0,0,0,.93,2.872,3.026,3.026,0,0,0,2.44,1.112,3.217,3.217,0,0,0,2.781-1.386,6.693,6.693,0,0,0,.988-3.926q0-4.482-3.486-4.482a3.274,3.274,0,0,0-2.631,1.22A4.867,4.867,0,0,0,7.371,28.052Z" transform="translate(900 382.023)" fill="#212429"/>
    <path id="Trazado_1045627" data-name="Trazado 1045627" d="M29.85,37h-5.3V22.756q0-2.308.2-5.1H24.62a25.079,25.079,0,0,1-.747,3.154L18.295,37H13.912L8.234,20.979a31.174,31.174,0,0,1-.747-3.32H7.338q.216,3.52.216,6.176V37H2.723V13.193h7.853L15.439,27.3a19.868,19.868,0,0,1,.847,3.4h.1a34.268,34.268,0,0,1,.946-3.437L22.2,13.193H29.85Z" transform="translate(895 487.023)" fill="#212429"/>
    <path id="Trazado_1045628" data-name="Trazado 1045628" d="M1.627,36.087V30.774a10.208,10.208,0,0,0,3.138,1.818,10.086,10.086,0,0,0,3.42.606,7.584,7.584,0,0,0,1.768-.183,4.142,4.142,0,0,0,1.262-.506,2.208,2.208,0,0,0,.755-.764,1.905,1.905,0,0,0,.249-.955,2.064,2.064,0,0,0-.4-1.245,4.288,4.288,0,0,0-1.087-1.013,11.362,11.362,0,0,0-1.635-.9q-.946-.432-2.042-.88A10.422,10.422,0,0,1,2.9,23.918a6.2,6.2,0,0,1-1.37-4.051,6.452,6.452,0,0,1,.747-3.2,6.345,6.345,0,0,1,2.034-2.2,9.119,9.119,0,0,1,2.98-1.27,15.312,15.312,0,0,1,3.586-.407,21.568,21.568,0,0,1,3.3.224,12.96,12.96,0,0,1,2.648.689v4.964a8.007,8.007,0,0,0-1.3-.73,10.325,10.325,0,0,0-1.453-.523,11.08,11.08,0,0,0-1.486-.307,10.516,10.516,0,0,0-1.4-.1,7.316,7.316,0,0,0-1.66.174,4.258,4.258,0,0,0-1.262.49,2.437,2.437,0,0,0-.8.755,1.79,1.79,0,0,0-.282.988,1.887,1.887,0,0,0,.315,1.071,3.618,3.618,0,0,0,.9.9,9.513,9.513,0,0,0,1.411.83q.83.407,1.876.838a20.9,20.9,0,0,1,2.565,1.27,9.118,9.118,0,0,1,1.951,1.519,5.918,5.918,0,0,1,1.245,1.934,6.834,6.834,0,0,1,.432,2.532,6.782,6.782,0,0,1-.755,3.345,6.133,6.133,0,0,1-2.05,2.191,8.891,8.891,0,0,1-3.013,1.2,17.414,17.414,0,0,1-3.627.365,20.17,20.17,0,0,1-3.727-.332A11.251,11.251,0,0,1,1.627,36.087Z" transform="translate(899 537.023)" fill="#212429"/>
    <path id="Trazado_1045629" data-name="Trazado 1045629" d="M24.139,37H18.727L8.915,22.042a21.63,21.63,0,0,1-1.2-1.976H7.653q.133,1.262.133,3.852V37H2.723V13.193H8.5l9.446,14.493q.647.979,1.2,1.942h.066a25.454,25.454,0,0,1-.133-3.271V13.193h5.063Z" transform="translate(899 578.023)" fill="#212429"/>
    <path id="Trazado_1045630" data-name="Trazado 1045630" d="M12.5,28h-3.8V26.134H8.658a4.237,4.237,0,0,1-3.872,2.184,4.05,4.05,0,0,1-2.977-1.073A3.844,3.844,0,0,1,.724,24.382q0-3.783,4.481-4.367l3.529-.47q0-2.133-2.311-2.133A7.887,7.887,0,0,0,2.006,18.8V15.774A9.939,9.939,0,0,1,4.3,15.013a12.046,12.046,0,0,1,2.647-.33q5.561,0,5.561,5.548ZM8.734,22.719v-.876l-2.361.3q-1.955.254-1.955,1.765a1.458,1.458,0,0,0,.476,1.124,1.829,1.829,0,0,0,1.289.438,2.375,2.375,0,0,0,1.841-.781A2.82,2.82,0,0,0,8.734,22.719Z" transform="translate(1066 475.023)" fill="#212429"/>
    <path id="Trazado_1045631" data-name="Trazado 1045631" d="M5.751,26.489H5.7V28H1.688V8.754H5.7v8.2h.051a4.76,4.76,0,0,1,4.228-2.272,4.639,4.639,0,0,1,3.872,1.727,7.446,7.446,0,0,1,1.358,4.723,8.063,8.063,0,0,1-1.587,5.218,5.169,5.169,0,0,1-4.24,1.968A4.1,4.1,0,0,1,5.751,26.489ZM5.637,21v1.333A3.043,3.043,0,0,0,6.36,24.42a2.354,2.354,0,0,0,1.854.825,2.46,2.46,0,0,0,2.126-1.06,5.118,5.118,0,0,0,.755-3,4.072,4.072,0,0,0-.692-2.52,2.335,2.335,0,0,0-1.974-.908,2.55,2.55,0,0,0-2,.9A3.424,3.424,0,0,0,5.637,21Z" transform="translate(1194 475.023)" fill="#212429"/>
    <path id="Trazado_1045632" data-name="Trazado 1045632" d="M11.54,27.53a7.932,7.932,0,0,1-3.923.787A6.634,6.634,0,0,1,2.768,26.5,6.27,6.27,0,0,1,.914,21.817,6.907,6.907,0,0,1,2.9,16.593a7.343,7.343,0,0,1,5.313-1.911,6.817,6.817,0,0,1,3.326.609v3.4a4.573,4.573,0,0,0-2.806-.939A3.7,3.7,0,0,0,6,18.764a3.766,3.766,0,0,0-1.009,2.787,3.7,3.7,0,0,0,.965,2.71,3.546,3.546,0,0,0,2.653.984,5.3,5.3,0,0,0,2.933-.939Z" transform="translate(1091 596.023)" fill="#212429"/>
    <path id="Trazado_1045633" data-name="Trazado 1045633" d="M14.409,28H10.4V26.21h-.051a4.5,4.5,0,0,1-4.024,2.107A4.929,4.929,0,0,1,2.4,26.6,7.121,7.121,0,0,1,.914,21.792a7.751,7.751,0,0,1,1.638-5.167,5.342,5.342,0,0,1,4.291-1.942,3.65,3.65,0,0,1,3.5,1.8H10.4V8.754h4.012Zm-3.936-6.322V20.7a3.076,3.076,0,0,0-.736-2.107,2.432,2.432,0,0,0-1.917-.838A2.416,2.416,0,0,0,5.738,18.8a4.864,4.864,0,0,0-.749,2.875,4.209,4.209,0,0,0,.724,2.641,2.4,2.4,0,0,0,2.006.927,2.413,2.413,0,0,0,1.987-.978A4.075,4.075,0,0,0,10.474,21.678Z" transform="translate(1245 558.023)" fill="#212429"/>
    <path id="Trazado_1045634" data-name="Trazado 1045634" d="M8.229,24.258A6.762,6.762,0,0,1,2.981,22.1,8.008,8.008,0,0,1,1.01,16.48a8.485,8.485,0,0,1,2.009-5.93A7.016,7.016,0,0,1,8.486,8.338a6.609,6.609,0,0,1,5.14,2.148,8.038,8.038,0,0,1,1.95,5.618,8.513,8.513,0,0,1-2,5.962A6.886,6.886,0,0,1,8.229,24.258ZM8.357,9.971a4.966,4.966,0,0,0-3.942,1.751,6.779,6.779,0,0,0-1.515,4.6A6.826,6.826,0,0,0,4.377,20.9a4.817,4.817,0,0,0,3.851,1.735,5.057,5.057,0,0,0,4-1.654,6.761,6.761,0,0,0,1.461-4.63,7.064,7.064,0,0,0-1.418-4.716A4.862,4.862,0,0,0,8.357,9.971ZM23.8,9.262a2.347,2.347,0,0,0-1.171-.29q-1.848,0-1.848,2.331V13h2.578v1.5H20.786V24H19.035V14.5h-1.88V13h1.88V11.217a3.705,3.705,0,0,1,1-2.734,3.373,3.373,0,0,1,2.492-1,3.452,3.452,0,0,1,1.278.193ZM34.1,18.94H26.329a4.114,4.114,0,0,0,.988,2.836,3.407,3.407,0,0,0,2.6,1,5.4,5.4,0,0,0,3.416-1.225v1.654A6.384,6.384,0,0,1,29.5,24.258a4.649,4.649,0,0,1-3.663-1.5A6.134,6.134,0,0,1,24.5,18.543a6.015,6.015,0,0,1,1.456-4.184,4.667,4.667,0,0,1,3.615-1.617,4.136,4.136,0,0,1,3.341,1.4A5.822,5.822,0,0,1,34.1,18.017Zm-1.8-1.493a3.584,3.584,0,0,0-.736-2.374,2.507,2.507,0,0,0-2.014-.849,2.846,2.846,0,0,0-2.116.892,4.046,4.046,0,0,0-1.074,2.331ZM42.5,14.783a2.154,2.154,0,0,0-1.332-.354,2.248,2.248,0,0,0-1.885,1.063,4.917,4.917,0,0,0-.757,2.9V24H36.76V13h1.762v2.267h.043a3.841,3.841,0,0,1,1.149-1.81,2.621,2.621,0,0,1,1.729-.65,2.876,2.876,0,0,1,1.053.15Zm7.015,9.109a3.4,3.4,0,0,1-1.644.344q-2.89,0-2.89-3.223V14.5H43.087V13h1.891V10.314l1.762-.569V13h2.771v1.5H46.739v6.2a2.569,2.569,0,0,0,.376,1.579,1.5,1.5,0,0,0,1.246.473,1.852,1.852,0,0,0,1.149-.365ZM59.737,24H57.976V22.281h-.043a3.688,3.688,0,0,1-3.384,1.977,3.616,3.616,0,0,1-2.573-.87,3.015,3.015,0,0,1-.929-2.31q0-3.083,3.631-3.588l3.3-.462q0-2.8-2.267-2.8a5.415,5.415,0,0,0-3.588,1.354v-1.8a6.817,6.817,0,0,1,3.738-1.031q3.878,0,3.878,4.1Zm-1.762-5.564-2.653.365a4.308,4.308,0,0,0-1.848.607,1.75,1.75,0,0,0-.623,1.542,1.679,1.679,0,0,0,.575,1.316,2.221,2.221,0,0,0,1.531.51,2.828,2.828,0,0,0,2.165-.918,3.282,3.282,0,0,0,.854-2.326ZM78.214,24H76.452V17.727q0-3.5-2.557-3.5a2.773,2.773,0,0,0-2.186.994,3.683,3.683,0,0,0-.865,2.508V24H69.083V13h1.762v1.826h.043A3.97,3.97,0,0,1,74.5,12.742a3.365,3.365,0,0,1,2.761,1.166,5.192,5.192,0,0,1,.956,3.368Zm7.917.258a5.1,5.1,0,0,1-3.894-1.542,5.71,5.71,0,0,1-1.456-4.087A5.948,5.948,0,0,1,82.3,14.3a5.445,5.445,0,0,1,4.093-1.558,4.934,4.934,0,0,1,3.84,1.515,6.006,6.006,0,0,1,1.38,4.2,5.91,5.91,0,0,1-1.488,4.216A5.213,5.213,0,0,1,86.131,24.258Zm.129-10.033a3.351,3.351,0,0,0-2.686,1.155,4.743,4.743,0,0,0-.988,3.185,4.485,4.485,0,0,0,1,3.083,3.4,3.4,0,0,0,2.675,1.128,3.221,3.221,0,0,0,2.626-1.106,4.8,4.8,0,0,0,.918-3.147,4.884,4.884,0,0,0-.918-3.18A3.206,3.206,0,0,0,86.26,14.225ZM109.1,13l-4.383,11h-1.729L98.817,13h1.934l2.793,7.992a7.174,7.174,0,0,1,.387,1.536h.043a7.264,7.264,0,0,1,.344-1.493L107.239,13Zm10.731,5.94h-7.767a4.114,4.114,0,0,0,.988,2.836,3.407,3.407,0,0,0,2.6,1,5.4,5.4,0,0,0,3.416-1.225v1.654a6.384,6.384,0,0,1-3.835,1.053,4.649,4.649,0,0,1-3.663-1.5,6.134,6.134,0,0,1-1.332-4.216,6.015,6.015,0,0,1,1.456-4.184,4.667,4.667,0,0,1,3.615-1.617,4.136,4.136,0,0,1,3.341,1.4,5.822,5.822,0,0,1,1.182,3.878Zm-1.8-1.493a3.584,3.584,0,0,0-.736-2.374,2.507,2.507,0,0,0-2.014-.849,2.846,2.846,0,0,0-2.116.892,4.046,4.046,0,0,0-1.074,2.331ZM131.624,24h-1.762V17.727q0-3.5-2.557-3.5a2.773,2.773,0,0,0-2.186.994,3.683,3.683,0,0,0-.865,2.508V24h-1.762V13h1.762v1.826h.043a3.97,3.97,0,0,1,3.609-2.084,3.365,3.365,0,0,1,2.761,1.166,5.192,5.192,0,0,1,.956,3.368Zm12.708,0H142.57V22.131h-.043a4.067,4.067,0,0,1-3.781,2.127,4.109,4.109,0,0,1-3.314-1.477,6.059,6.059,0,0,1-1.241-4.023,6.592,6.592,0,0,1,1.375-4.372,4.535,4.535,0,0,1,3.663-1.644,3.526,3.526,0,0,1,3.3,1.783h.043V7.715h1.762Zm-1.762-4.974V17.4a3.147,3.147,0,0,0-.881-2.256,2.954,2.954,0,0,0-2.234-.924,3.042,3.042,0,0,0-2.535,1.182A5.178,5.178,0,0,0,136,18.672a4.657,4.657,0,0,0,.886,3,2.9,2.9,0,0,0,2.379,1.1,3.009,3.009,0,0,0,2.39-1.063A3.962,3.962,0,0,0,142.57,19.026Zm6.23-8.819A1.116,1.116,0,0,1,148,9.885a1.088,1.088,0,0,1-.333-.816A1.128,1.128,0,0,1,148.8,7.919a1.138,1.138,0,0,1,.822.328,1.148,1.148,0,0,1,0,1.627A1.128,1.128,0,0,1,148.8,10.207ZM149.66,24H147.9V13h1.762Zm12.955,0h-1.762V22.131h-.043a4.067,4.067,0,0,1-3.781,2.127,4.109,4.109,0,0,1-3.314-1.477,6.059,6.059,0,0,1-1.241-4.023,6.592,6.592,0,0,1,1.375-4.372,4.535,4.535,0,0,1,3.663-1.644,3.526,3.526,0,0,1,3.3,1.783h.043V7.715h1.762Zm-1.762-4.974V17.4a3.147,3.147,0,0,0-.881-2.256,2.954,2.954,0,0,0-2.234-.924,3.042,3.042,0,0,0-2.535,1.182,5.178,5.178,0,0,0-.924,3.266,4.657,4.657,0,0,0,.886,3,2.9,2.9,0,0,0,2.379,1.1,3.009,3.009,0,0,0,2.39-1.063A3.962,3.962,0,0,0,160.854,19.026ZM174.056,24h-1.762V22.281h-.043a3.688,3.688,0,0,1-3.384,1.977,3.616,3.616,0,0,1-2.573-.87,3.015,3.015,0,0,1-.929-2.31q0-3.083,3.631-3.588l3.3-.462q0-2.8-2.267-2.8a5.415,5.415,0,0,0-3.588,1.354v-1.8a6.817,6.817,0,0,1,3.738-1.031q3.878,0,3.878,4.1Zm-1.762-5.564-2.653.365a4.308,4.308,0,0,0-1.848.607,1.75,1.75,0,0,0-.623,1.542,1.679,1.679,0,0,0,.575,1.316,2.221,2.221,0,0,0,1.531.51,2.828,2.828,0,0,0,2.165-.918,3.282,3.282,0,0,0,.854-2.326Z" transform="translate(1052 422.023)" fill="#212429"/>
    <path id="Trazado_1045635" data-name="Trazado 1045635" d="M12.783,37.415a11.082,11.082,0,0,1-8.334-3.329,11.95,11.95,0,0,1-3.221-8.674A12.805,12.805,0,0,1,4.5,16.281a11.323,11.323,0,0,1,8.666-3.486,10.806,10.806,0,0,1,8.243,3.337,12.3,12.3,0,0,1,3.146,8.8,12.6,12.6,0,0,1-3.262,9.048A11.2,11.2,0,0,1,12.783,37.415Zm.232-20a5.4,5.4,0,0,0-4.482,2.117,8.825,8.825,0,0,0-1.66,5.6,8.663,8.663,0,0,0,1.66,5.595,5.319,5.319,0,0,0,4.35,2.059,5.373,5.373,0,0,0,4.4-2,8.568,8.568,0,0,0,1.627-5.553,9.285,9.285,0,0,0-1.577-5.761A5.142,5.142,0,0,0,13.016,17.41Z" transform="translate(1267 392.023)" fill="#212429"/>
    <path id="Trazado_1045636" data-name="Trazado 1045636" d="M2.723,37V13.193h8.434q12.684,0,12.684,11.6a11.734,11.734,0,0,1-3.461,8.882A12.764,12.764,0,0,1,11.156,37ZM8.085,17.56V32.65h2.656a7.178,7.178,0,0,0,5.47-2.092A7.937,7.937,0,0,0,18.2,24.864a7.2,7.2,0,0,0-1.967-5.354,7.5,7.5,0,0,0-5.52-1.951Z" transform="translate(1329 564.023)" fill="#212429"/>
    <path id="Trazado_1045637" data-name="Trazado 1045637" d="M18.627,20l-5.611,8.234L18.594,37H12.551l-2.457-4.582q-.3-.548-.714-1.544H9.313a10.78,10.78,0,0,1-.681,1.494L6.159,37H.133l5.744-8.467L.481,20H6.558l2.424,4.765a10.449,10.449,0,0,1,.681,1.594h.066a11.231,11.231,0,0,1,.714-1.627L12.916,20Z" transform="translate(1385 645.023)" fill="#212429"/>
    <path id="Trazado_1045638" data-name="Trazado 1045638" d="M2.02,24V8.6H6.273q8.143,0,8.143,7.509a7.567,7.567,0,0,1-2.261,5.731A8.388,8.388,0,0,1,6.1,24Zm1.8-13.771V22.367h2.3a6.524,6.524,0,0,0,4.716-1.622,6.081,6.081,0,0,0,1.687-4.6q0-5.919-6.295-5.919ZM26.05,18.94H18.283a4.114,4.114,0,0,0,.988,2.836,3.407,3.407,0,0,0,2.6,1,5.4,5.4,0,0,0,3.416-1.225v1.654a6.384,6.384,0,0,1-3.835,1.053,4.649,4.649,0,0,1-3.663-1.5,6.134,6.134,0,0,1-1.332-4.216,6.015,6.015,0,0,1,1.456-4.184,4.667,4.667,0,0,1,3.615-1.617,4.136,4.136,0,0,1,3.341,1.4,5.822,5.822,0,0,1,1.182,3.878Zm-1.8-1.493a3.584,3.584,0,0,0-.736-2.374,2.507,2.507,0,0,0-2.014-.849,2.846,2.846,0,0,0-2.116.892A4.046,4.046,0,0,0,18.3,17.447ZM44.333,24H42.571V17.684a4.765,4.765,0,0,0-.564-2.643,2.139,2.139,0,0,0-1.9-.816,2.348,2.348,0,0,0-1.917,1.031,3.945,3.945,0,0,0-.79,2.471V24H35.643V17.469q0-3.244-2.5-3.244a2.319,2.319,0,0,0-1.912.972,4.019,4.019,0,0,0-.752,2.53V24H28.714V13h1.762v1.74h.043a3.737,3.737,0,0,1,3.416-2A3.177,3.177,0,0,1,37.05,15.02,3.925,3.925,0,0,1,40.7,12.742q3.631,0,3.631,4.479Zm11.2,0H53.775V22.281h-.043a3.688,3.688,0,0,1-3.384,1.977,3.616,3.616,0,0,1-2.573-.87,3.015,3.015,0,0,1-.929-2.31q0-3.083,3.631-3.588l3.3-.462q0-2.8-2.267-2.8a5.415,5.415,0,0,0-3.588,1.354v-1.8a6.817,6.817,0,0,1,3.738-1.031q3.878,0,3.878,4.1Zm-1.762-5.564-2.653.365a4.308,4.308,0,0,0-1.848.607,1.75,1.75,0,0,0-.623,1.542,1.679,1.679,0,0,0,.575,1.316,2.221,2.221,0,0,0,1.531.51,2.828,2.828,0,0,0,2.165-.918,3.282,3.282,0,0,0,.854-2.326ZM67.987,24H66.226V17.727q0-3.5-2.557-3.5a2.773,2.773,0,0,0-2.186.994,3.683,3.683,0,0,0-.865,2.508V24H58.856V13h1.762v1.826h.043a3.97,3.97,0,0,1,3.609-2.084,3.365,3.365,0,0,1,2.761,1.166,5.192,5.192,0,0,1,.956,3.368ZM80.7,24H78.934V22.131h-.043a4.067,4.067,0,0,1-3.781,2.127A4.109,4.109,0,0,1,71.8,22.781a6.059,6.059,0,0,1-1.241-4.023,6.592,6.592,0,0,1,1.375-4.372,4.535,4.535,0,0,1,3.663-1.644,3.526,3.526,0,0,1,3.3,1.783h.043V7.715H80.7Zm-1.762-4.974V17.4a3.147,3.147,0,0,0-.881-2.256,2.954,2.954,0,0,0-2.234-.924,3.042,3.042,0,0,0-2.535,1.182,5.178,5.178,0,0,0-.924,3.266,4.657,4.657,0,0,0,.886,3,2.9,2.9,0,0,0,2.379,1.1,3.009,3.009,0,0,0,2.39-1.063A3.962,3.962,0,0,0,78.934,19.026ZM92.136,24H90.374V22.281h-.043a3.688,3.688,0,0,1-3.384,1.977,3.616,3.616,0,0,1-2.573-.87,3.015,3.015,0,0,1-.929-2.31q0-3.083,3.631-3.588l3.3-.462q0-2.8-2.267-2.8a5.415,5.415,0,0,0-3.588,1.354v-1.8a6.817,6.817,0,0,1,3.738-1.031q3.878,0,3.878,4.1Zm-1.762-5.564-2.653.365a4.308,4.308,0,0,0-1.848.607,1.75,1.75,0,0,0-.623,1.542,1.679,1.679,0,0,0,.575,1.316,2.221,2.221,0,0,0,1.531.51,2.828,2.828,0,0,0,2.165-.918,3.282,3.282,0,0,0,.854-2.326Zm12.01-8.229a1.116,1.116,0,0,1-.806-.322,1.088,1.088,0,0,1-.333-.816,1.128,1.128,0,0,1,1.139-1.149,1.138,1.138,0,0,1,.822.328,1.148,1.148,0,0,1,0,1.627A1.128,1.128,0,0,1,102.384,10.207ZM103.243,24h-1.762V13h1.762Zm12.7,0h-1.762V17.727q0-3.5-2.557-3.5a2.773,2.773,0,0,0-2.186.994,3.683,3.683,0,0,0-.865,2.508V24H106.81V13h1.762v1.826h.043a3.97,3.97,0,0,1,3.609-2.084,3.365,3.365,0,0,1,2.761,1.166,5.192,5.192,0,0,1,.956,3.368Zm2.653-.4V21.712a5.214,5.214,0,0,0,3.169,1.063q2.32,0,2.32-1.547a1.342,1.342,0,0,0-.2-.747,1.981,1.981,0,0,0-.537-.542,4.134,4.134,0,0,0-.795-.424q-.457-.188-.983-.392a12.659,12.659,0,0,1-1.284-.585,3.878,3.878,0,0,1-.924-.666,2.478,2.478,0,0,1-.559-.843,2.983,2.983,0,0,1-.188-1.106,2.628,2.628,0,0,1,.354-1.37,3.143,3.143,0,0,1,.945-1,4.408,4.408,0,0,1,1.348-.607,5.98,5.98,0,0,1,1.563-.2,6.311,6.311,0,0,1,2.557.494V15.02a4.983,4.983,0,0,0-2.793-.795,3.265,3.265,0,0,0-.892.113,2.183,2.183,0,0,0-.682.317,1.464,1.464,0,0,0-.44.489,1.287,1.287,0,0,0-.156.628,1.507,1.507,0,0,0,.156.72,1.584,1.584,0,0,0,.457.516,3.49,3.49,0,0,0,.73.408q.43.183.978.4a13.605,13.605,0,0,1,1.311.575,4.5,4.5,0,0,1,.988.666,2.6,2.6,0,0,1,.628.854,2.754,2.754,0,0,1,.22,1.149,2.71,2.71,0,0,1-.36,1.418,3.084,3.084,0,0,1-.961,1,4.4,4.4,0,0,1-1.386.591,6.842,6.842,0,0,1-1.644.193A6.241,6.241,0,0,1,118.594,23.6Zm17.875.4h-1.762V22.281h-.043a3.688,3.688,0,0,1-3.384,1.977,3.616,3.616,0,0,1-2.573-.87,3.015,3.015,0,0,1-.929-2.31q0-3.083,3.631-3.588l3.3-.462q0-2.8-2.267-2.8a5.415,5.415,0,0,0-3.588,1.354v-1.8a6.817,6.817,0,0,1,3.738-1.031q3.878,0,3.878,4.1Zm-1.762-5.564-2.653.365a4.308,4.308,0,0,0-1.848.607,1.75,1.75,0,0,0-.623,1.542,1.679,1.679,0,0,0,.575,1.316,2.221,2.221,0,0,0,1.531.51,2.828,2.828,0,0,0,2.165-.918,3.282,3.282,0,0,0,.854-2.326Zm10.184,5.457a3.4,3.4,0,0,1-1.644.344q-2.89,0-2.89-3.223V14.5h-1.891V13h1.891V10.314l1.762-.569V13h2.771v1.5h-2.771v6.2a2.569,2.569,0,0,0,.376,1.579,1.5,1.5,0,0,0,1.246.473,1.852,1.852,0,0,0,1.149-.365Zm3.255-13.686a1.116,1.116,0,0,1-.806-.322,1.088,1.088,0,0,1-.333-.816,1.128,1.128,0,0,1,1.139-1.149,1.138,1.138,0,0,1,.822.328,1.148,1.148,0,0,1,0,1.627A1.128,1.128,0,0,1,148.146,10.207ZM149,24h-1.762V13H149Zm2.9-.4V21.712a5.214,5.214,0,0,0,3.169,1.063q2.32,0,2.32-1.547a1.342,1.342,0,0,0-.2-.747,1.981,1.981,0,0,0-.537-.542,4.134,4.134,0,0,0-.795-.424q-.457-.188-.983-.392a12.659,12.659,0,0,1-1.284-.585,3.878,3.878,0,0,1-.924-.666,2.478,2.478,0,0,1-.559-.843,2.983,2.983,0,0,1-.188-1.106,2.628,2.628,0,0,1,.354-1.37,3.144,3.144,0,0,1,.945-1,4.408,4.408,0,0,1,1.348-.607,5.98,5.98,0,0,1,1.563-.2,6.311,6.311,0,0,1,2.557.494V15.02a4.983,4.983,0,0,0-2.793-.795,3.265,3.265,0,0,0-.892.113,2.183,2.183,0,0,0-.682.317,1.464,1.464,0,0,0-.44.489,1.288,1.288,0,0,0-.156.628,1.507,1.507,0,0,0,.156.72,1.584,1.584,0,0,0,.457.516,3.49,3.49,0,0,0,.73.408q.43.183.978.4a13.6,13.6,0,0,1,1.311.575,4.5,4.5,0,0,1,.988.666,2.6,2.6,0,0,1,.628.854,2.754,2.754,0,0,1,.22,1.149,2.71,2.71,0,0,1-.36,1.418,3.084,3.084,0,0,1-.961,1,4.4,4.4,0,0,1-1.386.591,6.842,6.842,0,0,1-1.644.193A6.241,6.241,0,0,1,151.905,23.6ZM167.342,9.262a2.347,2.347,0,0,0-1.171-.29q-1.848,0-1.848,2.331V13H166.9v1.5h-2.578V24h-1.751V14.5h-1.88V13h1.88V11.217a3.705,3.705,0,0,1,1-2.734,3.373,3.373,0,0,1,2.492-1,3.452,3.452,0,0,1,1.278.193Zm10.291,9.679h-7.767a4.114,4.114,0,0,0,.988,2.836,3.407,3.407,0,0,0,2.6,1,5.4,5.4,0,0,0,3.416-1.225v1.654a6.384,6.384,0,0,1-3.835,1.053,4.649,4.649,0,0,1-3.663-1.5,6.134,6.134,0,0,1-1.332-4.216,6.015,6.015,0,0,1,1.456-4.184,4.667,4.667,0,0,1,3.615-1.617,4.136,4.136,0,0,1,3.341,1.4,5.822,5.822,0,0,1,1.182,3.878Zm-1.8-1.493a3.584,3.584,0,0,0-.736-2.374,2.507,2.507,0,0,0-2.014-.849,2.846,2.846,0,0,0-2.116.892,4.046,4.046,0,0,0-1.074,2.331ZM187.795,23.5a5.724,5.724,0,0,1-3.008.763,4.98,4.98,0,0,1-3.8-1.531,5.548,5.548,0,0,1-1.445-3.969,6.1,6.1,0,0,1,1.558-4.367,5.449,5.449,0,0,1,4.157-1.649,5.787,5.787,0,0,1,2.557.537v1.8a4.479,4.479,0,0,0-2.621-.859,3.542,3.542,0,0,0-2.766,1.208,4.586,4.586,0,0,0-1.08,3.174,4.366,4.366,0,0,0,1.015,3.051,3.5,3.5,0,0,0,2.723,1.117,4.415,4.415,0,0,0,2.707-.956Zm11.795.5h-1.762V17.662q0-3.438-2.557-3.437a2.787,2.787,0,0,0-2.17.994,3.7,3.7,0,0,0-.881,2.551V24h-1.762V7.715h1.762v7.111h.043a4,4,0,0,1,3.609-2.084q3.717,0,3.717,4.479Zm11.193,0h-1.762V22.281h-.043a3.688,3.688,0,0,1-3.384,1.977,3.616,3.616,0,0,1-2.573-.87,3.015,3.015,0,0,1-.929-2.31q0-3.083,3.631-3.588l3.3-.462q0-2.8-2.267-2.8a5.415,5.415,0,0,0-3.588,1.354v-1.8a6.817,6.817,0,0,1,3.738-1.031q3.878,0,3.878,4.1Zm-1.762-5.564-2.653.365a4.308,4.308,0,0,0-1.848.607,1.75,1.75,0,0,0-.623,1.542,1.679,1.679,0,0,0,.575,1.316,2.221,2.221,0,0,0,1.531.51,2.828,2.828,0,0,0,2.165-.918,3.282,3.282,0,0,0,.854-2.326Z" transform="translate(1098 653.023)" fill="#212429"/>
    <path id="Trazado_1043242" data-name="Trazado 1043242" d="M3421,588.3h176.91" transform="translate(-2336 16.023)" fill="#23e0ae" stroke="#23e0ae" stroke-width="5" opacity="0.57"/>
    <path id="Trazado_1043243" data-name="Trazado 1043243" d="M3413,499h133.3" transform="translate(-2336 16.023)" fill="#23e0ae" stroke="#23e0ae" stroke-width="5" opacity="0.57"/>
    <g id="Trazado_1045639" data-name="Trazado 1045639" transform="translate(1137 515.023) rotate(180)" fill="#707070">
      <path d="M 16.1419677734375 14.5 L 0.8580323457717896 14.5 L 8.5 1.014174699783325 L 16.1419677734375 14.5 Z" stroke="none"/>
      <path d="M 8.5 2.028339385986328 L 1.716058731079102 14 L 15.2839412689209 14 L 8.5 2.028339385986328 M 8.5 0 L 17 15 L 0 15 L 8.5 0 Z" stroke="none" fill="#707070"/>
    </g>
    <g id="Trazado_1045640" data-name="Trazado 1045640" transform="translate(1157.222 604.023)" fill="#707070">
      <path d="M 16.1419677734375 14.5 L 0.8580323457717896 14.5 L 8.5 1.014174699783325 L 16.1419677734375 14.5 Z" stroke="none"/>
      <path d="M 8.5 2.028339385986328 L 1.716058731079102 14 L 15.2839412689209 14 L 8.5 2.028339385986328 M 8.5 0 L 17 15 L 0 15 L 8.5 0 Z" stroke="none" fill="#707070"/>
    </g>
  </g>
</svg>
