<svg xmlns="http://www.w3.org/2000/svg" xmlns:xlink="http://www.w3.org/1999/xlink" width="190" height="218" viewBox="0 0 190 218">
  <defs>
    <clipPath id="clip-path">
      <rect id="Rectángulo_417104" data-name="Rectángulo 417104" width="190" height="218" transform="translate(1230 449)" fill="#fff" stroke="#707070" stroke-width="1"/>
    </clipPath>
  </defs>
  <g id="Enmascarar_grupo_1098898" data-name="Enmascarar grupo 1098898" transform="translate(-1230 -449)" clip-path="url(#clip-path)">
    <g id="Grupo_1205230" data-name="Grupo 1205230">
      <circle id="Elipse_12712" data-name="Elipse 12712" cx="90.5" cy="90.5" r="90.5" transform="translate(1230 473)" fill="#e8edf7"/>
      <g id="temperature_11191748" transform="translate(1228.462 476.239)">
        <g id="Grupo_1205127" data-name="Grupo 1205127" transform="translate(30.023 6.966)">
          <path id="Trazado_1045066" data-name="Trazado 1045066" d="M160.879,81.232a74.63,74.63,0,0,1-147.422,16.5A74.8,74.8,0,0,1,19.7,47.442,73.9,73.9,0,0,1,39.025,23.4a.617.617,0,0,1,.141-.113A74.309,74.309,0,0,1,60.78,11a77.48,77.48,0,0,1,11.5-3.136h.028a75.959,75.959,0,0,1,13.985-1.3,74.667,74.667,0,0,1,73.287,60.489A78.355,78.355,0,0,1,160.879,81.232Z" transform="translate(-11.62 -6.56)" fill="#509dff"/>
        </g>
        <g id="Grupo_1205128" data-name="Grupo 1205128" transform="translate(57.428 11.43)">
          <path id="Trazado_1045067" data-name="Trazado 1045067" d="M47.228,17.124a4,4,0,0,1-3.955,2.26c-2.119-.283-3.758-2.43-5.877-2.345A4.2,4.2,0,0,0,34.118,19.5a38.383,38.383,0,0,0-1.526,4.04A5.438,5.438,0,0,1,29.909,26.7a4.475,4.475,0,0,1-3.955-.48A9.964,9.964,0,0,1,23.1,23.227c-.622-.9-1.158-1.836-1.78-2.684a.616.616,0,0,1,.141-.113A74.309,74.309,0,0,1,43.075,8.14c.339.2.678.424.989.65A9.222,9.222,0,0,1,47.2,12.406a5.838,5.838,0,0,1,.028,4.718Z" transform="translate(-21.32 -8.14)" fill="#308cef"/>
        </g>
        <g id="Grupo_1205129" data-name="Grupo 1205129" transform="translate(53.786 8.809)">
          <path id="Trazado_1045068" data-name="Trazado 1045068" d="M31.979,36.758a7.67,7.67,0,0,1-.791-.028,10.83,10.83,0,0,1-7.148-4.294,30.921,30.921,0,0,1-3.955-7.148.69.69,0,0,1,1.271-.537,29.374,29.374,0,0,0,3.758,6.809,9.612,9.612,0,0,0,6.216,3.786,5.605,5.605,0,0,0,5.792-3.164,9.628,9.628,0,0,0,.48-2.769c.028-.452.057-.932.113-1.384a5.2,5.2,0,0,1,2.373-4.21c1.723-.9,3.616-.17,5.255.452l.48.2a12.44,12.44,0,0,0,7.091.735,7.39,7.39,0,0,0,5.255-4.181c1.1-2.769-.085-5.848-1.582-7.8a22.846,22.846,0,0,0-5.425-4.746.693.693,0,0,1,.763-1.158,23.155,23.155,0,0,1,5.735,5.057c2.175,2.882,2.854,6.385,1.752,9.154a8.81,8.81,0,0,1-6.244,5.029,13.757,13.757,0,0,1-7.911-.791l-.509-.2c-1.441-.565-2.967-1.13-4.125-.537-1.187.622-1.526,2.232-1.639,3.136-.056.452-.085.876-.113,1.3a10.231,10.231,0,0,1-.565,3.164,6.523,6.523,0,0,1-6.329,4.125Z" transform="translate(-20.031 -7.212)" fill="#308cef"/>
        </g>
        <g id="Grupo_1205130" data-name="Grupo 1205130" transform="translate(97.666 18.352)">
          <path id="Trazado_1045069" data-name="Trazado 1045069" d="M115.822,59.721a10.1,10.1,0,0,1-7.487,2.317,10.22,10.22,0,0,1-8.73-8.5,12.417,12.417,0,0,0-.678-3.5,2.314,2.314,0,0,0-2.91-1.356c-1.5.819-.876,3.334-2.119,4.52-1.045,1.017-2.882.509-3.927-.452-1.074-.989-1.78-2.345-2.938-3.249-2.627-2.147-7.289-.678-8.193,2.6-.932,3.306,2.288,7.007,5.679,6.526,1.893-.254,3.7-1.554,5.538-1.045,1.893.509,2.8,2.882,2.43,4.831a13.643,13.643,0,0,1-2.769,5.2c-1.158,1.582-2.345,3.334-2.486,5.311-.141,2.4,1.243,4.577,2.741,6.413,1.5,1.893,3.164,3.7,3.786,6.018s-.339,5.255-2.627,5.877c-2.006.565-4.181-.819-6.159-.226-2.769.819-3.164,4.69-2.147,7.4.819,2.091,2.147,4.068,2.684,6.187a7.111,7.111,0,0,1,.254,1.893c-.028,4.351-4.916,7.43-9.21,6.809a7.219,7.219,0,0,1-.763-.141c-4.492-1.158-7.6-5.368-8.928-9.8-1.3-4.407-1.1-9.126-1.243-13.731a11.111,11.111,0,0,0-.819-4.407,3.889,3.889,0,0,0-3.5-2.373c-1.526.113-2.684,1.356-3.927,2.288-1.215.9-3.108,1.554-4.21.48-1.639-1.554.4-4.464-.509-6.555-.622-1.413-2.43-1.921-3.984-1.78-1.526.141-2.995.791-4.549.9-4.181.339-7.967-3.39-8.476-7.487-.537-4.153,1.723-8.306,5.029-10.821a22.035,22.035,0,0,1,11.7-3.927,28.811,28.811,0,0,0,6.216-.791,6.434,6.434,0,0,0,4.464-4.04c.565-2.034-.791-4.549-2.91-4.662C58.1,46.3,56.6,48.251,55.22,49.776s-3.871,2.8-5.368,1.413c-.763-.735-.932-1.893-1.667-2.627-1.045-1.017-2.769-.763-4.238-.622s-3.306-.085-3.842-1.469c-.424-1.243.509-2.543,1.554-3.334,1.074-.819,2.317-1.441,2.854-2.627.989-2.119-.763-4.407-2.119-6.272-1.413-1.893-2.26-4.972-.283-6.216,2.373-1.413,5,1.893,7.741,1.836,2.741,0,4.323-3.164,4.662-5.9.283-2.712.141-5.792,1.949-7.854,2.175-2.486,6.159-2.26,9.3-1.215,3.164,1.017,6.3,2.6,9.578,2.2a8.341,8.341,0,0,0,6.809-6.5c1.949,1.215,3.814,2.514,5.651,3.9a74.713,74.713,0,0,1,28.027,45.232Z" transform="translate(-35.562 -10.59)" fill="#d3dc5e"/>
        </g>
        <g id="Grupo_1205131" data-name="Grupo 1205131" transform="translate(144.773 22.308)">
          <path id="Trazado_1045070" data-name="Trazado 1045070" d="M72.025,26.794c-1.752,3.56-4.266,5.622-6.922,8.589a10.677,10.677,0,0,1-4.351,2.345A3.245,3.245,0,0,1,56.938,36.4c-.763-1.554.311-3.334,1.3-4.746.961-1.413,1.893-3.334.9-4.746-.876-1.215-2.627-1.243-3.984-1.893a5.6,5.6,0,0,1-2.91-5.368,9.233,9.233,0,0,1,2.8-5.707,19.219,19.219,0,0,1,2.317-1.949A88.655,88.655,0,0,1,72.025,26.794Z" transform="translate(-52.236 -11.99)" fill="#c6c945"/>
        </g>
        <g id="Grupo_1205132" data-name="Grupo 1205132" transform="translate(136.754 20.312)">
          <path id="Trazado_1045071" data-name="Trazado 1045071" d="M61.073,46.222a7.768,7.768,0,0,1-2.119-.254,5.248,5.248,0,0,1-3.532-2.854,6.307,6.307,0,0,1,.424-4.972c.2-.424.4-.848.622-1.271a12.357,12.357,0,0,0,1.13-2.8,3.3,3.3,0,0,0-.932-3.39,4.9,4.9,0,0,0-2.288-.593,6.744,6.744,0,0,1-2.627-.622,4.73,4.73,0,0,1-2.288-3.475,8.578,8.578,0,0,1,.48-3.927A17.451,17.451,0,0,1,60.593,11.33a.662.662,0,0,1,.876.424.683.683,0,0,1-.424.876,15.941,15.941,0,0,0-9.8,9.86,7,7,0,0,0-.424,3.277,3.385,3.385,0,0,0,1.554,2.458,5.439,5.439,0,0,0,2.119.452,5.631,5.631,0,0,1,2.967.848c1.639,1.13,1.836,3.334,1.5,4.831a13.483,13.483,0,0,1-1.243,3.108c-.2.4-.4.819-.593,1.215a5.045,5.045,0,0,0-.4,3.9,3.8,3.8,0,0,0,2.6,2.062,9.363,9.363,0,0,0,3.758.028,24.035,24.035,0,0,0,16.9-12.007.7.7,0,0,1,.932-.283.706.706,0,0,1,.283.932A25.523,25.523,0,0,1,63.305,46.024a13.664,13.664,0,0,1-2.232.2Z" transform="translate(-49.397 -11.284)" fill="#c6c945"/>
        </g>
        <g id="Grupo_1205133" data-name="Grupo 1205133" transform="translate(30.08 47.876)">
          <path id="Trazado_1045072" data-name="Trazado 1045072" d="M95.833,106.165c-.989,2.373-3.786,3.645-6.357,3.5a14.176,14.176,0,0,1-7.063-2.854c-3.164-2.147-5.99-4.775-9.239-6.7C69.9,98.17,65.942,96.9,62.269,97.831A37.788,37.788,0,0,1,57.8,99.1c-2.967.226-5.707-1.723-7.543-4.04S47.154,90,45.232,87.716a17.006,17.006,0,0,0-12.516-5.933,10.71,10.71,0,0,1-3.814-.4c-2.684-1.187-3.108-4.775-2.8-7.685.283-2.91.706-6.244-1.271-8.335-2.373-2.543-6.894-1.469-9.069,1.215a11.78,11.78,0,0,0-2.288,4.746A74.8,74.8,0,0,1,19.72,21.04a7.272,7.272,0,0,0,2.6,2.8,7.631,7.631,0,0,0,7.289.678c2.571-1.215,5.2-4.012,7.713-2.656,2.91,1.526,1.356,6.47,3.645,8.871,2.232,2.345,6.639.819,9.069,2.938,2.373,2.091,1.243,5.99-.283,8.787-1.554,2.8-3.334,6.216-1.667,8.928,1.356,2.232,4.379,2.712,6.978,2.656,2.627-.056,5.453-.367,7.685.932A6.023,6.023,0,0,1,64.3,63.5c-1.752,2.175-4.831,2.8-7.628,2.882h-.763c-2.6-.028-5.17-.226-7.6.622-2.656.876-5.029,3.56-4.407,6.272.622,2.627,3.645,3.984,6.357,3.842,2.684-.141,5.142-1.413,7.713-2.175a12.347,12.347,0,0,1,1.384-.339c2.232-.48,4.605-.452,6.385.848,2.741,1.978,2.995,5.764,3.842,9.069l.254.932a14.494,14.494,0,0,0,8.617,9.1c2.514.961,5.2,1.158,7.854,1.639a15.459,15.459,0,0,1,7.43,2.854c1.949,1.7,3.164,4.662,2.091,7.12Z" transform="translate(-11.64 -21.04)" fill="#d3dc5e"/>
        </g>
        <g id="Grupo_1205134" data-name="Grupo 1205134" transform="translate(31.86 90.732)">
          <path id="Trazado_1045073" data-name="Trazado 1045073" d="M154.692,54.068A74.643,74.643,0,0,1,12.27,43.614a12.159,12.159,0,0,1,2.288-4.746c2.175-2.684,6.7-3.758,9.069-1.215,2.006,2.119,1.554,5.453,1.271,8.335-.283,2.91.113,6.5,2.8,7.685a10.105,10.105,0,0,0,3.814.4A16.906,16.906,0,0,1,44.026,60c1.893,2.288,3.193,5.029,5.029,7.346s4.605,4.294,7.543,4.04a36.316,36.316,0,0,0,4.464-1.271c3.7-.932,7.656.339,10.906,2.288,3.277,1.949,6.1,4.549,9.239,6.7a14.176,14.176,0,0,0,7.063,2.854c2.571.141,5.368-1.13,6.357-3.5,1.045-2.486-.17-5.453-2.2-7.176a15.076,15.076,0,0,0-7.43-2.854,41.291,41.291,0,0,1-7.854-1.639,14.637,14.637,0,0,1-8.617-9.1c-.085-.311-.2-.622-.254-.932a14.162,14.162,0,0,0,3.108.678c7.12.593,14.155-5.2,20.935-2.967,7.628,2.543,10.256,13.9,18.223,14.946,3.08.424,5.933-.932,8.476-2.854,4.294.622,9.182-2.458,9.21-6.809a7.111,7.111,0,0,0-.254-1.893,14.3,14.3,0,0,1,5.453-2.967c4.125-1.017,8.391.509,12.657.706a18.566,18.566,0,0,0,8.617-1.526Z" transform="translate(-12.27 -36.209)" fill="#308cef"/>
        </g>
        <g id="Grupo_1205135" data-name="Grupo 1205135" transform="translate(29.317 6.337)">
          <path id="Trazado_1045074" data-name="Trazado 1045074" d="M86.692,157.016A75.74,75.74,0,0,1,13.235,98.307a75.259,75.259,0,0,1,6.3-50.742,80.455,80.455,0,0,1,4.8-8.193,75.342,75.342,0,0,1,136.319,28c.113.537.2,1.045.311,1.582a.687.687,0,1,1-1.356.226c-.085-.537-.2-1.045-.283-1.554a73.939,73.939,0,0,0-133.8-27.462,74.836,74.836,0,0,0-4.718,8.052,73.752,73.752,0,0,0-6.187,49.809,74.348,74.348,0,0,0,72.1,57.635,75.5,75.5,0,0,0,8.758-.509.683.683,0,0,1,.17,1.356,78.935,78.935,0,0,1-8.956.509Z" transform="translate(-11.37 -6.337)"/>
        </g>
        <g id="Grupo_1205136" data-name="Grupo 1205136" transform="translate(62.159 93.144)">
          <path id="Trazado_1045075" data-name="Trazado 1045075" d="M38.549,45.305c-.452.085-.932.226-1.384.339-2.571.763-5.029,2.034-7.713,2.175S23.717,46.6,23.1,43.977c-.622-2.712,1.723-5.368,4.407-6.272,2.43-.819,5.029-.622,7.6-.622a68.15,68.15,0,0,0,3.447,8.222Z" transform="translate(-22.994 -37.063)" fill="#308cef"/>
        </g>
        <g id="Grupo_1205137" data-name="Grupo 1205137" transform="translate(30.08 39.74)">
          <path id="Trazado_1045076" data-name="Trazado 1045076" d="M95.833,111.422c-.989,2.373-3.786,3.645-6.357,3.5a14.176,14.176,0,0,1-7.063-2.854c-3.164-2.147-5.99-4.775-9.239-6.7-3.277-1.949-7.233-3.221-10.906-2.288a37.788,37.788,0,0,1-4.464,1.271c-2.967.226-5.707-1.723-7.543-4.04s-3.108-5.057-5.029-7.346A17.006,17.006,0,0,0,32.716,87.04a10.71,10.71,0,0,1-3.814-.4c-2.684-1.187-3.108-4.775-2.8-7.685.283-2.91.706-6.244-1.271-8.335-2.373-2.543-6.894-1.469-9.069,1.215a11.78,11.78,0,0,0-2.288,4.746A74.8,74.8,0,0,1,19.72,26.3a75.662,75.662,0,0,1,4.775-8.137,80.09,80.09,0,0,0-2.175,10.906,33.32,33.32,0,0,0,0,7.12C23.054,42.514,26.7,48.9,32.688,51.046c3.023,1.1,6.329,1.045,9.352,2.062,5.311,1.836,8.928,6.809,11.245,11.923.989,2.147,1.78,4.351,2.6,6.555-2.6-.028-5.17-.226-7.6.622-2.656.876-5.029,3.56-4.407,6.272.622,2.627,3.645,3.984,6.357,3.842,2.684-.141,5.142-1.413,7.713-2.175a12.347,12.347,0,0,1,1.384-.339c.141.283.283.565.424.819,2.2,3.984,5.622,7.6,9.8,9.1l.254.932a14.494,14.494,0,0,0,8.617,9.1c2.514.961,5.2,1.158,7.854,1.639a15.459,15.459,0,0,1,7.43,2.854c1.978,1.752,3.193,4.718,2.119,7.176Z" transform="translate(-11.64 -18.16)" fill="#c6c945"/>
        </g>
        <g id="Grupo_1205138" data-name="Grupo 1205138" transform="translate(138.683 112.405)">
          <path id="Trazado_1045077" data-name="Trazado 1045077" d="M59.29,45.773c-.028,4.351-4.916,7.43-9.21,6.809a31.562,31.562,0,0,0,3.5-3.221,62.416,62.416,0,0,1,5.453-5.481,8.484,8.484,0,0,1,.254,1.893Z" transform="translate(-50.08 -43.88)" fill="#c6c945"/>
        </g>
        <g id="Grupo_1205139" data-name="Grupo 1205139" transform="translate(1.995 23.466)">
          <path id="Trazado_1045078" data-name="Trazado 1045078" d="M1.842,101.565a26.643,26.643,0,1,0,41.7-24.636A3.653,3.653,0,0,1,41.9,73.963V16.1a3.714,3.714,0,0,0-3.7-3.7H18.483a3.7,3.7,0,0,0-3.7,3.7v57.89A3.469,3.469,0,0,1,13.2,76.844a27.37,27.37,0,0,0-5.933,5.622,26.678,26.678,0,0,0-5.425,19.1Z" transform="translate(-1.7 -12.4)" fill="#f4eded"/>
        </g>
        <g id="Grupo_1205140" data-name="Grupo 1205140" transform="translate(1.995 93.561)">
          <path id="Trazado_1045079" data-name="Trazado 1045079" d="M1.842,56.281A26.663,26.663,0,0,0,50.691,68.062a8.274,8.274,0,0,1-3.334.989,8.811,8.811,0,0,1-3.645-.424,21.488,21.488,0,0,1-15.369,6.442q-.932,0-1.949-.085A21.505,21.505,0,0,1,9.047,43.849a4.425,4.425,0,0,1-1.158-1.582,9.341,9.341,0,0,1-.593-3.56c-.028-.509-.028-.989-.028-1.5A26.568,26.568,0,0,0,1.842,56.281Z" transform="translate(-1.7 -37.21)" fill="#d8d6d6"/>
        </g>
        <g id="Grupo_1205141" data-name="Grupo 1205141" transform="translate(1.537 22.788)">
          <path id="Trazado_1045080" data-name="Trazado 1045080" d="M28.611,126.555c-.706,0-1.441-.028-2.175-.085a.693.693,0,0,1-.65-.735.713.713,0,0,1,.735-.65A25.947,25.947,0,0,0,43.415,77.9a4.279,4.279,0,0,1-1.921-3.532V16.539a3,3,0,0,0-3.023-2.995H18.779a3.021,3.021,0,0,0-3.023,2.995v57.89a4.134,4.134,0,0,1-1.865,3.419A26.684,26.684,0,0,0,8.1,83.328,26.009,26.009,0,0,0,2.929,95.59a.7.7,0,0,1-1.384-.2A27.241,27.241,0,0,1,7,82.481a28.988,28.988,0,0,1,6.1-5.792A2.757,2.757,0,0,0,14.371,74.4V16.539a4.389,4.389,0,0,1,4.407-4.379H38.527a4.407,4.407,0,0,1,4.407,4.379V74.372a2.972,2.972,0,0,0,1.328,2.4,27.31,27.31,0,0,1-15.652,49.781Z" transform="translate(-1.537 -12.16)"/>
        </g>
        <g id="Grupo_1205142" data-name="Grupo 1205142" transform="translate(7.066 49.515)">
          <path id="Trazado_1045081" data-name="Trazado 1045081" d="M46.681,81.968A21.606,21.606,0,0,1,25.1,103.524q-.932,0-1.949-.085A21.505,21.505,0,0,1,5.8,72.305,21.948,21.948,0,0,1,12.806,64.2a8.639,8.639,0,0,0,3.758-7.035V24.078a2.46,2.46,0,0,1,2.458-2.458H31.114a2.46,2.46,0,0,1,2.458,2.458V57.105a7.689,7.689,0,0,0,.339,2.26,8.764,8.764,0,0,0,3.475,4.859,22.049,22.049,0,0,1,6.385,6.95V71.2a20.817,20.817,0,0,1,2.147,5.17c.141.537.254,1.074.367,1.61a21.159,21.159,0,0,1,.4,3.984Z" transform="translate(-3.494 -21.62)" fill="#fe515e"/>
        </g>
        <g id="Grupo_1205143" data-name="Grupo 1205143" transform="translate(35.54 87.317)">
          <path id="Trazado_1045082" data-name="Trazado 1045082" d="M25.375,46.781A19.083,19.083,0,0,1,22.578,50a6.48,6.48,0,0,1-2.967,1.723,2.743,2.743,0,0,1-2.995-1.271c-.593-1.187.085-2.6.706-3.786.65-1.187,1.271-2.627.593-3.814-.622-1.1-2.062-1.356-3.051-2.119a3.484,3.484,0,0,1-1.215-3.419A3.337,3.337,0,0,1,15.543,35a8.764,8.764,0,0,0,3.475,4.859,21.283,21.283,0,0,1,6.357,6.922Z" transform="translate(-13.573 -35)" fill="#f83b4d"/>
        </g>
        <g id="Grupo_1205144" data-name="Grupo 1205144" transform="translate(7.088 99.97)">
          <path id="Trazado_1045083" data-name="Trazado 1045083" d="M4.2,54.88A21.6,21.6,0,0,0,23.16,70.843c.678.056,1.3.085,1.949.085a21.6,21.6,0,0,0,15.369-6.442A9.49,9.49,0,0,1,35.365,60.5c-1.61-2.684-2.2-6.47-5.142-7.515-3.9-1.384-8.278,3.56-11.923,1.582-1.752-.932-2.43-3.108-2.486-5.085-.057-2.006.339-3.984,0-5.933s-1.752-3.955-3.729-4.068c-1.667-.085-3.221,1.158-4.831.9a2.612,2.612,0,0,1-1.413-.65A21.275,21.275,0,0,0,4.2,54.88Z" transform="translate(-3.502 -39.479)" fill="#f83b4d"/>
        </g>
        <g id="Grupo_1205145" data-name="Grupo 1205145" transform="translate(31.605 80)">
          <path id="Trazado_1045084" data-name="Trazado 1045084" d="M22.605,33.823H12.886a.706.706,0,1,1,0-1.413h9.719a.706.706,0,1,1,0,1.413Z" transform="translate(-12.18 -32.41)"/>
        </g>
        <g id="Grupo_1205146" data-name="Grupo 1205146" transform="translate(31.605 71.072)">
          <path id="Trazado_1045085" data-name="Trazado 1045085" d="M22.605,30.663H12.886a.706.706,0,1,1,0-1.413h9.719a.706.706,0,0,1,0,1.413Z" transform="translate(-12.18 -29.25)"/>
        </g>
        <g id="Grupo_1205147" data-name="Grupo 1205147" transform="translate(31.605 62.116)">
          <path id="Trazado_1045086" data-name="Trazado 1045086" d="M22.605,27.493H12.886a.706.706,0,1,1,0-1.413h9.719a.706.706,0,0,1,0,1.413Z" transform="translate(-12.18 -26.08)"/>
        </g>
        <g id="Grupo_1205148" data-name="Grupo 1205148" transform="translate(31.605 53.16)">
          <path id="Trazado_1045087" data-name="Trazado 1045087" d="M22.605,24.323H12.886a.706.706,0,1,1,0-1.413h9.719a.706.706,0,0,1,0,1.413Z" transform="translate(-12.18 -22.91)"/>
        </g>
        <g id="Grupo_1205149" data-name="Grupo 1205149" transform="translate(31.605 44.203)">
          <path id="Trazado_1045088" data-name="Trazado 1045088" d="M22.605,21.153H12.886a.706.706,0,1,1,0-1.413h9.719a.706.706,0,1,1,0,1.413Z" transform="translate(-12.18 -19.74)"/>
        </g>
        <g id="Grupo_1205150" data-name="Grupo 1205150" transform="translate(76.395 31.983)">
          <path id="Trazado_1045089" data-name="Trazado 1045089" d="M34.466,58.628c-1.328-6.583-6.018-11.16-6.329-18.11-.085-2.147-.452-4.04.989-5.933,1.074-1.413,2.854-2.373,3.475-4.04.65-1.723-.141-3.673-1.074-5.255-.932-1.61-2.034-3.221-2.091-5.085a4.678,4.678,0,0,1,8.645-2.6c1.554,2.486.735,6.3,3.051,8.109,1.723,1.328,4.436.848,5.99,2.373,1.187,1.187,1.215,3.108.706,4.718-.509,1.582-1.413,3.051-1.836,4.662s-.226,3.588,1.1,4.577c1.526,1.158,4.04.706,5.142,2.26,1.074,1.554-.311,3.758-2.062,4.52s-3.729.706-5.509,1.356A7.1,7.1,0,0,0,41.247,60.8c1.243,1.836,3.447,3.39,3.249,5.622-.2,2.091-2.741,3.362-4.746,2.769a6.77,6.77,0,0,1-4.1-4.436A49.971,49.971,0,0,1,34.466,58.628Z" transform="translate(-28.033 -15.414)" fill="#d3dc5e"/>
        </g>
        <g id="Grupo_1205152" data-name="Grupo 1205152" transform="translate(28.581 83.773)">
          <g id="Grupo_1205151" data-name="Grupo 1205151">
            <path id="Trazado_1045090" data-name="Trazado 1045090" d="M32.385,55.852a17.213,17.213,0,0,1-2.741,2.4,11.849,11.849,0,0,1-6.809,2.373,10.026,10.026,0,0,1-2.062-.226c-3.334-.819-5.82-3.984-5.538-7.063a11.367,11.367,0,0,1,.509-2.2,11.19,11.19,0,0,0,.367-1.3,2.854,2.854,0,0,0-.509-2.627,3.229,3.229,0,0,0-1.158-.622,7.126,7.126,0,0,1-.932-.424,5.176,5.176,0,0,1-2.345-5.227,7.643,7.643,0,0,1,3.051-4.775,17.094,17.094,0,0,1,4.916-2.373.582.582,0,0,1,.565.085v1.158a.618.618,0,0,1-.141.085,14.892,14.892,0,0,0-4.492,2.147,6.266,6.266,0,0,0-2.514,3.871,3.787,3.787,0,0,0,1.667,3.814,6.343,6.343,0,0,0,.763.367,5.189,5.189,0,0,1,1.582.876,4.1,4.1,0,0,1,.932,3.955,8.8,8.8,0,0,1-.4,1.413,10.436,10.436,0,0,0-.452,1.921c-.226,2.43,1.78,4.944,4.492,5.594a9.817,9.817,0,0,0,7.741-1.893A19.071,19.071,0,0,0,32.046,54.3a12.546,12.546,0,0,1,.339,1.554Z" transform="translate(-11.109 -33.746)" fill="#f83b4d"/>
          </g>
        </g>
        <g id="Grupo_1205153" data-name="Grupo 1205153" transform="translate(77.714 99.918)">
          <path id="Trazado_1045091" data-name="Trazado 1045091" d="M37.626,44.885A4.153,4.153,0,0,0,34.4,46.467a5.965,5.965,0,0,0-1.356,3.814c0-2.995-2.034-5.425-4.549-5.425a4.153,4.153,0,0,0,3.221-1.582,5.946,5.946,0,0,0,1.328-3.814A5.812,5.812,0,0,0,34.4,43.274a4.137,4.137,0,0,0,3.221,1.61Z" transform="translate(-28.5 -39.46)" fill="#fff"/>
        </g>
        <g id="Grupo_1205154" data-name="Grupo 1205154" transform="translate(113.369 23.438)">
          <path id="Trazado_1045092" data-name="Trazado 1045092" d="M50.246,17.815A4.153,4.153,0,0,0,47.025,19.4a5.965,5.965,0,0,0-1.356,3.814c0-2.995-2.034-5.425-4.549-5.425A4.153,4.153,0,0,0,44.341,16.2a5.946,5.946,0,0,0,1.328-3.814A5.812,5.812,0,0,0,47.025,16.2,4.054,4.054,0,0,0,50.246,17.815Z" transform="translate(-41.12 -12.39)" fill="#fff"/>
        </g>
        <g id="Grupo_1205155" data-name="Grupo 1205155" transform="translate(11.518 94.521)">
          <path id="Trazado_1045093" data-name="Trazado 1045093" d="M14.2,42.975a4.153,4.153,0,0,0-3.221,1.582,5.965,5.965,0,0,0-1.356,3.814c0-2.995-2.034-5.425-4.549-5.425a4.153,4.153,0,0,0,3.221-1.582A5.946,5.946,0,0,0,9.619,37.55a5.812,5.812,0,0,0,1.356,3.814A4.138,4.138,0,0,0,14.2,42.975Z" transform="translate(-5.07 -37.55)" fill="#fff"/>
        </g>
        <g id="Grupo_1205156" data-name="Grupo 1205156" transform="translate(85.822 107.376)">
          <path id="Trazado_1045094" data-name="Trazado 1045094" d="M37.105,45.49a2.67,2.67,0,0,0-2.034.989,3.813,3.813,0,0,0-.848,2.4,3.158,3.158,0,0,0-2.854-3.39A2.67,2.67,0,0,0,33.4,44.5a3.794,3.794,0,0,0,.819-2.4,3.657,3.657,0,0,0,.848,2.4,2.718,2.718,0,0,0,2.034.989Z" transform="translate(-31.37 -42.1)" fill="#fff"/>
        </g>
        <g id="Grupo_1205159" data-name="Grupo 1205159" transform="translate(17.785 27.704)">
          <g id="Grupo_1205157" data-name="Grupo 1205157" transform="translate(0)">
            <path id="Trazado_1045095" data-name="Trazado 1045095" d="M9.864,26.105c-1.328.057-2.486-2.656-2.571-6.074s.932-6.159,2.26-6.131,2.486,2.741,2.571,6.074S11.192,26.049,9.864,26.105Z" transform="translate(-7.288 -13.9)" fill="#fff"/>
          </g>
          <g id="Grupo_1205158" data-name="Grupo 1205158" transform="translate(1.614 13.843)">
            <path id="Trazado_1045096" data-name="Trazado 1045096" d="M8.963,22.586c-.565.028-1.074-.791-1.1-1.836s.424-1.921.989-1.949,1.074.791,1.1,1.836C10.008,21.682,9.556,22.558,8.963,22.586Z" transform="translate(-7.86 -18.8)" fill="#fff"/>
          </g>
        </g>
        <g id="Grupo_1205162" data-name="Grupo 1205162" transform="translate(170.668 75.379)">
          <g id="Grupo_1205160" data-name="Grupo 1205160" transform="translate(0.7)">
            <path id="Trazado_1045097" data-name="Trazado 1045097" d="M63.093,47.233c-1.328-.254-1.582-4.04-1.384-8.306.226-4.266.509-7.8,1.836-8.137.622-.141,1.441.678,2.062,2.2a15.081,15.081,0,0,1,.9,6.159C66.285,43.984,64.364,47.487,63.093,47.233Z" transform="translate(-61.649 -30.774)" fill="#fff"/>
          </g>
          <g id="Grupo_1205161" data-name="Grupo 1205161" transform="translate(0 18.625)">
            <path id="Trazado_1045098" data-name="Trazado 1045098" d="M61.991,42.376c-.565-.141-.763-1.356-.424-2.741.311-1.384,1.017-2.373,1.582-2.26s.791,1.356.48,2.741c-.367,1.384-1.1,2.373-1.639,2.26Z" transform="translate(-61.401 -37.367)" fill="#fff"/>
          </g>
        </g>
      </g>
    </g>
  </g>
</svg>
