<svg xmlns="http://www.w3.org/2000/svg" xmlns:xlink="http://www.w3.org/1999/xlink" width="400" height="295" viewBox="0 0 400 295">
  <defs>
    <clipPath id="clip-path">
      <rect id="Rectángulo_417098" data-name="Rectángulo 417098" width="400" height="295" transform="translate(1020 704)" fill="#fff" stroke="#707070" stroke-width="1" opacity="0.37"/>
    </clipPath>
  </defs>
  <g id="Enmascarar_grupo_1098899" data-name="Enmascarar grupo 1098899" transform="translate(-1020 -704)" clip-path="url(#clip-path)">
    <g id="OBJECTS_1_" transform="translate(1013.633 639.486)">
      <path id="Trazado_1045159" data-name="Trazado 1045159" d="M287.658,84.486c29.283,13.516,49.989,45.37,57.38,75.976,20.406,84.5-60.885,147.569-136.935,155.336a149.047,149.047,0,0,1-54.065-3.981c-30.625-8.307-58.267-28.965-72.446-57.352-22.18-44.4-5.431-108.388,46.9-121.887,11.43-2.949,23.591-2.766,34.725-6.685,17.09-6.016,29.342-20.68,42.992-32.593C224.9,76.99,251.19,73.363,274.733,79.783A82.676,82.676,0,0,1,287.658,84.486Z" transform="translate(-9.301 24.74)" fill="#e4f2f4" opacity="0.3"/>
      <path id="Trazado_1045160" data-name="Trazado 1045160" d="M348.562,261.621l-50.4-70.119-30.589,17.709-46.717-66.888-60.879,24.071L96.919,78.642,59.588,112.633l86.327,93.044,71.565-30.945L259.258,233.8l34.4-22.713,48.987,55.01-7.923,7.983,20.794,2.891V255.189Z" transform="translate(-6.145 -2.73)" fill="#ef5b51"/>
      <g id="Grupo_1205231" data-name="Grupo 1205231" transform="translate(53.443 95.359)">
        <path id="Trazado_1045161" data-name="Trazado 1045161" d="M353.768,283.333l1.743.243L342.578,278.6l5.9-5.516L295.676,208.2l-34.4,22.713L219.5,171.849,147.233,204.4l-71.672-99.7L59.588,119.239l86.327,93.044,71.565-30.945L259.258,240.4l34.4-22.713,48.987,55.01-7.923,7.982Z" transform="translate(-59.588 -104.695)" fill="#d64238"/>
      </g>
      <g id="Grupo_1205270" data-name="Grupo 1205270" transform="translate(172.539 67.872)">
        <g id="Grupo_1205269" data-name="Grupo 1205269">
          <g id="Grupo_1205232" data-name="Grupo 1205232" transform="translate(9.785 9.785)">
            <circle id="Elipse_12713" data-name="Elipse 12713" cx="11.824" cy="11.824" r="11.824" fill="#7caecf"/>
          </g>
          <g id="Grupo_1205235" data-name="Grupo 1205235" transform="translate(19.011)">
            <g id="Grupo_1205233" data-name="Grupo 1205233" transform="translate(2.279 2.598)">
              <rect id="Rectángulo_417106" data-name="Rectángulo 417106" width="0.637" height="19.011" fill="#7caecf"/>
            </g>
            <g id="Grupo_1205234" data-name="Grupo 1205234">
              <path id="Trazado_1045162" data-name="Trazado 1045162" d="M249.8,70.47a2.6,2.6,0,1,1-2.6-2.6A2.6,2.6,0,0,1,249.8,70.47Z" transform="translate(-244.601 -67.872)" fill="#7caecf"/>
            </g>
          </g>
          <g id="Grupo_1205238" data-name="Grupo 1205238" transform="translate(9.505 2.546)">
            <g id="Grupo_1205236" data-name="Grupo 1205236" transform="translate(2.318 2.437)">
              <rect id="Rectángulo_417107" data-name="Rectángulo 417107" width="0.638" height="19.011" transform="matrix(0.866, -0.5, 0.5, 0.866, 0, 0.319)" fill="#7caecf"/>
            </g>
            <g id="Grupo_1205237" data-name="Grupo 1205237">
              <path id="Trazado_1045163" data-name="Trazado 1045163" d="M236.714,72.583a2.6,2.6,0,1,1-3.549-.951A2.6,2.6,0,0,1,236.714,72.583Z" transform="translate(-231.866 -71.283)" fill="#7caecf"/>
            </g>
          </g>
          <g id="Grupo_1205241" data-name="Grupo 1205241" transform="translate(2.546 9.505)">
            <g id="Grupo_1205239" data-name="Grupo 1205239" transform="translate(2.437 2.326)">
              <rect id="Rectángulo_417108" data-name="Rectángulo 417108" width="0.638" height="19.011" transform="matrix(0.5, -0.866, 0.866, 0.5, 0, 0.553)" fill="#7caecf"/>
            </g>
            <g id="Grupo_1205240" data-name="Grupo 1205240">
              <path id="Trazado_1045164" data-name="Trazado 1045164" d="M226.441,80.954a2.6,2.6,0,1,1-3.549.951A2.6,2.6,0,0,1,226.441,80.954Z" transform="translate(-222.544 -80.605)" fill="#7caecf"/>
            </g>
          </g>
          <g id="Grupo_1205244" data-name="Grupo 1205244" transform="translate(0 19.011)">
            <g id="Grupo_1205242" data-name="Grupo 1205242" transform="translate(2.598 2.279)">
              <rect id="Rectángulo_417109" data-name="Rectángulo 417109" width="19.011" height="0.637" fill="#7caecf"/>
            </g>
            <g id="Grupo_1205243" data-name="Grupo 1205243">
              <circle id="Elipse_12714" data-name="Elipse 12714" cx="2.598" cy="2.598" r="2.598" fill="#7caecf"/>
            </g>
          </g>
          <g id="Grupo_1205247" data-name="Grupo 1205247" transform="translate(2.546 21.339)">
            <g id="Grupo_1205245" data-name="Grupo 1205245" transform="translate(2.442)">
              <rect id="Rectángulo_417110" data-name="Rectángulo 417110" width="19.011" height="0.638" transform="translate(0 9.504) rotate(-29.993)" fill="#7caecf"/>
            </g>
            <g id="Grupo_1205246" data-name="Grupo 1205246" transform="translate(0 7.178)">
              <path id="Trazado_1045165" data-name="Trazado 1045165" d="M223.844,106.422a2.6,2.6,0,1,1-.951,3.549A2.6,2.6,0,0,1,223.844,106.422Z" transform="translate(-222.544 -106.073)" fill="#7caecf"/>
            </g>
          </g>
          <g id="Grupo_1205250" data-name="Grupo 1205250" transform="translate(9.505 21.443)">
            <g id="Grupo_1205248" data-name="Grupo 1205248" transform="translate(2.323)">
              <rect id="Rectángulo_417111" data-name="Rectángulo 417111" width="19.011" height="0.638" transform="translate(0 16.466) rotate(-60.007)" fill="#7caecf"/>
            </g>
            <g id="Grupo_1205249" data-name="Grupo 1205249" transform="translate(0 14.032)">
              <path id="Trazado_1045166" data-name="Trazado 1045166" d="M232.215,116.695a2.6,2.6,0,1,1,.951,3.549A2.6,2.6,0,0,1,232.215,116.695Z" transform="translate(-231.866 -115.395)" fill="#7caecf"/>
            </g>
          </g>
          <g id="Grupo_1205253" data-name="Grupo 1205253" transform="translate(19.011 21.609)">
            <g id="Grupo_1205251" data-name="Grupo 1205251" transform="translate(2.279)">
              <rect id="Rectángulo_417112" data-name="Rectángulo 417112" width="0.637" height="19.011" fill="#7caecf"/>
            </g>
            <g id="Grupo_1205252" data-name="Grupo 1205252" transform="translate(0 16.413)">
              <path id="Trazado_1045167" data-name="Trazado 1045167" d="M244.6,121.406a2.6,2.6,0,1,1,2.6,2.6A2.6,2.6,0,0,1,244.6,121.406Z" transform="translate(-244.601 -118.808)" fill="#7caecf"/>
            </g>
          </g>
          <g id="Grupo_1205256" data-name="Grupo 1205256" transform="translate(21.328 21.448)">
            <g id="Grupo_1205254" data-name="Grupo 1205254">
              <rect id="Rectángulo_417113" data-name="Rectángulo 417113" width="0.638" height="19.011" transform="matrix(0.866, -0.5, 0.5, 0.866, 0, 0.319)" fill="#7caecf"/>
            </g>
            <g id="Grupo_1205255" data-name="Grupo 1205255" transform="translate(7.189 14.027)">
              <path id="Trazado_1045168" data-name="Trazado 1045168" d="M257.684,119.292a2.6,2.6,0,1,1,3.549.951A2.6,2.6,0,0,1,257.684,119.292Z" transform="translate(-257.335 -115.395)" fill="#7caecf"/>
            </g>
          </g>
          <g id="Grupo_1205259" data-name="Grupo 1205259" transform="translate(21.447 21.337)">
            <g id="Grupo_1205257" data-name="Grupo 1205257">
              <rect id="Rectángulo_417114" data-name="Rectángulo 417114" width="0.638" height="19.011" transform="matrix(0.5, -0.866, 0.866, 0.5, 0, 0.553)" fill="#7caecf"/>
            </g>
            <g id="Grupo_1205258" data-name="Grupo 1205258" transform="translate(14.028 7.179)">
              <path id="Trazado_1045169" data-name="Trazado 1045169" d="M267.956,110.921a2.6,2.6,0,1,1,3.549-.951A2.6,2.6,0,0,1,267.956,110.921Z" transform="translate(-266.656 -106.073)" fill="#7caecf"/>
            </g>
          </g>
          <g id="Grupo_1205262" data-name="Grupo 1205262" transform="translate(21.609 19.011)">
            <g id="Grupo_1205260" data-name="Grupo 1205260" transform="translate(0 2.279)">
              <rect id="Rectángulo_417115" data-name="Rectángulo 417115" width="19.011" height="0.637" fill="#7caecf"/>
            </g>
            <g id="Grupo_1205261" data-name="Grupo 1205261" transform="translate(16.413)">
              <path id="Trazado_1045170" data-name="Trazado 1045170" d="M272.667,98.535a2.6,2.6,0,1,1,2.6-2.6A2.6,2.6,0,0,1,272.667,98.535Z" transform="translate(-270.069 -93.34)" fill="#7caecf"/>
            </g>
          </g>
          <g id="Grupo_1205265" data-name="Grupo 1205265" transform="translate(21.445 9.505)">
            <g id="Grupo_1205263" data-name="Grupo 1205263" transform="translate(0 2.323)">
              <rect id="Rectángulo_417116" data-name="Rectángulo 417116" width="19.011" height="0.638" transform="matrix(0.866, -0.5, 0.5, 0.866, 0, 9.506)" fill="#7caecf"/>
            </g>
            <g id="Grupo_1205264" data-name="Grupo 1205264" transform="translate(14.029)">
              <path id="Trazado_1045171" data-name="Trazado 1045171" d="M270.553,85.453A2.6,2.6,0,1,1,271.5,81.9,2.6,2.6,0,0,1,270.553,85.453Z" transform="translate(-266.656 -80.605)" fill="#7caecf"/>
            </g>
          </g>
          <g id="Grupo_1205268" data-name="Grupo 1205268" transform="translate(21.333 2.546)">
            <g id="Grupo_1205266" data-name="Grupo 1205266" transform="translate(0 2.433)">
              <rect id="Rectángulo_417117" data-name="Rectángulo 417117" width="19.011" height="0.638" transform="translate(0 16.466) rotate(-60.007)" fill="#7caecf"/>
            </g>
            <g id="Grupo_1205267" data-name="Grupo 1205267" transform="translate(7.183)">
              <path id="Trazado_1045172" data-name="Trazado 1045172" d="M262.182,75.18a2.6,2.6,0,1,1-.951-3.549A2.6,2.6,0,0,1,262.182,75.18Z" transform="translate(-257.334 -71.283)" fill="#7caecf"/>
            </g>
          </g>
        </g>
      </g>
      <g id="Grupo_1205309" data-name="Grupo 1205309" transform="translate(320.726 169.793)">
        <g id="Grupo_1205308" data-name="Grupo 1205308">
          <g id="Grupo_1205271" data-name="Grupo 1205271" transform="translate(5.743 5.744)">
            <path id="Trazado_1045173" data-name="Trazado 1045173" d="M439.143,221.743a7.128,7.128,0,1,1-4.162-9.181A7.128,7.128,0,0,1,439.143,221.743Z" transform="translate(-425.342 -212.104)" fill="#7caecf"/>
          </g>
          <g id="Grupo_1205274" data-name="Grupo 1205274" transform="translate(12.681 0.581)">
            <g id="Grupo_1205272" data-name="Grupo 1205272" transform="translate(0 1.499)">
              <rect id="Rectángulo_417118" data-name="Rectángulo 417118" width="11.46" height="0.384" transform="translate(0 10.725) rotate(-69.378)" fill="#7caecf"/>
            </g>
            <g id="Grupo_1205273" data-name="Grupo 1205273" transform="translate(2.662)">
              <path id="Trazado_1045174" data-name="Trazado 1045174" d="M441.234,207.3a1.566,1.566,0,1,1-.914-2.017A1.566,1.566,0,0,1,441.234,207.3Z" transform="translate(-438.202 -205.187)" fill="#7caecf"/>
            </g>
          </g>
          <g id="Grupo_1205277" data-name="Grupo 1205277" transform="translate(9.438)">
            <g id="Grupo_1205275" data-name="Grupo 1205275" transform="translate(1.367 1.534)">
              <rect id="Rectángulo_417119" data-name="Rectángulo 417119" width="0.384" height="11.461" transform="translate(0 0.063) rotate(-9.381)" fill="#7caecf"/>
            </g>
            <g id="Grupo_1205276" data-name="Grupo 1205276">
              <path id="Trazado_1045175" data-name="Trazado 1045175" d="M433.4,205.72a1.566,1.566,0,1,1-1.8-1.29A1.566,1.566,0,0,1,433.4,205.72Z" transform="translate(-430.293 -204.409)" fill="#7caecf"/>
            </g>
          </g>
          <g id="Grupo_1205280" data-name="Grupo 1205280" transform="translate(4.037 2.449)">
            <g id="Grupo_1205278" data-name="Grupo 1205278" transform="translate(1.408 1.434)">
              <rect id="Rectángulo_417120" data-name="Rectángulo 417120" width="0.384" height="11.46" transform="translate(0 0.244) rotate(-39.384)" fill="#7caecf"/>
            </g>
            <g id="Grupo_1205279" data-name="Grupo 1205279">
              <path id="Trazado_1045176" data-name="Trazado 1045176" d="M425.832,208.263a1.566,1.566,0,1,1-2.2-.216A1.566,1.566,0,0,1,425.832,208.263Z" transform="translate(-423.057 -207.69)" fill="#7caecf"/>
            </g>
          </g>
          <g id="Grupo_1205283" data-name="Grupo 1205283" transform="translate(0.581 7.272)">
            <g id="Grupo_1205281" data-name="Grupo 1205281" transform="translate(1.479 1.397)">
              <rect id="Rectángulo_417121" data-name="Rectángulo 417121" width="0.384" height="11.46" transform="translate(0 0.36) rotate(-69.383)" fill="#7caecf"/>
            </g>
            <g id="Grupo_1205282" data-name="Grupo 1205282">
              <path id="Trazado_1045177" data-name="Trazado 1045177" d="M420.545,214.251a1.566,1.566,0,1,1-2.017.914A1.566,1.566,0,0,1,420.545,214.251Z" transform="translate(-418.427 -214.15)" fill="#7caecf"/>
            </g>
          </g>
          <g id="Grupo_1205286" data-name="Grupo 1205286" transform="translate(0 12.678)">
            <g id="Grupo_1205284" data-name="Grupo 1205284" transform="translate(1.546)">
              <rect id="Rectángulo_417122" data-name="Rectángulo 417122" width="11.46" height="0.384" transform="translate(0 1.865) rotate(-9.363)" fill="#7caecf"/>
            </g>
            <g id="Grupo_1205285" data-name="Grupo 1205285" transform="translate(0 0.497)">
              <path id="Trazado_1045178" data-name="Trazado 1045178" d="M418.96,222.08a1.566,1.566,0,1,1-1.29,1.8A1.566,1.566,0,0,1,418.96,222.08Z" transform="translate(-417.649 -222.059)" fill="#7caecf"/>
            </g>
          </g>
          <g id="Grupo_1205289" data-name="Grupo 1205289" transform="translate(2.449 12.719)">
            <g id="Grupo_1205287" data-name="Grupo 1205287" transform="translate(1.437)">
              <rect id="Rectángulo_417123" data-name="Rectángulo 417123" width="11.46" height="0.384" transform="translate(0 7.271) rotate(-39.384)" fill="#7caecf"/>
            </g>
            <g id="Grupo_1205288" data-name="Grupo 1205288" transform="translate(0 5.86)">
              <path id="Trazado_1045179" data-name="Trazado 1045179" d="M421.5,229.653a1.566,1.566,0,1,1-.217,2.2A1.566,1.566,0,0,1,421.5,229.653Z" transform="translate(-420.93 -229.298)" fill="#7caecf"/>
            </g>
          </g>
          <g id="Grupo_1205292" data-name="Grupo 1205292" transform="translate(7.272 12.824)">
            <g id="Grupo_1205290" data-name="Grupo 1205290" transform="translate(1.39)">
              <rect id="Rectángulo_417124" data-name="Rectángulo 417124" width="11.46" height="0.384" transform="translate(0 10.725) rotate(-69.378)" fill="#7caecf"/>
            </g>
            <g id="Grupo_1205291" data-name="Grupo 1205291" transform="translate(0 9.209)">
              <path id="Trazado_1045180" data-name="Trazado 1045180" d="M427.491,234.94a1.566,1.566,0,1,1,.914,2.017A1.566,1.566,0,0,1,427.491,234.94Z" transform="translate(-427.39 -233.925)" fill="#7caecf"/>
            </g>
          </g>
          <g id="Grupo_1205295" data-name="Grupo 1205295" transform="translate(12.672 12.848)">
            <g id="Grupo_1205293" data-name="Grupo 1205293">
              <rect id="Rectángulo_417125" data-name="Rectángulo 417125" width="0.384" height="11.46" transform="translate(0 0.063) rotate(-9.381)" fill="#7caecf"/>
            </g>
            <g id="Grupo_1205294" data-name="Grupo 1205294" transform="translate(0.503 9.765)">
              <path id="Trazado_1045181" data-name="Trazado 1045181" d="M435.32,236.524a1.566,1.566,0,1,1,1.8,1.29A1.566,1.566,0,0,1,435.32,236.524Z" transform="translate(-435.299 -234.703)" fill="#7caecf"/>
            </g>
          </g>
          <g id="Grupo_1205298" data-name="Grupo 1205298" transform="translate(12.716 12.743)">
            <g id="Grupo_1205296" data-name="Grupo 1205296">
              <rect id="Rectángulo_417126" data-name="Rectángulo 417126" width="0.384" height="11.46" transform="translate(0 0.244) rotate(-39.384)" fill="#7caecf"/>
            </g>
            <g id="Grupo_1205297" data-name="Grupo 1205297" transform="translate(5.863 7.423)">
              <path id="Trazado_1045182" data-name="Trazado 1045182" d="M442.893,233.983a1.566,1.566,0,1,1,2.2.216A1.565,1.565,0,0,1,442.893,233.983Z" transform="translate(-442.538 -231.424)" fill="#7caecf"/>
            </g>
          </g>
          <g id="Grupo_1205301" data-name="Grupo 1205301" transform="translate(12.786 12.705)">
            <g id="Grupo_1205299" data-name="Grupo 1205299">
              <rect id="Rectángulo_417127" data-name="Rectángulo 417127" width="0.384" height="11.46" transform="translate(0 0.36) rotate(-69.383)" fill="#7caecf"/>
            </g>
            <g id="Grupo_1205300" data-name="Grupo 1205300" transform="translate(9.247 2.638)">
              <path id="Trazado_1045183" data-name="Trazado 1045183" d="M448.18,227.994a1.566,1.566,0,1,1,2.017-.914A1.566,1.566,0,0,1,448.18,227.994Z" transform="translate(-447.165 -224.962)" fill="#7caecf"/>
            </g>
          </g>
          <g id="Grupo_1205304" data-name="Grupo 1205304" transform="translate(12.829 9.438)">
            <g id="Grupo_1205302" data-name="Grupo 1205302" transform="translate(0 1.389)">
              <rect id="Rectángulo_417128" data-name="Rectángulo 417128" width="11.46" height="0.384" transform="translate(0 1.868) rotate(-9.381)" fill="#7caecf"/>
            </g>
            <g id="Grupo_1205303" data-name="Grupo 1205303" transform="translate(9.785)">
              <path id="Trazado_1045184" data-name="Trazado 1045184" d="M449.764,220.164a1.566,1.566,0,1,1,1.29-1.8A1.566,1.566,0,0,1,449.764,220.164Z" transform="translate(-447.943 -217.053)" fill="#7caecf"/>
            </g>
          </g>
          <g id="Grupo_1205307" data-name="Grupo 1205307" transform="translate(12.742 4.037)">
            <g id="Grupo_1205305" data-name="Grupo 1205305" transform="translate(0 1.424)">
              <rect id="Rectángulo_417129" data-name="Rectángulo 417129" width="11.461" height="0.384" transform="translate(0 7.273) rotate(-39.392)" fill="#7caecf"/>
            </g>
            <g id="Grupo_1205306" data-name="Grupo 1205306" transform="translate(7.424)">
              <path id="Trazado_1045185" data-name="Trazado 1045185" d="M447.223,212.592a1.566,1.566,0,1,1,.217-2.2A1.566,1.566,0,0,1,447.223,212.592Z" transform="translate(-444.664 -209.817)" fill="#7caecf"/>
            </g>
          </g>
        </g>
      </g>
      <g id="Grupo_1205348" data-name="Grupo 1205348" transform="translate(56.575 162.663)">
        <g id="Grupo_1205347" data-name="Grupo 1205347">
          <g id="Grupo_1205310" data-name="Grupo 1205310" transform="translate(5.743 5.744)">
            <path id="Trazado_1045186" data-name="Trazado 1045186" d="M85.279,212.191a7.128,7.128,0,1,1-4.162-9.181A7.128,7.128,0,0,1,85.279,212.191Z" transform="translate(-71.477 -202.552)" fill="#7caecf"/>
          </g>
          <g id="Grupo_1205313" data-name="Grupo 1205313" transform="translate(12.689 0.581)">
            <g id="Grupo_1205311" data-name="Grupo 1205311" transform="translate(0 1.495)">
              <rect id="Rectángulo_417130" data-name="Rectángulo 417130" width="11.46" height="0.384" transform="translate(0 10.725) rotate(-69.378)" fill="#7caecf"/>
            </g>
            <g id="Grupo_1205312" data-name="Grupo 1205312" transform="translate(2.653)">
              <path id="Trazado_1045187" data-name="Trazado 1045187" d="M87.369,197.754a1.566,1.566,0,1,1-.914-2.017A1.566,1.566,0,0,1,87.369,197.754Z" transform="translate(-84.337 -195.636)" fill="#7caecf"/>
            </g>
          </g>
          <g id="Grupo_1205316" data-name="Grupo 1205316" transform="translate(9.438)">
            <g id="Grupo_1205314" data-name="Grupo 1205314" transform="translate(1.373 1.532)">
              <rect id="Rectángulo_417131" data-name="Rectángulo 417131" width="0.384" height="11.461" transform="translate(0 0.063) rotate(-9.381)" fill="#7caecf"/>
            </g>
            <g id="Grupo_1205315" data-name="Grupo 1205315">
              <path id="Trazado_1045188" data-name="Trazado 1045188" d="M79.539,196.169a1.566,1.566,0,1,1-1.8-1.29A1.566,1.566,0,0,1,79.539,196.169Z" transform="translate(-76.428 -194.858)" fill="#7caecf"/>
            </g>
          </g>
          <g id="Grupo_1205319" data-name="Grupo 1205319" transform="translate(4.036 2.449)">
            <g id="Grupo_1205317" data-name="Grupo 1205317" transform="translate(1.417 1.439)">
              <rect id="Rectángulo_417132" data-name="Rectángulo 417132" width="0.384" height="11.46" transform="translate(0 0.244) rotate(-39.384)" fill="#7caecf"/>
            </g>
            <g id="Grupo_1205318" data-name="Grupo 1205318">
              <path id="Trazado_1045189" data-name="Trazado 1045189" d="M71.967,198.712a1.566,1.566,0,1,1-2.2-.216A1.565,1.565,0,0,1,71.967,198.712Z" transform="translate(-69.191 -198.139)" fill="#7caecf"/>
            </g>
          </g>
          <g id="Grupo_1205322" data-name="Grupo 1205322" transform="translate(0.581 7.271)">
            <g id="Grupo_1205320" data-name="Grupo 1205320" transform="translate(1.489 1.385)">
              <rect id="Rectángulo_417133" data-name="Rectángulo 417133" width="0.384" height="11.46" transform="translate(0 0.36) rotate(-69.383)" fill="#7caecf"/>
            </g>
            <g id="Grupo_1205321" data-name="Grupo 1205321">
              <path id="Trazado_1045190" data-name="Trazado 1045190" d="M66.68,204.7a1.566,1.566,0,1,1-2.017.914A1.566,1.566,0,0,1,66.68,204.7Z" transform="translate(-64.562 -204.598)" fill="#7caecf"/>
            </g>
          </g>
          <g id="Grupo_1205325" data-name="Grupo 1205325" transform="translate(0 12.674)">
            <g id="Grupo_1205323" data-name="Grupo 1205323" transform="translate(1.54)">
              <rect id="Rectángulo_417134" data-name="Rectángulo 417134" width="11.46" height="0.384" transform="translate(0 1.867) rotate(-9.376)" fill="#7caecf"/>
            </g>
            <g id="Grupo_1205324" data-name="Grupo 1205324" transform="translate(0 0.501)">
              <path id="Trazado_1045191" data-name="Trazado 1045191" d="M65.095,212.529a1.566,1.566,0,1,1-1.29,1.8A1.566,1.566,0,0,1,65.095,212.529Z" transform="translate(-63.784 -212.508)" fill="#7caecf"/>
            </g>
          </g>
          <g id="Grupo_1205328" data-name="Grupo 1205328" transform="translate(2.449 12.72)">
            <g id="Grupo_1205326" data-name="Grupo 1205326" transform="translate(1.444)">
              <rect id="Rectángulo_417135" data-name="Rectángulo 417135" width="11.46" height="0.384" transform="translate(0 7.271) rotate(-39.384)" fill="#7caecf"/>
            </g>
            <g id="Grupo_1205327" data-name="Grupo 1205327" transform="translate(0 5.858)">
              <path id="Trazado_1045192" data-name="Trazado 1045192" d="M67.638,220.1a1.566,1.566,0,1,1-.216,2.2A1.566,1.566,0,0,1,67.638,220.1Z" transform="translate(-67.065 -219.746)" fill="#7caecf"/>
            </g>
          </g>
          <g id="Grupo_1205331" data-name="Grupo 1205331" transform="translate(7.272 12.814)">
            <g id="Grupo_1205329" data-name="Grupo 1205329" transform="translate(1.382)">
              <rect id="Rectángulo_417136" data-name="Rectángulo 417136" width="11.46" height="0.384" transform="translate(0 10.725) rotate(-69.378)" fill="#7caecf"/>
            </g>
            <g id="Grupo_1205330" data-name="Grupo 1205330" transform="translate(0 9.219)">
              <path id="Trazado_1045193" data-name="Trazado 1045193" d="M73.626,225.388a1.566,1.566,0,1,1,.914,2.017A1.566,1.566,0,0,1,73.626,225.388Z" transform="translate(-73.525 -224.373)" fill="#7caecf"/>
            </g>
          </g>
          <g id="Grupo_1205334" data-name="Grupo 1205334" transform="translate(12.678 12.84)">
            <g id="Grupo_1205332" data-name="Grupo 1205332">
              <rect id="Rectángulo_417137" data-name="Rectángulo 417137" width="0.384" height="11.46" transform="translate(0 0.063) rotate(-9.381)" fill="#7caecf"/>
            </g>
            <g id="Grupo_1205333" data-name="Grupo 1205333" transform="translate(0.497 9.774)">
              <path id="Trazado_1045194" data-name="Trazado 1045194" d="M81.455,226.973a1.566,1.566,0,1,1,1.8,1.29A1.566,1.566,0,0,1,81.455,226.973Z" transform="translate(-81.434 -225.152)" fill="#7caecf"/>
            </g>
          </g>
          <g id="Grupo_1205337" data-name="Grupo 1205337" transform="translate(12.725 12.745)">
            <g id="Grupo_1205335" data-name="Grupo 1205335">
              <rect id="Rectángulo_417138" data-name="Rectángulo 417138" width="0.384" height="11.46" transform="translate(0 0.244) rotate(-39.384)" fill="#7caecf"/>
            </g>
            <g id="Grupo_1205336" data-name="Grupo 1205336" transform="translate(5.854 7.42)">
              <path id="Trazado_1045195" data-name="Trazado 1045195" d="M89.028,224.431a1.566,1.566,0,1,1,2.2.216A1.566,1.566,0,0,1,89.028,224.431Z" transform="translate(-88.673 -221.872)" fill="#7caecf"/>
            </g>
          </g>
          <g id="Grupo_1205340" data-name="Grupo 1205340" transform="translate(12.796 12.691)">
            <g id="Grupo_1205338" data-name="Grupo 1205338">
              <rect id="Rectángulo_417139" data-name="Rectángulo 417139" width="0.384" height="11.46" transform="translate(0 0.36) rotate(-69.383)" fill="#7caecf"/>
            </g>
            <g id="Grupo_1205339" data-name="Grupo 1205339" transform="translate(9.237 2.651)">
              <path id="Trazado_1045196" data-name="Trazado 1045196" d="M94.315,218.442a1.566,1.566,0,1,1,2.017-.914A1.566,1.566,0,0,1,94.315,218.442Z" transform="translate(-93.3 -215.41)" fill="#7caecf"/>
            </g>
          </g>
          <g id="Grupo_1205343" data-name="Grupo 1205343" transform="translate(12.834 9.438)">
            <g id="Grupo_1205341" data-name="Grupo 1205341" transform="translate(0 1.377)">
              <rect id="Rectángulo_417140" data-name="Rectángulo 417140" width="11.46" height="0.384" transform="translate(0 1.868) rotate(-9.381)" fill="#7caecf"/>
            </g>
            <g id="Grupo_1205342" data-name="Grupo 1205342" transform="translate(9.779)">
              <path id="Trazado_1045197" data-name="Trazado 1045197" d="M95.9,210.613a1.566,1.566,0,1,1,1.29-1.8A1.566,1.566,0,0,1,95.9,210.613Z" transform="translate(-94.078 -207.502)" fill="#7caecf"/>
            </g>
          </g>
          <g id="Grupo_1205346" data-name="Grupo 1205346" transform="translate(12.748 4.036)">
            <g id="Grupo_1205344" data-name="Grupo 1205344" transform="translate(0 1.421)">
              <rect id="Rectángulo_417141" data-name="Rectángulo 417141" width="11.461" height="0.384" transform="matrix(0.773, -0.634, 0.634, 0.773, 0, 7.271)" fill="#7caecf"/>
            </g>
            <g id="Grupo_1205345" data-name="Grupo 1205345" transform="translate(7.417)">
              <path id="Trazado_1045198" data-name="Trazado 1045198" d="M93.358,203.04a1.566,1.566,0,1,1,.217-2.2A1.566,1.566,0,0,1,93.358,203.04Z" transform="translate(-90.799 -200.265)" fill="#7caecf"/>
            </g>
          </g>
        </g>
      </g>
      <ellipse id="Elipse_12715" data-name="Elipse 12715" cx="64.109" cy="7.38" rx="64.109" ry="7.38" transform="translate(183.013 344.515)" fill="#b6d0de"/>
      <g id="Grupo_1205350" data-name="Grupo 1205350" transform="translate(206.689 96.353)">
        <path id="Trazado_1045199" data-name="Trazado 1045199" d="M352.4,135.1a12.879,12.879,0,0,1,2.814,4.524c.79,2.781-.358,5.705-1.485,8.368q-4.94,11.671-9.881,23.342l-6.57-9.712c-1.8-2.662-3.635-5.4-4.373-8.528-1.431-6.07,1.634-11.124,3.819-16.452,1.747-4.26-3.122-3.9-5.014-5.935-2.392-2.57-.611-7.842.157-10.778a4.91,4.91,0,0,1,5.085-3.818,6.118,6.118,0,0,1,3.54,2.11c2.3,2.422,3.255,5.556,5.255,8.136C347.992,129.252,350.049,132.29,352.4,135.1Z" transform="translate(-281.519 -108.576)" fill="#40628f"/>
        <g id="Grupo_1205349" data-name="Grupo 1205349">
          <g id="POLYLINE_146_" transform="translate(19.727)">
            <path id="Trazado_1045200" data-name="Trazado 1045200" d="M301.654,110.156c2.142-1.044,3.842-2.671,6.158-3.471a10.1,10.1,0,0,1,7.164,0,6.571,6.571,0,0,1,4.108,5.588c1.685-.087,2.183.272,3.189,1.663,2.019,2.789,1.831,6.55,1.557,9.983-.229,2.866-.452,5.734-.687,8.6-.1,1.217-.128,1.592-1.2,2.19a8.035,8.035,0,0,1-3.661,1.122,3.61,3.61,0,0,1-3.333-1.435c-.9-1.4-1.981-2.706-3.873-1.93-1.591.653-2.354,2.631-3.972,3.216a3.679,3.679,0,0,1-3.7-1.082,10.82,10.82,0,0,1-2.051-3.489l-2.443-5.687c-.94-2.187-1.3-5.652-3.824-6.628a18.044,18.044,0,0,1-2.6-.915,1.984,1.984,0,0,1-1.072-2.286c1.427.514,2.872-.6,4.052-1.551q.289-.234.588-.467A30.8,30.8,0,0,1,301.654,110.156Z" transform="translate(-291.309 -106.026)" fill="#9c922a"/>
          </g>
          <path id="Trazado_1045201" data-name="Trazado 1045201" d="M296.076,144.366a2.291,2.291,0,0,0,1.3.8,2.363,2.363,0,0,0,2.558-1.341c-.086-.867-.4-7.537-2.64-6.238-.611.357-1.758,4.6-1.753,5.349A2.3,2.3,0,0,0,296.076,144.366Z" transform="translate(-272.654 -113.986)" fill="#f5906e"/>
          <g id="POLYLINE_145_" transform="translate(23.013 12.756)">
            <path id="Trazado_1045202" data-name="Trazado 1045202" d="M313.761,134.827a5.884,5.884,0,0,0,2.225,2.622c1.527.922,3.444.72,5.225.655a3.85,3.85,0,0,1,1.721.217c.935.417.776,1.132.993,1.931a20.275,20.275,0,0,0,1.471,3.085l-11.68,6.749a4.434,4.434,0,0,1-2.385.817c-.852-.051-1.618-.609-1.418-1.438.358-1.476-6.3.38-7.057.169-2.065-.572-2.673-2.538-3.382-4.353-2.416-6.189-4.831-13.186-3.269-19.873.163-.7.238-2.113,1.107-2.272a2.481,2.481,0,0,1,1.43.328c1.4.64,3.471,1.686,3.134,3.548-.279,1.541-.789,2.587.5,4,1.1,1.2,2.25,2.08,2.52,3.755.175,1.083-.229,2.866,1.055,3.365.744.29,2.146.609,2.635-.258a3.834,3.834,0,0,0,.208-1.932,12.219,12.219,0,0,1,.062-3.146,3.352,3.352,0,0,1,2.245-2.236c.861-.2,1.5.691,1.879,1.336C313.538,132.846,313.369,133.861,313.761,134.827Z" transform="translate(-295.711 -123.115)" fill="#ffb980"/>
          </g>
          <path id="Trazado_1045203" data-name="Trazado 1045203" d="M305.285,157.214l12.517-4.2v3.692Z" transform="translate(-275.125 -117.939)" fill="#f5906e"/>
          <g id="POLYLINE_143_" transform="translate(36.616 31.549)">
            <path id="Trazado_1045204" data-name="Trazado 1045204" d="M334.731,154.287a4.88,4.88,0,0,1-1.812.128c-1.235.078-2.466.211-3.7.334a46.032,46.032,0,0,0-6.832,1.035c-1.93.493-3.626,1.556-5.528,2.1a2.808,2.808,0,0,1-2.7-.36c-.646-.68.233-1.56.719-2.034a28.285,28.285,0,0,1,5.113-3.667,27.231,27.231,0,0,1,5.962-2.948,9.135,9.135,0,0,1,4.022-.515c1.269.2,2.048,1.4,2.817,2.319a19.239,19.239,0,0,1,1.75,2.323,1.9,1.9,0,0,1,.408,1.035C334.929,154.174,334.846,154.225,334.731,154.287Z" transform="translate(-313.934 -148.29)" fill="#fff"/>
          </g>
          <g id="POLYLINE_153_" transform="translate(39.284 241.237)">
            <path id="Trazado_1045205" data-name="Trazado 1045205" d="M335.043,429.2a14.038,14.038,0,0,0-1.68.985c-1.482,1.05-2.283,2.8-3.906,3.674-2.391,1.291-5.343,1.458-7.955,2.006-1.217.255-3.441.495-3.851,1.975a4.923,4.923,0,0,0,.378,3.361,4.419,4.419,0,0,0,3.322,2.057c3.232.638,6.733.292,10,.246,4.055-.056,8.105.171,12.157.291,2.419.072,7.994.953,8.443-2.737a23.782,23.782,0,0,0-.7-8.394" transform="translate(-317.508 -429.195)" fill="#3c464f"/>
          </g>
          <g id="POLYLINE_152_" transform="translate(39.493 123.757)">
            <path id="Trazado_1045206" data-name="Trazado 1045206" d="M350.233,287.375c-.221-3.154,1.3-7.35.193-10.183-1.587-4.049-7.5-4.979-11.2-5.254-4.162-.31-8.516-.137-12.24,1.747-6.857,3.468-9.853,12.04-9.074,19.685.9,8.872,6.712,15.588,8.663,23.934.92,3.933,2.451,7.724,3.221,11.688a13.236,13.236,0,0,0,.974,3.832,15.1,15.1,0,0,0,2.319,2.556c1.661,1.89,1.038,4.683,1.715,6.954a38.492,38.492,0,0,1,1.377,5.213c.3,1.939.429,3.9.53,5.861.212,4.135.27,8.278.56,12.409.277,3.942.817,7.831-.558,11.628a24.065,24.065,0,0,0-.907,2.7c-.381,1.641-.19,3.344-.564,4.947-.561,2.4-1.952,4.848-2.872,7.136a88.043,88.043,0,0,0,15.694,2.686,4.434,4.434,0,0,0,3.278-.624c1.943-1.659.223-5.908.584-8.164.225-1.414.8-2.739.9-4.172a56.529,56.529,0,0,0-.093-6.231c-.243-6.836,1.652-13.289,1.764-20.143.2-12.115-1.624-24.191-1.792-36.358-.13-9.431-1.367-18.659-2.171-27.993Q350.371,289.3,350.233,287.375Z" transform="translate(-317.788 -271.816)" fill="#345480"/>
          </g>
          <g id="POLYLINE_151_" transform="translate(0 236.518)">
            <path id="Trazado_1045207" data-name="Trazado 1045207" d="M283.147,429.8c-4.757,2.655-12.768,3.287-15.545,4.8-3.532,1.921-4.042,5.917.976,6.956,6.391,1.323,12.968,1.15,19.453.978,3.479-.093,12.947,1.459,15.483-1.522,2.143-2.519-.317-12.784-.508-15.864q-8.22-1.142-16.437-2.275C287.473,426.17,285.826,428.307,283.147,429.8Z" transform="translate(-264.882 -422.873)" fill="#3c464f"/>
          </g>
          <g id="POLYLINE_150_" transform="translate(16.402 123.045)">
            <path id="Trazado_1045208" data-name="Trazado 1045208" d="M327.473,293.854c2.956-6.537,5.627-13.13,6.937-20.1a168.587,168.587,0,0,0-24.868-2.846c-3.183-.126-6.541-.122-9.322,1.432-4.662,2.6-3.474,8.038-4.065,12.5-3.941,29.8-8.5,59.657-8.231,89.8.028,3.057.086,6.117.231,9.17.125,2.643-.62,4.934-1.3,7.522,7.4,2.033,15.248.932,22.38,3.225-.434-.141,1.015-9.259,1.035-10.372.071-4.008-.632-7.916-.208-11.953,1.756-16.729,2.429-33.694,6.217-50.138C318.557,312.2,323.3,303.086,327.473,293.854Z" transform="translate(-286.854 -270.861)" fill="#40628f"/>
          </g>
          <path id="Trazado_1045209" data-name="Trazado 1045209" d="M299.007,280.927l-.908,9.834,32.844-5.81,14.3-1.739-5.457-27.817Z" transform="translate(-273.303 -143.895)" fill="#345480"/>
          <g id="POLYLINE_149_" transform="translate(24.796 34.98)">
            <path id="Trazado_1045210" data-name="Trazado 1045210" d="M298.331,186.535c-.613,7.2.083,14.4.973,21.547a159.033,159.033,0,0,1-.691,41.72c-.421,2.762-.116,6.079,2.233,7.589,1.659,1.066,3.8.867,5.755.63l22.291-2.7c5.359-.649,10.971-1.394,15.356-4.542,8.615-6.185,3.266-14.411,2.268-22.6-.751-6.161-1.06-12.368-1.992-18.507-1.574-10.363.306-20.933-1.642-31.35-.766-4.094-.938-8.967-2.5-12.841-2.507-6.233-7.283-12.98-14.3-12.581a26.823,26.823,0,0,0-17.491,8.346C302.191,167.958,299.117,177.294,298.331,186.535Z" transform="translate(-298.099 -152.886)" fill="#40628f"/>
          </g>
          <path id="Trazado_1045211" data-name="Trazado 1045211" d="M303.309,255.337c-1.167,1.06-2.646,1.453-3.5,2.774-.985,1.518-1.326,4.34-1.9,6.1-.3.914-.443,2.2.441,2.577.858.368,1.686-.563,2.126-1.386s1.12-1.813,2.033-1.616a4.47,4.47,0,0,0-1.768,2.4c-.826,4.677,5.181-1.381,5.891-1.83,2.016-1.274,4.319-1.724,5.958-3.631,2.7-3.143,2.714-8.9-2.545-8.9a14.187,14.187,0,0,0-3.881.661Z" transform="translate(-273.197 -142.988)" fill="#ffb980"/>
          <path id="Trazado_1045212" data-name="Trazado 1045212" d="M299.833,210.14l19.226-26.672-8.7,33.5-9.043,8.08Z" transform="translate(-273.743 -125.66)" fill="#345480"/>
          <path id="Trazado_1045213" data-name="Trazado 1045213" d="M301.48,250.552c-2.247,3.685,2.346,8.11,5.937,7.332,2.738-.593,6.3-3.436,6.866-6.338s-2.821-5.982-4.711-7.889a76.725,76.725,0,0,0-7.227,5.99,3.958,3.958,0,0,0-1.521,1.989c-.184.831.458,1.871,1.3,1.731" transform="translate(-273.986 -140.919)" fill="#fff"/>
          <g id="POLYLINE_144_" transform="translate(11.52 39.78)">
            <path id="Trazado_1045214" data-name="Trazado 1045214" d="M297.444,169.443c-5.6,9.961-14.884,19.009-16.842,30.664-1.113,6.623,1.132,11.509,4.671,16.938,3.479,5.337,5.811,11.416,9.388,16.839,4.886-.6,10.6-1.782,12.607-6.277,1.44-3.227.332-7-1.182-10.2-2.54-5.359-7.741-11.324-6.5-17.479,1.023-5.081,5.175-9.574,8.224-13.55,5.7-7.43,14.711-18.092,4.277-25.753-4.738-3.479-9.132.6-12.141,4.827A44.581,44.581,0,0,0,297.444,169.443Z" transform="translate(-280.315 -159.316)" fill="#40628f"/>
          </g>
        </g>
        <path id="Trazado_1045215" data-name="Trazado 1045215" d="M340.667,126.9a7.806,7.806,0,0,0,.421-5.832c-.679-2.134-4.622-7.384-6.729-4.127a14.257,14.257,0,0,0-1.48,10.157c.6,2.333,2.905,5.2,5.457,3.293C339.363,129.621,340.066,128.019,340.667,126.9Z" transform="translate(-282.031 -108.531)" fill="#fff"/>
        <path id="Trazado_1045216" data-name="Trazado 1045216" d="M335.564,127.8a3.6,3.6,0,0,0,.785-.885,11.322,11.322,0,0,0,1.356-6.936,11.951,11.951,0,0,0-2.264-5.707c-.948-1.291-1.6-3.092-3.17-3.761a2,2,0,0,0-.629-.165,4.852,4.852,0,0,0-2.679.89l-3.211,1.835a2.426,2.426,0,0,0-1.1.979,1.663,1.663,0,0,0,.969,2.032,4.834,4.834,0,0,0,2.46.216,4.075,4.075,0,0,0-1.8.186,1.4,1.4,0,0,0-.911,1.426c.257,1.367,3.266,1.409,4.281,1.57a4.891,4.891,0,0,0-2.654-.339,1.688,1.688,0,0,0-1.325,2.007c.308.835,1.359,1.064,2.243,1.168l3.078.362a17.752,17.752,0,0,0-3.071.142c-.845.055-2.755.723-1.132,1.677a2.645,2.645,0,0,0,1.577.206c2.576-.223,2.03,1.853,3.373,3.256C332.823,129.1,334.472,128.7,335.564,127.8Z" transform="translate(-280.008 -107.12)" fill="#ffb980"/>
      </g>
      <g id="Grupo_1205351" data-name="Grupo 1205351" transform="translate(256.702 261.535)">
        <ellipse id="Elipse_12716" data-name="Elipse 12716" cx="19.776" cy="9.772" rx="19.776" ry="9.772" transform="translate(0.894 13.003) rotate(-13.626)" fill="#e07e1f"/>
        <rect id="Rectángulo_417142" data-name="Rectángulo 417142" width="39.551" height="4.628" transform="translate(2.105 18.002) rotate(-13.626)" fill="#e07e1f"/>
        <ellipse id="Elipse_12717" data-name="Elipse 12717" cx="19.776" cy="9.772" rx="19.776" ry="9.772" transform="translate(0 9.318) rotate(-13.626)" fill="#d4b951"/>
        <ellipse id="Elipse_12718" data-name="Elipse 12718" cx="14.161" cy="6.997" rx="14.161" ry="6.997" transform="translate(6.109 10.694) rotate(-13.626)" fill="#e07e1f"/>
        <path id="Trazado_1045217" data-name="Trazado 1045217" d="M354.928,339.333c6.756-1.638,12.954-.593,14.889,2.3a3.632,3.632,0,0,0-.07-1.277c-.911-3.756-7.81-5.307-15.411-3.464s-13.024,6.381-12.114,10.137a3.641,3.641,0,0,0,.523,1.167C343.14,344.738,348.172,340.971,354.928,339.333Z" transform="translate(-334.477 -329.541)" fill="#d6642b"/>
      </g>
      <g id="Grupo_1205352" data-name="Grupo 1205352" transform="translate(319.83 286.138)">
        <ellipse id="Elipse_12719" data-name="Elipse 12719" cx="11.494" cy="5.68" rx="11.494" ry="5.68" transform="translate(0.536 7.725) rotate(-14.07)" fill="#e07e1f"/>
        <rect id="Rectángulo_417143" data-name="Rectángulo 417143" width="22.988" height="2.69" transform="translate(1.262 10.625) rotate(-14.07)" fill="#e07e1f"/>
        <ellipse id="Elipse_12720" data-name="Elipse 12720" cx="11.494" cy="5.68" rx="11.494" ry="5.68" transform="translate(0 5.588) rotate(-14.07)" fill="#d4b951"/>
        <path id="Trazado_1045218" data-name="Trazado 1045218" d="M438.476,367.909c.546,2.179-2.586,4.841-7,5.946s-8.427.234-8.973-1.945,2.586-4.841,7-5.946S437.93,365.73,438.476,367.909Z" transform="translate(-417.969 -361.591)" fill="#e07e1f"/>
        <path id="Trazado_1045219" data-name="Trazado 1045219" d="M429.858,367.382c3.919-.982,7.527-.4,8.664,1.268a2.116,2.116,0,0,0-.046-.742c-.546-2.179-4.563-3.049-8.973-1.945s-7.542,3.767-7,5.946a2.1,2.1,0,0,0,.309.676C423.032,370.576,425.94,368.364,429.858,367.382Z" transform="translate(-417.969 -361.59)" fill="#d6642b"/>
      </g>
      <g id="Grupo_1205353" data-name="Grupo 1205353" transform="translate(35.35 208.664)">
        <path id="Trazado_1045220" data-name="Trazado 1045220" d="M185.541,309.054l-14.3,39.832-3.874,10.787s-33.569-19.513-70.482-13.31c-35.129,5.9-61.532-25.537-61.532-25.537l30.822-50.1a90.1,90.1,0,0,0,8.487,6.912c10.839,7.905,30.523,19.184,49.917,14.646C153.457,285.518,185.541,309.054,185.541,309.054Z" transform="translate(-35.35 -260.094)" fill="#2c9c83"/>
        <path id="Trazado_1045221" data-name="Trazado 1045221" d="M190.781,311.4l-14.3,39.832c-13.16-4.9-35.211-10.69-58.359-6.263-34.987,6.7-62.1-24.141-62.1-24.141L79.9,279.99c10.839,7.905,30.523,19.184,49.917,14.646C158.7,287.865,190.781,311.4,190.781,311.4Z" transform="translate(-40.59 -262.441)" fill="#248a73"/>
        <path id="Trazado_1045222" data-name="Trazado 1045222" d="M58.7,303.106l35.859-46.625s26.424,31.234,55.85,27.5,58.894,23,58.894,23l-23.329,48.458s-31.362-22.887-68.72-20.551C81.7,337.111,58.7,303.106,58.7,303.106Z" transform="translate(-41.27 -256.481)" fill="#43a892"/>
        <path id="Trazado_1045223" data-name="Trazado 1045223" d="M186.1,347.661c-11.587-6.616-33.9-17-59.832-17-1.978,0-3.97.061-5.92.184-.934.058-1.88.088-2.812.088-21.369,0-37.605-15.538-44.557-23.551l25.962-33.757c9.812,9.121,28.623,23.417,50.135,23.417a47.939,47.939,0,0,0,6.009-.378,37.537,37.537,0,0,1,4.7-.29c17.334,0,34.555,11.187,42.675,17.3Z" transform="translate(-44.89 -260.828)" fill="#74e0a3"/>
        <ellipse id="Elipse_12721" data-name="Elipse 12721" cx="13.731" cy="16.821" rx="13.731" ry="16.821" transform="translate(74.049 62.653) rotate(-81.471)" fill="#43a892"/>
        <path id="Trazado_1045224" data-name="Trazado 1045224" d="M114.5,279.138c-.7,4.668-5.9,7.756-11.621,6.9s-9.786-5.337-9.086-10,5.9-7.756,11.621-6.9S115.2,274.471,114.5,279.138Z" transform="translate(-50.147 -259.653)" fill="#43a892"/>
        <path id="Trazado_1045225" data-name="Trazado 1045225" d="M80.322,325.52c-3.735,2.885-9.629,1.514-13.163-3.062s-3.371-10.625.364-13.51,9.629-1.514,13.163,3.062S84.058,322.635,80.322,325.52Z" transform="translate(-42.769 -269.4)" fill="#43a892"/>
        <path id="Trazado_1045226" data-name="Trazado 1045226" d="M228.744,362.548c1.112,4.587-2.542,9.409-8.161,10.772s-11.076-1.252-12.188-5.839,2.542-9.409,8.161-10.772S227.633,357.962,228.744,362.548Z" transform="translate(-79.171 -281.8)" fill="#43a892"/>
        <path id="Trazado_1045227" data-name="Trazado 1045227" d="M244.5,330.765c-3.856,2.722-9.685,1.1-13.02-3.622s-2.914-10.759.941-13.481,9.685-1.1,13.02,3.622S248.354,328.042,244.5,330.765Z" transform="translate(-84.503 -270.643)" fill="#43a892"/>
      </g>
    </g>
  </g>
</svg>
