<svg xmlns="http://www.w3.org/2000/svg" xmlns:xlink="http://www.w3.org/1999/xlink" width="188.668" height="228.769" viewBox="0 0 188.668 228.769">
  <defs>
    <clipPath id="clip-path">
      <rect id="Rectángulo_416747" data-name="Rectángulo 416747" width="188.668" height="215.424" fill="#fff" stroke="#707070" stroke-width="1" opacity="0.75"/>
    </clipPath>
  </defs>
  <g id="Grupo_1202060" data-name="Grupo 1202060" transform="translate(-180.5 -1107)">
    <g id="Enmascarar_grupo_1098888" data-name="Enmascarar grupo 1098888" transform="translate(180.5 1107)" clip-path="url(#clip-path)">
      <g id="Grupo_1202057" data-name="Grupo 1202057" transform="translate(2.227 2.019)">
        <path id="Trazado_1043412" data-name="Trazado 1043412" d="M192.174,236.936s11.437-38.38-1.8-57.934-27.84-17.109-31.947-24.442S138.1,58.814,81.3,65.345C6.91,73.9,12.387,192.773,12.387,235.219,12.386,237.052,192.888,235.979,192.174,236.936Z" transform="translate(-12.297 -21.981)" fill="#b3cae6" opacity="0.6"/>
        <g id="Grupo_1202022" data-name="Grupo 1202022" transform="translate(0 0)">
          <path id="Trazado_1043422" data-name="Trazado 1043422" d="M126.876,180.98s8.287,45.238,4.834,49.729-13.468,6.561-14.5,6.561-14.5-51.455-14.5-51.455Z" transform="translate(-6.995 -30.455)" fill="#e3a184"/>
          <path id="Trazado_1043423" data-name="Trazado 1043423" d="M103.491,190.332c.353,1.339.774,2.924,1.242,4.693l23.948-.988c-1.179-7.455-2.206-13.057-2.206-13.057l-21.364,4.272Z" transform="translate(-6.594 -30.455)" fill="#d37458"/>
          <g id="Grupo_1202010" data-name="Grupo 1202010" transform="translate(0 98.284)">
            <path id="Trazado_1043424" data-name="Trazado 1043424" d="M95.51,152.636s37.391-.484,41.456,51.969l-34.544.89Z" transform="translate(-10.648 -143.135)" fill="#9ab4dd"/>
            <path id="Trazado_1043425" data-name="Trazado 1043425" d="M65.1,228.2s10.71-73.016,8.132-73.235c0,0-35.375,19.042-32.266,85.885.507,10.907,9.246,18.5,18.034,15.668" transform="translate(-38.45 -141.951)" fill="#e3a184"/>
            <path id="Trazado_1043426" data-name="Trazado 1043426" d="M41.954,199.564,67.308,202.1c.932-5.505.923-18.262,2.078-25.687l-.027-1.686-20.987,1.547A105.762,105.762,0,0,0,41.954,199.564Z" transform="translate(-37.848 -131.915)" fill="#d37458"/>
            <g id="Grupo_1202004" data-name="Grupo 1202004" transform="translate(0 10.569)">
              <path id="Trazado_1043427" data-name="Trazado 1043427" d="M80.028,153.344s-36.732,2.588-40.8,55.041l36.9-.858Z" transform="translate(-39.231 -153.344)" fill="#9ab4dd"/>
            </g>
            <path id="Trazado_1043428" data-name="Trazado 1043428" d="M62.988,197.813" transform="translate(-27.165 -120.19)" fill="#e3a184"/>
            <g id="Grupo_1202005" data-name="Grupo 1202005" transform="translate(24.164 2.578)">
              <path id="Trazado_1043429" data-name="Trazado 1043429" d="M96.382,148.054h0c-21.416-.449-39.115,15.212-39.529,34.98L55.27,255c-.312,8.4,4.652,10.581,13.753,10.5l56-1.529c8.672-.077,9.2-.657,9.278-8.663l.106-70.646C134.824,164.893,117.8,148.5,96.382,148.054Z" transform="translate(-55.256 -148.045)" fill="#bcc7dd"/>
            </g>
            <g id="Grupo_1202006" data-name="Grupo 1202006" transform="translate(17.743 2.578)">
              <path id="Trazado_1043430" data-name="Trazado 1043430" d="M98.545,148.054h0c-21.416-.449-39.115,15.212-39.529,34.98l-8,76.3c-.311,8.4,4.652,10.581,13.753,10.5l66.805.006c8.672-.077,9.2-.657,9.278-8.663l-4.276-76.513C136.987,164.893,119.961,148.5,98.545,148.054Z" transform="translate(-50.998 -148.045)" fill="#fff"/>
            </g>
            <g id="Grupo_1202007" data-name="Grupo 1202007" transform="translate(55.376 14.442)">
              <path id="Trazado_1043431" data-name="Trazado 1043431" d="M79.688,164.527s-4.29,74.689-3.672,76.854,10.26,12.684,9.281,12.684c-2.165,0,8.043-10.519,8.043-12.375s-5.918-77.472-5.918-77.472Z" transform="translate(-75.956 -151.695)" fill="#314783"/>
              <path id="Trazado_1043432" data-name="Trazado 1043432" d="M76.092,161.711l3.61,8.135h7.776l4.165-9.491S82.757,149.509,76.092,161.711Z" transform="translate(-75.886 -155.913)" fill="#33569c"/>
            </g>
            <path id="Trazado_1043433" data-name="Trazado 1043433" d="M76.387,149.162s-11.486,6.424-3.382,23L85.86,161.679,100.4,172.165s8.593-19.414-6.089-24.018S76.387,149.162,76.387,149.162Z" transform="translate(-23.548 -146.335)" fill="#99abd7"/>
            <path id="Trazado_1043434" data-name="Trazado 1043434" d="M54.518,199.409l-.294,2.809-3.142,33.721c.8,6.175,5.606,7.876,13.64,7.8l66.805.006c8.672-.077,9.2-.657,9.278-8.663l-1.549-27.7C104.309,217.662,74.377,209.085,54.518,199.409Z" transform="translate(-33.212 -119.38)" fill="#a1b3db" opacity="0.14"/>
            <g id="Grupo_1202009" data-name="Grupo 1202009" transform="translate(55.879 57.214)">
              <g id="Grupo_1202008" data-name="Grupo 1202008">
                <path id="Trazado_1043435" data-name="Trazado 1043435" d="M77.145,184.485c-.1-.027-.2-.053-.3-.077Z" transform="translate(-76.008 -184.212)" fill="#d37458"/>
                <path id="Trazado_1043436" data-name="Trazado 1043436" d="M76.53,184.332l-.241-.054C76.366,184.293,76.45,184.314,76.53,184.332Z" transform="translate(-76.289 -184.278)" fill="#d37458"/>
                <path id="Trazado_1043437" data-name="Trazado 1043437" d="M77.778,184.658l-.264-.072Z" transform="translate(-75.667 -184.122)" fill="#d37458"/>
                <path id="Trazado_1043438" data-name="Trazado 1043438" d="M79.576,185.2c-.128-.041-.256-.081-.382-.119Z" transform="translate(-74.813 -183.869)" fill="#d37458"/>
                <path id="Trazado_1043439" data-name="Trazado 1043439" d="M80.458,185.487l-.392-.127Z" transform="translate(-74.371 -183.728)" fill="#d37458"/>
                <path id="Trazado_1043440" data-name="Trazado 1043440" d="M78.59,184.9c-.06-.018-.125-.039-.185-.056Z" transform="translate(-75.214 -183.992)" fill="#d37458"/>
              </g>
            </g>
          </g>
          <g id="Grupo_1202011" data-name="Grupo 1202011" transform="translate(54.974 96.375)">
            <path id="Trazado_1043441" data-name="Trazado 1043441" d="M75.689,156.313c1.926,2.992,5.024,6.107,7.461,6.143,2.863.044,5.982-3.341,7.274-6.282l.166-10.881-14.729-.225Z" transform="translate(-75.689 -145.069)" fill="#e3a184"/>
            <path id="Trazado_1043442" data-name="Trazado 1043442" d="M90.472,151.157l.089-5.863-14.729-.225-.087,5.694a30.771,30.771,0,0,0,6.8,1.053A30.21,30.21,0,0,0,90.472,151.157Z" transform="translate(-75.661 -145.068)" fill="#d37458"/>
          </g>
          <path id="Trazado_1043443" data-name="Trazado 1043443" d="M53.319,207.048l66.154,17.386L112.068,239.3l-22.647-8.83-38.982-.386" transform="translate(-33.539 -17.216)" fill="#e3a184"/>
          <g id="Grupo_1202014" data-name="Grupo 1202014" transform="translate(104.593 170.632)">
            <path id="Trazado_1043444" data-name="Trazado 1043444" d="M156.38,202.835s-31.263-.092-41.174,5.9c-10.273,6.216-7.551,17.422,1.182,19.823,12.831,3.527,44.267-14.075,45.659-15.718S156.38,202.835,156.38,202.835Z" transform="translate(-108.595 -189.988)" fill="#e3a184"/>
            <g id="Grupo_1202013" data-name="Grupo 1202013" transform="translate(46.44)">
              <g id="Grupo_1202012" data-name="Grupo 1202012">
                <path id="Trazado_1043445" data-name="Trazado 1043445" d="M163.435,199.382l-12.9,2.435,1.113,4.834,12.9-2.435a2.429,2.429,0,0,0,2.113-2.873A2.787,2.787,0,0,0,163.435,199.382Z" transform="translate(-133.734 -191.764)" fill="#e3a184"/>
                <path id="Trazado_1043446" data-name="Trazado 1043446" d="M163.419,203.237l-13.107.733.472,4.938,13.107-.733a2.429,2.429,0,0,0,2.47-2.572A2.787,2.787,0,0,0,163.419,203.237Z" transform="translate(-133.847 -189.785)" fill="#e3a184"/>
                <path id="Trazado_1043447" data-name="Trazado 1043447" d="M150.188,195.1l-8.731,8.875,4.032,3.354,8.731-8.875a2.294,2.294,0,0,0-.178-3.474A2.941,2.941,0,0,0,150.188,195.1Z" transform="translate(-138.344 -194.315)" fill="#d37458"/>
                <path id="Trazado_1043448" data-name="Trazado 1043448" d="M161.691,206.66l-12.882,2.524,1.146,4.827,12.882-2.524a2.429,2.429,0,0,0,2.093-2.888A2.786,2.786,0,0,0,161.691,206.66Z" transform="translate(-134.61 -188.069)" fill="#e3a184"/>
                <path id="Trazado_1043449" data-name="Trazado 1043449" d="M140.494,203.915c2.705-5.249,9.543-7.334,15.272-4.658s8.18,9.1,5.475,14.349-9.543,7.334-15.272,4.658S137.789,209.162,140.494,203.915Z" transform="translate(-139.393 -192.398)" fill="#e3a184"/>
                <path id="Trazado_1043450" data-name="Trazado 1043450" d="M160.48,195.637l-11.813,5.272,2.369,4.451,11.813-5.272a2.338,2.338,0,0,0,1.273-3.269A2.889,2.889,0,0,0,160.48,195.637Z" transform="translate(-134.682 -193.762)" fill="#e3a184"/>
              </g>
            </g>
          </g>
          <g id="Grupo_1202016" data-name="Grupo 1202016" transform="translate(59.531 198.525)">
            <g id="Grupo_1202015" data-name="Grupo 1202015">
              <path id="Trazado_1043451" data-name="Trazado 1043451" d="M104.137,226.387l-11.683-6.6-2.318,4.51,11.683,6.6a2.481,2.481,0,0,0,3.544-.852A2.847,2.847,0,0,0,104.137,226.387Z" transform="translate(-72.908 -209.27)" fill="#e3a184"/>
              <path id="Trazado_1043452" data-name="Trazado 1043452" d="M101.388,229.849l-10.723-8.066-2.886,4.169L98.5,234.018a2.482,2.482,0,0,0,3.625-.383A2.847,2.847,0,0,0,101.388,229.849Z" transform="translate(-74.105 -208.258)" fill="#e3a184"/>
              <path id="Trazado_1043453" data-name="Trazado 1043453" d="M97.425,212.82,84.754,214l.939,5.278L98.364,218.1a2.345,2.345,0,0,0,2.15-2.832A3,3,0,0,0,97.425,212.82Z" transform="translate(-75.641 -212.813)" fill="#d37458"/>
              <path id="Trazado_1043454" data-name="Trazado 1043454" d="M97.988,230.9,86.26,224.382l-2.286,4.525L95.7,235.426a2.481,2.481,0,0,0,3.537-.876A2.848,2.848,0,0,0,97.988,230.9Z" transform="translate(-76.038 -206.938)" fill="#e3a184"/>
              <path id="Trazado_1043455" data-name="Trazado 1043455" d="M85.025,213.955c5.573-2.318,12.289.559,15,6.427s.394,12.5-5.18,14.82-12.289-.559-15-6.427S79.452,216.271,85.025,213.955Z" transform="translate(-78.711 -212.641)" fill="#e3a184"/>
              <path id="Trazado_1043456" data-name="Trazado 1043456" d="M104.552,220.719l-12.7-3.667-1.083,5.039,12.7,3.667a2.39,2.39,0,0,0,3.148-1.716A2.949,2.949,0,0,0,104.552,220.719Z" transform="translate(-72.588 -210.66)" fill="#e3a184"/>
            </g>
          </g>
          <g id="Grupo_1202021" data-name="Grupo 1202021" transform="translate(16.45)">
            <g id="Grupo_1202020" data-name="Grupo 1202020">
              <path id="Trazado_1043457" data-name="Trazado 1043457" d="M130.635,101.63c.071.606.884,25.342-.689,29.414l-74.316,8.4s-4.524-26.491-1.751-32.546Z" transform="translate(-48.699 -70.756)" fill="#28294a"/>
              <path id="Trazado_1043458" data-name="Trazado 1043458" d="M93.9,90.537l-8.9.772c-17.05,1.478-29.787,15.21-28.446,30.673l1.689,19.488c1.534,17.692,18.591,30.663,38.1,28.973h0c19.508-1.69,34.08-17.4,32.546-35.095L127.2,115.862C125.861,100.4,110.952,89.059,93.9,90.537Z" transform="translate(-46.933 -76.456)" fill="#28294a"/>
              <path id="Trazado_1043459" data-name="Trazado 1043459" d="M56.9,147.315s-6.7-27.374-6.755-34.969,3.714-12.629,12.422-12.154c0,0-.157-13.11,14.013-17.911S128,89.056,133.043,97.663s-3.747,29.221-3.747,29.221Z" transform="translate(-50.141 -81.155)" fill="#28294a"/>
              <g id="Grupo_1202017" data-name="Grupo 1202017" transform="translate(4.468 54.896)">
                <path id="Trazado_1043460" data-name="Trazado 1043460" d="M74.472,131.594a10.7,10.7,0,1,1-11.588-9.739A10.7,10.7,0,0,1,74.472,131.594Z" transform="translate(-53.104 -115.401)" fill="#e3a184"/>
                <path id="Trazado_1043461" data-name="Trazado 1043461" d="M54.392,131.5c-.532,2.746,1.945,5.537,5.535,6.234s6.932-.965,7.464-3.711-1.945-5.537-5.535-6.234S54.925,128.757,54.392,131.5Z" transform="translate(-52.486 -112.445)" fill="#d37458"/>
                <path id="Trazado_1043462" data-name="Trazado 1043462" d="M118.551,127.341a10.7,10.7,0,1,1-11.588-9.739A10.7,10.7,0,0,1,118.551,127.341Z" transform="translate(-30.717 -117.561)" fill="#e3a184"/>
                <path id="Trazado_1043463" data-name="Trazado 1043463" d="M102.051,131.114c1.255,2.5,4.92,3.2,8.189,1.558s4.9-5,3.648-7.5-4.92-3.2-8.189-1.559S100.8,128.614,102.051,131.114Z" transform="translate(-28.459 -114.936)" fill="#d37458"/>
                <path id="Trazado_1043464" data-name="Trazado 1043464" d="M55.547,128.642a6.065,6.065,0,0,1,8.245,1.743" transform="translate(-51.863 -112.409)" fill="none" stroke="#262425" stroke-linecap="round" stroke-linejoin="round" stroke-miterlimit="10" stroke-width="0.813"/>
                <path id="Trazado_1043465" data-name="Trazado 1043465" d="M101.478,127.145c2.72-5.294,9.845-3.726,9.845-3.726" transform="translate(-28.536 -114.696)" fill="none" stroke="#262425" stroke-linecap="round" stroke-linejoin="round" stroke-miterlimit="10" stroke-width="0.813"/>
              </g>
              <g id="Grupo_1202018" data-name="Grupo 1202018" transform="translate(13.433 24.812)">
                <path id="Trazado_1043466" data-name="Trazado 1043466" d="M93.308,97.718l-8.194.71a28.526,28.526,0,0,0-25.957,30.883l1.193,13.762a32.638,32.638,0,0,0,35.334,29.7h0a32.638,32.638,0,0,0,29.7-35.334l-1.193-13.764A28.527,28.527,0,0,0,93.308,97.718Z" transform="translate(-59.049 -97.61)" fill="#e3a184"/>
              </g>
              <path id="Trazado_1043467" data-name="Trazado 1043467" d="M64.5,108.507s4.107-5.083,14.412-3.109,30.245,13.275,36.823,10.949,8.934-17.181,8.934-17.181S62.678,76.631,64.5,108.507Z" transform="translate(-42.87 -75.934)" fill="#28294a"/>
              <g id="Grupo_1202019" data-name="Grupo 1202019" transform="translate(25.146 42.608)">
                <path id="Trazado_1043468" data-name="Trazado 1043468" d="M90.141,131.024s-8.966,2.487-13.063-1.576" transform="translate(-61.606 -99.236)" fill="none" stroke="#262425" stroke-linecap="round" stroke-linejoin="round" stroke-miterlimit="10" stroke-width="0.813"/>
                <path id="Trazado_1043469" data-name="Trazado 1043469" d="M78.839,122.264a3.222,3.222,0,1,1-3.631-2.755A3.222,3.222,0,0,1,78.839,122.264Z" transform="translate(-63.969 -104.299)" fill="#262425"/>
                <path id="Trazado_1043470" data-name="Trazado 1043470" d="M93.708,120.221a3.222,3.222,0,1,1-3.631-2.753A3.222,3.222,0,0,1,93.708,120.221Z" transform="translate(-56.418 -105.337)" fill="#262425"/>
                <path id="Trazado_1043471" data-name="Trazado 1043471" d="M82.574,117.869l2.147,10.7a15.185,15.185,0,0,1-3.319.991" transform="translate(-59.409 -105.117)" fill="none" stroke="#262425" stroke-linecap="round" stroke-linejoin="round" stroke-miterlimit="10" stroke-width="0.813"/>
                <path id="Trazado_1043472" data-name="Trazado 1043472" d="M72.806,112.244a8.223,8.223,0,0,0-5.989,5.326s14.085-3.655,14.207-4.451c.075-.495-4.21-1.885-8.218-.875" transform="translate(-66.817 -108.156)" fill="#25232a"/>
                <path id="Trazado_1043473" data-name="Trazado 1043473" d="M98.82,113.1s-14.551-.081-14.866-.825S93.756,105.745,98.82,113.1Z" transform="translate(-58.117 -109.412)" fill="#25232a"/>
              </g>
            </g>
          </g>
        </g>
        <g id="Grupo_1202056" data-name="Grupo 1202056" transform="translate(112.114 51.594)">
          <circle id="Elipse_12651" data-name="Elipse 12651" cx="32.26" cy="32.26" r="32.26" transform="translate(0)" fill="#fff"/>
          <path id="Trazado_1043419" data-name="Trazado 1043419" d="M166.207,153.2l-32.031-3.832A32.26,32.26,0,0,1,182.242,125.2Z" transform="translate(-133.947 -120.937)" fill="#34569c"/>
          <path id="Trazado_1043420" data-name="Trazado 1043420" d="M165.809,121.082l-3.228,32.1,16.035-27.992A32.252,32.252,0,0,0,165.809,121.082Z" transform="translate(-130.322 -120.919)" fill="#304986"/>
          <circle id="Elipse_12648" data-name="Elipse 12648" cx="32.26" cy="32.26" r="32.26" transform="translate(0)" fill="none" stroke="#6480bd" stroke-miterlimit="10" stroke-width="1.579"/>
          <g id="Grupo_1202000" data-name="Grupo 1202000" transform="translate(41.751 24.023)">
            <circle id="Elipse_12649" data-name="Elipse 12649" cx="9.093" cy="9.093" r="9.093" transform="translate(0 0)" fill="#9ab4dd"/>
            <text id="_70_" data-name="70%" transform="translate(2.443 10.001)" fill="#fff" font-size="5" font-family="SegoeUI, Segoe UI" letter-spacing="0em"><tspan x="0" y="0">70%</tspan></text>
          </g>
          <g id="Grupo_1202001" data-name="Grupo 1202001" transform="translate(35.115 44.756)">
            <path id="Trazado_1043421" data-name="Trazado 1043421" d="M179.59,167.866a7.238,7.238,0,1,1-7.238-7.238A7.239,7.239,0,0,1,179.59,167.866Z" transform="translate(-165.114 -160.628)" fill="#8a8dc3"/>
            <text id="_3_" data-name="3%" transform="translate(3.657 7.169)" fill="#fff" font-size="3" font-family="SegoeUI, Segoe UI"><tspan x="0" y="0">3%</tspan></text>
          </g>
        </g>
      </g>
    </g>
    <path id="Trazado_1043443-2" data-name="Trazado 1043443" d="M53.178,207.048l64.208,16.874-7.187,14.43-21.981-8.57L42.3,227.332" transform="translate(151.968 1093.253)" fill="#e3a184"/>
    <g id="Grupo_1202016-2" data-name="Grupo 1202016" transform="translate(242.727 1307.739)">
      <g id="Grupo_1202015-2" data-name="Grupo 1202015">
        <path id="Trazado_1043451-2" data-name="Trazado 1043451" d="M103.725,226.193l-11.339-6.4-2.249,4.377,11.339,6.4a2.408,2.408,0,0,0,3.439-.827A2.763,2.763,0,0,0,103.725,226.193Z" transform="translate(-73.415 -209.58)" fill="#e3a184"/>
        <path id="Trazado_1043452-2" data-name="Trazado 1043452" d="M100.987,229.611,90.58,221.783l-2.8,4.047,10.407,7.828a2.409,2.409,0,0,0,3.518-.372A2.763,2.763,0,0,0,100.987,229.611Z" transform="translate(-74.507 -208.655)" fill="#e3a184"/>
        <path id="Trazado_1043453-2" data-name="Trazado 1043453" d="M97.052,212.82l-12.3,1.146.912,5.122,12.3-1.146a2.276,2.276,0,0,0,2.087-2.749A2.916,2.916,0,0,0,97.052,212.82Z" transform="translate(-75.909 -212.813)" fill="#d37458"/>
        <path id="Trazado_1043454-2" data-name="Trazado 1043454" d="M97.576,230.709l-11.383-6.327-2.219,4.392L95.357,235.1a2.408,2.408,0,0,0,3.433-.85A2.764,2.764,0,0,0,97.576,230.709Z" transform="translate(-76.271 -207.451)" fill="#e3a184"/>
        <path id="Trazado_1043455-2" data-name="Trazado 1043455" d="M84.839,213.932c5.409-2.249,11.928.543,14.561,6.238s.382,12.134-5.027,14.384-11.928-.543-14.561-6.238S79.43,216.179,84.839,213.932Z" transform="translate(-78.711 -212.656)" fill="#e3a184"/>
        <path id="Trazado_1043456-2" data-name="Trazado 1043456" d="M104.146,220.611l-12.33-3.559-1.051,4.891L103.1,225.5a2.32,2.32,0,0,0,3.056-1.666A2.862,2.862,0,0,0,104.146,220.611Z" transform="translate(-73.123 -210.848)" fill="#e3a184"/>
      </g>
    </g>
  </g>
</svg>
