<svg xmlns="http://www.w3.org/2000/svg" xmlns:xlink="http://www.w3.org/1999/xlink" width="113" height="113" viewBox="0 0 113 113">
  <defs>
    <filter id="Trazado_982547" x="0" y="0" width="113" height="113" filterUnits="userSpaceOnUse">
      <feOffset dy="3" input="SourceAlpha"/>
      <feGaussianBlur stdDeviation="3" result="blur"/>
      <feFlood flood-opacity="0.161"/>
      <feComposite operator="in" in2="blur"/>
      <feComposite in="SourceGraphic"/>
    </filter>
  </defs>
  <g id="Grupo_1202705" data-name="Grupo 1202705" transform="translate(-146.239 -2184.005)">
    <g id="Grupo_1201799" data-name="Grupo 1201799" transform="translate(0 -2055.283)">
      <g id="Grupo_1184832" data-name="Grupo 1184832" transform="translate(155.239 4245.288)">
        <g id="Grupo_1183751" data-name="Grupo 1183751">
          <g id="Grupo_1173793" data-name="Grupo 1173793">
            <g id="Grupo_1167519" data-name="Grupo 1167519">
              <g id="Grupo_1166845" data-name="Grupo 1166845">
                <g id="Grupo_1166720" data-name="Grupo 1166720">
                  <g id="Grupo_1164305" data-name="Grupo 1164305">
                    <g id="Grupo_1163948" data-name="Grupo 1163948">
                      <g id="Grupo_1158168" data-name="Grupo 1158168">
                        <g id="Grupo_1152576" data-name="Grupo 1152576">
                          <g id="Grupo_1148633" data-name="Grupo 1148633">
                            <g id="Grupo_1148525" data-name="Grupo 1148525">
                              <g transform="matrix(1, 0, 0, 1, -9, -6)" filter="url(#Trazado_982547)">
                                <g id="Trazado_982547-2" data-name="Trazado 982547" transform="translate(9 6)" fill="#e4f2f4">
                                  <path d="M 47.5 93.5 C 41.28937149047852 93.5 35.26533508300781 92.28397369384766 29.59518623352051 89.88570404052734 C 24.11771965026855 87.56893157958984 19.19813346862793 84.25196075439453 14.97309303283691 80.02691650390625 C 10.74804019927979 75.80186462402344 7.431066513061523 70.88229370117188 5.114293098449707 65.40481567382812 C 2.716026782989502 59.73468017578125 1.5 53.71062850952148 1.5 47.5 C 1.5 41.28937149047852 2.716026782989502 35.26533508300781 5.114293098449707 29.59518623352051 C 7.431066513061523 24.11771965026855 10.74804019927979 19.19813346862793 14.97309303283691 14.97309303283691 C 19.19813346862793 10.74804019927979 24.11771965026855 7.431066513061523 29.59518623352051 5.114293098449707 C 35.26533508300781 2.716026782989502 41.28937149047852 1.5 47.5 1.5 C 53.71062850952148 1.5 59.73468017578125 2.716026782989502 65.40481567382812 5.114293098449707 C 70.88229370117188 7.431066513061523 75.80186462402344 10.74804019927979 80.02691650390625 14.97309303283691 C 84.25196075439453 19.19813346862793 87.56893157958984 24.11771965026855 89.88570404052734 29.59518623352051 C 92.28397369384766 35.26533508300781 93.5 41.28937149047852 93.5 47.5 C 93.5 53.71062850952148 92.28397369384766 59.73468017578125 89.88570404052734 65.40481567382812 C 87.56893157958984 70.88229370117188 84.25196075439453 75.80186462402344 80.02691650390625 80.02691650390625 C 75.80186462402344 84.25196075439453 70.88229370117188 87.56893157958984 65.40481567382812 89.88570404052734 C 59.73468017578125 92.28397369384766 53.71062850952148 93.5 47.5 93.5 Z" stroke="none"/>
                                  <path d="M 47.5 3 C 41.49121475219727 3 35.66376876831055 4.176155090332031 30.17950439453125 6.495796203613281 C 24.88084411621094 8.736953735351562 20.12152099609375 11.94598388671875 16.03375244140625 16.03375244140625 C 11.94598388671875 20.12152099609375 8.736953735351562 24.88084411621094 6.495796203613281 30.17950439453125 C 4.176155090332031 35.66376876831055 3 41.49121475219727 3 47.5 C 3 53.50878524780273 4.176155090332031 59.33623123168945 6.495796203613281 64.82049560546875 C 8.736953735351562 70.11915588378906 11.94598388671875 74.87847900390625 16.03375244140625 78.96624755859375 C 20.12152099609375 83.05401611328125 24.88084411621094 86.26304626464844 30.17950439453125 88.50419616699219 C 35.66376876831055 90.82384490966797 41.49121475219727 92 47.5 92 C 53.50878524780273 92 59.33623123168945 90.82384490966797 64.82049560546875 88.50419616699219 C 70.11915588378906 86.26304626464844 74.87847900390625 83.05401611328125 78.96624755859375 78.96624755859375 C 83.05401611328125 74.87847900390625 86.26304626464844 70.11915588378906 88.50419616699219 64.82049560546875 C 90.82384490966797 59.33623123168945 92 53.50878524780273 92 47.5 C 92 41.49121475219727 90.82384490966797 35.66376876831055 88.50419616699219 30.17950439453125 C 86.26304626464844 24.88084411621094 83.05401611328125 20.12152099609375 78.96624755859375 16.03375244140625 C 74.87847900390625 11.94598388671875 70.11915588378906 8.736953735351562 64.82049560546875 6.495796203613281 C 59.33623123168945 4.176155090332031 53.50878524780273 3 47.5 3 M 47.5 0 C 73.7335205078125 0 95 21.2664794921875 95 47.5 C 95 73.7335205078125 73.7335205078125 95 47.5 95 C 21.2664794921875 95 0 73.7335205078125 0 47.5 C 0 21.2664794921875 21.2664794921875 0 47.5 0 Z" stroke="none" fill="#01899b"/>
                                </g>
                              </g>
                            </g>
                          </g>
                        </g>
                      </g>
                    </g>
                  </g>
                </g>
              </g>
            </g>
          </g>
        </g>
      </g>
    </g>
    <g id="promocion" transform="translate(163.57 2189.708)">
      <path id="Trazado_1043905" data-name="Trazado 1043905" d="M372.979,37.2a10,10,0,0,0-18.425-1.335,9.982,9.982,0,0,0,4.238,13.291,1.121,1.121,0,0,1,.594.931l.15,2.784,1.715-2.194a1.121,1.121,0,0,1,1.025-.423,9.984,9.984,0,0,0,10.7-13.054Z" transform="translate(-303.861 -13.754)" fill="#ff6d7a"/>
      <path id="Trazado_1043906" data-name="Trazado 1043906" d="M52.762,47.133a7.736,7.736,0,0,0-7.053-5.708L43.1,31.7a3.226,3.226,0,0,0-6.323,1.186,27.087,27.087,0,0,1-16.77,13.287l-12.717,3.4A6.011,6.011,0,0,0,2.87,54.8l-.125.034A3.7,3.7,0,0,0,.129,59.356l.935,3.476A3.7,3.7,0,0,0,5.6,65.445l.121-.032a6,6,0,0,0,6.437,2.315l.392-.105,4.918,11.816A4.439,4.439,0,0,0,21.577,82.2a4.571,4.571,0,0,0,1.186-.157l.121-.032a4.479,4.479,0,0,0,3.168-5.483L24.56,70.969a4.363,4.363,0,0,0,2.033-4.9l-.546-2.036a27.137,27.137,0,0,1,20,3.416,3.227,3.227,0,0,0,6.073-2.13L49.509,55.6a7.722,7.722,0,0,0,3.253-8.465ZM3.233,62.25,2.3,58.774a1.453,1.453,0,0,1,.793-1.69l1.676,6.234A1.454,1.454,0,0,1,3.233,62.25Zm3.748.656L5.215,56.334A3.757,3.757,0,0,1,7.87,51.743l8.594-2.3,3.7,13.812-8.591,2.3a3.757,3.757,0,0,1-4.6-2.652ZM23.663,78.8A2.222,2.222,0,0,1,22.3,79.844l-.121.032a2.218,2.218,0,0,1-2.645-1.3l-4.8-11.538,6.013-1.61,3.135,11.687A2.2,2.2,0,0,1,23.663,78.8Zm-.744-13.953.952-.256.553,2.066a2.079,2.079,0,0,1-.213,1.591,2.138,2.138,0,0,1-.279.378Zm1.373-2.693-1.954.524-3.7-13.811,1.954-.522A29.32,29.32,0,0,0,37.56,35.966l7.627,28.429a29.356,29.356,0,0,0-20.895-2.242ZM49.259,67.1a.983.983,0,0,1-1.2-.692L39.034,32.788a.982.982,0,0,1,.692-1.2h0a.979.979,0,0,1,1.2.693L49.951,65.9A.984.984,0,0,1,49.259,67.1Zm-.373-13.839-2.551-9.508a5.468,5.468,0,0,1,2.551,9.508ZM71.25,22.74a12.242,12.242,0,1,0-17.935,14.33l.278,5.16a1.123,1.123,0,0,0,2.006.632l3.181-4.068A12.233,12.233,0,0,0,71.25,22.74Zm-2.684,8.328A10.012,10.012,0,0,1,58.414,36.5a1.123,1.123,0,0,0-1.025.423l-1.715,2.194-.15-2.784a1.122,1.122,0,0,0-.594-.931,9.991,9.991,0,1,1,13.637-4.336ZM64.5,43.994a1.122,1.122,0,0,1-.795,1.374l-5.869,1.569a1.094,1.094,0,0,1-.291.038,1.122,1.122,0,0,1-.289-2.207L63.122,43.2A1.123,1.123,0,0,1,64.5,43.994ZM63.171,54.05a1.123,1.123,0,0,1-.974.563,1.111,1.111,0,0,1-.56-.15l-5.26-3.032A1.124,1.124,0,1,1,57.5,49.483l5.26,3.032A1.124,1.124,0,0,1,63.171,54.05Zm.948-31.683-7.167,9.776a1.123,1.123,0,0,1-1.811-1.328l7.167-9.776a1.123,1.123,0,1,1,1.811,1.328Zm-5.577,2.29V23a2.5,2.5,0,0,0-5.009,0v1.654a2.5,2.5,0,0,0,5.009,0Zm-2.761,0V23a.258.258,0,0,1,.517,0v1.654a.258.258,0,0,1-.517,0Zm7.44,1.369a2.507,2.507,0,0,0-2.5,2.5v1.65a2.5,2.5,0,1,0,5.009,0v-1.65A2.505,2.505,0,0,0,63.22,26.025Zm.258,4.151a.258.258,0,1,1-.517,0v-1.65a.258.258,0,0,1,.517,0Z" transform="translate(0 0)"/>
      <path id="Trazado_1043907" data-name="Trazado 1043907" d="M164.2,372.17l-.952.255,1.014,3.781a2.138,2.138,0,0,0,.279-.378,2.079,2.079,0,0,0,.213-1.591Z" transform="translate(-140.329 -307.58)" fill="#ff6d7a"/>
      <path id="Trazado_1043908" data-name="Trazado 1043908" d="M334.3,227.737a5.486,5.486,0,0,0-4.258-3.957l2.551,9.508A5.474,5.474,0,0,0,334.3,227.737Z" transform="translate(-283.705 -180.021)" fill="#d7e6f0"/>
      <path id="Trazado_1043909" data-name="Trazado 1043909" d="M110.973,378.13l-6.013,1.61,4.8,11.538a2.218,2.218,0,0,0,2.645,1.3l.121-.032a2.226,2.226,0,0,0,1.359-1.046,2.2,2.2,0,0,0,.222-1.685Z" transform="translate(-90.222 -312.703)" fill="#d7e6f0"/>
      <path id="Trazado_1043910" data-name="Trazado 1043910" d="M115.109,411.716l-2.525-9.414a2.354,2.354,0,0,0-2.854-1.671l4.131,9.926a2.228,2.228,0,0,0,1.263,1.235A.752.752,0,0,0,115.109,411.716Z" transform="translate(-94.323 -331.983)" fill="#eef7ff"/>
      <path id="Trazado_1043911" data-name="Trazado 1043911" d="M138.369,194.457a29.356,29.356,0,0,1,20.895,2.242l-7.627-28.429a29.322,29.322,0,0,1-16.972,12.376l-1.954.522,3.7,13.811Z" transform="translate(-114.077 -132.304)" fill="#d7e6f0"/>
      <path id="Trazado_1043912" data-name="Trazado 1043912" d="M286.846,171.716a.982.982,0,0,0,1.9-.508l-9.021-33.62a.979.979,0,0,0-1.2-.693h0a.982.982,0,0,0-.692,1.2Z" transform="translate(-238.792 -105.304)" fill="#ff6d7a"/>
      <path id="Trazado_1043913" data-name="Trazado 1043913" d="M287.307,169.651l-8.75-32.611c-.015,0-.029,0-.045.008h0a.982.982,0,0,0-.692,1.2l8.75,32.615c.015,0,.032-.006.048-.01A.984.984,0,0,0,287.307,169.651Z" transform="translate(-238.783 -105.458)" fill="#ff8c95"/>
      <path id="Trazado_1043914" data-name="Trazado 1043914" d="M38.107,277.741a3.756,3.756,0,0,0,4.595,2.652l8.591-2.3-3.7-13.812-8.594,2.3a3.755,3.755,0,0,0-2.655,4.591Z" transform="translate(-31.126 -214.836)" fill="#ff6d7a"/>
      <path id="Trazado_1043915" data-name="Trazado 1043915" d="M134.991,182.558A29.7,29.7,0,0,0,152.131,170.1l-.494-1.84a29.322,29.322,0,0,1-16.972,12.376l-1.954.522.5,1.874Z" transform="translate(-114.077 -132.296)" fill="#eef7ff"/>
      <path id="Trazado_1043916" data-name="Trazado 1043916" d="M38.062,277.552a1.389,1.389,0,0,0,.96-1.694l-.852-3.171a3.757,3.757,0,0,1,2.655-4.591L48.1,266.15l-.5-1.86L39,266.589a3.755,3.755,0,0,0-2.655,4.591Z" transform="translate(-31.134 -214.845)" fill="#ff8c95"/>
      <path id="Trazado_1043917" data-name="Trazado 1043917" d="M16.985,323.866a1.454,1.454,0,0,0,1.533,1.068L16.843,318.7a1.454,1.454,0,0,0-.793,1.69Z" transform="translate(-13.752 -261.616)" fill="#eef7ff"/>
      <path id="Trazado_1043918" data-name="Trazado 1043918" d="M340.97,227.66l2.073,7.725a5.454,5.454,0,0,0-2.073-7.725Z" transform="translate(-293.101 -183.357)" fill="#eef7ff"/>
      <path id="Trazado_1043919" data-name="Trazado 1043919" d="M18.742,318.7a1.439,1.439,0,0,0-.532.425l1.534,5.708a1.474,1.474,0,0,0,.674.1Z" transform="translate(-15.651 -261.616)" fill="#d7e6f0"/>
      <path id="Trazado_1043920" data-name="Trazado 1043920" d="M360.538,50.089a1.122,1.122,0,0,0-.594-.931,9.983,9.983,0,0,1,4.113-18.78c-.191-.011-.383-.018-.577-.018a9.983,9.983,0,0,0-4.689,18.8,1.121,1.121,0,0,1,.594.931l.15,2.784,1.078-1.379Z" transform="translate(-303.861 -13.754)" fill="#ff8c95"/>
    </g>
  </g>
</svg>
