<svg xmlns="http://www.w3.org/2000/svg" xmlns:xlink="http://www.w3.org/1999/xlink" width="113" height="113" viewBox="0 0 113 113">
  <defs>
    <filter id="Trazado_982547" x="0" y="0" width="113" height="113" filterUnits="userSpaceOnUse">
      <feOffset dy="3" input="SourceAlpha"/>
      <feGaussianBlur stdDeviation="3" result="blur"/>
      <feFlood flood-opacity="0.161"/>
      <feComposite operator="in" in2="blur"/>
      <feComposite in="SourceGraphic"/>
    </filter>
  </defs>
  <g id="Grupo_1202635" data-name="Grupo 1202635" transform="translate(-614.12 -2459.971)">
    <g id="Grupo_1201748" data-name="Grupo 1201748" transform="translate(3.12 1916.971)">
      <g id="Grupo_1184772" data-name="Grupo 1184772" transform="translate(420.762 128)">
        <g id="Grupo_1183774" data-name="Grupo 1183774" transform="translate(-2.762 -669.432)">
          <g id="Grupo_1173793" data-name="Grupo 1173793" transform="translate(202 1090.432)">
            <g id="Grupo_1167519" data-name="Grupo 1167519">
              <g id="Grupo_1166845" data-name="Grupo 1166845">
                <g id="Grupo_1166720" data-name="Grupo 1166720">
                  <g id="Grupo_1164305" data-name="Grupo 1164305">
                    <g id="Grupo_1163948" data-name="Grupo 1163948">
                      <g id="Grupo_1158168" data-name="Grupo 1158168">
                        <g id="Grupo_1152576" data-name="Grupo 1152576">
                          <g id="Grupo_1148633" data-name="Grupo 1148633">
                            <g id="Grupo_1148525" data-name="Grupo 1148525">
                              <g transform="matrix(1, 0, 0, 1, -9, -6)" filter="url(#Trazado_982547)">
                                <g id="Trazado_982547-2" data-name="Trazado 982547" transform="translate(9 6)" fill="#e8edf7">
                                  <path d="M 47.5 93.5 C 41.28937149047852 93.5 35.26533508300781 92.28397369384766 29.59518623352051 89.88570404052734 C 24.11771965026855 87.56893157958984 19.19813346862793 84.25196075439453 14.97309303283691 80.02691650390625 C 10.74804019927979 75.80186462402344 7.431066513061523 70.88229370117188 5.114293098449707 65.40481567382812 C 2.716026782989502 59.73468017578125 1.5 53.71062850952148 1.5 47.5 C 1.5 41.28937149047852 2.716026782989502 35.26533508300781 5.114293098449707 29.59518623352051 C 7.431066513061523 24.11771965026855 10.74804019927979 19.19813346862793 14.97309303283691 14.97309303283691 C 19.19813346862793 10.74804019927979 24.11771965026855 7.431066513061523 29.59518623352051 5.114293098449707 C 35.26533508300781 2.716026782989502 41.28937149047852 1.5 47.5 1.5 C 53.71062850952148 1.5 59.73468017578125 2.716026782989502 65.40481567382812 5.114293098449707 C 70.88229370117188 7.431066513061523 75.80186462402344 10.74804019927979 80.02691650390625 14.97309303283691 C 84.25196075439453 19.19813346862793 87.56893157958984 24.11771965026855 89.88570404052734 29.59518623352051 C 92.28397369384766 35.26533508300781 93.5 41.28937149047852 93.5 47.5 C 93.5 53.71062850952148 92.28397369384766 59.73468017578125 89.88570404052734 65.40481567382812 C 87.56893157958984 70.88229370117188 84.25196075439453 75.80186462402344 80.02691650390625 80.02691650390625 C 75.80186462402344 84.25196075439453 70.88229370117188 87.56893157958984 65.40481567382812 89.88570404052734 C 59.73468017578125 92.28397369384766 53.71062850952148 93.5 47.5 93.5 Z" stroke="none"/>
                                  <path d="M 47.5 3 C 41.49121475219727 3 35.66376876831055 4.176155090332031 30.17950439453125 6.495796203613281 C 24.88084411621094 8.736953735351562 20.12152099609375 11.94598388671875 16.03375244140625 16.03375244140625 C 11.94598388671875 20.12152099609375 8.736953735351562 24.88084411621094 6.495796203613281 30.17950439453125 C 4.176155090332031 35.66376876831055 3 41.49121475219727 3 47.5 C 3 53.50878524780273 4.176155090332031 59.33623123168945 6.495796203613281 64.82049560546875 C 8.736953735351562 70.11915588378906 11.94598388671875 74.87847900390625 16.03375244140625 78.96624755859375 C 20.12152099609375 83.05401611328125 24.88084411621094 86.26304626464844 30.17950439453125 88.50419616699219 C 35.66376876831055 90.82384490966797 41.49121475219727 92 47.5 92 C 53.50878524780273 92 59.33623123168945 90.82384490966797 64.82049560546875 88.50419616699219 C 70.11915588378906 86.26304626464844 74.87847900390625 83.05401611328125 78.96624755859375 78.96624755859375 C 83.05401611328125 74.87847900390625 86.26304626464844 70.11915588378906 88.50419616699219 64.82049560546875 C 90.82384490966797 59.33623123168945 92 53.50878524780273 92 47.5 C 92 41.49121475219727 90.82384490966797 35.66376876831055 88.50419616699219 30.17950439453125 C 86.26304626464844 24.88084411621094 83.05401611328125 20.12152099609375 78.96624755859375 16.03375244140625 C 74.87847900390625 11.94598388671875 70.11915588378906 8.736953735351562 64.82049560546875 6.495796203613281 C 59.33623123168945 4.176155090332031 53.50878524780273 3 47.5 3 M 47.5 0 C 73.7335205078125 0 95 21.2664794921875 95 47.5 C 95 73.7335205078125 73.7335205078125 95 47.5 95 C 21.2664794921875 95 0 73.7335205078125 0 47.5 C 0 21.2664794921875 21.2664794921875 0 47.5 0 Z" stroke="none" fill="#2e5bb6"/>
                                </g>
                              </g>
                            </g>
                          </g>
                        </g>
                      </g>
                    </g>
                  </g>
                </g>
              </g>
            </g>
          </g>
        </g>
      </g>
    </g>
    <g id="economia-digital" transform="translate(639.06 2483.366)">
      <g id="Grupo_1202633" data-name="Grupo 1202633" transform="translate(0.882 0.882)">
        <g id="Grupo_1202632" data-name="Grupo 1202632">
          <g id="Grupo_1202622" data-name="Grupo 1202622" transform="translate(15.252 8.051)">
            <path id="Trazado_1043839" data-name="Trazado 1043839" d="M137.2,102.843l16.537-16.537a1.077,1.077,0,0,1,1.523,0l2.288,2.288a1.077,1.077,0,0,0,1.523,0L171.38,76.281a1.077,1.077,0,0,1,1.838.761v38.04h-30.41Z" transform="translate(-137.197 -75.964)" fill="#d6abec"/>
            <g id="Grupo_1202621" data-name="Grupo 1202621" transform="translate(31.317 0)">
              <path id="Trazado_1043840" data-name="Trazado 1043840" d="M406.368,76.281,403.5,79.147v35.935h4.7V77.043A1.077,1.077,0,0,0,406.368,76.281Z" transform="translate(-403.502 -75.964)" fill="#ca97e7"/>
            </g>
          </g>
          <g id="Grupo_1202626" data-name="Grupo 1202626" transform="translate(0 27.733)">
            <g id="Grupo_1202625" data-name="Grupo 1202625">
              <g id="Grupo_1202624" data-name="Grupo 1202624">
                <path id="Trazado_1043841" data-name="Trazado 1043841" d="M25.43,273.1l.611-2.875a11.9,11.9,0,0,0,2.628-1.075l2.493,1.618a1.187,1.187,0,0,0,1.486-.157l2.065-2.066a1.187,1.187,0,0,0,.156-1.486l-1.6-2.466a11.9,11.9,0,0,0,1.1-2.618l2.905-.619a1.187,1.187,0,0,0,.94-1.161v-2.922a1.187,1.187,0,0,0-.94-1.161l-2.875-.611a11.9,11.9,0,0,0-1.075-2.628l1.618-2.493a1.187,1.187,0,0,0-.157-1.486l-2.066-2.065a1.187,1.187,0,0,0-1.486-.156l-2.466,1.6a11.9,11.9,0,0,0-2.619-1.1l-.619-2.905a1.187,1.187,0,0,0-1.161-.94H21.444a1.187,1.187,0,0,0-1.161.94l-.611,2.875a11.9,11.9,0,0,0-2.628,1.075l-2.493-1.618a1.187,1.187,0,0,0-1.486.157L11,248.83a1.187,1.187,0,0,0-.156,1.486l1.6,2.466a11.9,11.9,0,0,0-1.1,2.618l-2.905.619a1.187,1.187,0,0,0-.94,1.161V260.1a1.187,1.187,0,0,0,.94,1.161l2.875.611a11.9,11.9,0,0,0,1.075,2.628L10.774,267a1.187,1.187,0,0,0,.157,1.486L13,270.546a1.187,1.187,0,0,0,1.486.156l2.466-1.6a11.9,11.9,0,0,0,2.619,1.1l.619,2.905a1.187,1.187,0,0,0,1.161.94h2.922A1.187,1.187,0,0,0,25.43,273.1Zm-2.572-7.165a7.251,7.251,0,1,1,7.249-7.252A7.251,7.251,0,0,1,22.858,265.94Z" transform="translate(-7.5 -243.333)" fill="#9ad4fe"/>
                <g id="Grupo_1202623" data-name="Grupo 1202623" transform="translate(6.976 6.977)">
                  <ellipse id="Elipse_12675" data-name="Elipse 12675" cx="8.38" cy="8.38" rx="8.38" ry="8.38" transform="translate(0 0)" fill="#ffcd55"/>
                  <path id="Trazado_1043842" data-name="Trazado 1043842" d="M120.437,302.66a8.38,8.38,0,0,0-2.352.337,8.379,8.379,0,0,1,0,16.086,8.38,8.38,0,1,0,2.352-16.422Z" transform="translate(-112.056 -302.66)" fill="#ffbe46"/>
                  <ellipse id="Elipse_12676" data-name="Elipse 12676" cx="4.575" cy="4.575" rx="4.575" ry="4.575" transform="translate(3.805 3.805)" fill="#fff4ca"/>
                </g>
              </g>
            </g>
          </g>
          <g id="Grupo_1202629" data-name="Grupo 1202629" transform="translate(0)">
            <g id="Grupo_1202628" data-name="Grupo 1202628">
              <path id="Trazado_1043843" data-name="Trazado 1043843" d="M73.631,90.5a1.981,1.981,0,1,1-1.716.991A1.981,1.981,0,0,1,73.631,90.5Z" transform="translate(-64.106 -80.739)" fill="#51d29e"/>
              <g id="Grupo_1202627" data-name="Grupo 1202627">
                <path id="Trazado_1043844" data-name="Trazado 1043844" d="M123.218,7.5a1.981,1.981,0,1,1-1.716.991A1.981,1.981,0,0,1,123.218,7.5Z" transform="translate(-107.861 -7.5)" fill="#ffcd55"/>
                <path id="Trazado_1043845" data-name="Trazado 1043845" d="M9.482,189.652a1.981,1.981,0,1,1-1.716.991,1.981,1.981,0,0,1,1.716-.991Z" transform="translate(-7.501 -168.231)" fill="#ffcd55"/>
              </g>
            </g>
          </g>
          <g id="Grupo_1202631" data-name="Grupo 1202631" transform="translate(25.588 45.063)">
            <path id="Trazado_1043846" data-name="Trazado 1043846" d="M243.721,442.6h9.9l4.457,1.5,4.457-1.5h9.9a1.035,1.035,0,0,1,1.034,1.035v4.035a1.035,1.035,0,0,1-1.034,1.034h-9.9l-4.457-1.3-4.457,1.3h-9.9a1.035,1.035,0,0,1-1.035-1.034v-4.035a1.035,1.035,0,0,1,1.035-1.035Z" transform="translate(-240.618 -436.493)" fill="#51d29e"/>
            <path id="Trazado_1043847" data-name="Trazado 1043847" d="M460.408,442.6h-4.7a1.035,1.035,0,0,1,1.035,1.035v4.035A1.035,1.035,0,0,1,455.7,448.7h4.7a1.035,1.035,0,0,0,1.035-1.034v-4.035A1.035,1.035,0,0,0,460.408,442.6Z" transform="translate(-428.585 -436.493)" fill="#00ca8d"/>
            <path id="Trazado_1043848" data-name="Trazado 1043848" d="M0,0H8.914V6.1H0Z" transform="translate(21.92 12.207) rotate(180)" fill="#f6f3f5"/>
            <g id="Grupo_1202630" data-name="Grupo 1202630" transform="translate(0 0)">
              <path id="Trazado_1043849" data-name="Trazado 1043849" d="M226.128,390.7h9.9l4.457,1.839,4.457-1.839h9.9a1.035,1.035,0,0,1,1.035,1.034v4.035a1.035,1.035,0,0,1-1.035,1.035h-9.9l-4.457-1.6-4.457,1.6h-9.9a1.035,1.035,0,0,1-1.035-1.035v-4.035A1.035,1.035,0,0,1,226.128,390.7Z" transform="translate(-225.093 -390.695)" fill="#51d29e"/>
              <path id="Trazado_1043850" data-name="Trazado 1043850" d="M442.814,390.7h-4.7a1.034,1.034,0,0,1,1.034,1.034v4.035a1.035,1.035,0,0,1-1.034,1.035h4.7a1.035,1.035,0,0,0,1.035-1.035v-4.035A1.034,1.034,0,0,0,442.814,390.7Z" transform="translate(-413.06 -390.695)" fill="#00ca8d"/>
              <path id="Trazado_1043851" data-name="Trazado 1043851" d="M0,0H8.914V6.1H0Z" transform="translate(19.851 6.104) rotate(180)" fill="#e8e5e8"/>
            </g>
          </g>
        </g>
      </g>
      <g id="Grupo_1202634" data-name="Grupo 1202634" transform="translate(0 0)">
        <path id="Trazado_1043852" data-name="Trazado 1043852" d="M157.729,26.64a.882.882,0,0,0,1.247,0l13.271-13.27a.2.2,0,0,1,.275,0l2.288,2.288a1.961,1.961,0,0,0,2.77,0L190.225,3.011v.6a.882.882,0,0,0,1.764,0V.882A.893.893,0,0,0,191.107,0h-2.734a.882.882,0,1,0,0,1.764h.6L176.332,14.409a.2.2,0,0,1-.275,0l-2.288-2.288a1.976,1.976,0,0,0-2.77,0l-13.27,13.271A.882.882,0,0,0,157.729,26.64Z" transform="translate(-138.952 0)"/>
        <path id="Trazado_1043853" data-name="Trazado 1043853" d="M68.582,295.16a9.26,9.26,0,0,0-7.757,14.321.882.882,0,0,0,1.476-.965,7.5,7.5,0,1,1,2.192,2.19.882.882,0,0,0-.963,1.478,9.261,9.261,0,1,0,5.051-17.023Z" transform="translate(-52.344 -260.45)"/>
        <path id="Trazado_1043854" data-name="Trazado 1043854" d="M97.136,338.429a5.457,5.457,0,1,0-5.457-5.457A5.463,5.463,0,0,0,97.136,338.429Zm0-9.149a3.693,3.693,0,1,1-3.693,3.693A3.7,3.7,0,0,1,97.136,329.28Z" transform="translate(-80.898 -289.001)"/>
        <path id="Trazado_1043855" data-name="Trazado 1043855" d="M2.874,27.147A2.922,2.922,0,0,0,5.6,25.166H9.536v3.058a.882.882,0,1,0,1.764,0V20.252h3.773a2.06,2.06,0,0,0,2.058-2.058V5.585a2.865,2.865,0,1,0-1.764,0V18.194a.294.294,0,0,1-.294.294H11.3V15.346a2.865,2.865,0,1,0-1.764,0V23.4H5.6a2.921,2.921,0,0,0-2.723-1.981,2.863,2.863,0,0,0,0,5.727ZM15.3,2.314a1.1,1.1,0,1,1,0,1.1,1.1,1.1,0,0,1,0-1.1ZM9.466,12.074a1.1,1.1,0,1,1,0,1.1,1.1,1.1,0,0,1,0-1.1ZM1.922,23.734a1.1,1.1,0,1,1,0,1.1,1.1,1.1,0,0,1,0-1.1Z" transform="translate(-0.011 0)"/>
        <path id="Trazado_1043856" data-name="Trazado 1043856" d="M58.294,111.752h-.16c0-.05.008-.1.008-.153v-4.035a1.919,1.919,0,0,0-1.916-1.916H53.037V80.93a.882.882,0,0,0-1.764,0v24.718h-18.8v-2.5a2.079,2.079,0,0,0-1.639-2.024l-2.363-.5a12.79,12.79,0,0,0-.749-1.829l1.336-2.059a2.079,2.079,0,0,0-.273-2.59l-2.066-2.066a2.08,2.08,0,0,0-2.59-.272L22.1,93.121q-.485-.249-.991-.455l12.18-12.18a.2.2,0,0,1,.275,0l2.288,2.288a1.961,1.961,0,0,0,2.77,0L50.94,70.46q.258-.153.332.138v6.8a.882.882,0,0,0,1.764,0V70.6a1.981,1.981,0,0,0-3.344-1.385L37.38,81.526a.2.2,0,0,1-.275,0l-2.288-2.288a1.961,1.961,0,0,0-2.77,0l-12,12-.273-1.283a2.079,2.079,0,0,0-2.024-1.638H14.826A2.079,2.079,0,0,0,12.8,89.958l-.5,2.363a12.8,12.8,0,0,0-1.829.749L8.413,91.735a2.079,2.079,0,0,0-2.59.273L3.758,94.075a2.079,2.079,0,0,0-.272,2.59L4.8,98.691a12.788,12.788,0,0,0-.765,1.822l-2.4.511A2.079,2.079,0,0,0,0,103.048v2.922a2.079,2.079,0,0,0,1.639,2.023L4,108.5a12.79,12.79,0,0,0,.749,1.829l-1.336,2.059a2.079,2.079,0,0,0,.273,2.59l2.066,2.066a2.079,2.079,0,0,0,2.59.272l2.027-1.316a12.8,12.8,0,0,0,1.823.765l.511,2.4a2.079,2.079,0,0,0,2.024,1.638h2.922a2.079,2.079,0,0,0,2.024-1.639l.5-2.363a12.8,12.8,0,0,0,1.829-.749l2.059,1.336a2.079,2.079,0,0,0,2.59-.273l1-1v1.6a1.919,1.919,0,0,0,1.916,1.916h28.72A1.919,1.919,0,0,0,60.21,117.7v-4.035a1.919,1.919,0,0,0-1.917-1.916Zm-1.916-4.187V111.6a.153.153,0,0,1-.153.153H47.2v-4.34h9.021A.153.153,0,0,1,56.377,107.565Zm-10.938-.153v4.34H38.29v-4.34ZM27.5,111.752a.153.153,0,0,1-.153-.153v-4.035a.153.153,0,0,1,.153-.153h9.021v4.34Zm-.033,2.041-2.065,2.066a.307.307,0,0,1-.382.04l-2.493-1.618a.882.882,0,0,0-.909-.031,11.03,11.03,0,0,1-2.433,1,.882.882,0,0,0-.629.667l-.611,2.875a.307.307,0,0,1-.3.242H14.729a.307.307,0,0,1-.3-.242l-.619-2.905a.882.882,0,0,0-.621-.664,11.031,11.031,0,0,1-2.424-1.019.882.882,0,0,0-.916.027l-2.466,1.6a.307.307,0,0,1-.382-.04l-2.066-2.066a.307.307,0,0,1-.04-.382l1.618-2.493a.882.882,0,0,0,.031-.909,11.026,11.026,0,0,1-1-2.433.882.882,0,0,0-.667-.629l-2.875-.611a.307.307,0,0,1-.242-.3v-2.922a.307.307,0,0,1,.242-.3l2.905-.619a.882.882,0,0,0,.664-.621,11.031,11.031,0,0,1,1.019-2.424.882.882,0,0,0-.027-.916L4.965,95.7a.307.307,0,0,1,.04-.382l2.066-2.066a.307.307,0,0,1,.382-.04l2.493,1.618a.882.882,0,0,0,.909.031,11.02,11.02,0,0,1,2.433-1,.882.882,0,0,0,.629-.667l.611-2.875a.307.307,0,0,1,.3-.242h2.922a.307.307,0,0,1,.3.242l.619,2.905a.882.882,0,0,0,.621.664,11.031,11.031,0,0,1,2.424,1.019.882.882,0,0,0,.916-.027l2.466-1.6a.307.307,0,0,1,.382.04l2.066,2.066a.307.307,0,0,1,.04.382l-1.618,2.493a.882.882,0,0,0-.031.909,11.026,11.026,0,0,1,1,2.433.882.882,0,0,0,.667.629l2.875.611a.307.307,0,0,1,.242.3v2.5H27.5a1.919,1.919,0,0,0-1.916,1.916V111.6a1.919,1.919,0,0,0,1.916,1.916h.049a.306.306,0,0,1-.082.277Zm1.95,3.91v-4.035a.153.153,0,0,1,.153-.153h9.021v4.34H29.574A.153.153,0,0,1,29.421,117.7Zm10.938.153v-4.34h7.15v4.34Zm18.087-.153a.153.153,0,0,1-.153.153H49.273v-4.34h9.021a.153.153,0,0,1,.153.153Z" transform="translate(0 -60.586)"/>
      </g>
    </g>
  </g>
</svg>
